<?xml version="1.0" encoding="UTF-8" standalone="no"?>
<svg
   id="a"
   data-name="Ebene 2"
   width="243"
   height="243"
   viewBox="0 0 243 243"
   version="1.1"
   sodipodi:docname="Favicon_mit_Outlines_grün_weiß.svg"
   inkscape:version="1.2.2 (b0a8486541, 2022-12-01)"
   xmlns:inkscape="http://www.inkscape.org/namespaces/inkscape"
   xmlns:sodipodi="http://sodipodi.sourceforge.net/DTD/sodipodi-0.dtd"
   xmlns="http://www.w3.org/2000/svg"
   xmlns:svg="http://www.w3.org/2000/svg">
  <defs
     id="defs27" />
  <sodipodi:namedview
     id="namedview25"
     pagecolor="#ffffff"
     bordercolor="#666666"
     borderopacity="1.0"
     inkscape:showpageshadow="2"
     inkscape:pageopacity="0.0"
     inkscape:pagecheckerboard="0"
     inkscape:deskcolor="#d1d1d1"
     showgrid="false"
     inkscape:zoom="3.4691358"
     inkscape:cx="121.5"
     inkscape:cy="121.78826"
     inkscape:window-width="1920"
     inkscape:window-height="1017"
     inkscape:window-x="1920"
     inkscape:window-y="0"
     inkscape:window-maximized="1"
     inkscape:current-layer="a" />
  <g
     id="g8">
    <path
       d="M71.69,56.01c-.39-.53-1.23-.52-1.73-.06-11.67,10.67-1.59,26.88-1.59,26.88,0,0,13.67-12.71,3.33-26.82Z"
       fill="#7da531"
       id="path2" />
    <path
       d="M92.03,64.72c-15.8-.61-20.02,18-20.02,18,0,0,18.66.57,21.22-16.74.1-.65-.51-1.23-1.19-1.26Z"
       fill="#7da531"
       id="path4" />
    <path
       d="M46.78,65.03c-.58.02-1.04.78-.95,1.47,2.41,19.17,19.51,16.03,19.51,16.03,0,0-2.75-18.07-18.56-17.5Z"
       fill="#7da531"
       id="path6" />
  </g>
  <path
     d="M74.54,181.77c-2.25,3.67-7.56,3.73-9.9.12-8.19-12.63-23.36-44.22-22.13-73.98,1.35-32.58,51.2-35.1,52.45-1.19,1.15,31.32-12.75,62.52-20.41,75.05Z"
     fill="#7da531"
     id="path10" />
  <g
     id="g22">
    <g
       id="g16">
      <path
         d="M125.12,23.15c-.66,0-1.32,0-1.98,0l.07.98c-7.57,61.78,8.26,106.45.88,185.81l.02,1.27c.92,0,1.84,0,2.77,0,109.78,0,113.89-6.45,113.89-101.56S192.12,23.15,125.12,23.15ZM197.41,184.19c-1.84.38-3.56-1.07-3.79-2.93l-1.87-17.52c-.12-.8-.69-1.45-1.47-1.67l-8.18-2.29c-.43-.12-.89-.07-1.29.13l-7.83,4.01c-.82.42-1.29,1.31-1.18,2.22l1.67,17.43c.18,1.79-1.06,3.46-2.84,3.7-17.73,2.45-24.97-30.08-5.72-41.31.87-.51,1.38-1.47,1.33-2.48l-2.27-35.49c-.06-.99-.7-1.92-1.66-2.17-17.83-4.65-23.7-36.35-5.08-45.15,2.06-.98,4.47.4,4.67,2.67l1.83,17.84c.14,1.62,1.24,2.99,2.78,3.5l7.1,2.79c1.2.4,2.52.22,3.58-.48l6.94-5.17c1.08-.72,2.13-1.97,2.03-3.26,0,0-1.54-11.6-2.13-18.84-.19-2.35,2.03-4.12,4.3-3.5,21.32,5.81,19.76,38.29,3.39,45.65-1.09.49-1.71,1.65-1.67,2.84.32,8.76,1.89,28.14,2.42,34.45.09,1.14.92,2.12,2.05,2.32,19.24,3.34,23.93,38.36,2.88,42.71Z"
         fill="#7da531"
         id="path12" />
      <path
         d="M168.75,189.4c-6.97,0-12.87-4.81-15.7-13-3.69-10.69-1.15-25.17,10.85-32.17.23-.13.36-.38.34-.66l-2.26-35.46c-.01-.21-.13-.35-.17-.36-7.96-2.08-16.57-10.37-17.87-24.23-1.04-11.09,3.73-20.54,12.43-24.66,1.56-.74,3.39-.67,4.89.19,1.5.86,2.48,2.39,2.64,4.11l1.83,17.81c.08.85.63,1.55,1.42,1.81l.1.04,7.04,2.76c.6.18,1.24.1,1.76-.23l6.98-5.19c.74-.49,1.13-1.13,1.14-1.41-.14-1.03-1.57-11.97-2.13-18.86-.14-1.76.55-3.41,1.91-4.53,1.36-1.13,3.2-1.52,4.91-1.06,9.89,2.69,16.33,11.06,17.21,22.37.93,11.92-4.63,23.03-13.53,27.04-.3.14-.51.52-.49.94.32,8.82,1.93,28.52,2.41,34.35.02.26.19.48.4.51,8.94,1.55,18.1,10.7,18.33,25.18.18,11.24-5.72,19.46-15.39,21.46-1.37.28-2.77-.02-3.94-.86-1.24-.89-2.06-2.27-2.25-3.79l-1.87-17.55-8.12-2.23-7.76,3.97c-.07.04-.12.12-.11.2l1.68,17.49c.29,2.9-1.72,5.48-4.55,5.87-.73.1-1.45.15-2.15.15ZM158.64,62.35c-.17,0-.35.03-.54.13-7.25,3.43-11.05,11.16-10.16,20.67.95,10.17,7.08,18.7,14.89,20.74,1.77.46,3.03,2.06,3.15,3.98l2.27,35.48c.09,1.8-.8,3.45-2.32,4.33-10.14,5.92-12.25,18.27-9.09,27.41,1.92,5.56,6.48,11.16,13.53,10.19.69-.1,1.19-.78,1.12-1.52l-1.67-17.44c-.21-1.69.7-3.39,2.26-4.19l7.83-4.01c.85-.43,1.82-.53,2.74-.27l8.18,2.29c1.54.43,2.68,1.73,2.91,3.31l1.88,17.6c.05.37.27.76.61.99.18.13.46.26.8.19,9.17-1.9,12.32-10.27,12.2-17.48-.15-9.09-5.46-19.65-15.02-21.3-2.01-.35-3.53-2.04-3.71-4.12-.49-5.85-2.1-25.63-2.42-34.54-.07-2.06,1.04-3.92,2.85-4.73,7.27-3.27,11.97-12.97,11.18-23.07-.75-9.55-6.09-16.59-14.28-18.82h0c-.47-.13-.94-.03-1.31.27-.2.16-.52.53-.48,1.13.58,7.11,2.11,18.62,2.12,18.74v.1c.19,2.19-1.35,4.04-2.86,5.06l-6.99,5.2c-1.58,1.04-3.51,1.3-5.31.71l-.1-.04-7.06-2.77c-2.27-.78-3.87-2.81-4.08-5.21l-1.83-17.81c-.06-.63-.47-.92-.64-1.02-.11-.06-.35-.17-.64-.17ZM181.56,161.7s0,0,0,0h0Z"
         id="path14" />
    </g>
    <path
       d="M97.18,66.56c.21-1.39-.2-2.83-1.12-3.93-.96-1.16-2.37-1.85-3.88-1.91-.31-.01-.61-.02-.92-.02-4.74,0-8.68,1.48-11.89,3.72-.44-3.48-1.79-7.13-4.46-10.77-.95-1.29-2.43-2.03-4.07-2.03h0c-1.33,0-2.6.49-3.59,1.39-4.15,3.79-6.09,8.26-6.69,12.72-3.26-2.78-7.54-4.71-13.05-4.71,0,0-.59,0-.88.02-1.34.05-2.62.68-3.52,1.74-.99,1.16-1.45,2.7-1.26,4.23,1.1,8.73,5.32,14.96,11.76,17.87h0c-7.27,4.45-12.67,12.16-13.12,22.96-1.25,30.12,14.14,62.33,22.45,75.15,1.46,2.25,3.92,3.59,6.6,3.59.04,0,.07,0,.1,0,2.71-.04,5.17-1.44,6.59-3.75,8.24-13.46,21.86-44.65,20.71-76.16-.41-11.18-5.67-18.56-12.69-22.58,0,0,0,0,0,0,7.25-3.33,11.72-9.38,12.92-17.51ZM69.96,55.96c.25-.22.57-.34.89-.34s.65.13.85.4c3.03,4.14,3.99,8.15,3.85,11.76t0,0c-3.39,3.64-5.59,8.06-6.77,11.67-.76-2.94-2.18-6.42-4.42-9.56-.22-4.61.98-9.71,5.6-13.93ZM45.83,66.5c-.09-.69.37-1.45.95-1.47.25,0,.49-.01.73-.01,12.17,0,16.28,11.28,17.43,15.73-2.08.33-4.14.86-6.12,1.6,0,0,0,0,0,0-5.11-1.03-11.58-4.59-13-15.84ZM92.95,106.79c.16,4.42,0,8.85-.39,13.23-2.08-.61-6.79-1.72-13.74-1.83-.01,0-.02,0-.03,0-1.09,0-1.98.87-2,1.97-.02,1.1.86,2.01,1.97,2.03,7.64.12,12.35,1.55,13.37,1.89-1.27,10.22-3.8,20.07-6.76,28.8-5.01-1.62-9.68-1.51-9.89-1.51-1.1.03-1.97.95-1.94,2.05s.92,1.97,2.05,1.94c.05,0,4.14-.09,8.44,1.28-3.8,10.42-8.07,18.93-11.22,24.07-.7,1.15-1.88,1.82-3.23,1.84-1.37.03-2.55-.62-3.29-1.76-5.15-7.94-13.09-23.54-17.85-41.35,5.74-2.47,13.45-2.58,13.52-2.58,1.1-.01,1.99-.91,1.98-2.02,0-1.1-.9-1.97-2.02-1.98-.35,0-8.09.1-14.48,2.65-1.76-7.47-2.9-15.25-3.01-22.96,1.36-.63,6.3-2.59,14.92-2.59,1.1,0,2-.9,2-2s-.9-2-2-2c-7.26,0-12.19,1.29-14.87,2.26,0-.08,0-.17,0-.25.64-15.52,13.22-23.63,25.33-23.63h.06c11.07.03,22.49,6.97,23.05,22.44ZM72.67,80.49h0c1.66-4.82,6.76-15.79,18.6-15.79.25,0,.5,0,.76.01.68.03,1.29.61,1.19,1.26-1.52,10.26-8.69,14.23-14.28,15.77,0,0,0,0,0,0-2.04-.65-4.15-1.06-6.27-1.26Z"
       id="path18" />
    <path
       d="M222.66,37.43c-17.73-17.45-46.16-17-79.07-16.48-5.97.09-12.15.19-18.47.19h-1.98c-2.42,0-4.8,0-7.16-.01-42.7-.1-76.39-.17-96.37,19.76C6.39,54.09.23,74.81.23,106.12c0,41.52,4.95,69.28,15.14,84.78-5.67,17.46-11.87,28.19-11.93,28.3-.35.6-.36,1.35-.03,1.96.33.61.96,1.01,1.66,1.04.07,0,.3.01.68.01,3.36,0,18.35-.76,36.88-13.27,16.68,4.32,39.98,4.3,74.91,4.27h6.58s2.77,0,2.77,0c58.09,0,84.75-2.17,99.46-15.64,15.66-14.34,16.43-41.37,16.43-87.92,0-35.76-6.39-58.7-20.11-72.21ZM117.53,209.21c-35.24.03-58.53.05-74.75-4.37-.57-.16-1.18-.05-1.66.28-14.45,9.96-26.83,12.35-32.52,12.92,2.35-4.57,6.74-13.9,10.88-26.84.19-.59.09-1.23-.26-1.74-10.09-14.64-14.99-41.9-14.99-83.34,0-30.17,5.79-50,18.21-62.4,17.49-17.45,47.25-18.6,84.93-18.6,2.82,0,5.69,0,8.6.01,1.69,0,3.39,0,5.1.01-.09.8-.17,1.58-.26,2.38-.1.9-.2,1.8-.29,2.7-.1.96-.18,1.92-.26,2.88-.08.88-.16,1.76-.23,2.64-.08.96-.14,1.91-.2,2.86-.06.86-.12,1.73-.18,2.59-.06.95-.1,1.88-.15,2.82-.04.85-.09,1.71-.13,2.55-.04.93-.06,1.85-.09,2.78-.03.85-.06,1.7-.08,2.54-.02.92-.03,1.82-.05,2.73-.01.84-.03,1.69-.04,2.53,0,.9,0,1.8,0,2.7,0,.84,0,1.69,0,2.53,0,.89.02,1.77.03,2.65.01.85.02,1.7.04,2.54.02.87.04,1.74.07,2.61.02.85.04,1.71.07,2.56.03.84.06,1.67.09,2.51.03.88.06,1.76.1,2.64.03.79.07,1.57.11,2.36.04.92.08,1.85.13,2.77.04.73.08,1.46.12,2.2.05.98.11,1.96.16,2.94.04.64.08,1.28.12,1.92.07,1.07.13,2.14.2,3.22.03.48.07.96.1,1.44.31,4.64.64,9.29.99,13.99.19,2.6.38,5.22.56,7.84.08,1.13.16,2.25.24,3.38.04.55.07,1.11.11,1.66.09,1.34.18,2.67.27,4.02.04.69.09,1.39.13,2.08.08,1.22.15,2.43.23,3.66.05.79.09,1.59.13,2.38.06,1.14.13,2.28.19,3.43.04.8.08,1.62.12,2.43.06,1.16.11,2.31.17,3.47.04.81.06,1.64.09,2.46.05,1.18.1,2.35.14,3.54.03.83.05,1.68.07,2.51.03,1.2.07,2.39.1,3.6.02.86.03,1.74.04,2.6.02,1.2.05,2.4.06,3.62,0,.91,0,1.84.01,2.75,0,1.2.02,2.39.01,3.61,0,.94-.02,1.9-.03,2.85-.01,1.22-.02,2.42-.04,3.66-.02.98-.05,1.98-.07,2.97-.03,1.23-.05,2.45-.09,3.7-.03,1.02-.08,2.06-.12,3.1-.05,1.25-.09,2.48-.15,3.75-.05,1.08-.12,2.19-.17,3.29-.07,1.24-.12,2.47-.2,3.73-.07,1.16-.16,2.34-.24,3.51-.08,1.23-.16,2.46-.26,3.71-.09,1.22-.21,2.47-.31,3.7-.1,1.15-.19,2.3-.3,3.47h-4.62ZM223.64,194.62c-13.72,12.56-39.76,14.59-96.76,14.59h-.71c.11-1.2.2-2.37.3-3.56.1-1.17.2-2.36.29-3.51.1-1.29.18-2.56.27-3.83.08-1.15.16-2.31.23-3.44.08-1.24.13-2.46.2-3.68.06-1.13.13-2.27.18-3.39.05-1.2.09-2.38.14-3.57.04-1.1.09-2.22.12-3.31.04-1.18.06-2.34.08-3.5.02-1.07.06-2.15.07-3.2.02-1.17.02-2.31.03-3.46,0-1.02.03-2.06.03-3.07,0-1.16,0-2.3-.01-3.45,0-.98,0-1.97-.01-2.94-.01-1.17-.04-2.31-.06-3.46-.02-.93-.03-1.87-.05-2.79-.03-1.18-.06-2.35-.1-3.52-.03-.87-.04-1.75-.07-2.61-.04-1.24-.09-2.47-.14-3.7-.03-.77-.06-1.54-.09-2.31-.06-1.35-.13-2.69-.19-4.03-.03-.63-.06-1.26-.09-1.88-.08-1.53-.17-3.05-.25-4.56-.02-.42-.05-.84-.07-1.26-.1-1.73-.21-3.44-.32-5.15-.01-.2-.02-.4-.04-.61-.37-5.74-.78-11.39-1.19-17-.13-1.72-.25-3.44-.37-5.15-.06-.79-.11-1.57-.17-2.36-.07-.93-.13-1.86-.2-2.78-.05-.79-.11-1.57-.16-2.36-.06-.92-.13-1.85-.19-2.77-.05-.82-.1-1.64-.15-2.46-.06-.88-.11-1.76-.16-2.64-.05-.84-.09-1.68-.14-2.52-.05-.86-.1-1.72-.14-2.59-.04-.85-.08-1.7-.12-2.55-.04-.85-.08-1.7-.12-2.56-.04-.83-.06-1.67-.09-2.5-.03-.88-.07-1.75-.1-2.63-.03-.81-.04-1.63-.06-2.45-.02-.9-.05-1.79-.07-2.69-.02-.82-.02-1.64-.03-2.46-.01-.9-.03-1.8-.03-2.7,0-.82,0-1.64,0-2.46,0-.91,0-1.82,0-2.74,0-.81.03-1.63.04-2.45.01-.93.03-1.85.05-2.79.02-.82.05-1.65.08-2.47.03-.94.06-1.87.1-2.82.03-.82.08-1.64.12-2.47.05-.96.09-1.92.15-2.88.05-.81.11-1.64.17-2.46.07-.98.13-1.96.21-2.95.07-.82.15-1.65.22-2.47.09-1,.17-2,.28-3.01.08-.82.18-1.66.27-2.49.1-.89.19-1.77.3-2.66h.01c6.36,0,12.55-.1,18.53-.19,33.33-.53,59.66-.95,76.2,15.33,12.91,12.7,18.92,34.74,18.92,69.36,0,45.43-.7,71.77-15.13,84.97Z"
       id="path20" />
  </g>
  <path
     style="fill:#ffffff;stroke-width:0"
     d="m 11.097638,213.23754 c 3.658994,-7.91408 8.503785,-20.79582 8.503785,-22.61057 0,-0.53632 -0.497758,-1.67457 -1.28377,-2.93568 C 10.798378,175.62711 6.3953942,156.01709 4.9121356,127.98577 3.7219893,105.49381 4.5216094,87.177366 7.2401885,74.658363 12.665464,49.675078 25.627687,35.826144 49.219751,29.807089 62.369899,26.452085 77.905125,25.24339 108.0657,25.228667 l 12.79703,-0.0062 -0.18943,1.945729 c -1.41689,14.553925 -1.7291,22.270038 -1.53663,37.977758 0.17951,14.649923 0.24293,15.940276 2.08259,42.373666 1.58914,22.83363 2.0396,30.58529 2.47078,42.5178 0.3641,10.07609 0.20009,30.9708 -0.31337,39.92348 -0.39472,6.88221 -1.11796,16.73825 -1.32731,18.08808 l -0.16765,1.08096 -13.59477,-0.009 c -15.395901,-0.01 -33.55344,-0.392 -40.402598,-0.85015 -9.30814,-0.62264 -18.177308,-1.81948 -23.439336,-3.163 -1.271643,-0.32468 -2.549771,-0.50006 -2.840284,-0.38974 -0.290516,0.11031 -1.760505,1.00465 -3.266644,1.98742 -7.523557,4.90919 -16.631865,8.73421 -24.677437,10.36325 -1.924989,0.38977 -3.7614431,0.70867 -4.0810097,0.70867 -0.5182821,0 -0.3543453,-0.4903 1.5180067,-4.54004 z m 62.045849,-27.46513 c 1.959162,-0.97901 2.52366,-1.62272 4.673271,-5.3291 7.503107,-12.93695 14.723721,-33.28755 17.436328,-49.1426 1.593068,-9.31141 2.306436,-20.9888 1.647315,-26.9656 -0.866536,-7.857593 -4.315343,-14.375778 -9.788349,-18.499811 l -2.327922,-1.754143 1.92733,-1.108195 c 2.444822,-1.405745 6.211901,-5.156336 7.627392,-7.594004 1.243226,-2.141008 2.655195,-6.298733 2.949412,-8.684935 0.253991,-2.059942 -0.464871,-3.840599 -2.034057,-5.038456 -1.002059,-0.764934 -1.323128,-0.841593 -3.902854,-0.931864 -3.393672,-0.11875 -6.576096,0.579854 -9.630712,2.114135 -1.109787,0.557427 -2.115081,1.012921 -2.233986,1.012209 -0.118906,-5.77e-4 -0.216192,-0.304157 -0.216192,-0.674324 0,-2.001648 -2.823657,-8.149271 -4.596993,-10.008498 -1.893895,-1.985626 -4.896573,-2.211501 -7.201617,-0.541737 -2.579559,1.868624 -5.445039,6.459813 -6.4991,10.413126 l -0.590992,2.216549 -1.955812,-1.258388 c -2.948204,-1.896905 -5.752335,-2.758021 -9.60268,-2.948867 -2.998338,-0.148619 -3.28617,-0.114452 -4.424174,0.525142 -0.731799,0.411296 -1.508797,1.181684 -1.948433,1.931868 -0.671554,1.145922 -0.719577,1.452341 -0.58834,3.75405 0.166119,2.913455 1.549861,7.35111 3.134634,10.05274 1.235996,2.107058 4.876131,5.769964 6.672973,6.714718 0.753069,0.395955 1.366421,0.784997 1.362999,0.864538 -0.0034,0.07954 -0.732473,0.663485 -1.620124,1.297649 -3.9107,2.793924 -7.752469,7.971181 -9.3432,12.59111 -1.495793,4.344208 -1.796799,7.051678 -1.628619,14.649108 0.152851,6.90494 0.534387,10.59924 1.808632,17.51247 2.281153,12.37607 7.607739,27.76116 14.078207,40.6629 1.866159,3.72102 5.693078,10.46148 6.694093,11.7905 2.404919,3.19295 6.544224,4.16533 10.12157,2.37771 z"
     id="path202" />
  <path
     style="fill:#ffffff;stroke-width:0"
     d="m 165.82044,184.78368 c -8.97497,-2.80371 -13.08338,-17.89166 -7.72047,-28.35308 0.54283,-1.05889 1.2491,-2.31124 1.56949,-2.78299 1.00889,-1.4855 3.80695,-4.14592 5.69531,-5.41515 1.21618,-0.81743 2.03101,-1.62298 2.46207,-2.43401 l 0.64428,-1.21222 -1.20715,-18.89276 c -0.72715,-11.38035 -1.34032,-19.15102 -1.54205,-19.54223 -0.6553,-1.27083 -1.52176,-1.93485 -3.29458,-2.5248 -6.41799,-2.13577 -11.46152,-8.18913 -13.5702,-16.287256 -0.96086,-3.690064 -1.08698,-9.224446 -0.2824,-12.392565 1.19476,-4.704526 3.76662,-8.502199 7.45837,-11.01319 1.23393,-0.839276 2.34304,-1.525956 2.4647,-1.525956 0.12165,0 0.44819,0.165993 0.72564,0.368872 0.42426,0.310223 0.66368,1.902853 1.50584,10.016904 1.09297,10.530462 1.3155,11.443442 3.1258,12.824224 0.51222,0.390687 2.90683,1.48974 5.32138,2.44234 6.6174,2.610742 7.03267,2.530965 13.86061,-2.662749 4.31278,-3.280533 5.18417,-4.382703 5.18562,-6.558986 4.8e-4,-0.713434 -0.31297,-3.826601 -0.69654,-6.918149 -1.17723,-9.488196 -1.42158,-12.637065 -1.01832,-13.122957 0.70469,-0.849107 2.65251,-0.335562 5.88995,1.552896 6.34159,3.699164 10.06569,11.574231 9.56093,20.217748 -0.2753,4.714156 -1.35865,8.410276 -3.58657,12.236511 -1.26,2.163922 -4.6632,5.621873 -6.3935,6.496362 -2.1763,1.099891 -2.93035,1.768051 -3.53309,3.130641 -0.52067,1.17708 -0.55887,1.67879 -0.38603,5.07105 0.24844,4.87598 1.20779,18.44952 1.87931,26.5896 0.67173,8.14275 0.94053,8.68146 4.80676,9.63327 6.21165,1.52921 10.99207,6.67282 13.24713,14.25359 1.11374,3.74399 1.30303,8.85935 0.45321,12.24733 -1.44371,5.75571 -4.67822,9.60507 -9.45051,11.24698 -2.10002,0.72251 -2.64262,0.70656 -2.98429,-0.0877 -0.15344,-0.35672 -0.72284,-4.76323 -1.26532,-9.79224 -0.85862,-7.9598 -1.06688,-9.25681 -1.60854,-10.0175 -0.34222,-0.4806 -0.85342,-0.99755 -1.136,-1.14879 -0.77355,-0.41399 -9.84762,-2.89467 -10.58841,-2.89467 -0.35467,0 -2.7103,1.0336 -5.23473,2.29689 -3.25776,1.63026 -4.86105,2.60574 -5.52422,3.36105 l -0.93435,1.06416 0.1305,2.7644 c 0.0718,1.52041 0.43818,6.02526 0.81424,10.01076 0.57339,6.07676 0.62154,7.32134 0.29827,7.71085 -0.48123,0.57986 -3.34764,0.60413 -5.14214,0.0435 z"
     id="path204" />
</svg>
