<?xml version="1.0" encoding="UTF-8"?>
<svg id="a" data-name="Ebene 2" xmlns="http://www.w3.org/2000/svg" width="203.78" height="178.7" viewBox="0 0 203.78 178.7">
  <path d="M108.6,9.53c-22.27-12.04-53.57-12.36-76.2-.76C12.92,19.04,4.32,40.59,1.27,60.45c-4.34,26.47,2.22,48.75,22.95,67.65,15.44,14.06,35.37,22.87,55.67,29.25,23.18,7.22,48.48,10.93,71.85,3.36,16.51-5.29,31.22-15.71,40.76-29.42,16.08-22.52,14.92-54.58-3.18-75.77-16.84-19.81-44.37-26.66-67.3-38.8-4.48-2.33-8.85-4.86-13.34-7.16l-.08-.04Z" fill="#fde7b4"/>
  <g>
    <path d="M34.27,100.74l95.18-55.9c5.68-3.34,12.64,1.58,11.4,8.05l-20.87,108.83c-1.25,6.52-9.64,8.47-13.64,3.17l-15.17-20.14c-1.59-2.11-4.76-2.06-6.29.09l-19.71,27.72c-2.42,3.4-7.11,4.24-10.56,1.89l-14.29-9.76c-3.54-2.42-4.41-7.27-1.92-10.76l19.03-26.74c1.52-2.13.54-5.13-1.94-5.96l-19.76-6.6c-6.24-2.08-7.12-10.54-1.45-13.87Z" fill="#ecab06"/>
    <path d="M58.9,178.68c-2.06,0-4.13-.59-5.94-1.83l-14.29-9.76c-2.37-1.62-3.95-4.06-4.45-6.89s.13-5.67,1.8-8l19.03-26.74c.25-.34.19-.68.13-.86-.06-.17-.21-.48-.61-.61l-19.76-6.6c-3.99-1.33-6.74-4.76-7.18-8.94-.44-4.18,1.54-8.11,5.17-10.24l95.18-55.9c3.63-2.13,8.03-1.95,11.47.48,3.44,2.43,5.09,6.51,4.3,10.65l-20.87,108.83c-.8,4.17-3.87,7.36-8.01,8.32-4.13.96-8.3-.55-10.86-3.95l-15.17-20.14c-.25-.34-.58-.38-.78-.38-.18,0-.53.06-.77.41l-19.71,27.72c-2.05,2.89-5.34,4.44-8.67,4.44ZM133.34,46.7c-.82,0-1.64.22-2.4.67l-95.18,55.9c-1.64.96-2.5,2.67-2.31,4.56.2,1.89,1.4,3.38,3.2,3.99l19.76,6.6c2.08.69,3.66,2.28,4.33,4.37.68,2.08.34,4.3-.93,6.08l-19.03,26.74c-.74,1.04-1.03,2.31-.8,3.57.22,1.26.93,2.35,1.99,3.07l14.29,9.76c2.11,1.44,5.03.92,6.51-1.16l19.71-27.72c1.28-1.8,3.27-2.84,5.48-2.87,2.22-.01,4.23.96,5.55,2.72l15.17,20.14c1.16,1.54,2.97,2.19,4.84,1.76,1.87-.43,3.21-1.82,3.57-3.71l20.87-108.83c.36-1.87-.36-3.65-1.91-4.75-.83-.59-1.77-.89-2.71-.89Z"/>
  </g>
  <path d="M160.26,46.51c-.78-1.46-.22-3.28,1.24-4.06l18.34-9.75c1.46-.78,3.28-.22,4.06,1.24.78,1.46.22,3.28-1.24,4.06l-18.34,9.75c-1.46.78-3.28.22-4.06-1.24Z"/>
  <path d="M133.06,26.54c-1.64-.23-2.78-1.75-2.55-3.39l2.89-20.57c.23-1.64,1.75-2.78,3.39-2.55s2.78,1.75,2.55,3.39l-2.89,20.57c-.23,1.64-1.75,2.78-3.39,2.55Z"/>
  <path d="M158.44,78.24c-.33-.69-.4-1.51-.13-2.29.55-1.56,2.26-2.39,3.82-1.84l20.11,7.04c1.56.55,2.39,2.26,1.84,3.82-.55,1.56-2.26,2.39-3.82,1.84l-20.11-7.04c-.78-.27-1.38-.84-1.71-1.53Z"/>
  <path d="M97.42,33.11c-.76-.12-1.47-.53-1.96-1.2l-12.5-17.25c-.97-1.34-.67-3.22.67-4.19s3.22-.67,4.19.67l12.5,17.25c.97,1.34.67,3.22-.67,4.19-.67.49-1.48.65-2.23.53Z"/>
</svg>