<?xml version="1.0" encoding="UTF-8"?>
<svg id="a" data-name="Ebene 2" xmlns="http://www.w3.org/2000/svg" width="209.64" height="186.2" viewBox="0 0 209.64 186.2">
  <path d="M93,10.18c-4.41-1.81-8.78-3.77-13.29-5.32C65.08-.1,48.23.44,34.54,8.28,5.33,24.99-3.18,64.95,1,98.25c6.49,52.83,52.95,71.15,95.02,80.59,20.47,4.45,46.45,11.79,66.49,3.82,14.38-5.61,24.66-18.93,33.04-32.53,7.39-12.15,14.15-25.83,14.1-40.75.03-14.38-6.2-27.9-14.26-39.12-21.78-30.11-55.94-45.3-89.04-55.24-4.48-1.41-8.93-3.02-13.25-4.81l-.08-.03Z" fill="#fdd9c2"/>
  <path d="M74.22,34.05c-1.62.33-3.21-.72-3.54-2.34l-4.15-20.35c-.33-1.62.72-3.21,2.34-3.54,1.62-.33,3.21.72,3.54,2.34l4.15,20.35c.33,1.62-.72,3.21-2.34,3.54Z"/>
  <path d="M55.67,45.97c-.98,1.34-2.86,1.63-4.19.65l-16.76-12.27c-1.34-.98-1.63-2.86-.65-4.19.98-1.34,2.86-1.63,4.19-.65l16.76,12.27c1.34.98,1.63,2.86.65,4.19Z"/>
  <path d="M46.85,65.7c.09,1.65-1.17,3.07-2.83,3.16l-20.74,1.17c-1.65.09-3.07-1.17-3.16-2.83-.09-1.65,1.17-3.07,2.83-3.16l20.74-1.17c1.65-.09,3.07,1.17,3.16,2.83Z"/>
  <g>
    <path d="M71.84,172.01c-5.13,3.3-11.94.09-12.7-5.97-2.63-21.15-2.47-70.78,17.47-107.95,21.83-40.69,86.93-13.13,67.58,30.87-17.87,40.63-54.84,71.81-72.35,83.05Z" fill="#ec6712"/>
    <g>
      <path d="M145.85,9.98c-.17-.92-1.25-1.42-2.17-1.14-21.46,6.39-18.62,33.27-18.62,33.27,0,0,25.27-7.76,20.8-32.13Z" fill="#7da631"/>
      <path d="M166.4,33.62c-19.75-10.53-36.63,10.58-36.63,10.58,0,0,23.43,12.24,37.38-8.24.52-.77.11-1.89-.74-2.34Z" fill="#7da631"/>
      <path d="M108.53,6.08c-.75-.33-1.8.35-2.12,1.28-8.76,25.93,14.97,32.47,14.97,32.47,0,0,7.65-24.74-12.85-33.76Z" fill="#7da631"/>
    </g>
  </g>
  <path d="M132.14,45.24c.1.07.21.13.31.2.03-.02.06-.03.09-.05-.14-.05-.28-.1-.41-.16Z"/>
  <path d="M173.15,33.38c-.53-2.16-1.96-4-3.93-5.05-4.54-2.42-9.32-3.65-14.2-3.65h0c-1.38,0-2.72.11-4.03.29,1.54-4.94,1.82-10.34.76-16.07-.65-3.55-3.83-6.14-7.55-6.14h0c-.76,0-1.51.11-2.23.32-6.85,2.04-12.32,5.99-16.22,11.62-2.92-6.28-7.91-11.08-14.79-14.11-.89-.39-1.85-.59-2.83-.59h0c-3.26,0-6.3,2.24-7.39,5.45-3.29,9.75-3,18.39.87,25.69.86,1.61,1.85,3.04,2.91,4.34-1.8.2-3.59.53-5.36.97-10.85,2.73-19.56,9.73-25.19,20.23-20.2,37.66-20.48,88.25-17.8,109.74.48,3.88,2.88,7.18,6.42,8.84,1.53.72,3.17,1.07,4.79,1.07,2.12,0,4.23-.6,6.08-1.79,18.82-12.08,55.48-43.45,73.47-84.36,6.31-14.35,4.31-26.9-1.96-36.35.11,0,.21.01.32.01,11.08,0,20.35-5.01,26.8-14.49,1.18-1.73,1.56-3.9,1.05-5.97ZM128.62,25.82c-.1-1.11-.26-2.19-.44-3.25,2.61-5.81,7.26-11.28,15.5-13.74.17-.05.35-.08.52-.08.77,0,1.51.47,1.65,1.22,1.26,6.88.15,12.43-2.08,16.86-7,2.67-12.48,7.23-15.65,10.34.49-2.9.9-6.95.51-11.36ZM106.42,7.37c.26-.77,1.02-1.37,1.7-1.37.14,0,.28.03.42.08,8.24,3.63,11.92,9.79,13.39,15.86h0c.27,1.12.47,2.24.6,3.34,0,.03,0,.06,0,.08.06.51.11,1.01.14,1.5,0,.06,0,.12.01.18.03.48.05.96.07,1.42,0,.04,0,.08,0,.13.05,2.07-.09,3.99-.29,5.64,0,.03,0,.07-.01.1-.05.38-.1.74-.15,1.09,0,.03,0,.06-.01.09-.09.6-.19,1.14-.28,1.63-2.99-.92-6.03-1.51-9.09-1.77-5.79-4.51-11.59-13.02-6.52-28.01ZM141.44,87.75c-2.49,5.66-5.39,11.15-8.55,16.43-2.36-2.12-7.65-6.36-16.26-10.71-1.48-.74-3.28-.15-4.03,1.33-.75,1.48-.15,3.28,1.33,4.03,9.38,4.73,14.47,9.32,15.74,10.54-7.88,12.13-17.1,23.04-26.18,32.28-5.38-5.11-11.32-7.82-11.6-7.94-1.51-.68-3.28,0-3.96,1.5-.68,1.51,0,3.28,1.5,3.97.06.03,5.21,2.4,9.8,6.7-11.22,10.86-21.86,19.03-29.01,23.61-1.55,1-3.41,1.12-5.08.34-1.68-.79-2.78-2.3-3.01-4.15-1.65-13.27-2.15-37.97,2.75-63.54,8.76.44,18.52,5.01,18.62,5.05.41.2.85.29,1.28.29,1.12,0,2.2-.63,2.71-1.72.71-1.5.07-3.28-1.43-3.99-.44-.21-10.28-4.82-19.96-5.56,2.35-10.5,5.67-21,10.24-30.79,2.24.06,9.66.68,20.43,5.89.42.2.87.3,1.31.3,1.11,0,2.18-.62,2.7-1.69.72-1.49.1-3.29-1.39-4.01-9.07-4.39-16.08-5.84-20.16-6.3.02-.03.03-.06.05-.09,6.89-12.84,18.46-18.27,29.97-18.27,5.81,0,11.61,1.39,16.77,3.9,14.02,6.83,24.23,22.65,15.45,42.61ZM167.14,35.97c-6.35,9.33-14.67,11.87-21.85,11.87-2.05,0-4-.21-5.78-.52-2.25-2.15-4.74-4.05-7.4-5.65,2.99-2.98,8.65-7.77,15.78-9.9,0,0,0,0,0,0,2.24-.67,4.63-1.07,7.12-1.07,3.6,0,7.43.84,11.38,2.95.85.45,1.27,1.57.74,2.34Z"/>
</svg>