<?xml version="1.0" encoding="UTF-8"?>
<svg id="a" data-name="Ebene 2" xmlns="http://www.w3.org/2000/svg" width="204.02" height="180.19" viewBox="0 0 204.02 180.19">
  <g>
    <path d="M77.93,4.64C21.04-12.82-12.17,53.3,4.16,101.08c4.24,12.58,12.38,23.55,22.56,32,20.78,17.12,56.3,32.01,82.84,36.47,32.85,5.88,71.86-3.68,88.06-35.16,14.03-27.6,3.49-52.33-17.42-72.55-22.26-22.57-51.69-35.15-80.02-48.21-7.25-3.3-14.58-6.64-22.18-8.97l-.08-.02Z" fill="#e3e8ca"/>
    <g>
      <path d="M156.43,21.39c20.39,22.72-5.78,59.25-30.28,55.52-1.63-.25-3.22.63-4.06,2.04-6.19,10.4-23.06,42.54-23.21,43.24-.28,1.27.16,2.09.84,2.79,17.03,17.2,1.97,57.15-28.68,51.73-2.55-.45-3.33-3.92-2.2-6.25l10.96-21.73c.46-1.02.28-2.21-.46-3.05l-7.77-8.79c-.41-.46-.98-.75-1.59-.82l-12.1-1.22c-1.27-.13-2.48.55-3.03,1.7l-11.13,21.49c-1.14,2.21-3.82,3.22-6.07,2.17-22.41-10.44-6.43-53.63,24.33-52.24,1.39.06,2.71-.67,3.41-1.88l23.97-42.89c.67-1.2.63-2.75-.3-3.76-17.21-18.76-.26-59.95,27.95-56.22,3.13.41,4.89,3.82,3.42,6.61l-11.25,22.07c-1.04,1.99-.81,4.4.6,6.15l6.15,8.56c1.1,1.36,2.76,2.15,4.51,2.13l11.93-.8c1.8-.02,3.95-.68,4.8-2.26,0,0,6.91-14.62,11.65-23.46,1.54-2.87,5.44-3.26,7.61-.84Z" fill="#7da631"/>
      <path d="M76.44,180.19c-1.95,0-3.92-.17-5.93-.53-1.88-.33-3.43-1.5-4.34-3.29-1.1-2.15-1.12-4.99-.04-7.22l10.88-21.57-7.55-8.54-11.89-1.19s-.06.07-.07.09l-11.13,21.49c-1.9,3.69-6.29,5.24-10,3.51-10.09-4.7-14.4-15.65-11.23-28.57,3.75-15.27,17.63-30.26,36.96-29.39.25.01.53-.14.67-.38l23.95-42.85c.09-.15.08-.29.07-.33-7.7-8.38-11.51-24.57-2.57-41.74C91.4,5.94,104.11-1.5,117.4.25c2.44.32,4.57,1.82,5.71,4.01,1.13,2.19,1.12,4.79-.03,6.97l-11.23,22.04c-.51.96-.4,2.09.26,2.91.04.04.07.09.1.13l6.1,8.48c.51.6,1.24.95,2.03.96l11.83-.79c.06,0,.11,0,.17,0,1.14-.01,2-.43,2.17-.66.66-1.39,7.16-15.09,11.66-23.49,1.19-2.21,3.3-3.66,5.79-3.96,2.51-.3,5.01.65,6.7,2.53h0c9.53,10.62,10.74,25.25,3.24,39.14-7.89,14.62-22.78,23.41-36.21,21.36-.36-.06-.79.2-1.03.61-5.87,9.86-20.82,38.32-22.8,42.39,9.2,9.31,10.62,25.37,3.44,39.07-6.08,11.6-16.81,18.25-28.86,18.25ZM57.57,131.85c.2,0,.4,0,.6.03l12.1,1.22c1.37.14,2.63.78,3.54,1.81l7.77,8.79c1.52,1.72,1.89,4.18.94,6.27-.02.04-.04.07-.05.11l-10.96,21.73c-.36.75-.12,1.78.1,1.97,11.85,2.08,22.48-3.38,28.37-14.62,5.98-11.41,4.99-24.6-2.4-32.07-1.93-1.95-1.96-4.09-1.64-5.54.4-1.85,18.96-36.41,23.56-44.13,1.51-2.53,4.29-3.9,7.09-3.47,10.79,1.65,23.42-6.04,30.03-18.28,6.24-11.56,5.34-23.62-2.43-32.28,0,0,0,0,0,0-.56-.62-1.25-.62-1.52-.58-.31.04-.88.19-1.22.83-4.65,8.68-11.51,23.18-11.58,23.33-.02.05-.05.09-.07.14-1.48,2.76-4.74,3.79-7.32,3.84l-11.85.79c-.09,0-.17,0-.26,0-2.65,0-5.12-1.18-6.79-3.25-.04-.04-.07-.09-.1-.13l-6.11-8.5c-2.11-2.68-2.45-6.34-.86-9.36l11.23-22.04c.34-.65.16-1.19.02-1.45-.14-.27-.47-.73-1.16-.82-10.88-1.44-21,4.63-27.05,16.25-6.47,12.43-5.77,26.81,1.71,34.96,1.78,1.94,2.06,4.85.71,7.26l-23.97,42.88c-1.29,2.23-3.63,3.51-6.16,3.41-12.13-.55-26.68,7.8-30.86,24.82-1.92,7.81-.84,17.61,7.93,21.7.76.35,1.72-.01,2.13-.82l11.13-21.49c.98-2.02,3.11-3.33,5.4-3.33ZM101.73,122.73h0Z"/>
    </g>
  </g>
  <path d="M128.93,124.98c1.5-.71,3.29-.07,3.99,1.43l8.86,18.78c.71,1.5.07,3.29-1.43,3.99s-3.29.07-3.99-1.43l-8.86-18.78c-.71-1.5-.07-3.29,1.43-3.99Z"/>
  <path d="M150.53,112.05c.98-1.34,2.86-1.63,4.19-.65l16.76,12.27c1.34.98,1.63,2.86.65,4.19-.98,1.34-2.86,1.63-4.19.65l-16.76-12.27c-1.34-.98-1.63-2.86-.65-4.19Z"/>
  <path d="M159.33,91.1c.06-1.66,1.45-2.95,3.1-2.89l20.76.73c1.66.06,2.95,1.45,2.89,3.1s-1.45,2.95-3.1,2.89l-20.76-.73c-1.66-.06-2.95-1.45-2.89-3.1Z"/>
</svg>