<?xml version="1.0" encoding="UTF-8"?>
<svg id="a" data-name="Ebene 2" xmlns="http://www.w3.org/2000/svg" width="225.27" height="193.29" viewBox="0 0 225.27 193.29">
  <path d="M26.26,34.01C-2.18,58.71-8,101.69,11.15,133.28c10.85,18.74,28.68,33.5,48.76,43.39,41.53,20.39,100.3,24.75,138.93-2.46,33.06-23.84,33.44-63.69,10.38-94.59-15.59-21.23-38.98-37.52-63.45-49.4C107.57,11.47,59.83,4.33,26.32,33.96l-.07.06Z" fill="#ddd0ea"/>
  <g>
    <path d="M62.91,156.66c-.22,9.47-4.55,18.83-11.57,25.17-.29.27-.54.52-.7.74-.35.45-.31.75.18.89.29.09.73.12,1.24.12,17.12-.06,33.56-5.19,45.6-20.3.8-1.01,1.94-1.43,3.22-1.43,17.42-.36,34.93-1.27,50.63-9,23.86-11.03,37.8-37.41,31.59-62.76-6.77-27.62-35.74-41.77-62-41.76-20.31,0-41.95,1.64-60.08,10.83-19.34,9.65-31.66,30.16-29.25,51.87,1.69,19.05,15.09,32.01,29.96,42.79.94.64,1.23,1.74,1.21,2.84Z" fill="#724b9b"/>
    <path d="M59.91,156.66c-.26,5.6-1.79,10.92-4.68,15.74-2.13,3.54-6.2,6.17-7.71,9.93-.36.89.03,2.32.77,2.92,4.25,3.42,14.01.83,18.98-.19,7.3-1.5,14.43-4.34,20.58-8.57,2.93-2.02,5.68-4.31,8.17-6.86,1.24-1.27,2.73-3.73,4.29-4.51,1.84-.92,5.66-.39,7.76-.47,9.19-.33,18.42-1.06,27.41-3.09,29.65-6.68,54.67-31.69,51.88-63.71-2.54-29.17-27.96-47.93-55.46-51.74-15.97-2.21-33.51-.78-49.24,2.51-15.79,3.31-31.33,10.04-41.73,22.78s-14.88,30.06-11.13,46.39c1.78,7.78,5.75,14.82,10.76,20.97,2.76,3.38,5.86,6.47,9.14,9.35,1.67,1.47,3.38,2.87,5.13,4.25,1.09.86,4.97,2.98,5.09,4.3.33,3.82,6.33,3.85,6,0-.51-5.94-7.31-8.74-11.42-12.3-5.26-4.55-10.15-9.64-13.76-15.62-7.3-12.1-8.13-27.24-2.99-40.32,12.2-31.05,48.9-36.59,78.24-37.05,25.22-.4,54.19,9.33,63.05,35.54,9.59,28.35-9.01,56.64-35.77,66.17-9,3.21-18.5,4.59-28,5.22-4.5.3-9,.29-13.5.53-3.79.2-5.33,1.35-7.81,4.21-5.42,6.23-12.24,11.07-20,13.92-3.59,1.32-7.33,2.24-11.11,2.83-1.88.3-3.78.48-5.68.61-.94.06-5.49-.08-4.63.61l.77,2.92c.52-1.3,3.63-3.57,4.66-4.92,1.69-2.2,3.13-4.56,4.31-7.07,2.26-4.84,3.39-9.96,3.65-15.27.18-3.86-5.82-3.85-6,0Z"/>
  </g>
  <g>
    <path d="M94.08,126.1c6.79,7.56,21.52,7.53,27.59-.9,2.26-3.14-2.94-6.14-5.18-3.03-3.87,5.38-14.24,4.05-18.16-.31-2.59-2.88-6.82,1.38-4.24,4.24h0Z"/>
    <path d="M135.88,100.26c-3.33-3.78-10.25-2.46-12.18,2.16-2.37,5.16,2.34,10.51,7.75,9.91,5.87-.45,8.31-7.79,4.49-12l-.06-.07Z"/>
    <path d="M89.59,99.19c-3.7-2.61-9.25-.44-10.82,3.69-2.55,5.89,4.32,11.41,9.81,8.86,4.77-2.13,5.43-9.62,1.08-12.51l-.07-.04Z"/>
  </g>
  <path d="M159.01,3.7l.1-.85h-6c-.85,7.06-1.7,14.12-2.55,21.18-.46,3.83,5.54,3.79,6,0,.85-7.06,1.7-14.12,2.55-21.18.46-3.83-5.54-3.79-6,0l-.1.85c-.47,3.82,5.54,3.79,6,0h0Z"/>
  <path d="M180.32,37.29c4.52-5.25,8.86-10.65,13-16.2,2.29-3.07-2.1-7.16-4.41-4.06-4.15,5.55-8.48,10.95-13,16.2-2.52,2.92,1.89,7,4.41,4.06h0Z"/>
  <path d="M197.73,56.58c6.17-2.19,12.35-4.38,18.52-6.56,3.61-1.28,2.06-7.08-1.6-5.79-6.17,2.19-12.35,4.38-18.52,6.56-3.61,1.28-2.06,7.08,1.6,5.79h0Z"/>
</svg>