<?xml version="1.0" encoding="UTF-8"?>
<svg id="a" data-name="Ebene 2" xmlns="http://www.w3.org/2000/svg" width="8418.9" height="5952.76" xmlns:xlink="http://www.w3.org/1999/xlink" viewBox="0 0 8418.9 5952.76">
  <defs>
    <pattern id="b" data-name="Neues Muster 2" x="0" y="0" width="800" height="800" patternTransform="translate(2129.09 6855.89)" patternUnits="userSpaceOnUse" viewBox="0 0 800 800">
      <g>
        <rect width="800" height="800" fill="none"/>
        <g>
          <path d="M474.02,811.08c-28.44,24.69-34.26,67.67-15.11,99.27,10.85,18.74,28.68,33.5,48.76,43.39,41.53,20.39,100.3,24.75,138.93-2.46,33.06-23.84,33.44-63.69,10.38-94.59-15.59-21.23-38.98-37.52-63.45-49.4-38.21-18.75-85.95-25.89-119.45,3.74l-.07.06Z" fill="#f0eaf4"/>
          <path d="M611.08,782.22v-.18c.02-.41-.07-.8-.26-1.16-.12-.37-.33-.69-.62-.97-.27-.29-.59-.5-.97-.62-.36-.19-.74-.27-1.16-.26l-.8.11c-.51.14-.95.4-1.32.77l-.47.61c-.27.47-.41.97-.41,1.51v.18c-.02.41.07.8.26,1.16.12.37.33.69.62.97.27.29.59.5.97.62.36.19.74.27,1.16.26l.8-.11c.51-.14.95-.4,1.32-.77l.47-.61c.27-.47.41-.97.41-1.51h0Z"/>
          <path d="M611.08,781.67l.1-.85h-6c-.85,7.06-1.7,14.12-2.55,21.18-.46,3.83,5.54,3.79,6,0,.85-7.06,1.7-14.12,2.55-21.18.46-3.83-5.54-3.79-6,0l-.1.85c-.47,3.82,5.54,3.79,6,0h0Z"/>
          <path d="M627.46,811.13c4.73-5.06,9.29-10.28,13.66-15.65,2.42-2.97-1.8-7.24-4.24-4.24-4.37,5.37-8.93,10.59-13.66,15.65-2.64,2.82,1.6,7.07,4.24,4.24h0Z"/>
        </g>
        <g>
          <g>
            <path d="M474.02,11.08c-28.44,24.69-34.26,67.67-15.11,99.27,10.85,18.74,28.68,33.5,48.76,43.39,41.53,20.39,100.3,24.75,138.93-2.46,33.06-23.84,33.44-63.69,10.38-94.59-15.59-21.23-38.98-37.52-63.45-49.4-38.21-18.75-85.95-25.89-119.45,3.74l-.07.06Z" fill="#f0eaf4"/>
            <g>
              <path d="M510.68,133.73c-.22,9.47-4.55,18.83-11.57,25.17-.29.27-.54.52-.7.74-.35.45-.31.75.18.89.29.09.73.12,1.24.12,17.12-.06,33.56-5.19,45.6-20.3.8-1.01,1.94-1.43,3.22-1.43,17.42-.36,34.93-1.27,50.63-9,23.86-11.03,37.8-37.41,31.59-62.76-6.77-27.62-35.74-41.77-62-41.76-20.31,0-41.95,1.64-60.08,10.83-19.34,9.65-31.66,30.16-29.25,51.87,1.69,19.05,15.09,32.01,29.96,42.79.94.64,1.23,1.74,1.21,2.84Z" fill="#724b9b"/>
              <path d="M507.68,133.73c-.26,5.6-1.79,10.92-4.68,15.74-2.13,3.54-6.2,6.17-7.71,9.93-.36.89.03,2.32.77,2.92,4.25,3.42,14.01.83,18.98-.19,7.3-1.5,14.43-4.34,20.58-8.57,2.93-2.02,5.68-4.31,8.17-6.86,1.24-1.27,2.73-3.73,4.29-4.51,1.84-.92,5.66-.39,7.76-.47,9.19-.33,18.42-1.06,27.41-3.09,29.65-6.68,54.67-31.69,51.88-63.71-2.54-29.17-27.96-47.93-55.46-51.74-15.97-2.21-33.51-.78-49.24,2.51-15.79,3.31-31.33,10.04-41.73,22.78s-14.88,30.06-11.13,46.39c1.78,7.78,5.75,14.82,10.76,20.97,2.76,3.38,5.86,6.47,9.14,9.35,1.67,1.47,3.38,2.87,5.13,4.25,1.09.86,4.97,2.98,5.09,4.3.33,3.82,6.33,3.85,6,0-.51-5.94-7.31-8.74-11.42-12.3-5.26-4.55-10.15-9.64-13.76-15.62-7.3-12.1-8.13-27.24-2.99-40.32,12.2-31.05,48.9-36.59,78.24-37.05,25.22-.4,54.19,9.33,63.05,35.54,9.59,28.35-9.01,56.64-35.77,66.17-9,3.21-18.5,4.59-28,5.22-4.5.3-9,.29-13.5.53-3.79.2-5.33,1.35-7.81,4.21-5.42,6.23-12.24,11.07-20,13.92-3.59,1.32-7.33,2.24-11.11,2.83-1.88.3-3.78.48-5.68.61-.94.06-5.49-.08-4.63.61l.77,2.92c.52-1.3,3.63-3.57,4.66-4.92,1.69-2.2,3.13-4.56,4.31-7.07,2.26-4.84,3.39-9.96,3.65-15.27.18-3.86-5.82-3.85-6,0Z"/>
            </g>
            <g>
              <path d="M541.85,103.18c6.79,7.56,21.52,7.53,27.59-.9,2.26-3.14-2.94-6.14-5.18-3.03-3.87,5.38-14.24,4.05-18.16-.31-2.59-2.88-6.82,1.38-4.24,4.24h0Z"/>
              <path d="M583.64,77.33c-3.33-3.78-10.25-2.46-12.18,2.16-2.37,5.16,2.34,10.51,7.75,9.91,5.87-.45,8.31-7.79,4.49-12l-.06-.07Z"/>
              <path d="M537.36,76.26c-3.7-2.61-9.25-.44-10.82,3.69-2.55,5.89,4.32,11.41,9.81,8.86,4.77-2.13,5.43-9.62,1.08-12.51l-.07-.04Z"/>
            </g>
            <path d="M611.08-17.78v-.18c.02-.41-.07-.8-.26-1.16-.12-.37-.33-.69-.62-.97-.27-.29-.59-.5-.97-.62-.36-.19-.74-.27-1.16-.26l-.8.11c-.51.14-.95.4-1.32.77l-.47.61c-.27.47-.41.97-.41,1.51v.18c-.02.41.07.8.26,1.16.12.37.33.69.62.97.27.29.59.5.97.62.36.19.74.27,1.16.26l.8-.11c.51-.14.95-.4,1.32-.77l.47-.61c.27-.47.41-.97.41-1.51h0Z"/>
            <path d="M611.08-18.33l.1-.85h-6c-.85,7.06-1.7,14.12-2.55,21.18-.46,3.83,5.54,3.79,6,0,.85-7.06,1.7-14.12,2.55-21.18.46-3.83-5.54-3.79-6,0l-.1.85c-.47,3.82,5.54,3.79,6,0h0Z"/>
            <path d="M627.46,11.13c4.73-5.06,9.29-10.28,13.66-15.65,2.42-2.97-1.8-7.24-4.24-4.24-4.37,5.37-8.93,10.59-13.66,15.65-2.64,2.82,1.6,7.07,4.24,4.24h0Z"/>
            <path d="M638.94,27.29c6.17-2.19,12.35-4.38,18.52-6.56,3.61-1.28,2.06-7.08-1.6-5.79l-18.52,6.56c-3.61,1.28-2.06,7.08,1.6,5.79h0Z"/>
          </g>
          <path d="M712.05,205.78c-17.64-4.47-36.25,7.45-43.62,23.37-3.25,6.88-4.65,14.68-3.79,22.25,2.16,21.64,23.19,36.4,44.22,30.53,22.46-6.02,32.19-33.56,24.86-54.36-3.38-10.33-11.11-19.06-21.57-21.75l-.09-.02Z" fill="#fde7b4"/>
          <path d="M306.64,367.47c-11.99,7.72-15.11,24.74-9.93,37.47,2.2,5.54,5.92,10.51,10.72,14.06,13.55,10.33,33.24,6.17,41.12-9.01,8.55-16.08-2.02-36.37-17.85-43.29-7.73-3.58-16.85-3.82-23.99.73l-.06.04Z" fill="#e3e8ca"/>
          <path d="M413.39,197.61c-13.83,8.9-17.43,28.55-11.45,43.23,2.54,6.39,6.83,12.12,12.36,16.22,15.63,11.92,38.35,7.12,47.43-10.4,9.86-18.55-2.33-41.96-20.59-49.94-8.91-4.14-19.44-4.41-27.67.84l-.07.05Z" fill="#f0eaf4"/>
          <path d="M465.15,666.08c-13.1,3.44-19.9,18.2-18.06,31.68.91,7.85,4.02,15.75,8.85,22.19,7.3,10.09,18.58,13.82,30.2,11.75,13.65-1.81,25.63-12.45,25.47-27.12-.05-6.91-2.86-13.75-6.65-19.65-8.28-13.48-24.85-22.87-39.73-18.87l-.08.02Z" fill="#fdd9c2"/>
          <path d="M48.04,756.64c0,10.52,8.38,19.54,17.4,21.89,5.23,1.49,10.85,1.38,15.83-.38,7.75-2.57,12.07-9.78,12.7-18.84,1.15-10.47-3.7-22.14-13.2-26.06-4.47-1.86-9.36-1.69-13.82-.53-10.11,2.35-18.98,11.88-18.92,23.85v.06Z" fill="#f0eaf4"/>
          <path d="M282.87,52.09c-4.53-8.46-15.82-10.7-24.79-7.21-5.26,1.92-10.18,5.37-13.82,9.76-5.74,6.69-6.45,15.07-3.11,22.74,3.5,9.1,12.8,15.59,22.88,13.07,4.75-1.17,9-4.24,12.43-7.82,7.92-7.92,11.65-20.89,6.44-30.47l-.03-.05Z" fill="#fdd9c2"/>
          <path d="M720.9,596.03c-4.53-8.46-15.82-10.7-24.79-7.21-5.26,1.92-10.18,5.37-13.82,9.76-5.74,6.69-6.45,15.07-3.11,22.74,3.5,9.1,12.8,15.59,22.88,13.07,4.75-1.17,9-4.24,12.43-7.82,7.92-7.92,11.65-20.89,6.44-30.47l-.03-.05Z" fill="#e3e8ca"/>
          <path d="M96.94,525.23c-8.83,2.32-13.41,12.26-12.17,21.35.62,5.29,2.71,10.61,5.97,14.95,4.92,6.8,12.52,9.31,20.35,7.92,9.2-1.22,17.27-8.39,17.16-18.28-.03-4.65-1.93-9.26-4.48-13.24-5.58-9.08-16.75-15.41-26.78-12.72h-.05Z" fill="#f0eaf4"/>
          <path d="M86.65,375.62c-6.29-6.61-17.22-5.82-24.57-.34-4.34,3.1-7.98,7.5-10.21,12.45-3.58,7.59-2.11,15.46,2.9,21.65,5.51,7.47,15.69,11.07,24.29,6.2,4.06-2.28,7.18-6.16,9.43-10.32,5.26-9.27,5.41-22.11-1.8-29.59l-.04-.04Z" fill="#fde7b4"/>
          <g>
            <path d="M165.7,148.81c-22.27-12.04-53.57-12.36-76.2-.76-19.48,10.27-28.09,31.82-31.13,51.68-4.34,26.47,2.22,48.75,22.95,67.65,15.44,14.06,35.37,22.87,55.67,29.25,23.18,7.22,48.48,10.93,71.85,3.36,16.51-5.29,31.22-15.71,40.76-29.42,16.08-22.52,14.92-54.58-3.18-75.77-16.84-19.81-44.37-26.66-67.3-38.8-4.48-2.33-8.85-4.86-13.34-7.16l-.08-.04Z" fill="#fde7b4"/>
            <g>
              <path d="M91.37,240.03l95.18-55.9c5.68-3.34,12.64,1.58,11.4,8.05l-20.87,108.83c-1.25,6.52-9.64,8.47-13.64,3.17l-15.17-20.14c-1.59-2.11-4.76-2.06-6.29.09l-19.71,27.72c-2.42,3.4-7.11,4.24-10.56,1.89l-14.29-9.76c-3.54-2.42-4.41-7.27-1.92-10.76l19.03-26.74c1.52-2.13.54-5.13-1.94-5.96l-19.76-6.6c-6.24-2.08-7.12-10.54-1.45-13.87Z" fill="#ecab06"/>
              <path d="M116,317.97c-2.06,0-4.13-.59-5.94-1.83l-14.29-9.76c-2.37-1.62-3.95-4.06-4.45-6.89s.13-5.67,1.8-8l19.03-26.74c.25-.34.19-.68.13-.86-.06-.17-.21-.48-.61-.61l-19.76-6.6c-3.99-1.33-6.74-4.76-7.18-8.94-.44-4.18,1.54-8.11,5.17-10.24l95.18-55.9c3.63-2.13,8.03-1.95,11.47.48,3.44,2.43,5.09,6.51,4.3,10.65l-20.87,108.83c-.8,4.17-3.87,7.36-8.01,8.32-4.13.96-8.3-.55-10.86-3.95l-15.17-20.14c-.25-.34-.58-.38-.78-.38-.18,0-.53.06-.77.41l-19.71,27.72c-2.05,2.89-5.34,4.44-8.67,4.44ZM190.44,185.98c-.82,0-1.64.22-2.4.67l-95.18,55.9c-1.64.96-2.5,2.67-2.31,4.56.2,1.89,1.4,3.38,3.2,3.99l19.76,6.6c2.08.69,3.66,2.28,4.33,4.37.68,2.08.34,4.3-.93,6.08l-19.03,26.74c-.74,1.04-1.03,2.31-.8,3.57.22,1.26.93,2.35,1.99,3.07l14.29,9.76c2.11,1.44,5.03.92,6.51-1.16l19.71-27.72c1.28-1.8,3.27-2.84,5.48-2.87,2.22-.01,4.23.96,5.55,2.72l15.17,20.14c1.16,1.54,2.97,2.19,4.84,1.76,1.87-.43,3.21-1.82,3.57-3.71l20.87-108.83c.36-1.87-.36-3.65-1.91-4.75-.83-.59-1.77-.89-2.71-.89Z"/>
            </g>
            <path d="M217.36,185.79c-.78-1.46-.22-3.28,1.24-4.06l18.34-9.75c1.46-.78,3.28-.22,4.06,1.24.78,1.46.22,3.28-1.24,4.06l-18.34,9.75c-1.46.78-3.28.22-4.06-1.24Z"/>
            <path d="M190.16,165.82c-1.64-.23-2.78-1.75-2.55-3.39l2.89-20.57c.23-1.64,1.75-2.78,3.39-2.55s2.78,1.75,2.55,3.39l-2.89,20.57c-.23,1.64-1.75,2.78-3.39,2.55Z"/>
            <path d="M215.54,217.52c-.33-.69-.4-1.51-.13-2.29.55-1.56,2.26-2.39,3.82-1.84l20.11,7.04c1.56.55,2.39,2.26,1.84,3.82s-2.26,2.39-3.82,1.84l-20.11-7.04c-.78-.27-1.38-.84-1.71-1.53Z"/>
            <path d="M154.52,172.4c-.76-.12-1.47-.53-1.96-1.2l-12.5-17.25c-.97-1.34-.67-3.22.67-4.19s3.22-.67,4.19.67l12.5,17.25c.97,1.34.67,3.22-.67,4.19-.67.49-1.48.65-2.23.53Z"/>
          </g>
          <g>
            <g>
              <path d="M186.57,640.69c-33.57,49.14,19.71,100.48,70.19,99.08,13.28-.31,26.17-4.82,37.25-12.04,22.51-14.76,47.29-44.26,59.43-68.27,15.36-29.62,17.83-69.71-7.42-94.53-22.18-21.59-48.94-18.87-74.45-4.91-28.16,14.55-48.92,38.91-69.8,62.1-5.3,5.94-10.67,11.95-15.15,18.52l-.04.06Z" fill="#e3e8ca"/>
              <g>
                <path d="M225.88,570.7c27.75-12.72,54.86,23.11,44.03,45.41-.72,1.48-.36,3.26.74,4.49,8.09,9,33.77,34.65,34.39,35,1.13.64,2.05.47,2.91.02,21.48-11.15,55.16,15.09,40.88,42.75-1.19,2.3-4.73,2.02-6.62.25l-17.49-16.92c-.83-.74-2.03-.93-3.04-.47l-10.7,4.81c-.56.25-1.01.71-1.25,1.28l-4.75,11.19c-.5,1.17-.21,2.53.72,3.4l17.21,17.01c1.77,1.74,1.94,4.6.27,6.44-16.63,18.3-53.12-9.79-42.66-38.75.47-1.31.16-2.78-.78-3.81l-33.83-35.63c-.94-1-2.44-1.42-3.68-.83-23.02,10.86-57.33-17.56-45.38-43.38,1.32-2.86,5.09-3.54,7.32-1.3l17.74,17.3c1.59,1.59,3.96,2.08,6.05,1.26l10-3.33c1.63-.64,2.87-2,3.37-3.67l2.78-11.63c.52-1.72.52-3.97-.74-5.26,0,0-11.91-10.94-18.95-18.09-2.28-2.32-1.5-6.16,1.46-7.52Z" fill="#7da631"/>
                <path d="M353.76,694.24c-.58,1.86-1.33,3.7-2.26,5.5-.88,1.7-2.45,2.82-4.43,3.17-2.38.41-5.09-.41-6.9-2.1l-17.36-16.8-10.4,4.68-4.67,11s.05.07.07.09l17.21,17c2.96,2.91,3.13,7.56.38,10.59-7.49,8.24-19.22,9.1-30.61,2.24-13.46-8.11-23.66-25.83-17.09-44.02.09-.23.03-.55-.17-.76l-33.8-35.59c-.12-.13-.25-.17-.29-.17-10.29,4.87-26.88,3.69-40.62-9.94-11-10.92-14.33-25.26-8.7-37.43,1.03-2.23,3.1-3.83,5.52-4.26,2.42-.43,4.91.35,6.64,2.09l17.71,17.27c.77.77,1.88,1,2.85.61.05-.02.1-.04.15-.06l9.91-3.3c.73-.31,1.27-.91,1.52-1.66l2.76-11.53c.01-.06.03-.11.04-.16.33-1.09.19-2.04.02-2.27-1.13-1.04-12.28-11.32-18.96-18.11-1.76-1.79-2.51-4.24-2.06-6.7.46-2.48,2.1-4.59,4.41-5.64h0c12.97-5.95,27.3-2.76,38.33,8.53,11.61,11.88,15.58,28.71,9.64,40.92-.16.33-.04.82.27,1.17,7.67,8.53,30.41,31.26,33.7,34.36,11.62-6.02,27.38-2.61,38.33,8.32,9.27,9.25,12.43,21.47,8.85,32.97ZM301.99,697.9c.06-.19.13-.38.21-.56l4.75-11.19c.54-1.27,1.53-2.28,2.78-2.84l10.7-4.81c2.09-.94,4.56-.56,6.27.97.03.03.06.06.09.08l17.49,16.92c.61.57,1.66.65,1.91.49,5.5-10.7,3.45-22.47-5.54-31.44-9.12-9.1-22.01-12.07-31.34-7.23-2.43,1.26-4.48.65-5.77-.08-1.64-.93-29.14-28.92-35.14-35.6-1.97-2.19-2.45-5.26-1.21-7.8,4.78-9.82,1.18-24.16-8.54-34.1-9.18-9.39-20.97-12.11-31.54-7.27,0,0,0,0,0,0-.76.35-.96,1.01-1.01,1.28-.06.31-.07.9.43,1.41,6.9,7.02,18.72,17.88,18.84,17.99.04.04.08.07.11.11,2.19,2.24,2.21,5.65,1.49,8.13l-2.76,11.55c-.02.09-.05.17-.07.25-.79,2.53-2.65,4.54-5.12,5.51-.05.02-.1.04-.15.06l-9.93,3.31c-3.18,1.22-6.78.46-9.19-1.96l-17.71-17.27c-.52-.52-1.09-.5-1.38-.45-.3.05-.83.23-1.13.87-4.61,9.96-1.81,21.43,7.48,30.66,9.95,9.87,23.89,13.47,33.89,8.75,2.38-1.12,5.25-.52,7.14,1.48l33.83,35.62c1.75,1.9,2.28,4.51,1.43,6.9-4.12,11.42-.48,27.79,14.54,36.84,6.89,4.15,16.57,6.03,23.08-1.13.57-.62.5-1.65-.15-2.28l-17.22-17.01c-1.64-1.53-2.26-3.96-1.58-6.14ZM306.41,653.03h0Z"/>
              </g>
            </g>
            <path d="M316.63,627.72c-.23-1.64.91-3.16,2.55-3.39l20.57-2.89c1.64-.23,3.16.91,3.39,2.55s-.91,3.16-2.55,3.39l-20.57,2.89c-1.64.23-3.16-.91-3.39-2.55Z"/>
            <path d="M310.7,603.26c-.99-1.33-.71-3.21.63-4.2l16.69-12.36c1.33-.99,3.21-.71,4.2.63s.71,3.21-.63,4.2l-16.69,12.36c-1.33.99-3.21.71-4.2-.63Z"/>
            <path d="M293.3,588.64c-1.56-.55-2.39-2.26-1.84-3.82l6.86-19.6c.55-1.56,2.26-2.39,3.82-1.84s2.39,2.26,1.84,3.82l-6.86,19.6c-.55,1.56-2.26,2.39-3.82,1.84Z"/>
          </g>
          <g>
            <path d="M551.09,370.87c-4.41-1.81-8.78-3.77-13.29-5.32-14.63-4.96-31.48-4.42-45.17,3.42-29.21,16.71-37.72,56.67-33.53,89.97,6.49,52.83,52.95,71.15,95.02,80.59,20.47,4.45,46.45,11.79,66.49,3.82,14.38-5.61,24.66-18.93,33.04-32.53,7.39-12.15,14.15-25.83,14.1-40.75.03-14.38-6.2-27.9-14.26-39.12-21.78-30.11-55.94-45.3-89.04-55.24-4.48-1.41-8.93-3.02-13.25-4.81l-.08-.03Z" fill="#fdd9c2"/>
            <path d="M532.31,394.74c-1.62.33-3.21-.72-3.54-2.34l-4.15-20.35c-.33-1.62.72-3.21,2.34-3.54,1.62-.33,3.21.72,3.54,2.34l4.15,20.35c.33,1.62-.72,3.21-2.34,3.54Z"/>
            <path d="M513.75,406.66c-.98,1.34-2.86,1.63-4.19.65l-16.76-12.27c-1.34-.98-1.63-2.86-.65-4.19.98-1.34,2.86-1.63,4.19-.65l16.76,12.27c1.34.98,1.63,2.86.65,4.19Z"/>
            <path d="M504.94,426.39c.09,1.65-1.17,3.07-2.83,3.16l-20.74,1.17c-1.65.09-3.07-1.17-3.16-2.83-.09-1.65,1.17-3.07,2.83-3.16l20.74-1.17c1.65-.09,3.07,1.17,3.16,2.83Z"/>
            <g>
              <path d="M529.92,532.7c-5.13,3.3-11.94.09-12.7-5.97-2.63-21.15-2.47-70.78,17.47-107.95,21.83-40.69,86.93-13.13,67.58,30.87-17.87,40.63-54.84,71.81-72.35,83.05Z" fill="#ec6712"/>
              <g>
                <path d="M603.93,370.67c-.17-.92-1.25-1.42-2.17-1.14-21.46,6.39-18.62,33.27-18.62,33.27,0,0,25.27-7.76,20.8-32.13Z" fill="#7da631"/>
                <path d="M624.48,394.32c-19.75-10.53-36.63,10.58-36.63,10.58,0,0,23.43,12.24,37.38-8.24.52-.77.11-1.89-.74-2.34Z" fill="#7da631"/>
                <path d="M566.62,366.78c-.75-.33-1.8.35-2.12,1.28-8.76,25.93,14.97,32.47,14.97,32.47,0,0,7.65-24.74-12.85-33.76Z" fill="#7da631"/>
              </g>
            </g>
            <path d="M590.23,405.94c.1.07.21.13.31.2.03-.02.06-.03.09-.05-.14-.05-.28-.1-.41-.16Z"/>
            <path d="M631.23,394.07c-.53-2.16-1.96-4-3.93-5.05-4.54-2.42-9.32-3.65-14.2-3.65h0c-1.38,0-2.72.11-4.03.29,1.54-4.94,1.82-10.34.76-16.07-.65-3.55-3.83-6.14-7.55-6.14h0c-.76,0-1.51.11-2.23.32-6.85,2.04-12.32,5.99-16.22,11.62-2.92-6.28-7.91-11.08-14.79-14.11-.89-.39-1.85-.59-2.83-.59h0c-3.26,0-6.3,2.24-7.39,5.45-3.29,9.75-3,18.39.87,25.69.86,1.61,1.85,3.04,2.91,4.34-1.8.2-3.59.53-5.36.97-10.85,2.73-19.56,9.73-25.19,20.23-20.2,37.66-20.48,88.25-17.8,109.74.48,3.88,2.88,7.18,6.42,8.84,1.53.72,3.17,1.07,4.79,1.07,2.12,0,4.23-.6,6.08-1.79,18.82-12.08,55.48-43.45,73.47-84.36,6.31-14.35,4.31-26.9-1.96-36.35.11,0,.21.01.32.01,11.08,0,20.35-5.01,26.8-14.49,1.18-1.73,1.56-3.9,1.05-5.97ZM586.71,386.51c-.1-1.11-.26-2.19-.44-3.25,2.61-5.81,7.26-11.28,15.5-13.74.17-.05.35-.08.52-.08.77,0,1.51.47,1.65,1.22,1.26,6.88.15,12.43-2.08,16.86-7,2.67-12.48,7.23-15.65,10.34.49-2.9.9-6.95.51-11.36ZM564.5,368.06c.26-.77,1.02-1.37,1.7-1.37.14,0,.28.03.42.08,8.24,3.63,11.92,9.79,13.39,15.86h0c.27,1.12.47,2.24.6,3.34,0,.03,0,.06,0,.08.06.51.11,1.01.14,1.5,0,.06,0,.12.01.18.03.48.05.96.07,1.42,0,.04,0,.08,0,.13.05,2.07-.09,3.99-.29,5.64,0,.03,0,.07-.01.1-.05.38-.1.74-.15,1.09,0,.03,0,.06-.01.09-.09.6-.19,1.14-.28,1.63-2.99-.92-6.03-1.51-9.09-1.77-5.79-4.51-11.59-13.02-6.52-28.01ZM599.53,448.45c-2.49,5.66-5.39,11.15-8.55,16.43-2.36-2.12-7.65-6.36-16.26-10.71-1.48-.74-3.28-.15-4.03,1.33-.75,1.48-.15,3.28,1.33,4.03,9.38,4.73,14.47,9.32,15.74,10.54-7.88,12.13-17.1,23.04-26.18,32.28-5.38-5.11-11.32-7.82-11.6-7.94-1.51-.68-3.28,0-3.96,1.5-.68,1.51,0,3.28,1.5,3.97.06.03,5.21,2.4,9.8,6.7-11.22,10.86-21.86,19.03-29.01,23.61-1.55,1-3.41,1.12-5.08.34-1.68-.79-2.78-2.3-3.01-4.15-1.65-13.27-2.15-37.97,2.75-63.54,8.76.44,18.52,5.01,18.62,5.05.41.2.85.29,1.28.29,1.12,0,2.2-.63,2.71-1.72.71-1.5.07-3.28-1.43-3.99-.44-.21-10.28-4.82-19.96-5.56,2.35-10.5,5.67-21,10.24-30.79,2.24.06,9.66.68,20.43,5.89.42.2.87.3,1.31.3,1.11,0,2.18-.62,2.7-1.69.72-1.49.1-3.29-1.39-4.01-9.07-4.39-16.08-5.84-20.16-6.3.02-.03.03-.06.05-.09,6.89-12.84,18.46-18.27,29.97-18.27,5.81,0,11.61,1.39,16.77,3.9,14.02,6.83,24.23,22.65,15.45,42.61ZM625.22,396.66c-6.35,9.33-14.67,11.87-21.85,11.87-2.05,0-4-.21-5.78-.52-2.25-2.15-4.74-4.05-7.4-5.65,2.99-2.98,8.65-7.77,15.78-9.9,0,0,0,0,0,0,2.24-.67,4.63-1.07,7.12-1.07,3.6,0,7.43.84,11.38,2.95.85.45,1.27,1.57.74,2.34Z"/>
          </g>
        </g>
      </g>
    </pattern>
  </defs>
  <rect x="0" y="0" width="8418.9" height="5952.76" fill="url(#b)"/>
</svg>