<?xml version="1.0" encoding="UTF-8"?>
<svg id="a" data-name="Ebene 2" xmlns="http://www.w3.org/2000/svg" width="1920" height="1080" xmlns:xlink="http://www.w3.org/1999/xlink" viewBox="0 0 1920 1080">
  <defs>
    <pattern id="b" data-name="MD teilt Outlines 02" x="0" y="0" width="800" height="800" patternTransform="translate(-320 -1206.66)" patternUnits="userSpaceOnUse" viewBox="0 0 800 800">
      <g>
        <rect width="800" height="800" fill="none"/>
        <g>
          <g>
            <path d="M816.44,791.88c0-.23-.03-.45-.08-.67,0-.03-.01-.07-.02-.1-.06-.21-.14-.41-.23-.6-.02-.04-.04-.07-.06-.1-.11-.19-.23-.37-.38-.53-.02-.02-.04-.04-.06-.06-.15-.16-.32-.31-.51-.43,0,0-.01-.01-.02-.02,0,0,0,0,0,0-.13-.08-.26-.16-.4-.22l-51.77-23.2c-2.42-1.08-5.17-1.05-7.56.1l-48.17,23.13c-.1.05-.2.11-.3.17-.01,0-.03.01-.04.02,0,0,0,0-.01.01-.19.12-.35.27-.51.43-.03.03-.05.05-.08.08-.14.16-.27.33-.37.52-.02.03-.04.07-.05.1-.1.19-.18.39-.24.61,0,.02,0,.05-.01.07-.05.21-.08.43-.08.65,0,.02,0,.03,0,.05v61.02c0,2.7,1.5,5.14,3.91,6.35l50.22,25.37c.12.06.24.09.36.13.08.03.15.06.23.09.25.06.5.1.75.1s.51-.04.75-.1c.08-.02.16-.06.23-.09.12-.04.25-.07.36-.13l50.22-25.37c2.41-1.22,3.91-3.65,3.91-6.35v-61.02s0,0,0,0ZM757.94,771.46c.79-.38,1.71-.39,2.5-.03l45.62,20.45-40.1,17.76-5,2.22-36.17-16.02-9.15-4.05,42.3-20.32ZM711.48,852.91v-56.41l46.48,20.59v60l-45.87-23.17c-.38-.19-.61-.57-.61-1ZM809.82,853.91l-45.87,23.17v-60l46.48-20.59v56.41c0,.42-.24.81-.61,1Z"/>
            <path d="M756.16,792.49l4.3,1.91c.31.14.67.14.99,0l4.22-1.87c.96-.43.97-1.79,0-2.23l-4.45-1.99c-.33-.15-.7-.14-1.03.01l-4.07,1.96c-.94.45-.92,1.79.03,2.21Z"/>
          </g>
          <g>
            <path d="M569.06,838.75c-.44.92-.96,1.82-1.58,2.69-.58.82-1.48,1.28-2.54,1.31-1.27.04-2.61-.59-3.42-1.6l-7.76-10-5.74,1.65-3.24,5.36s.02.04.03.05l7.67,10.1c1.32,1.73,1.06,4.16-.59,5.52-4.5,3.72-10.65,3.29-16.05-1.11-6.38-5.21-10.35-15.15-5.59-24.1.06-.11.05-.28-.03-.41l-14.89-20.97c-.05-.07-.12-.1-.14-.11-5.7,1.76-14.22-.08-20.33-8.17-4.89-6.48-5.56-14.17-1.73-20.06.7-1.08,1.89-1.75,3.18-1.8,1.29-.04,2.52.55,3.29,1.58l7.9,10.27c.34.46.9.66,1.43.53.03,0,.06-.01.08-.02l5.38-.98c.4-.11.73-.38.91-.75l2.29-5.78s.02-.05.03-.08c.25-.54.25-1.04.18-1.18-.51-.62-5.53-6.78-8.49-10.8-.78-1.06-.99-2.38-.57-3.63.42-1.25,1.43-2.22,2.71-2.6h0c7.17-2.12,14.37.6,19.25,7.27,5.14,7.02,5.95,16.05,1.96,21.94-.11.16-.08.42.06.63,3.35,5,13.45,18.47,14.93,20.33,6.48-2.26,14.4.68,19.26,7.16,4.12,5.49,4.85,12.06,2.14,17.76ZM541.94,836.81c.04-.09.09-.19.15-.28l3.3-5.45c.37-.62.96-1.07,1.66-1.27l5.91-1.7c1.16-.33,2.4.05,3.18.97.01.02.03.03.04.05l7.82,10.08c.27.34.82.46.95.4,3.65-5.14,3.46-11.4-.54-16.72-4.06-5.4-10.52-7.9-15.72-6.08-1.36.47-2.37,0-2.99-.47-.78-.61-12.97-17.17-15.59-21.08-.86-1.28-.88-2.91-.05-4.14,3.21-4.74,2.41-12.44-1.9-18.32-4.07-5.56-9.98-7.84-15.82-6.11,0,0,0,0,0,0-.42.12-.57.45-.62.59-.05.15-.11.46.12.76,3.06,4.15,8.38,10.66,8.44,10.73.02.02.03.04.05.07.97,1.32.73,3.09.17,4.33l-2.29,5.79s-.04.08-.06.13c-.6,1.25-1.71,2.16-3.06,2.48-.03,0-.06.01-.08.02l-5.4.98c-1.74.4-3.55-.27-4.62-1.7l-7.9-10.27c-.23-.31-.53-.34-.68-.34-.16,0-.45.06-.65.37-3.13,4.82-2.53,10.98,1.61,16.46,4.43,5.86,11.39,8.76,16.93,7.06,1.32-.4,2.76.12,3.6,1.3l14.9,20.99c.76,1.11.84,2.51.23,3.68-2.99,5.62-2.31,14.38,4.81,20.19,3.26,2.66,8.15,4.36,12.05,1.13.34-.28.38-.82.09-1.19l-7.67-10.1c-.74-.92-.88-2.22-.36-3.3ZM547.56,813.86h0Z" stroke="#000" stroke-miterlimit="10" stroke-width="2"/>
            <path d="M554.75,801.49c0-.87.71-1.57,1.58-1.57l10.88.03c.87,0,1.57.71,1.57,1.58s-.71,1.57-1.58,1.57l-10.88-.03c-.87,0-1.57-.71-1.57-1.58Z" stroke="#000" stroke-miterlimit="10" stroke-width="2"/>
            <path d="M553.49,788.36c-.41-.76-.13-1.72.64-2.13l9.58-5.17c.76-.41,1.72-.13,2.13.64s.13,1.72-.64,2.13l-9.58,5.17c-.76.41-1.72.13-2.13-.64Z" stroke="#000" stroke-miterlimit="10" stroke-width="2"/>
            <path d="M545.55,779.48c-.77-.4-1.07-1.35-.67-2.12l5.02-9.66c.4-.77,1.35-1.07,2.12-.67s1.07,1.35.67,2.12l-5.02,9.66c-.4.77-1.35,1.07-2.12.67Z" stroke="#000" stroke-miterlimit="10" stroke-width="2"/>
          </g>
        </g>
        <path d="M16.44,791.88c0-.23-.03-.45-.08-.67,0-.03-.01-.07-.02-.1-.06-.21-.14-.41-.23-.6-.02-.04-.04-.07-.06-.1-.11-.19-.23-.37-.38-.53-.02-.02-.04-.04-.06-.06-.15-.16-.32-.31-.51-.43,0,0-.01-.01-.02-.02,0,0,0,0,0,0-.13-.08-.26-.16-.4-.22l-51.77-23.2c-2.42-1.08-5.17-1.05-7.56.1l-48.17,23.13c-.1.05-.2.11-.3.17-.01,0-.03.01-.04.02,0,0,0,0-.01.01-.19.12-.35.27-.51.43-.03.03-.05.05-.08.08-.14.16-.27.33-.37.52-.02.03-.04.07-.05.1-.1.19-.18.39-.24.61,0,.02,0,.05-.01.07-.05.21-.08.43-.08.65,0,.02,0,.03,0,.05v61.02c0,2.7,1.5,5.14,3.91,6.35l50.22,25.37c.12.06.24.09.36.13.08.03.15.06.23.09.25.06.5.1.75.1s.51-.04.75-.1c.08-.02.16-.06.23-.09.12-.04.25-.07.36-.13l50.22-25.37c2.41-1.22,3.91-3.65,3.91-6.35v-61.02s0,0,0,0ZM-42.06,771.46c.79-.38,1.71-.39,2.5-.03l45.62,20.45-40.1,17.76-5,2.22-36.17-16.02-9.15-4.05,42.3-20.32ZM-88.52,852.91v-56.41l46.48,20.59v60l-45.87-23.17c-.38-.19-.61-.57-.61-1ZM9.82,853.91l-45.87,23.17v-60l46.48-20.59v56.41c0,.42-.24.81-.61,1Z"/>
        <g>
          <path d="M800.25,243.73c4.27,4.97,8.54,9.93,12.81,14.9,2.5,2.91,7.35-.64,4.82-3.58-4.27-4.97-8.54-9.93-12.81-14.9-2.5-2.91-7.35.64-4.82,3.58h0Z"/>
          <path d="M904.28,577.4c-1.01-.09-2.01-.08-2.99-.01l1.21-13.34.02-.16c.18-1.88.72-7.61-4.02-13.33-5.61-6.76-16.58-10.92-32.58-12.37s-27.45.73-34.24,6.44c-3.82,3.21-5.97,7.35-6.37,12.29l-1.22,13.51c-1.7-.66-3.52-1.1-5.44-1.27-10.34-.93-19.46,6.17-20.33,15.83-.59,6.52,2.67,12.72,8.42,16.3l-2,22.62c-.39,4.32,2.6,8.16,6.76,8.86l-1.31,14.45,8.19.74.52-.14c.42-.11,9.44-2.67,11.81-13.28l48.86,4.42c.43,10.87,8.85,15,9.24,15.19l.48.23,8.19.74,1.31-14.5c4.01-.18,7.4-3.34,7.77-7.49l1.99-21.98c6.66-2.15,11.54-7.98,12.16-14.84.86-9.53-6.51-18-16.43-18.9ZM831.27,557.42c.1-1.23.41-4.96,4.25-8.19,3.8-3.19,12.06-6.66,29.84-5.05,17.88,1.62,25.37,6.45,28.5,10.23,3.15,3.8,2.8,7.52,2.66,8.93l-1.41,15.58c-5.67,2.5-9.82,7.75-10.4,14.15l-.46,5.05c-5.63-4.49-13.8-7.25-24.4-8.2s-18.28.04-24.46,2.81l.39-4.33c.51-5.62-1.89-10.87-6.02-14.48l1.47-16.29.02-.19ZM832.85,601.47c4.99-4.78,14.14-6.72,26.48-5.6,11.62,1.05,20.02,4.51,24.28,10,2.24,2.88,2.97,5.79,3.18,7.83l-57.89-5.23c.42-1.91,1.44-4.59,3.95-6.99ZM817.75,641.88l-1.06-.1.76-8.44,7.19.65c-1.55,5.41-5.57,7.38-6.9,7.89ZM892.05,648.6l-1.05-.1c-1.24-.76-4.82-3.42-5.37-9l7.19.65-.76,8.44ZM905.2,605.81l-2.23.42-2.38,26.35c-.11,1.23-1.17,2.15-2.35,2.04l-18.33-1.66-48.47-4.38-18.79-1.7c-1.18-.11-2.06-1.2-1.94-2.44l2.35-26.64-1.86-.9c-4.62-2.23-7.33-6.7-6.91-11.38.58-6.37,6.77-11.03,13.82-10.39,7.04.64,12.3,6.33,11.73,12.7l-.82,9.04c-.14.13-.29.25-.43.39-6.37,6.2-5.96,13.79-5.94,14.11l.16,2.56,69.4,6.27.48-2.71c.05-.29,1.1-6.64-2.94-13.27l.96-10.64c.56-6.23,6.41-10.81,13.04-10.21,6.63.6,11.56,6.15,10.99,12.39-.45,4.95-4.37,9.08-9.53,10.05Z"/>
        </g>
        <g>
          <g>
            <path d="M32.21,201.48l.17-.07c.39-.13.72-.35.98-.66.3-.25.53-.56.68-.93.17-.36.25-.73.23-1.12.05-.4-.01-.79-.18-1.17l-.39-.7c-.32-.42-.72-.74-1.2-.96l-.74-.22c-.53-.08-1.05-.03-1.56.16l-.17.07c-.39.13-.72.35-.98.66-.3.25-.53.56-.68.93-.17.36-.25.73-.23,1.12-.05.4.01.79.18,1.17l.39.7c.32.42.72.74,1.2.96l.74.22c.53.08,1.05.03,1.56-.16h0Z"/>
            <path d="M32.72,201.28l.83-.21c-.72-1.87-1.44-3.73-2.17-5.6-6.89,1.76-13.78,3.51-20.68,5.27-3.73.95-1.53,6.54,2.17,5.6,6.89-1.76,13.78-3.51,20.68-5.27,3.74-.95,1.53-6.53-2.17-5.6l-.83.21c-3.73.94-1.53,6.53,2.17,5.6h0Z"/>
            <path d="M11.17,227.19c6.43,2.59,12.94,4.95,19.53,7.09,3.64,1.18,6.1-4.3,2.42-5.49-6.59-2.14-13.1-4.5-19.53-7.09-3.58-1.44-6.02,4.04-2.42,5.49h0Z"/>
            <path d="M.25,243.73c4.27,4.97,8.54,9.93,12.81,14.9,2.5,2.91,7.35-.64,4.82-3.58-4.27-4.97-8.54-9.93-12.81-14.9-2.5-2.91-7.35.64-4.82,3.58H.25Z"/>
          </g>
          <g>
            <path d="M534.41,303.5l-.05.18c-.12.39-.14.79-.06,1.18.02.39.13.76.34,1.1.18.35.44.64.77.85.29.28.64.46,1.05.56l.8.11c.53,0,1.02-.13,1.48-.39l.61-.46c.39-.38.65-.83.8-1.35l.05-.18c.12-.39.14-.79.06-1.18-.02-.39-.13-.76-.34-1.1-.18-.35-.44-.64-.77-.85-.29-.28-.64-.46-1.05-.56l-.8-.11c-.53,0-1.02.13-1.48.39l-.61.46c-.39.38-.65.83-.8,1.35h0Z"/>
            <path d="M534.26,304.03l-.33.79c1.93.53,3.86,1.06,5.78,1.59,2.7-6.58,5.39-13.16,8.09-19.74,1.46-3.57-4.34-5.13-5.78-1.59-2.7,6.58-5.39,13.16-8.09,19.74-1.46,3.57,4.33,5.12,5.78,1.59l.33-.79c1.47-3.56-4.33-5.12-5.78-1.59h0Z"/>
            <path d="M526.3,271.28c-5.91,3.62-11.68,7.44-17.33,11.46-3.12,2.22-.18,7.46,2.96,5.22,5.64-4.02,11.42-7.84,17.33-11.46,3.29-2.02.34-7.24-2.96-5.22h0Z"/>
            <path d="M519.52,252.65c-6.53.47-13.07.94-19.6,1.41-3.82.27-3.86,6.28,0,6,6.53-.47,13.07-.94,19.6-1.41,3.82-.27,3.86-6.28,0-6h0Z"/>
          </g>
          <path d="M428.92,694.11l-50.05,15.05c-1.08.33-2.22.21-3.22-.33s-1.71-1.43-2.03-2.52l-13.56-46.51-5.38,6.02c-.76.85-1.8,1.34-2.94,1.4-1.14.05-2.22-.34-3.06-1.12l-12.48-11.59c-1.61-1.5-1.81-3.93-.45-5.67l19.52-26.47c1.92-2.46,5.22-3.21,7.88-1.84,14.31,7.37,28.22-2.87,32.49-9.99,1.5-2.51,4.56-3.53,7.26-2.42l30.85,12.64c2.07.85,3.12,3.17,2.37,5.29l-6.3,17.86c-.38,1.08-1.16,1.94-2.2,2.42-1.04.48-2.2.52-3.27.11l-7.04-2.7,14.38,45.06c.35,1.08.24,2.23-.29,3.24s-1.42,1.74-2.51,2.07ZM378.12,704.29l48.74-14.66-14.6-45.74c-.5-1.55-.07-3.21,1.12-4.33,1.19-1.12,2.87-1.45,4.39-.87l7.7,2.95,5.86-16.6-30.26-12.4c-.46-.19-.98-.01-1.23.41-5.89,9.82-22.33,20.36-38.91,11.81-.57-.3-1.33-.1-1.77.45l-19.19,26.02,11.54,10.72,5.73-6.42c1.02-1.14,2.57-1.64,4.06-1.3,1.49.34,2.68,1.46,3.11,2.92l13.71,47.02ZM339.65,651.77l-.02.02s.01-.01.02-.02Z" stroke="#000" stroke-miterlimit="10" stroke-width=".75"/>
          <g>
            <path d="M426.74,197.22l-14.51-5.21c-1.56-.56-2.37-2.28-1.81-3.84l12.28-34.21c-4.57-3.95-14.64-15.75-6.6-38.15,3.57-9.95,10.81-16.85,21.52-20.49,8.64-2.94,17.5-2.93,22.01-2.66,1.82.11,3.45,1.04,4.45,2.57,1.01,1.53,1.23,3.39.61,5.12l-34.12,95.05c-.56,1.56-2.28,2.37-3.84,1.81ZM417.08,187.38l8.86,3.18,32.99-91.92c-9.21-.49-30.48.52-37.18,19.2-8.38,23.35,5.47,32.15,6.06,32.51,1.21.74,1.76,2.25,1.28,3.58l-12,33.44Z"/>
            <path d="M366.87,173.59l-12.93-4.64c-1.56-.56-2.37-2.28-1.81-3.84l19.58-54.56c-7.29-7.12-8.13-16.84,4.07-46.04.64-1.53,2.39-2.25,3.92-1.61,1.53.64,2.25,2.4,1.61,3.92-12.67,30.34-9.88,35.76-4.18,40.56.96.81,1.32,2.13.89,3.31l-19.25,53.62,7.28,2.61,19.25-53.62c.46-1.28,1.71-2.09,3.07-1.98,9.84.8,12.71-3.29,23.61-33.66.56-1.56,2.28-2.37,3.84-1.81s2.37,2.28,1.81,3.84c-9.37,26.1-13.53,37.69-27.42,37.71l-19.52,54.37c-.56,1.56-2.28,2.37-3.84,1.81Z"/>
            <path d="M381.47,96.24c-1.56-.56-2.37-2.28-1.81-3.84l8.38-23.34c.56-1.56,2.28-2.37,3.84-1.81s2.37,2.28,1.81,3.84l-8.38,23.34c-.56,1.56-2.28,2.37-3.84,1.81Z"/>
            <path d="M393.45,100.55c-1.56-.56-2.37-2.28-1.81-3.84l8.38-23.34c.56-1.56,2.28-2.37,3.84-1.81s2.37,2.28,1.81,3.84l-8.38,23.34c-.56,1.56-2.28,2.37-3.84,1.81Z"/>
          </g>
          <g>
            <path d="M88.66,387.77c-1.11-.17-2.14.6-2.31,1.71l-1.72,11.62c-7.48-15.31-20.76-25.68-35.32-27.07-15.58-1.49-30.1,7.4-39.83,24.38-.56.97-.22,2.22.75,2.78.98.56,2.22.22,2.78-.75,8.91-15.53,21.99-23.68,35.92-22.35,13.56,1.29,25.95,11.35,32.68,26.13l-13.08-7.09c-.99-.54-2.22-.17-2.76.82-.54.99-.17,2.22.82,2.76l18.01,9.77s.02,0,.02,0c.13.07.27.12.41.16.03,0,.06.01.09.02.15.03.29.06.45.06.14,0,.28-.02.41-.05.04,0,.07-.02.11-.03.04-.01.09-.02.13-.03.05-.02.1-.05.15-.07.03-.01.07-.02.1-.04.02,0,.03-.02.05-.03.1-.06.2-.12.29-.19.03-.02.06-.04.08-.06.11-.1.21-.21.3-.33.02-.03.03-.06.05-.08.06-.1.12-.2.17-.3.02-.05.04-.09.05-.14.04-.1.06-.2.08-.3,0-.03.02-.06.02-.08l2.79-18.9c.16-1.11-.6-2.14-1.71-2.31Z" stroke="#000" stroke-miterlimit="10"/>
            <path d="M85.95,424.24c-.98-.56-2.22-.22-2.78.75-8.91,15.53-21.99,23.68-35.92,22.35-13.56-1.29-25.95-11.35-32.68-26.13l13.08,7.09c.99.54,2.22.17,2.76-.82.54-.99.17-2.22-.82-2.76l-18.01-9.77s-.02,0-.04-.01c-.13-.07-.27-.13-.41-.16-.02,0-.04,0-.06-.01-.12-.03-.25-.05-.38-.05-.05,0-.1,0-.15,0-.1,0-.2.01-.29.03-.06.01-.11.02-.17.04-.04.01-.08.02-.13.03-.05.02-.1.05-.15.07-.03.01-.07.02-.1.03-.02,0-.03.02-.05.03-.1.06-.2.12-.29.19-.03.02-.06.04-.08.06-.11.1-.21.21-.3.33-.02.03-.03.06-.05.08-.06.1-.12.2-.17.3-.02.05-.04.09-.05.14-.04.1-.06.2-.08.3,0,.03-.02.06-.02.08l-2.79,18.9c-.16,1.11.6,2.14,1.72,2.31.1.01.2.02.3.02.99,0,1.86-.73,2.01-1.74l1.72-11.62c7.48,15.31,20.76,25.68,35.32,27.07,1.13.11,2.25.16,3.36.16,14.29,0,27.44-8.79,36.47-24.54.56-.97.22-2.22-.75-2.78Z" stroke="#000" stroke-miterlimit="10"/>
          </g>
          <g>
            <path d="M211.17,37.81c-.93-.48-2.05-.44-2.95.11-29.18,17.9-69.18,14.54-75.52,13.87-1.9-1.77-4.06-3.2-6.48-4.22-11.36-4.81-24.51.52-29.32,11.88-4.34,10.25-.42,21.95,8.73,27.67l1.77,28.51c.04.71.34,1.38.83,1.89.14.15,2.4,2.48,5.76,3.9,1.8.76,3.91,1.26,6.18,1.03,3.96-.4,7.35-2.83,10.1-7.22.34-.54.49-1.17.45-1.81l-1.74-24.01c17.64,5.25,37.77,25.79,54.15,42.51l1.78,1.82c.28.29.61.51.97.66.54.23,1.15.3,1.74.18.99-.19,1.82-.87,2.2-1.8,1.02-2.48,25.03-61.02,22.95-92.5-.07-1.05-.68-1.98-1.62-2.47ZM102.44,61.78c3.52-8.31,13.14-12.21,21.45-8.69,1.4.59,2.69,1.36,3.86,2.3-.04.08-.07.15-.11.23-.2.42-.38.83-.57,1.24-.18.39-.36.79-.53,1.17-.17.39-.33.77-.49,1.16-.16.37-.31.75-.46,1.11-.15.37-.28.73-.42,1.08-.13.35-.26.7-.38,1.04-.12.35-.24.69-.35,1.02-.11.33-.22.66-.32.98-.1.33-.2.65-.29.97-.09.31-.18.62-.26.92-.08.31-.16.61-.23.91-.07.29-.14.58-.2.86-.07.29-.13.58-.18.86-.05.27-.1.54-.15.81-.05.28-.1.55-.14.82-.04.26-.08.51-.11.76-.03.26-.07.53-.1.78-.03.24-.05.48-.07.72-.02.25-.05.5-.06.74-.02.23-.03.46-.04.68-.01.24-.02.48-.03.71,0,.22,0,.43-.01.65,0,.23,0,.46,0,.68,0,.21,0,.41,0,.61,0,.22,0,.45.01.67,0,.2.02.39.02.58,0,.22.02.44.03.65.01.2.02.39.04.58.01.2.02.41.04.61.03.39.05.77.08,1.14.06.79.11,1.56.15,2.33,0,.07,0,.13,0,.2-3.75,1.24-7.85,1.1-11.51-.45-.36-.15-.7-.33-1.04-.5-.15-.09-.31-.17-.47-.23-7.26-3.99-10.48-12.93-7.18-20.72ZM119.59,116.47c-2.41.26-4.9-1.31-6.26-2.42l-1.5-24.26c3.66.96,7.51.97,11.18.04l1.66,23.01c-1.56,2.22-3.27,3.45-5.08,3.64ZM135.81,85.49c-2.4-1.02-4.8-1.83-7.19-2.4,0-.1-.01-.2-.02-.3-.04-.7-.09-1.39-.14-2.06-.05-.75-.11-1.5-.15-2.25,0-.07,0-.13,0-.2-.02-.31-.03-.62-.04-.93,0-.1,0-.21,0-.31,0-.28-.01-.55-.01-.83,0-.13,0-.26,0-.39,0-.26,0-.53.01-.8,0-.14.01-.29.02-.43.01-.26.03-.53.05-.8.01-.16.03-.32.04-.48.02-.27.05-.53.08-.81.02-.17.04-.34.07-.52.04-.27.08-.55.12-.83.03-.18.06-.37.1-.56.05-.28.11-.57.17-.87.04-.2.09-.4.13-.6.07-.3.14-.6.22-.91.05-.21.11-.42.17-.64.09-.32.18-.64.28-.97.07-.22.14-.45.21-.68.11-.34.23-.68.35-1.04.08-.24.16-.47.25-.72.13-.36.27-.74.42-1.11.1-.25.19-.5.3-.76.16-.39.33-.8.5-1.2.11-.26.22-.53.34-.8.19-.43.39-.87.6-1.31.13-.27.25-.54.38-.82.05-.1.1-.2.14-.29,9.13.9,44.66,3.15,73.69-12.3-.48,26.02-15.76,67.38-20.93,80.66-15.77-16.09-33.19-33.57-50.17-40.75Z"/>
            <path d="M216.7,67.13c.52.22,1.12.3,1.72.18l15.72-2.95c1.63-.31,2.7-1.87,2.4-3.5-.3-1.63-1.87-2.7-3.5-2.4l-15.72,2.95c-1.63.31-2.7,1.87-2.4,3.5.19,1.03.89,1.83,1.78,2.21Z"/>
            <path d="M227.29,96.58c1.59.48,3.26-.42,3.74-2,.48-1.59-.43-3.26-2-3.74l-16.35-4.94c-1.59-.48-3.26.42-3.74,2-.45,1.48.31,3.04,1.7,3.63.1.04.2.08.31.11l16.35,4.94Z"/>
            <path d="M218.42,119.06l-10.24-10.73c-1.14-1.2-3.04-1.24-4.24-.1-1.2,1.14-1.24,3.04-.1,4.24l10.24,10.73c.29.31.63.54,1,.69,1.07.45,2.35.26,3.24-.59,1.2-1.14,1.24-3.04.1-4.24Z"/>
          </g>
          <path d="M104.28,577.4c-1.01-.09-2.01-.08-2.99-.01l1.21-13.34.02-.16c.18-1.88.72-7.61-4.02-13.33-5.61-6.76-16.58-10.92-32.58-12.37s-27.45.73-34.24,6.44c-3.82,3.21-5.97,7.35-6.37,12.29l-1.22,13.51c-1.7-.66-3.52-1.1-5.44-1.27-10.34-.93-19.46,6.17-20.33,15.83-.59,6.52,2.67,12.72,8.42,16.3l-2,22.62c-.39,4.32,2.6,8.16,6.76,8.86l-1.31,14.45,8.19.74.52-.14c.42-.11,9.44-2.67,11.81-13.28l48.86,4.42c.43,10.87,8.85,15,9.24,15.19l.48.23,8.19.74,1.31-14.5c4.01-.18,7.4-3.34,7.77-7.49l1.99-21.98c6.66-2.15,11.54-7.98,12.16-14.84.86-9.53-6.51-18-16.43-18.9ZM31.27,557.42c.1-1.23.41-4.96,4.25-8.19,3.8-3.19,12.06-6.66,29.84-5.05,17.88,1.62,25.37,6.45,28.5,10.23,3.15,3.8,2.8,7.52,2.66,8.93l-1.41,15.58c-5.67,2.5-9.82,7.75-10.4,14.15l-.46,5.05c-5.63-4.49-13.8-7.25-24.4-8.2s-18.28.04-24.46,2.81l.39-4.33c.51-5.62-1.89-10.87-6.02-14.48l1.47-16.29.02-.19ZM32.85,601.47c4.99-4.78,14.14-6.72,26.48-5.6,11.62,1.05,20.02,4.51,24.28,10,2.24,2.88,2.97,5.79,3.18,7.83l-57.89-5.23c.42-1.91,1.44-4.59,3.95-6.99ZM17.75,641.88l-1.06-.1.76-8.44,7.19.65c-1.55,5.41-5.57,7.38-6.9,7.89ZM92.05,648.6l-1.05-.1c-1.24-.76-4.82-3.42-5.37-9l7.19.65-.76,8.44ZM105.2,605.81l-2.23.42-2.38,26.35c-.11,1.23-1.17,2.15-2.35,2.04l-18.33-1.66-48.47-4.38-18.79-1.7c-1.18-.11-2.06-1.2-1.94-2.44l2.35-26.64-1.86-.9c-4.62-2.23-7.33-6.7-6.91-11.38.58-6.37,6.77-11.03,13.82-10.39,7.04.64,12.3,6.33,11.73,12.7l-.82,9.04c-.14.13-.29.25-.43.39-6.37,6.2-5.96,13.79-5.94,14.11l.16,2.56,69.4,6.27.48-2.71c.05-.29,1.1-6.64-2.94-13.27l.96-10.64c.56-6.23,6.41-10.81,13.04-10.21,6.63.6,11.56,6.15,10.99,12.39-.45,4.95-4.37,9.08-9.53,10.05Z"/>
          <path d="M504.38,388.79c-7-14.21-23.87-21.29-38.94-16.67-3.16,1.04-5.99,2.48-8.5,4.24-3.41-4.06-6.81-8.12-10.18-12.22-2.5-3.04-4.99-6.1-7.47-9.16-1.65-2.04-3.24-4.94-5.47-6.38-4.14-2.67-12,.88-16.13,2.2-3.67,1.18-2,6.94,1.68,5.76,2.55-.82,5.56-2.1,8.23-2.26,4.09-.25,5.4,2.38,7.8,5.34.44.54.89,1.08,1.33,1.62-16.77,5.41-33.64,10.51-50.65,15.12-2.08-2.72-4.15-5.44-6.23-8.16.63-.23,1.26-.46,1.87-.73,2.68-1.17,5.29-2.51,7.94-3.76,2.27-1.07.55-5.01-1.81-4.08-2.02.8-4.12,1.4-6.22,1.94-1.02.26-2.04.5-3.06.71-.39.08-.79.16-1.19.23,0,0,0,0-.01,0-.11.01-.21.03-.32.04-1.17.15-2.34.25-3.51.35-2.69.23-5.38.41-8.06.71-2.34.27-4.68.39-6.06,2.59-.99,1.59-.78,3.63.57,4.94,1.53,1.48,3.7,1.61,5.68,1.25,0,0,.01,0,.02,0,.02,0,.04,0,.06,0,2.71-.62,5.37-1.48,8.02-2.3,2.68,3.51,5.35,7.01,8.03,10.52l-2.2,19.07c-6.95.06-13.85,2.3-19.58,6.81-10.47,8.26-14.56,22.38-10.91,35.1,3.68,12.83,14.29,22.15,27.73,22.99,13.78.86,27.79-6.86,32.58-20.1,2.23-6.17,2.62-12.99,1.28-19.42l2.74-.82c1.78,2.66,4.65,4.53,8.12,4.62,5.84.15,10.89-4.42,11.39-10.22.33-3.8-1.33-7.58-4.25-9.84,5.96-12.22,11.32-24.7,16.44-37.3.6.73,1.19,1.46,1.79,2.19,1.81,2.18,3.62,4.34,5.44,6.51-13.65,14.09-12.68,39.42,5.98,51.09,11.56,7.23,27.84,6.5,38.47-2.11,11.96-9.69,14.12-27.01,7.52-40.42ZM401.57,447.14c-7.66,12.03-26.78,15.52-37.91,6.45-10.42-8.49-12.89-24.54-5.79-35.87,4.75-7.59,12.76-11.65,21.06-11.96l-2.93,25.4c-.12,1,.28,2,1.06,2.64.77.64,1.81.86,2.76.58h.02s25.18-7.58,25.18-7.58c1.34,6.99.27,14.49-3.46,20.34ZM393.62,409.33c4.45,2.71,7.71,6.9,9.7,11.71l-20.83,6.26,2.43-21.13c3,.55,5.94,1.59,8.7,3.15ZM422.76,422.82c-6.84,1.17-7-11,.4-10.06,5.38,1.06,4.88,9.15-.4,10.06ZM423.03,406.84c-5.78-.07-10.81,3.54-11.47,9.74-.07.67-.07,1.33-.03,2l-2.51.75c-2.44-6.22-6.65-11.69-12.53-15.26-3.43-1.94-7.12-3.23-10.89-3.89l2.08-18.04c17.85-4.83,35.54-10.21,53.13-15.92.01.02.03.04.04.05-5.53,13.7-11.32,27.3-17.83,40.56ZM478.34,430.18c-14.03.98-26.93-8.51-29.19-22.59-1.38-8.6,1.43-16.95,7.08-22.84,5.26,6.2,10.56,12.35,15.91,18.46,2.54,2.9,6.66-1.47,4.13-4.36-5.2-5.93-10.35-11.91-15.46-17.93,1.92-1.26,4.04-2.3,6.32-3.05,14.56-4.46,29.61,4.17,33.85,18.61,4.75,16.15-5.66,32.5-22.64,33.69Z"/>
          <g>
            <path d="M498.66,524.81c-2.97-.64-6.57.83-9.52,1.38-3.7.66-7.22.94-8.04,5.32-1.17,6.28.34,14.02.78,20.36.27,3.86.68,7.7,5.06,8.69,3.94.89,8.79.04,12.65-.9,3.78-.92,6.66-2.75,6.97-6.97.42-5.76-1.31-12.54-2.34-18.2-.67-3.7-1.15-8.73-5.56-9.68ZM497.47,553.99c-2.24.5-5.58,1.27-7.89.82-.33-.02-.65-.03-.98-.05-.89.11-1.09-.26-.6-1.08-.63-1.33-.27-4.03-.36-5.44-.22-3.63-.4-7.26-.53-10.9-.02-.46-.63-4.45-.39-4.72.48-.52,3.27-.52,4.01-.65,1.48-.28,2.96-.59,4.44-.88,1.31-.26,1.74-.41,2.24.05.77.7.85,4.01,1.01,4.93.7,3.87,1.22,7.76,1.7,11.66.38,3.12.97,5.44-2.66,6.25Z"/>
            <path d="M629.82,490.54c-3.34-8.29-9.85-5.75-17.05-3.94-10.96,2.76-21.91,5.56-32.86,8.37-21.36,5.49-42.71,11.04-64.06,16.58-3.51-2.48-8.38-1.27-12.71-.47-9.3,1.72-19.28,2.66-28.33,5.45-5.82,1.79-7.83,6.4-7.5,12.18.46,8.18,1.04,16.37,1.58,24.55.34,5.19-.5,12.91,4.16,16.53,4.76,3.69,12.86,1.87,18.3,1.54,8.38-.51,16.83-1.19,25.12-2.53,4.93-.8,8.44-3.19,9.28-8.33.09-.54.16-1.09.22-1.64.89-.18,1.78-.39,2.67-.48,2.03-.22,3.67-.26,5.49.72,1.81.98,3.21,2.62,5.31,3.1,2.28.51,4.25-.33,5.74-2.06,1.11-1.3,1.56-2.94,2.32-4.43,1.57-3.07,2.2-1.68,5.36-1.24,2.56.35,5.09.09,6.86-2.02.77-.92,1.11-1.99,1.4-3.14.5-1.95-.2-2.62,1.96-3.22,3.61-1,7.71,2.14,11.31.08,2.97-1.7,1.37-3.96,2.67-6.32.78-1.43.6-.97,3.02-.85,1.83.09,3.74.35,5.57.29,2.78-.09,4.94-1.03,5.86-3.81.38-1.16.47-2.48.52-3.71,0-.17-.06-.77-.08-1.32.25-.06.66-.16,1.18-.01,2.42.71,8.19.81,10.45-.76,1.92-1.34,2.49-3.94,2.26-6.16-.01-.15.03-.76,0-1.23.55,0,1.43-.18,1.84-.17,2.27.08,4.61.35,6.87.05,2.16-.28,4.3-1.14,5.44-3.12.62-1.08.81-2.4.82-3.62.03-2.53-1.3-1.85.77-2.26,2.71-.54,5.6,1.21,8.45.41,2.39-.67,3.75-2.38,4.02-4.81.66-5.88-2.25-12.79-4.26-18.19ZM513.96,563.14c-3.76.56-7.56.95-11.34,1.31-7.12.67-14.44,1.46-21.59,1.37-4.02-.05-5.2-.98-5.58-5.06-.35-3.75-.55-7.52-.79-11.28-.43-6.93-.95-13.85-1.34-20.78-.18-3.04-.04-5.25,3.09-6.4,3.3-1.21,7.15-1.51,10.6-2.17,3.73-.71,7.46-1.4,11.19-2.08,3.36-.62,7.13-1.84,10.54-1.92,3.2-.07,4.26.7,5.29,3.58.62,1.73,1.09,3.53,1.57,5.3.89,3.26,1.65,6.56,2.27,9.89.27,1.44.53,2.91.77,4.39.84,5.59,1.27,11.22,1.37,16.88-.02.6-.03,1.2-.06,1.79-.25,4.17-2.27,4.62-6,5.18ZM626.95,507.74c-1.23.07-2.54-.32-3.77-.45-2.13-.24-4.42-.46-6.29.78-2.21,1.46-2.02,3.32-2.22,5.62-.16,1.78.18,2.18-2.01,2.55-2.1.36-4.53-.24-6.66-.22-2.3.03-4.34.3-5.57,2.47-.55.98-.61,2.15-.66,3.24-.09,2.21.6,2.3-1.57,2.8-4.87,1.12-11.55-2.46-12.18,4.98-.08.95.48,2.8-.2,3.55-.66.73-3.8-.02-4.86-.07-2.55-.13-5.43-.68-7.58,1-1.59,1.25-1.97,2.96-2.23,4.89-.16,1.17-.39,2.47-.2,2.38-.23.1-5.4-1.02-6.85-1.12-2.54-.18-5.15-.16-6.95,1.9-1.52,1.74-.95,4.78-2.59,5.96-2.16,1.57-6.18-1.55-9.12.36-1.35.88-2.03,2.14-2.73,3.53-1.23,2.46-1.22,4.3-4.2,2.94-3.26-1.49-4.6-2.73-8.43-2.61-1.29.04-2.59.34-3.88.59-.13-4.28-.75-8.66-1.4-12.79-.24-1.74-.51-3.48-.82-5.22-.9-5.83-1.96-12.59-4.41-18.03,16.78-4.36,33.56-8.72,50.36-13.05,9.01-2.32,18.03-4.64,27.05-6.94,4.51-1.15,9.02-2.29,13.53-3.43,2.94-.74,12.13-4.7,13.53-1.23,1.55,4.17,4.58,10.44,4.06,14.95-.15,1.3.69.55-1.15.66Z"/>
          </g>
          <g>
            <path d="M194.86,247.42c1.56,4.4-2.15,9.14-4.59,12.41-2.3,3.1,2.9,6.1,5.18,3.03,4.8-6.46,8.22-14.12,2.87-21.25-1.59-2.12-3.89-3.86-5.11-6.23-1.89-3.67.69-7.38,2.8-10.36,2.23-3.16-2.97-6.16-5.18-3.03-4.54,6.43-5.97,12.99-.68,19.32,1.6,1.92,3.85,3.68,4.71,6.1Z"/>
            <path d="M247.08,247.12c1.99,4.75-1.85,9.12-4.47,12.71-2.28,3.13,2.93,6.12,5.18,3.03,3.64-5,7.54-10.71,5.17-17.15-1.01-2.74-2.96-4.87-4.78-7.09-1.32-1.62-3.18-3.76-3.27-6.01-.12-2.77,1.97-5.41,3.44-7.58,2.17-3.21-3.03-6.21-5.18-3.03-3.69,5.46-5.91,11.24-2.02,17.24,1.72,2.66,4.7,4.94,5.93,7.88Z"/>
            <path d="M220.42,246.72c1.68,4.9-3.08,9.43-6.22,12.5-2.77,2.7,1.48,6.95,4.24,4.24,6.66-6.51,11.38-14.48,5.26-22.94-1.83-2.52-4.5-4.83-5.59-7.81-1.83-4.98,2.75-9.78,5.89-13.05,2.68-2.78-1.56-7.03-4.24-4.24-6.56,6.82-11.06,15.03-4.88,23.56,1.79,2.46,4.54,4.79,5.55,7.74Z"/>
            <path d="M286.13,277.92c-1.21-1.41-2.96-2.21-4.81-2.21h-122.41c-1.77,0-3.48.75-4.67,2.06-1.19,1.3-1.79,3.06-1.63,4.82.85,9.55,5.59,32.65,31.05,44.45v3.36c0,3.19,2.6,5.79,5.79,5.79h61.34c3.19,0,5.79-2.6,5.79-5.79v-3.96c23.67-11.89,29.56-34.22,31-43.44.28-1.82-.24-3.67-1.44-5.07ZM281.64,282.07c-1.32,8.48-6.83,29.33-29.33,39.76-1.06.49-1.74,1.55-1.74,2.72v5.64h-60.92v-5.1c0-1.2-.72-2.29-1.83-2.76-24.08-10.25-28.48-31.57-29.25-40.27,0-.03-.01-.14.08-.24.06-.07.15-.11.24-.11h122.41c.1,0,.19.04.25.12.09.11.08.21.07.24Z"/>
          </g>
          <path d="M729.07,194.77c.27-1.23-.42-2.22-1.38-2.86-1.47-.97-3.54-1.26-5.36-1.53.9-3.29,1.83-7.09.88-9.58-1.64-4.34-11.11-5.71-14.99-6.5-6.58-1.35-13.4-1.67-20.09-1.17-3.43.25-6.83.72-10.2,1.36-1.27.24-2.55.49-3.8.79-2.22.53-1.89.45-3.48-1.06-4.07-3.86-8.29-7.55-13.56-9.65-5.98-2.38-12.53-3.22-18.9-3.86-4.25-.43-11.97-1.73-15.81.96-1.66,1.16-2.08,3.13-2.37,5.05-2.5-.17-5.28-.56-7.56.17-4.11,1.32-4.21,7.21-5.06,10.67-2.7,11.03-5.48,22.05-8.13,33.09-1.26,5.24-2.48,10.48-3.66,15.74-.72,3.23-3.83,10.26-1.37,13.26,2.11,2.59,7.77,1.95,10.73,2.27,5.86.65,11.7,1.39,17.53,2.31,5.09.8,10.16,1.72,15.2,2.77,2.54.53,2.31.94,3.55,2.81,1,1.5,2.51,2.66,4.08,3.5,2.89,1.54,6.53,2.43,9.8,2.36,1.5-.03,3.02-.28,4.39-.92,2.32-1.08,1.86-2.04,4.49-1.62,11.29,1.81,22.44,4.74,33.61,7.19,3.34.73,9.62,3.43,12.9,1.73,2.73-1.41,2.97-6.1,3.65-8.7,5.1-19.49,10.51-38.92,14.91-58.58ZM695.54,178.14c6.5.11,14.02.95,20.02,3.64,3.08,1.38,2.48,2.33,1.9,5.27-.48,2.42-.99,4.83-1.52,7.24-2.1,9.51-4.51,18.96-7.12,28.34-1.95,7.01-3.84,14.14-6.43,20.95-.19.49-.35,1.06-.57,1.57-.21-.08-.46-.17-.77-.26-1.01-.89-3.01-1.48-4.24-2-5.34-2.26-11.01-3.82-16.78-4.43-6.53-.69-13.06-.33-19.47,1.05-1.01.22-2.02.45-3.02.72-.39.1-.75.19-1.08.27,6.72-19.66,12.87-39.51,17.19-59.86.64-.09,1.35-.24,2.18-.42,6.45-1.45,13.1-2.2,19.71-2.08ZM626.34,165.81c1.91-1.15,7.26-.28,9.29-.12,5.43.42,11.09,1.11,16.33,2.61,6.11,1.76,10.68,5.51,15.2,9.82.51.49.97.89,1.4,1.23-4.33,20.44-10.51,40.38-17.26,60.14-.16-.11-.31-.21-.49-.34-2.56-1.94-4.79-4.17-7.55-5.88-5.03-3.12-10.79-5.1-16.6-6.12-3.07-.54-6.18-.84-9.3-.72-2.12.08-4.76.9-7.14,1.15,2.74-11.71,6.12-23.25,9.21-34.87,1.68-6.33,3.29-12.69,4.63-19.1.42-2.01.43-6.68,2.29-7.79ZM710.17,247.94c-.49,1.86-.98,3.73-1.46,5.59-.18.7-.31,1.76-.62,2.37-.73,1.44-.18.91-1.88.89-4.57-.06-9.82-2.1-14.27-3.1-5.04-1.13-10.07-2.27-15.12-3.35-4.46-.95-8.94-1.93-13.45-2.65-1.35-.22-2.4-.54-3.65.09-1.92.98-2.44,2.48-4.95,2.65-2.83.2-7.44-1.16-9.15-3.52-.72-.99-.76-2.23-1.67-3.14-1.16-1.16-2.87-1.4-4.39-1.74-8.93-2-18.04-3.37-27.11-4.5-2.14-.27-4.29-.52-6.43-.75-1.1-.12-5.97.04-6.58-.68-1.03-1.24.43-4.66.77-6.2.54-2.48,1.1-4.96,1.67-7.44,2.42-10.53,5.02-21.02,7.62-31.51,1.35-5.45,2.4-11.09,4.04-16.45.26-.84.24-2.1,1.05-2.67.64-.46,3.39.09,4.14.1.11,0,.21,0,.32,0-.59,2.87-1.22,5.73-1.9,8.58-3.93,16.42-9.06,32.52-12.74,49-.18.81.09,1.7.66,2.31.18.22.42.4.69.55.02.01.04.02.05.03.09.05.19.09.3.13.12.05.23.08.35.11.02,0,.04.02.07.02.05.01.11.01.16.02.04,0,.09.02.13.02,2.42.38,5-.47,7.41-.75,3.6-.42,7.12-.37,10.7.21,6.88,1.12,13.48,3.6,19.02,7.9,2.08,1.62,3.77,4.02,5.94,5.53.52,1,1.89,1.45,3.12,1.12,1.82.04,3.65-.8,5.49-1.31,7.12-1.98,14.67-2.6,22.01-1.63,3.39.45,6.73,1.22,9.97,2.29,3.44,1.14,6.5,3.12,9.86,4.33,2.99,1.07,5.03-.4,6.22-3.08,3.01-6.79,4.8-14.32,6.81-21.44,2.84-10.07,5.44-20.21,7.69-30.42.77.1,1.62.2,2.42.39-3.18,13.92-6.87,27.73-10.5,41.53-.93,3.52-1.85,7.03-2.78,10.55Z"/>
          <g>
            <path d="M816.44-8.12c0-.23-.03-.45-.08-.67,0-.03-.01-.07-.02-.1-.06-.21-.14-.41-.23-.6-.02-.04-.04-.07-.06-.1-.11-.19-.23-.37-.38-.53-.02-.02-.04-.04-.06-.06-.15-.16-.32-.31-.51-.43,0,0-.01-.01-.02-.02,0,0,0,0,0,0-.13-.08-.26-.16-.4-.22l-51.77-23.2c-2.42-1.08-5.17-1.05-7.56.1l-48.17,23.13c-.1.05-.2.11-.3.17-.01,0-.03.01-.04.02,0,0,0,0-.01.01-.19.12-.35.27-.51.43-.03.03-.05.05-.08.08-.14.16-.27.33-.37.52-.02.03-.04.07-.05.1-.1.19-.18.39-.24.61,0,.02,0,.05-.01.07-.05.21-.08.43-.08.65,0,.02,0,.03,0,.05v61.02c0,2.7,1.5,5.14,3.91,6.35l50.22,25.37c.12.06.24.09.36.13.08.03.15.06.23.09.25.06.5.1.75.1s.51-.04.75-.1c.08-.02.16-.06.23-.09.12-.04.25-.07.36-.13l50.22-25.37c2.41-1.22,3.91-3.65,3.91-6.35V-8.11s0,0,0,0ZM757.94-28.54c.79-.38,1.71-.39,2.5-.03l45.62,20.45-40.1,17.76-5,2.22-36.17-16.02-9.15-4.05,42.3-20.32ZM711.48,52.91V-3.5l46.48,20.59v60l-45.87-23.17c-.38-.19-.61-.57-.61-1ZM809.82,53.91l-45.87,23.17V17.09l46.48-20.59v56.41c0,.42-.24.81-.61,1Z"/>
            <path d="M774.84,28.8l3.99-2.01c.4-.2.65-.61.65-1.06v-5.15c0-.86-.88-1.43-1.66-1.08l-3.99,1.77c-.43.19-.7.61-.7,1.08v5.4c0,.88.93,1.45,1.72,1.06Z"/>
            <path d="M800.73,15.92v-5.15c0-.86-.88-1.43-1.66-1.08l-3.99,1.77c-.43.19-.7.61-.7,1.08v5.4c0,.88.93,1.45,1.72,1.06l3.99-2.01c.4-.2.65-.61.65-1.06Z"/>
            <path d="M800.88,41.65l-3.99,1.77c-.43.19-.7.61-.7,1.08v5.4c0,.88.93,1.45,1.72,1.06l3.99-2.01c.4-.2.65-.61.65-1.06v-5.15c0-.86-.88-1.43-1.66-1.08Z"/>
            <path d="M778,52.55l-3.99,1.77c-.43.19-.7.61-.7,1.08v5.4c0,.88.93,1.45,1.72,1.06l3.99-2.01c.4-.2.65-.61.65-1.06v-5.15c0-.86-.88-1.43-1.66-1.08Z"/>
            <path d="M789.26,31.66l-3.99,1.77c-.43.19-.7.61-.7,1.08v5.4c0,.88.93,1.45,1.72,1.06l3.99-2.01c.4-.2.65-.61.65-1.06v-5.15c0-.86-.88-1.43-1.66-1.08Z"/>
            <path d="M748.27,21.26l-3.99-1.77c-.78-.35-1.66.23-1.66,1.08v5.15c0,.45.25.86.65,1.06l3.99,2.01c.79.4,1.72-.17,1.72-1.06v-5.4c0-.47-.28-.89-.7-1.08Z"/>
            <path d="M725.21,43.42l-3.99-1.77c-.78-.35-1.66.23-1.66,1.08v5.15c0,.45.25.86.65,1.06l3.99,2.01c.79.4,1.72-.17,1.72-1.06v-5.4c0-.47-.28-.89-.7-1.08Z"/>
            <path d="M736.83,33.43l-3.99-1.77c-.78-.35-1.66.23-1.66,1.08v5.15c0,.45.25.86.65,1.06l3.99,2.01c.79.4,1.72-.17,1.72-1.06v-5.4c0-.47-.28-.89-.7-1.08Z"/>
            <path d="M756.16-7.51l4.3,1.91c.31.14.67.14.99,0l4.22-1.87c.96-.43.97-1.79,0-2.23l-4.45-1.99c-.33-.15-.7-.14-1.03.01l-4.07,1.96c-.94.45-.92,1.79.03,2.21Z"/>
          </g>
          <g>
            <path d="M657.08,353.23c-.86.18-1.7-.38-1.88-1.24l-2.2-10.79c-.18-.86.38-1.7,1.24-1.88s1.7.38,1.88,1.24l2.2,10.79c.18.86-.38,1.7-1.24,1.88Z" stroke="#000" stroke-miterlimit="10" stroke-width="2"/>
            <path d="M647.24,359.55c-.52.71-1.51.86-2.22.34l-8.88-6.5c-.71-.52-.86-1.51-.34-2.22s1.51-.86,2.22-.34l8.88,6.5c.71.52.86,1.51.34,2.22Z" stroke="#000" stroke-miterlimit="10" stroke-width="2"/>
            <path d="M642.57,370.01c.05.88-.62,1.63-1.5,1.68l-10.99.62c-.88.05-1.63-.62-1.68-1.5s.62-1.63,1.5-1.68l10.99-.62c.88-.05,1.63.62,1.68,1.5Z" stroke="#000" stroke-miterlimit="10" stroke-width="2"/>
            <path d="M687.78,359.17c.06.04.11.07.17.11.02,0,.03-.02.05-.03-.07-.03-.15-.06-.22-.08Z" stroke="#000" stroke-miterlimit="10" stroke-width="2"/>
            <path d="M709.52,352.87c-.28-1.14-1.04-2.12-2.08-2.68-2.41-1.28-4.94-1.94-7.53-1.94h0c-.73,0-1.44.06-2.14.15.82-2.62.96-5.48.4-8.52-.35-1.88-2.03-3.25-4-3.25h0c-.4,0-.8.06-1.18.17-3.63,1.08-6.53,3.18-8.6,6.16-1.55-3.33-4.19-5.87-7.84-7.48-.47-.21-.98-.31-1.5-.31h0c-1.73,0-3.34,1.19-3.92,2.89-1.75,5.17-1.59,9.75.46,13.62.45.85.98,1.61,1.54,2.3-.96.11-1.91.28-2.84.51-5.75,1.45-10.37,5.16-13.35,10.72-10.71,19.96-10.86,46.78-9.44,58.17.26,2.06,1.53,3.81,3.4,4.69.81.38,1.68.57,2.54.57,1.12,0,2.24-.32,3.22-.95,9.98-6.41,29.41-23.03,38.95-44.72,3.35-7.61,2.28-14.26-1.04-19.27.06,0,.11,0,.17,0,5.87,0,10.79-2.66,14.21-7.68.62-.92.83-2.07.56-3.16ZM685.92,348.87c-.05-.59-.14-1.16-.24-1.72,1.38-3.08,3.85-5.98,8.21-7.28.09-.03.18-.04.28-.04.41,0,.8.25.88.65.67,3.65.08,6.59-1.1,8.94-3.71,1.41-6.62,3.83-8.3,5.48.26-1.54.48-3.68.27-6.02ZM674.14,339.09c.14-.41.54-.73.9-.73.08,0,.15.01.22.04,4.37,1.92,6.32,5.19,7.1,8.41h0c.14.6.25,1.19.32,1.77,0,.01,0,.03,0,.04.03.27.06.53.08.8,0,.03,0,.06,0,.1.02.25.03.51.04.75,0,.02,0,.04,0,.07.03,1.1-.05,2.11-.15,2.99,0,.02,0,.03,0,.05-.02.2-.05.39-.08.58,0,.02,0,.03,0,.05-.05.32-.1.6-.15.87-1.58-.49-3.2-.8-4.82-.94-3.07-2.39-6.14-6.9-3.46-14.85ZM692.71,381.7c-1.32,3-2.86,5.91-4.53,8.71-1.25-1.12-4.05-3.37-8.62-5.68-.78-.39-1.74-.08-2.14.7-.4.78-.08,1.74.7,2.14,4.97,2.51,7.67,4.94,8.34,5.59-4.18,6.43-9.06,12.21-13.88,17.11-2.85-2.71-6-4.15-6.15-4.21-.8-.36-1.74,0-2.1.8-.36.8,0,1.74.79,2.1.03.01,2.76,1.27,5.19,3.55-5.95,5.76-11.59,10.09-15.38,12.52-.82.53-1.81.59-2.7.18-.89-.42-1.48-1.22-1.6-2.2-.88-7.03-1.14-20.13,1.46-33.68,4.64.23,9.82,2.65,9.87,2.68.22.1.45.15.68.15.6,0,1.17-.34,1.44-.91.38-.79.04-1.74-.76-2.12-.23-.11-5.45-2.56-10.58-2.95,1.25-5.56,3.01-11.13,5.43-16.32,1.19.03,5.12.36,10.83,3.12.22.11.46.16.69.16.59,0,1.16-.33,1.43-.9.38-.79.05-1.74-.74-2.12-4.81-2.33-8.52-3.09-10.69-3.34,0-.02.02-.03.03-.05,3.65-6.81,9.79-9.68,15.89-9.68,3.08,0,6.15.73,8.89,2.07,7.43,3.62,12.84,12.01,8.19,22.59ZM706.33,354.25c-3.37,4.94-7.78,6.29-11.58,6.29-1.09,0-2.12-.11-3.07-.28-1.19-1.14-2.51-2.15-3.92-3,1.58-1.58,4.58-4.12,8.37-5.25,0,0,0,0,0,0,1.19-.35,2.45-.57,3.78-.57,1.91,0,3.94.45,6.03,1.56.45.24.67.83.39,1.24Z" stroke="#000" stroke-miterlimit="10" stroke-width="2"/>
          </g>
          <g>
            <path d="M191.81,734.4c.47,2.76.3,5.52-.6,8.18-.66,1.96-2.37,3.67-2.7,5.67-.08.47.26,1.13.69,1.34,2.44,1.21,6.93-1.09,9.24-2.12,3.4-1.51,6.58-3.66,9.13-6.38,1.22-1.3,2.31-2.71,3.26-4.22.47-.75.93-2.11,1.61-2.66.8-.65,2.72-.8,3.73-1.06,4.45-1.15,8.88-2.49,13.05-4.44,13.76-6.43,23.29-21.31,18.5-36.64-4.36-13.97-18.77-20.4-32.6-19.32-8.03.63-16.44,3.2-23.76,6.49-7.35,3.3-14.22,8.25-17.93,15.58-3.76,7.44-4.05,16.26-.47,23.83,1.7,3.61,4.39,6.62,7.49,9.08,1.71,1.36,3.55,2.53,5.46,3.59.97.54,1.96,1.04,2.96,1.52.62.3,2.75.92,2.94,1.55.57,1.83,3.5,1.2,2.93-.64-.89-2.84-4.5-3.48-6.89-4.78-3.05-1.66-5.99-3.62-8.39-6.15-4.86-5.12-6.88-12.42-5.77-19.36,2.64-16.46,19.95-23.09,34.22-26.45,12.26-2.89,27.44-1.24,34.57,10.6,7.71,12.81,1.66,28.61-10.38,36.12-4.05,2.53-8.54,4.22-13.11,5.54-2.16.63-4.36,1.11-6.53,1.7-1.83.5-2.46,1.23-3.36,2.89-1.98,3.62-4.79,6.71-8.27,8.93-1.61,1.03-3.34,1.88-5.12,2.57-.89.35-1.79.64-2.71.9-.45.13-2.69.55-2.19.79l.69,1.34c.12-.69,1.39-2.13,1.75-2.9.59-1.26,1.04-2.56,1.35-3.91.59-2.6.59-5.22.15-7.84-.32-1.9-3.25-1.26-2.93.64Z" stroke="#000" stroke-miterlimit="10" stroke-width="2"/>
            <g>
              <path d="M205.22,715.83c4.12,2.96,11.31,1.37,13.37-3.39.77-1.77-2.09-2.68-2.85-.92-1.31,3.04-6.52,3.5-8.9,1.79-1.57-1.13-3.18,1.4-1.62,2.52h0Z" stroke="#000" stroke-miterlimit="10" stroke-width="2"/>
              <path d="M222.85,698.75c-2.03-1.49-5.27-.11-5.71,2.36-.6,2.77,2.27,4.88,4.84,4.01,2.82-.85,3.22-4.69.91-6.34l-.04-.03Z"/>
              <path d="M200.15,703.17c-2.09-.88-4.56.78-4.89,2.96-.61,3.15,3.33,5.11,5.73,3.28,2.1-1.55,1.62-5.28-.81-6.22h-.04Z"/>
            </g>
            <path d="M223.82,649.15l-.04-.42-2.93.64c.34,3.54.68,7.07,1.02,10.61.18,1.92,3.11,1.26,2.93-.64-.34-3.54-.68-7.07-1.02-10.61-.18-1.92-3.11-1.26-2.93.64l.04.42c.18,1.92,3.11,1.26,2.93-.64h0Z" stroke="#000" stroke-miterlimit="10" stroke-width="2"/>
            <path d="M237.81,663.27c1.65-3.05,3.18-6.14,4.61-9.3.79-1.74-1.79-3.27-2.59-1.51-1.43,3.15-2.97,6.25-4.61,9.3-.92,1.7,1.67,3.21,2.59,1.51h0Z" stroke="#000" stroke-miterlimit="10" stroke-width="2"/>
            <path d="M248.37,670.82c2.78-1.73,5.56-3.46,8.34-5.18,1.63-1.01.25-3.68-1.4-2.65-2.78,1.73-5.56,3.46-8.34,5.18-1.63,1.01-.25,3.68,1.4,2.65h0Z" stroke="#000" stroke-miterlimit="10" stroke-width="2"/>
          </g>
          <g>
            <path d="M270.89,525.56c-.26,1.11-.85,2.16-1.75,2.98l-7.12,6.48c-1.18,1.07-2.71,1.61-4.3,1.52s-3.05-.8-4.1-2l-12.02-13.74c-.15-.18-.35-.19-.45-.18-.1,0-.29.05-.41.25l-6.12,9.85c-1.24,1.99-3.44,3.04-5.77,2.73-2.32-.3-4.19-1.88-4.88-4.12l-18-58.71c-.69-2.24-.02-4.6,1.74-6.15,1.76-1.55,4.18-1.92,6.32-.95l56.21,25.31c2.16.97,3.49,3.04,3.47,5.41-.01,2.36-1.37,4.42-3.53,5.37l-12.85,5.62c-.22.09-.28.27-.31.37-.02.1-.04.29.12.47l12.46,14.23c1.3,1.48,1.71,3.46,1.29,5.26ZM209.05,468.27c-.11.44-.09.91.05,1.39l18,58.71c.31,1.01,1.12,1.7,2.17,1.84,1.05.14,2.01-.32,2.57-1.22l6.12-9.85c.64-1.03,1.71-1.68,2.92-1.78,1.21-.1,2.37.37,3.17,1.29l12.02,13.74c.47.54,1.12.85,1.83.89.71.04,1.39-.2,1.92-.68l7.12-6.48c1.05-.96,1.15-2.6.21-3.67l-12.46-14.23c-.81-.92-1.12-2.14-.85-3.33.28-1.2,1.07-2.16,2.19-2.65l12.85-5.62c.98-.43,1.57-1.32,1.57-2.39,0-1.07-.57-1.97-1.55-2.41l-56.21-25.31c-.97-.44-2.02-.28-2.82.42-.43.38-.71.84-.83,1.35Z" stroke="#000" stroke-miterlimit="10" stroke-width="2"/>
            <path d="M212.42,453.68c-.89.23-1.8-.3-2.04-1.19l-2.91-11.18c-.23-.89.3-1.8,1.19-2.04s1.8.3,2.04,1.19l2.91,11.18c.23.89-.3,1.8-1.19,2.04Z" stroke="#000" stroke-miterlimit="10" stroke-width="2"/>
            <path d="M198.11,465.83c-.34.86-1.3,1.28-2.16.95l-10.76-4.22c-.86-.34-1.28-1.3-.95-2.16s1.3-1.28,2.16-.95l10.76,4.22c.86.34,1.28,1.3.95,2.16Z" stroke="#000" stroke-miterlimit="10" stroke-width="2"/>
            <path d="M229.35,458.75c-.42.09-.87.02-1.26-.23-.78-.5-1-1.53-.5-2.31l6.4-9.97c.5-.78,1.53-1,2.31-.5s1,1.53.5,2.31l-6.4,9.97c-.25.39-.63.64-1.05.73Z" stroke="#000" stroke-miterlimit="10" stroke-width="2"/>
            <path d="M197.08,485.97c-.16.39-.48.73-.9.9l-10.95,4.54c-.85.35-1.83-.05-2.18-.9s.05-1.83.9-2.18l10.95-4.54c.85-.35,1.83.05,2.18.9.18.43.16.88,0,1.28Z" stroke="#000" stroke-miterlimit="10" stroke-width="2"/>
          </g>
          <g>
            <path d="M569.06,38.75c-.44.92-.96,1.82-1.58,2.69-.58.82-1.48,1.28-2.54,1.31-1.27.04-2.61-.59-3.42-1.6l-7.76-10-5.74,1.65-3.24,5.36s.02.04.03.05l7.67,10.1c1.32,1.73,1.06,4.16-.59,5.52-4.5,3.72-10.65,3.29-16.05-1.11-6.38-5.21-10.35-15.15-5.59-24.1.06-.11.05-.28-.03-.41l-14.89-20.97c-.05-.07-.12-.1-.14-.11-5.7,1.76-14.22-.08-20.33-8.17-4.89-6.48-5.56-14.17-1.73-20.06.7-1.08,1.89-1.75,3.18-1.8,1.29-.04,2.52.55,3.29,1.58l7.9,10.27c.34.46.9.66,1.43.53.03,0,.06-.01.08-.02l5.38-.98c.4-.11.73-.38.91-.75l2.29-5.78s.02-.05.03-.08c.25-.54.25-1.04.18-1.18-.51-.62-5.53-6.78-8.49-10.8-.78-1.06-.99-2.38-.57-3.63.42-1.25,1.43-2.22,2.71-2.6h0c7.17-2.12,14.37.6,19.25,7.27,5.14,7.02,5.95,16.05,1.96,21.94-.11.16-.08.42.06.63,3.35,5,13.45,18.47,14.93,20.33,6.48-2.26,14.4.68,19.26,7.16,4.12,5.49,4.85,12.06,2.14,17.76ZM541.94,36.81c.04-.09.09-.19.15-.28l3.3-5.45c.37-.62.96-1.07,1.66-1.27l5.91-1.7c1.16-.33,2.4.05,3.18.97.01.02.03.03.04.05l7.82,10.08c.27.34.82.46.95.4,3.65-5.14,3.46-11.4-.54-16.72-4.06-5.4-10.52-7.9-15.72-6.08-1.36.47-2.37,0-2.99-.47-.78-.61-12.97-17.17-15.59-21.08-.86-1.28-.88-2.91-.05-4.14,3.21-4.74,2.41-12.44-1.9-18.32-4.07-5.56-9.98-7.84-15.82-6.11,0,0,0,0,0,0-.42.12-.57.45-.62.59-.05.15-.11.46.12.76,3.06,4.15,8.38,10.66,8.44,10.73.02.02.03.04.05.07.97,1.32.73,3.09.17,4.33l-2.29,5.79s-.04.08-.06.13c-.6,1.25-1.71,2.16-3.06,2.48-.03,0-.06.01-.08.02l-5.4.98c-1.74.4-3.55-.27-4.62-1.7l-7.9-10.27c-.23-.31-.53-.34-.68-.34-.16,0-.45.06-.65.37-3.13,4.82-2.53,10.98,1.61,16.46,4.43,5.86,11.39,8.76,16.93,7.06,1.32-.4,2.76.12,3.6,1.3l14.9,20.99c.76,1.11.84,2.51.23,3.68-2.99,5.62-2.31,14.38,4.81,20.19,3.26,2.66,8.15,4.36,12.05,1.13.34-.28.38-.82.09-1.19l-7.67-10.1c-.74-.92-.88-2.22-.36-3.3ZM547.56,13.86h0Z" stroke="#000" stroke-miterlimit="10" stroke-width="2"/>
            <path d="M554.75,1.49c0-.87.71-1.57,1.58-1.57l10.88.03c.87,0,1.57.71,1.57,1.58s-.71,1.57-1.58,1.57l-10.88-.03c-.87,0-1.57-.71-1.57-1.58Z" stroke="#000" stroke-miterlimit="10" stroke-width="2"/>
            <path d="M553.49-11.64c-.41-.76-.13-1.72.64-2.13l9.58-5.17c.76-.41,1.72-.13,2.13.64s.13,1.72-.64,2.13l-9.58,5.17c-.76.41-1.72.13-2.13-.64Z" stroke="#000" stroke-miterlimit="10" stroke-width="2"/>
            <path d="M545.55-20.52c-.77-.4-1.07-1.35-.67-2.12l5.02-9.66c.4-.77,1.35-1.07,2.12-.67s1.07,1.35.67,2.12l-5.02,9.66c-.4.77-1.35,1.07-2.12.67Z" stroke="#000" stroke-miterlimit="10" stroke-width="2"/>
          </g>
          <path d="M708.92,685.69c-.46-2.87-1.55-5.76-2.3-8.55-3.66-13.61-7.33-27.22-10.99-40.83-1.17-4.35-2.25-8.74-3.52-13.06-1.2-4.09-3.87-6.26-8.25-5.7-11.51,1.45-22.98,3.78-34.43,5.66-6.7,1.1-13.4,2.2-20.09,3.3-2.93.48-6.26.61-9.11,1.5-3.44,1.07-4.25,4.92-2.02,7.57.27.32.57.55.88.69,1.78,1.16,5.64,3.05,6.35,4.6.43.94-1.97,3.71-2.74,4.89-1.52,2.3-3.05,4.6-4.59,6.89-3.14,4.68-6.31,9.33-9.47,14-2.07,3.06-5.7,6.74-5.14,10.72.51,3.61,4.23,5.32,6.98,7.11,4.04,2.64,8.08,5.29,12.13,7.93h0s25.69,16.8,25.69,16.8h0c3.81,2.49,7.62,4.98,11.43,7.47,2.41,1.58,5.48,4.33,8.52,4.29,4.79-.07,7.08-5.58,9.32-9.04,3.98-6.15,7.96-12.3,11.94-18.45,1.45-2.24,2.9-4.48,4.35-6.73,1.16-1.79.7-2.12,2.29-.95,2.07,1.53,4.49,3.34,6.85,4.39,3.3,1.46,6.52-.94,5.94-4.49ZM645.56,666.71c.45-.69,1.46-.84,2.25-.32l14.18,9.28c.79.52,1.06,1.5.61,2.19l-15.82,24.19c-4.96-3.24-9.92-6.49-14.88-9.73-.72-.47-1.44-.94-2.16-1.41l15.82-24.2ZM696.09,679.94c-4.35-1.08-6.38,3.7-8.27,6.62-3.61,5.58-7.22,11.15-10.83,16.73-1.61,2.48-3.21,4.96-4.82,7.45-.77,1.19-1.61,3.28-2.73,4.21-2.03,1.71-4.72-1.16-6.49-2.32-3.95-2.58-7.9-5.17-11.85-7.75l15.82-24.19c2.01-3.08,1.07-7.27-2.1-9.34l-14.18-9.28c-3.17-2.07-7.39-1.26-9.4,1.82l-15.82,24.2c-3.48-2.27-6.95-4.55-10.43-6.82-1.54-1.01-3.39-1.92-4.78-3.13-1.69-1.47-1.52-2.32-.08-4.47,6.27-9.35,12.7-18.6,18.83-28.04,2.23-3.43,3.01-6.18-.52-8.95-1.74-1.36-3.57-2.63-5.38-3.91.07-.01.14-.03.21-.04,1.98-.33,3.96-.65,5.94-.98l18.35-3.02c11.67-1.92,23.34-3.84,35.02-5.76,2.66-.44,3.7-.76,4.66,1.96,1.41,4.01,2.24,8.32,3.34,12.42,3.41,12.68,6.83,25.36,10.24,38.04.6,2.24,1.21,4.48,1.81,6.72.11.42.22,1.18.36,1.95-2.08-1.39-4.46-3.53-6.9-4.13Z" stroke="#000" stroke-miterlimit="10" stroke-width=".5"/>
        </g>
        <g>
          <path d="M16.44-8.12c0-.23-.03-.45-.08-.67,0-.03-.01-.07-.02-.1-.06-.21-.14-.41-.23-.6-.02-.04-.04-.07-.06-.1-.11-.19-.23-.37-.38-.53-.02-.02-.04-.04-.06-.06-.15-.16-.32-.31-.51-.43,0,0-.01-.01-.02-.02,0,0,0,0,0,0-.13-.08-.26-.16-.4-.22l-51.77-23.2c-2.42-1.08-5.17-1.05-7.56.1l-48.17,23.13c-.1.05-.2.11-.3.17-.01,0-.03.01-.04.02,0,0,0,0-.01.01-.19.12-.35.27-.51.43-.03.03-.05.05-.08.08-.14.16-.27.33-.37.52-.02.03-.04.07-.05.1-.1.19-.18.39-.24.61,0,.02,0,.05-.01.07-.05.21-.08.43-.08.65,0,.02,0,.03,0,.05v61.02c0,2.7,1.5,5.14,3.91,6.35l50.22,25.37c.12.06.24.09.36.13.08.03.15.06.23.09.25.06.5.1.75.1s.51-.04.75-.1c.08-.02.16-.06.23-.09.12-.04.25-.07.36-.13L12.53,59.27c2.41-1.22,3.91-3.65,3.91-6.35V-8.11s0,0,0,0ZM-42.06-28.54c.79-.38,1.71-.39,2.5-.03L6.07-8.13-34.04,9.64l-5,2.22L-75.22-4.17l-9.15-4.05,42.3-20.32ZM-88.52,52.91V-3.5l46.48,20.59v60l-45.87-23.17c-.38-.19-.61-.57-.61-1ZM9.82,53.91l-45.87,23.17V17.09L10.44-3.5v56.41c0,.42-.24.81-.61,1Z"/>
          <path d="M.73,15.92v-5.15c0-.86-.88-1.43-1.66-1.08l-3.99,1.77c-.43.19-.7.61-.7,1.08v5.4c0,.88.93,1.45,1.72,1.06L.08,16.98c.4-.2.65-.61.65-1.06Z"/>
          <path d="M.88,41.65l-3.99,1.77c-.43.19-.7.61-.7,1.08v5.4c0,.88.93,1.45,1.72,1.06l3.99-2.01c.4-.2.65-.61.65-1.06v-5.15c0-.86-.88-1.43-1.66-1.08Z"/>
        </g>
      </g>
    </pattern>
  </defs>
  <rect x="0" width="1920" height="1080" fill="url(#b)"/>
</svg>