<?xml version="1.0" encoding="UTF-8"?>
<svg id="a" data-name="Ebene 2" xmlns="http://www.w3.org/2000/svg" width="8418.9" height="5952.76" xmlns:xlink="http://www.w3.org/1999/xlink" viewBox="0 0 8418.9 5952.76">
  <defs>
    <pattern id="b" data-name="MD teilt Muster Bunt 2" x="0" y="0" width="800" height="800" patternTransform="translate(2129.09 1255.89)" patternUnits="userSpaceOnUse" viewBox="0 0 800 800">
      <g>
        <rect width="800" height="800" fill="none"/>
        <g>
          <path d="M456.65,185.24c-13.94,12.11-16.8,33.18-7.41,48.67,5.32,9.19,14.06,16.43,23.91,21.27,20.36,9.99,49.18,12.13,68.12-1.21,16.21-11.69,16.39-31.23,5.09-46.38-7.64-10.41-19.11-18.39-31.11-24.22-18.73-9.19-42.14-12.69-58.57,1.83l-.03.03Z" fill="#f0eaf4"/>
          <g>
            <path d="M474.62,245.37c-.11,4.65-2.23,9.23-5.67,12.34-.14.13-.26.25-.34.36-.17.22-.15.37.09.43.14.04.36.06.61.06,8.39-.03,16.45-2.54,22.36-9.95.39-.49.95-.7,1.58-.7,8.54-.18,17.13-.62,24.82-4.41,11.7-5.41,18.53-18.34,15.49-30.77-3.32-13.54-17.52-20.48-30.4-20.47-9.96,0-20.57.8-29.46,5.31-9.48,4.73-15.52,14.79-14.34,25.43.83,9.34,7.4,15.69,14.69,20.98.46.31.6.85.59,1.39Z" fill="#724b9b"/>
            <path d="M473.15,245.37c-.13,2.75-.88,5.35-2.3,7.72-1.04,1.74-3.04,3.02-3.78,4.87-.17.43.01,1.14.38,1.43,2.08,1.68,6.87.41,9.3-.09,3.58-.74,7.07-2.13,10.09-4.2,1.44-.99,2.79-2.12,4.01-3.36.61-.62,1.34-1.83,2.1-2.21.9-.45,2.77-.19,3.8-.23,4.5-.16,9.03-.52,13.44-1.52,14.54-3.28,26.8-15.54,25.44-31.24-1.25-14.3-13.71-23.5-27.19-25.37-7.83-1.08-16.43-.38-24.14,1.23-7.74,1.62-15.36,4.92-20.46,11.17-5.17,6.34-7.29,14.74-5.46,22.75.87,3.82,2.82,7.27,5.28,10.28,1.35,1.66,2.87,3.17,4.48,4.58.82.72,1.66,1.41,2.52,2.08.53.42,2.44,1.46,2.49,2.11.16,1.87,3.1,1.89,2.94,0-.25-2.91-3.58-4.29-5.6-6.03-2.58-2.23-4.98-4.73-6.75-7.66-3.58-5.93-3.99-13.35-1.47-19.77,5.98-15.22,23.98-17.94,38.36-18.17,12.36-.19,26.57,4.58,30.91,17.43,4.7,13.9-4.42,27.77-17.54,32.44-4.41,1.57-9.07,2.25-13.73,2.56-2.2.15-4.41.14-6.62.26-1.86.1-2.61.66-3.83,2.06-2.66,3.05-6,5.43-9.81,6.82-1.76.65-3.6,1.1-5.45,1.39-.92.14-1.85.24-2.78.3-.46.03-2.69-.04-2.27.3l.38,1.43c.26-.64,1.78-1.75,2.28-2.41.83-1.08,1.53-2.23,2.11-3.47,1.11-2.37,1.66-4.88,1.79-7.49.09-1.89-2.85-1.89-2.94,0Z"/>
          </g>
          <g>
            <path d="M489.91,230.39c3.33,3.71,10.55,3.69,13.52-.44,1.11-1.54-1.44-3.01-2.54-1.48-1.9,2.64-6.98,1.99-8.9-.15-1.27-1.41-3.34.67-2.08,2.08h0Z"/>
            <path d="M510.4,217.72c-1.63-1.86-5.03-1.21-5.97,1.06-1.16,2.53,1.15,5.15,3.8,4.86,2.88-.22,4.08-3.82,2.2-5.89l-.03-.03Z"/>
            <path d="M487.7,217.19c-1.82-1.28-4.53-.21-5.3,1.81-1.25,2.89,2.12,5.59,4.81,4.35,2.34-1.05,2.66-4.72.53-6.13l-.03-.02Z"/>
          </g>
          <path d="M523.85,171.09v-.09c0-.2-.03-.39-.13-.57-.06-.18-.16-.34-.3-.47-.13-.14-.29-.24-.47-.3-.18-.09-.36-.13-.57-.13l-.39.05c-.25.07-.47.2-.65.38l-.23.3c-.13.23-.2.48-.2.74v.09c0,.2.03.39.13.57.06.18.16.34.3.47.13.14.29.24.47.3.18.09.36.13.57.13l.39-.05c.25-.07.47-.2.65-.38l.23-.3c.13-.23.2-.48.2-.74h0Z"/>
          <path d="M523.85,170.82l.05-.42h-2.94c-.42,3.46-.83,6.92-1.25,10.39-.23,1.88,2.72,1.86,2.94,0,.42-3.46.83-6.92,1.25-10.39.23-1.88-2.71-1.86-2.94,0l-.05.42c-.23,1.87,2.71,1.86,2.94,0h0Z"/>
          <path d="M531.88,185.26c2.32-2.48,4.55-5.04,6.7-7.67,1.19-1.46-.88-3.55-2.08-2.08-2.14,2.63-4.38,5.19-6.7,7.67-1.29,1.38.78,3.47,2.08,2.08h0Z"/>
          <path d="M537.51,193.18c3.03-1.07,6.05-2.15,9.08-3.22,1.77-.63,1.01-3.47-.78-2.84-3.03,1.07-6.05,2.15-9.08,3.22-1.77.63-1.01,3.47.78,2.84h0Z"/>
        </g>
        <g>
          <path d="M25.83,438.33c-2.75,18.26,8.76,36.14,25.96,41.83,10.01,3.54,21.36,3.37,31.99.67,21.98-5.61,45.28-22.69,51.03-45.13,4.75-19.41-7.8-34.4-26.23-38.58-12.57-2.96-26.48-1.59-39.38,1.77-20.22,5.17-40.29,17.7-43.36,39.41v.04Z" fill="#f0eaf4"/>
          <g>
            <path d="M78.53,472.41c2.93,3.6,4.29,8.47,3.69,13.07-.02.19-.03.36-.03.5.01.28.12.38.35.27.14-.06.31-.19.5-.35,6.37-5.47,10.87-12.61,10.55-22.08-.02-.63.27-1.15.75-1.56,6.38-5.68,12.62-11.59,16.02-19.47,5.39-11.71,2.19-25.98-8.19-33.46-11.32-8.15-26.62-4.21-36.41,4.16-7.57,6.47-15.13,13.96-18.96,23.16-4.14,9.75-2.21,21.32,5.6,28.66,6.69,6.57,15.81,7.14,24.79,6.43.55-.06,1.01.26,1.35.68Z" fill="#724b9b"/>
            <path d="M77.41,473.36c1.68,2.17,2.81,4.64,3.26,7.36.33,2-.35,4.27.28,6.16.15.44.75.86,1.22.84,2.67-.08,5.49-4.15,7.02-6.11,2.25-2.88,4-6.21,4.95-9.75.45-1.69.75-3.42.87-5.16.06-.87-.17-2.26.17-3.05.39-.93,1.99-1.95,2.74-2.64,3.32-3.05,6.53-6.26,9.24-9.88,8.93-11.93,10.3-29.22-.93-40.27-10.23-10.07-25.68-8.98-37.15-1.65-6.66,4.26-12.75,10.37-17.56,16.61-4.84,6.26-8.49,13.71-8.31,21.78.18,8.18,4.02,15.95,10.61,20.85,3.14,2.34,6.86,3.7,10.69,4.4,2.11.38,4.24.55,6.38.58,1.09.02,2.18,0,3.26-.05.68-.03,2.8-.47,3.26-.02,1.34,1.32,3.59-.58,2.24-1.91-2.08-2.05-5.51-.93-8.17-.95-3.41-.03-6.86-.37-10.11-1.45-6.57-2.19-11.7-7.57-13.95-14.09-5.33-15.46,6.6-29.21,17.39-38.72,9.28-8.17,23.18-13.76,34.83-6.81,12.6,7.52,14.66,23.99,7.72,36.06-2.34,4.06-5.44,7.6-8.78,10.86-1.58,1.54-3.26,2.97-4.86,4.49-1.35,1.28-1.56,2.2-1.58,4.06-.04,4.05-1.04,8.02-3.03,11.56-.92,1.63-2.02,3.17-3.24,4.59-.61.71-1.26,1.38-1.92,2.03-.33.32-2.07,1.72-1.53,1.7l1.22.84c-.22-.65.22-2.49.17-3.32-.07-1.36-.28-2.7-.64-4.01-.7-2.52-1.9-4.79-3.5-6.86-1.16-1.5-3.4.42-2.24,1.91Z"/>
          </g>
          <g>
            <path d="M80.43,451.09c4.94.66,10.42-4.04,10-9.12-.16-1.89-3.05-1.35-2.9.52.27,3.24-4.02,6.04-6.87,5.66-1.88-.25-2.11,2.68-.23,2.93h0Z"/>
            <path d="M87.8,428.15c-2.45-.35-4.61,2.34-3.85,4.68.76,2.68,4.22,3.17,6.04,1.23,2.05-2.04.62-5.55-2.14-5.91h-.04Z"/>
            <path d="M70.19,442.48c-2.21.2-3.59,2.78-2.86,4.82.93,3.01,5.24,2.88,6.48.18,1.1-2.31-1.04-5.32-3.58-5.01h-.04Z"/>
          </g>
          <path d="M67.76,383.95l-.06-.07c-.13-.16-.28-.28-.46-.35-.16-.1-.34-.15-.54-.16-.19-.02-.38,0-.56.08-.19.04-.36.13-.51.27l-.26.29c-.14.21-.23.45-.25.71l.02.38c.05.26.16.49.33.7l.06.07c.13.16.28.28.46.35.16.1.34.15.54.16.19.02.38,0,.56-.08.19-.04.36-.13.51-.27l.26-.29c.14-.21.23-.45.25-.71l-.02-.38c-.05-.26-.16-.49-.33-.7h0Z"/>
          <path d="M67.59,383.74l-.23-.35-2.24,1.91c1.93,2.9,3.86,5.81,5.79,8.71,1.05,1.57,3.27-.35,2.24-1.91-1.93-2.9-3.86-5.81-5.79-8.71-1.05-1.57-3.27.35-2.24,1.91l.23.35c1.04,1.58,3.27-.35,2.24-1.91h0Z"/>
          <path d="M83.07,389.51c.16-3.39.19-6.79.12-10.18-.04-1.88-2.98-2.13-2.93-.23.08,3.4.04,6.79-.12,10.18-.09,1.89,2.85,2.13,2.93.23h0Z"/>
          <path d="M92.5,391.89c1.61-2.78,3.21-5.56,4.82-8.34.94-1.63-1.49-3.3-2.44-1.65-1.61,2.78-3.21,5.56-4.82,8.34-.94,1.63,1.49,3.3,2.44,1.65h0Z"/>
        </g>
        <g>
          <path d="M115.16,66.54c-17.79,4.97-29.38,22.79-27.53,40.81.87,10.58,5.67,20.87,12.5,29.46,14.12,17.75,39.25,32.02,62.07,28.07,19.65-3.62,28.19-21.2,24.46-39.73-2.45-12.68-9.4-24.81-17.74-35.21-12.99-16.33-32.65-29.51-53.71-23.42h-.04Z" fill="#f0eaf4"/>
          <g>
            <path d="M105.66,128.58c-2.09,4.15-5.97,7.39-10.41,8.72-.18.06-.35.12-.47.18-.25.13-.29.27-.11.43.11.1.3.21.52.31,7.6,3.57,15.96,4.75,24.46.58.57-.28,1.16-.23,1.72.04,7.79,3.5,15.74,6.77,24.32,6.64,12.89.12,24.6-8.64,27.17-21.17,2.8-13.66-7.07-26.01-18.7-31.52-9-4.26-18.93-8.08-28.89-7.81-10.59.22-20.36,6.71-23.85,16.84-3.25,8.8-.03,17.35,4.29,25.25.28.48.18,1.03-.06,1.51Z" fill="#724b9b"/>
            <path d="M104.33,127.95c-1.29,2.43-3.08,4.46-5.38,5.99-1.69,1.12-4.04,1.43-5.5,2.78-.34.32-.47,1.03-.27,1.46,1.17,2.41,6.03,3.31,8.45,3.9,3.55.87,7.3,1.11,10.92.52,1.72-.28,3.42-.72,5.06-1.32.82-.3,1.99-1.08,2.85-1.1,1.01-.02,2.59,1.01,3.54,1.42,4.14,1.78,8.39,3.4,12.79,4.38,14.54,3.26,30.88-2.57,36.36-17.34,5-13.46-2.33-27.11-13.71-34.57-6.61-4.33-14.68-7.38-22.34-9.22-7.69-1.85-15.99-2.13-23.27,1.34-7.38,3.51-12.9,10.19-14.67,18.22-.84,3.82-.56,7.77.37,11.55.51,2.08,1.24,4.1,2.09,6.06.43,1,.9,1.98,1.38,2.96.3.61,1.58,2.37,1.35,2.97-.66,1.76,2,3.04,2.66,1.26,1.02-2.74-1.4-5.41-2.48-7.85-1.37-3.12-2.47-6.4-2.82-9.81-.7-6.89,2.11-13.78,7.14-18.49,11.92-11.19,29.35-5.95,42.44,0,11.26,5.12,22.05,15.51,20.48,28.98-1.7,14.58-15.88,23.2-29.74,21.81-4.66-.47-9.16-1.85-13.5-3.57-2.05-.81-4.05-1.76-6.09-2.6-1.72-.7-2.64-.52-4.35.22-3.71,1.62-7.75,2.33-11.78,1.97-1.87-.17-3.72-.55-5.52-1.08-.9-.26-1.78-.58-2.64-.92-.43-.17-2.41-1.19-2.18-.7l-.27,1.46c.5-.47,2.36-.82,3.1-1.2,1.21-.62,2.34-1.36,3.39-2.23,2.02-1.67,3.59-3.7,4.82-6,.89-1.67-1.77-2.93-2.66-1.26Z"/>
          </g>
          <g>
            <path d="M125.88,121.58c1.42,4.77,7.96,7.85,12.41,5.39,1.66-.92-.02-3.34-1.66-2.43-2.85,1.57-7.16-1.19-7.98-3.95-.54-1.82-3.31-.82-2.77.99h0Z"/>
            <path d="M149.83,118.9c-.68-2.38-4.03-3.24-5.85-1.6-2.13,1.79-1.17,5.15,1.35,6.02,2.7,1.03,5.32-1.71,4.51-4.38v-.04Z"/>
            <path d="M129.55,108.71c-1.09-1.93-4.01-2.13-5.57-.64-2.37,2.08-.48,5.96,2.49,5.99,2.56.06,4.42-3.12,3.1-5.32l-.02-.03Z"/>
          </g>
          <path d="M181.95,82.52l.04-.08c.09-.18.14-.37.13-.57.02-.19,0-.38-.07-.56-.06-.19-.16-.35-.3-.48-.12-.16-.27-.28-.46-.36l-.38-.12c-.26-.04-.5-.02-.75.06l-.34.17c-.22.15-.38.35-.5.58l-.04.08c-.09.18-.14.37-.13.57-.02.19,0,.38.07.56.06.19.16.35.3.48.12.16.27.28.46.36l.38.12c.26.04.5.02.75-.06l.34-.17c.22-.15.38-.35.5-.58h0Z"/>
          <path d="M182.06,82.28l.22-.35-2.66-1.26c-1.86,2.95-3.72,5.9-5.58,8.85-1.01,1.6,1.66,2.84,2.66,1.26,1.86-2.95,3.72-5.9,5.58-8.85,1.01-1.6-1.66-2.84-2.66-1.26l-.22.35c-1.01,1.6,1.66,2.84,2.66,1.26h0Z"/>
          <path d="M183.14,98.77c3.16-1.25,6.27-2.6,9.34-4.07,1.69-.81.72-3.59-.99-2.77-3.07,1.46-6.18,2.82-9.34,4.07-1.76.69-.78,3.47.99,2.77h0Z"/>
          <path d="M184.83,108.34c3.19.33,6.39.65,9.58.98,1.87.19,2.4-2.71.51-2.9-3.19-.33-6.39-.65-9.58-.98-1.87-.19-2.4,2.71-.51,2.9h0Z"/>
        </g>
        <path d="M567.62,302.76c-8.65-2.19-17.77,3.65-21.39,11.46-1.59,3.38-2.28,7.2-1.86,10.91,1.06,10.61,11.37,17.85,21.68,14.97,11.01-2.95,15.78-16.45,12.19-26.65-1.66-5.07-5.45-9.34-10.58-10.67h-.04Z" fill="#fde7b4"/>
        <path d="M638.53,201.08c-8.65-2.19-17.77,3.65-21.39,11.46-1.59,3.38-2.28,7.2-1.86,10.91,1.06,10.61,11.37,17.85,21.68,14.97,11.01-2.95,15.78-16.45,12.19-26.65-1.66-5.07-5.45-9.34-10.58-10.67h-.04Z" fill="#fde7b4"/>
        <path d="M467.88,611.72c-8.65-2.19-17.77,3.65-21.39,11.46-1.59,3.38-2.28,7.2-1.86,10.91,1.06,10.61,11.37,17.85,21.68,14.97,11.01-2.95,15.78-16.45,12.19-26.65-1.66-5.07-5.45-9.34-10.58-10.67h-.04Z" fill="#fde7b4"/>
        <path d="M74.92,550.37c-8.65-2.19-17.77,3.65-21.39,11.46-1.59,3.38-2.28,7.2-1.86,10.91,1.06,10.61,11.37,17.85,21.68,14.97,11.01-2.95,15.78-16.45,12.19-26.65-1.66-5.07-5.45-9.34-10.58-10.67h-.04Z" fill="#fde7b4"/>
        <path d="M347.17,367.07c-5.88,3.78-7.41,12.13-4.87,18.37,1.08,2.72,2.9,5.15,5.25,6.89,6.64,5.07,16.3,3.03,20.16-4.42,4.19-7.88-.99-17.83-8.75-21.23-3.79-1.76-8.26-1.87-11.76.36l-.03.02Z" fill="#e3e8ca"/>
        <path d="M450.24,102.1c-5.88,3.78-7.41,12.13-4.87,18.37,1.08,2.72,2.9,5.15,5.25,6.89,6.64,5.07,16.3,3.03,20.16-4.42,4.19-7.88-.99-17.83-8.75-21.23-3.79-1.76-8.26-1.87-11.76.36l-.03.02Z" fill="#e3e8ca"/>
        <path d="M154.41,744.71c-5.88,3.78-7.41,12.13-4.87,18.37,1.08,2.72,2.9,5.15,5.25,6.89,6.64,5.07,16.3,3.03,20.16-4.42,4.19-7.88-.99-17.83-8.75-21.23-3.79-1.76-8.26-1.87-11.76.36l-.03.02Z" fill="#e3e8ca"/>
        <path d="M399.51,283.79c-6.78,4.36-8.54,14-5.62,21.19,1.25,3.13,3.35,5.94,6.06,7.95,7.66,5.84,18.8,3.49,23.25-5.1,4.84-9.1-1.14-20.57-10.1-24.49-4.37-2.03-9.53-2.16-13.57.41l-.04.02Z" fill="#f0eaf4"/>
        <path d="M562.6,33.95c-6.78,4.36-8.54,14-5.62,21.19,1.25,3.13,3.35,5.94,6.06,7.95,7.66,5.84,18.8,3.49,23.25-5.1,4.84-9.1-1.14-20.57-10.1-24.49-4.37-2.03-9.53-2.16-13.57.41l-.04.02Z" fill="#f0eaf4"/>
        <path d="M156.52,487.67c-6.78,4.36-8.54,14-5.62,21.19,1.25,3.13,3.35,5.94,6.06,7.95,7.66,5.84,18.8,3.49,23.25-5.1,4.84-9.1-1.14-20.57-10.1-24.49-4.37-2.03-9.53-2.16-13.57.41l-.04.02Z" fill="#f0eaf4"/>
        <path d="M44.88,292.68c-6.78,4.36-8.54,14-5.62,21.19,1.25,3.13,3.35,5.94,6.06,7.95,7.66,5.84,18.8,3.49,23.25-5.1,4.84-9.1-1.14-20.57-10.1-24.49-4.37-2.03-9.53-2.16-13.57.41l-.04.02Z" fill="#f0eaf4"/>
        <path d="M424.89,513.47c-6.43,1.69-9.76,8.92-8.85,15.53.45,3.85,1.97,7.72,4.34,10.88,3.58,4.95,9.11,6.78,14.81,5.76,6.69-.89,12.56-6.1,12.49-13.3-.02-3.39-1.4-6.74-3.26-9.63-4.06-6.61-12.19-11.21-19.48-9.25h-.04Z" fill="#fdd9c2"/>
        <path d="M213.49,16.01c-6.43,1.69-9.76,8.92-8.85,15.53.45,3.85,1.97,7.72,4.34,10.88,3.58,4.95,9.11,6.78,14.81,5.76,6.69-.89,12.56-6.1,12.49-13.3-.02-3.39-1.4-6.74-3.26-9.63-4.06-6.61-12.19-11.21-19.48-9.25h-.04Z" fill="#fdd9c2"/>
        <path d="M198.51,634.57c-6.43,1.69-9.76,8.92-8.85,15.53.45,3.85,1.97,7.72,4.34,10.88,3.58,4.95,9.11,6.78,14.81,5.76,6.69-.89,12.56-6.1,12.49-13.3-.02-3.39-1.4-6.74-3.26-9.63-4.06-6.61-12.19-11.21-19.48-9.25h-.04Z" fill="#fdd9c2"/>
        <path d="M695.12,585.45c-6.43,1.69-9.76,8.92-8.85,15.53.45,3.85,1.97,7.72,4.34,10.88,3.58,4.95,9.11,6.78,14.81,5.76,6.69-.89,12.56-6.1,12.49-13.3-.02-3.39-1.4-6.74-3.26-9.63-4.06-6.61-12.19-11.21-19.48-9.25h-.04Z" fill="#fdd9c2"/>
        <path d="M220.38,557.88c0,5.16,4.11,9.58,8.53,10.73,2.56.73,5.32.68,7.76-.18,3.8-1.26,5.92-4.79,6.23-9.24.56-5.13-1.81-10.86-6.47-12.78-2.19-.91-4.59-.83-6.77-.26-4.95,1.15-9.31,5.82-9.27,11.69v.03Z" fill="#f0eaf4"/>
        <path d="M734.57,193.27c0,5.16,4.11,9.58,8.53,10.73,2.56.73,5.32.68,7.76-.18,3.8-1.26,5.92-4.79,6.23-9.24.56-5.13-1.81-10.86-6.47-12.78-2.19-.91-4.59-.83-6.77-.26-4.95,1.15-9.31,5.82-9.27,11.69v.03Z" fill="#f0eaf4"/>
        <path d="M759.24,529.92c0,5.16,4.11,9.58,8.53,10.73,2.56.73,5.32.68,7.76-.18,3.8-1.26,5.92-4.79,6.23-9.24.56-5.13-1.81-10.86-6.47-12.78-2.19-.91-4.59-.83-6.77-.26-4.95,1.15-9.31,5.82-9.27,11.69v.03Z" fill="#f0eaf4"/>
        <path d="M335.52,212.45c-2.22-4.15-7.75-5.25-12.16-3.54-2.58.94-4.99,2.63-6.78,4.78-2.82,3.28-3.16,7.39-1.53,11.15,1.71,4.46,6.28,7.64,11.22,6.41,2.33-.57,4.41-2.08,6.1-3.84,3.88-3.88,5.71-10.24,3.16-14.94v-.02Z" fill="#fdd9c2"/>
        <path d="M532.69,765.39c-2.22-4.15-7.75-5.25-12.16-3.54-2.58.94-4.99,2.63-6.78,4.78-2.82,3.28-3.16,7.39-1.53,11.15,1.71,4.46,6.28,7.64,11.22,6.41,2.33-.57,4.41-2.08,6.1-3.84,3.88-3.88,5.71-10.24,3.16-14.94v-.02Z" fill="#fdd9c2"/>
        <path d="M147.93,242.56c-2.22-4.15-7.75-5.25-12.16-3.54-2.58.94-4.99,2.63-6.78,4.78-2.82,3.28-3.16,7.39-1.53,11.15,1.71,4.46,6.28,7.64,11.22,6.41,2.33-.57,4.41-2.08,6.1-3.84,3.88-3.88,5.71-10.24,3.16-14.94v-.02Z" fill="#fdd9c2"/>
        <path d="M580.44,129.78c-2.22-4.15-7.75-5.25-12.16-3.54-2.58.94-4.99,2.63-6.78,4.78-2.82,3.28-3.16,7.39-1.53,11.15,1.71,4.46,6.28,7.64,11.22,6.41,2.33-.57,4.41-2.08,6.1-3.84,3.88-3.88,5.71-10.24,3.16-14.94v-.02Z" fill="#fdd9c2"/>
        <path d="M464.84,375.42c-2.22-4.15-7.75-5.25-12.16-3.54-2.58.94-4.99,2.63-6.78,4.78-2.82,3.28-3.16,7.39-1.53,11.15,1.71,4.46,6.28,7.64,11.22,6.41,2.33-.57,4.41-2.08,6.1-3.84,3.88-3.88,5.71-10.24,3.16-14.94v-.02Z" fill="#e3e8ca"/>
        <path d="M57.72,47.07c-2.22-4.15-7.75-5.25-12.16-3.54-2.58.94-4.99,2.63-6.78,4.78-2.82,3.28-3.16,7.39-1.53,11.15,1.71,4.46,6.28,7.64,11.22,6.41,2.33-.57,4.41-2.08,6.1-3.84,3.88-3.88,5.71-10.24,3.16-14.94v-.02Z" fill="#e3e8ca"/>
        <path d="M441.9,717.03c-2.22-4.15-7.75-5.25-12.16-3.54-2.58.94-4.99,2.63-6.78,4.78-2.82,3.28-3.16,7.39-1.53,11.15,1.71,4.46,6.28,7.64,11.22,6.41,2.33-.57,4.41-2.08,6.1-3.84,3.88-3.88,5.71-10.24,3.16-14.94v-.02Z" fill="#e3e8ca"/>
        <path d="M673.6,490.82c-2.22-4.15-7.75-5.25-12.16-3.54-2.58.94-4.99,2.63-6.78,4.78-2.82,3.28-3.16,7.39-1.53,11.15,1.71,4.46,6.28,7.64,11.22,6.41,2.33-.57,4.41-2.08,6.1-3.84,3.88-3.88,5.71-10.24,3.16-14.94v-.02Z" fill="#e3e8ca"/>
        <path d="M163.21,333.99c-2.22-4.15-7.75-5.25-12.16-3.54-2.58.94-4.99,2.63-6.78,4.78-2.82,3.28-3.16,7.39-1.53,11.15,1.71,4.46,6.28,7.64,11.22,6.41,2.33-.57,4.41-2.08,6.1-3.84,3.88-3.88,5.71-10.24,3.16-14.94v-.02Z" fill="#e3e8ca"/>
        <path d="M244.36,444.42c-4.33,1.14-6.58,6.01-5.97,10.47.3,2.6,1.33,5.2,2.92,7.33,2.41,3.33,6.14,4.57,9.98,3.88,4.51-.6,8.47-4.11,8.42-8.96-.02-2.28-.94-4.54-2.2-6.49-2.74-4.45-8.21-7.56-13.13-6.24h-.03Z" fill="#f0eaf4"/>
        <path d="M238.34,165.33c-4.33,1.14-6.58,6.01-5.97,10.47.3,2.6,1.33,5.2,2.92,7.33,2.41,3.33,6.14,4.57,9.98,3.88,4.51-.6,8.47-4.11,8.42-8.96-.02-2.28-.94-4.54-2.2-6.49-2.74-4.45-8.21-7.56-13.13-6.24h-.03Z" fill="#f0eaf4"/>
        <path d="M670.15,724.72c-4.33,1.14-6.58,6.01-5.97,10.47.3,2.6,1.33,5.2,2.92,7.33,2.41,3.33,6.14,4.57,9.98,3.88,4.51-.6,8.47-4.11,8.42-8.96-.02-2.28-.94-4.54-2.2-6.49-2.74-4.45-8.21-7.56-13.13-6.24h-.03Z" fill="#f0eaf4"/>
        <path d="M617.39,392.74c-4.33,1.14-6.58,6.01-5.97,10.47.3,2.6,1.33,5.2,2.92,7.33,2.41,3.33,6.14,4.57,9.98,3.88,4.51-.6,8.47-4.11,8.42-8.96-.02-2.28-.94-4.54-2.2-6.49-2.74-4.45-8.21-7.56-13.13-6.24h-.03Z" fill="#f0eaf4"/>
        <path d="M747.84,28.35c-4.33,1.14-6.58,6.01-5.97,10.47.3,2.6,1.33,5.2,2.92,7.33,2.41,3.33,6.14,4.57,9.98,3.88,4.51-.6,8.47-4.11,8.42-8.96-.02-2.28-.94-4.54-2.2-6.49-2.74-4.45-8.21-7.56-13.13-6.24h-.03Z" fill="#f0eaf4"/>
        <path d="M239.31,371.07c-3.09-3.24-8.44-2.85-12.05-.17-2.13,1.52-3.91,3.68-5.01,6.1-1.75,3.72-1.03,7.58,1.42,10.61,2.7,3.66,7.69,5.43,11.91,3.04,1.99-1.12,3.52-3.02,4.62-5.06,2.58-4.55,2.65-10.84-.88-14.51l-.02-.02Z" fill="#fde7b4"/>
        <path d="M743.11,422.49c-3.09-3.24-8.44-2.85-12.05-.17-2.13,1.52-3.91,3.68-5.01,6.1-1.75,3.72-1.03,7.58,1.42,10.61,2.7,3.66,7.69,5.43,11.91,3.04,1.99-1.12,3.52-3.02,4.62-5.06,2.58-4.55,2.65-10.84-.88-14.51l-.02-.02Z" fill="#fde7b4"/>
        <path d="M46.57,751.89c-3.09-3.24-8.44-2.85-12.05-.17-2.13,1.52-3.91,3.68-5.01,6.1-1.75,3.72-1.03,7.58,1.42,10.61,2.7,3.66,7.69,5.43,11.91,3.04,1.99-1.12,3.52-3.02,4.62-5.06,2.58-4.55,2.65-10.84-.88-14.51l-.02-.02Z" fill="#fde7b4"/>
        <path d="M36.18,159.16c-3.09-3.24-8.44-2.85-12.05-.17-2.13,1.52-3.91,3.68-5.01,6.1-1.75,3.72-1.03,7.58,1.42,10.61,2.7,3.66,7.69,5.43,11.91,3.04,1.99-1.12,3.52-3.02,4.62-5.06,2.58-4.55,2.65-10.84-.88-14.51l-.02-.02Z" fill="#fde7b4"/>
        <g>
          <path d="M278.07,259.87c-10.92-5.9-26.26-6.06-37.36-.37-9.55,5.03-13.77,15.6-15.26,25.34-2.13,12.98,1.09,23.9,11.25,33.17,7.57,6.9,17.34,11.21,27.3,14.34,11.37,3.54,23.77,5.36,35.23,1.65,8.1-2.6,15.31-7.7,19.98-14.42,7.89-11.04,7.32-26.76-1.56-37.15-8.26-9.71-21.76-13.07-32.99-19.02-2.2-1.14-4.34-2.38-6.54-3.51l-.04-.02Z" fill="#fde7b4"/>
          <g>
            <path d="M241.63,304.59l46.67-27.41c2.78-1.64,6.2.77,5.59,3.94l-10.23,53.36c-.61,3.2-4.73,4.15-6.69,1.55l-7.44-9.88c-.78-1.03-2.34-1.01-3.08.04l-9.66,13.59c-1.19,1.67-3.49,2.08-5.18.92l-7.01-4.78c-1.74-1.19-2.16-3.56-.94-5.28l9.33-13.11c.74-1.05.27-2.51-.95-2.92l-9.69-3.24c-3.06-1.02-3.49-5.17-.71-6.8Z" fill="#ecab06"/>
            <path d="M253.7,342.8c-1.01,0-2.03-.29-2.91-.9l-7-4.78c-1.16-.79-1.94-1.99-2.18-3.38s.07-2.78.88-3.92l9.33-13.11c.12-.17.09-.34.06-.42-.03-.08-.1-.24-.3-.3l-9.69-3.24c-1.96-.65-3.31-2.33-3.52-4.39-.21-2.05.76-3.98,2.54-5.02l46.67-27.41c1.78-1.05,3.94-.96,5.63.24,1.69,1.19,2.5,3.19,2.11,5.22l-10.23,53.36c-.39,2.05-1.9,3.61-3.93,4.08-2.03.47-4.07-.27-5.32-1.93l-7.44-9.88c-.12-.17-.29-.19-.38-.19-.09,0-.26.03-.38.2l-9.66,13.59c-1.01,1.42-2.62,2.18-4.25,2.18ZM290.2,278.09c-.4,0-.8.11-1.18.33l-46.67,27.41c-.8.47-1.23,1.31-1.13,2.24.1.93.68,1.66,1.57,1.95l9.69,3.24c1.02.34,1.79,1.12,2.12,2.14.33,1.02.17,2.11-.46,2.98l-9.33,13.11c-.36.51-.5,1.13-.39,1.75.11.62.46,1.15.97,1.51l7,4.78c1.04.71,2.47.45,3.19-.57l9.66-13.59c.63-.88,1.6-1.39,2.69-1.41,1.09,0,2.07.47,2.72,1.33l7.44,9.88c.57.75,1.46,1.08,2.37.86.92-.21,1.57-.89,1.75-1.82l10.23-53.36c.18-.92-.17-1.79-.94-2.33-.41-.29-.87-.43-1.33-.43Z"/>
          </g>
          <path d="M303.4,278c-.38-.72-.11-1.61.61-1.99l8.99-4.78c.72-.38,1.61-.11,1.99.61s.11,1.61-.61,1.99l-8.99,4.78c-.72.38-1.61.11-1.99-.61Z"/>
          <path d="M290.07,268.21c-.8-.11-1.36-.86-1.25-1.66l1.42-10.08c.11-.8.86-1.36,1.66-1.25s1.36.86,1.25,1.66l-1.42,10.08c-.11.8-.86,1.36-1.66,1.25Z"/>
          <path d="M302.51,293.55c-.16-.34-.2-.74-.06-1.12.27-.77,1.11-1.17,1.87-.9l9.86,3.45c.77.27,1.17,1.11.9,1.87s-1.11,1.17-1.87.9l-9.86-3.45c-.38-.13-.68-.41-.84-.75Z"/>
          <path d="M272.59,271.43c-.37-.06-.72-.26-.96-.59l-6.13-8.46c-.48-.66-.33-1.58.33-2.05s1.58-.33,2.05.33l6.13,8.46c.48.66.33,1.58-.33,2.05-.33.24-.72.32-1.09.26Z"/>
        </g>
        <g>
          <path d="M535.3,652.76c-6.54,10.55-7.6,25.86-2.58,37.27,4.46,9.83,14.76,14.67,24.39,16.73,12.83,2.89,23.92.33,33.78-9.27,7.33-7.15,12.22-16.65,15.93-26.4,4.2-11.14,6.76-23.41,3.73-35.07-2.11-8.24-6.78-15.74-13.22-20.8-10.56-8.52-26.28-8.88-37.18-.64-10.18,7.67-14.33,20.95-20.94,31.81-1.27,2.13-2.63,4.19-3.89,6.32l-.02.04Z" fill="#fde7b4"/>
          <g>
            <path d="M577.79,691.79l-24.6-48.21c-1.47-2.88,1.14-6.14,4.27-5.35l52.66,13.37c3.16.8,3.87,4.96,1.15,6.77l-10.3,6.84c-1.08.72-1.15,2.27-.14,3.08l12.99,10.45c1.59,1.28,1.87,3.6.62,5.22l-5.19,6.71c-1.29,1.66-3.69,1.95-5.32.63l-12.54-10.09c-1-.81-2.49-.41-2.97.78l-3.8,9.48c-1.2,2.99-5.36,3.18-6.83.31Z" fill="#ecab06"/>
            <path d="M616.64,681.99c-.06,1.01-.41,2.01-1.07,2.85l-5.19,6.71c-.86,1.11-2.1,1.82-3.5,1.98s-2.77-.23-3.86-1.11l-12.54-10.09c-.16-.13-.33-.11-.42-.09-.09.02-.24.09-.32.28l-3.8,9.48c-.77,1.91-2.53,3.16-4.59,3.26-2.06.09-3.92-.99-4.86-2.83l-24.6-48.21c-.94-1.84-.72-3.99.57-5.6,1.29-1.61,3.33-2.3,5.34-1.79l52.66,13.37c2.02.51,3.49,2.11,3.84,4.16.35,2.05-.51,4.05-2.25,5.2l-10.3,6.84c-.17.11-.2.27-.21.37,0,.09.01.26.18.39l12.99,10.45c1.35,1.09,2.02,2.74,1.92,4.37ZM554.21,641.73c-.02.4.06.81.26,1.19l24.6,48.21c.42.83,1.23,1.3,2.17,1.26.93-.04,1.7-.58,2.04-1.45l3.8-9.48c.4-1,1.22-1.72,2.26-1.99,1.04-.27,2.11-.04,2.95.63l12.54,10.09c.49.39,1.1.57,1.72.5.62-.07,1.18-.39,1.56-.88l5.19-6.71c.77-.99.6-2.44-.38-3.22l-12.99-10.45c-.84-.68-1.3-1.68-1.25-2.76.06-1.09.59-2.04,1.49-2.64l10.3-6.84c.79-.52,1.16-1.39,1-2.32-.16-.93-.8-1.62-1.71-1.85l-52.66-13.37c-.91-.23-1.8.07-2.38.8-.31.39-.48.84-.51,1.3Z"/>
          </g>
          <path d="M554.89,628.55c-.74.34-1.61.01-1.95-.72l-4.24-9.26c-.34-.74-.01-1.61.72-1.95s1.61-.01,1.95.72l4.24,9.26c.34.74.01,1.61-.72,1.95Z"/>
          <path d="M544.33,641.28c-.16.8-.94,1.31-1.73,1.15l-9.98-2.01c-.8-.16-1.31-.94-1.15-1.73s.94-1.31,1.73-1.15l9.98,2.01c.8.16,1.31.94,1.15,1.73Z"/>
          <path d="M570.37,630.36c-.35.14-.75.15-1.13,0-.75-.31-1.1-1.17-.79-1.92l4.03-9.64c.31-.75,1.18-1.1,1.92-.79s1.1,1.17.79,1.92l-4.03,9.64c-.16.37-.45.65-.8.79Z"/>
          <path d="M546.52,658.92c-.08.37-.3.7-.65.92l-8.81,5.62c-.68.44-1.59.24-2.03-.45s-.24-1.59.45-2.03l8.81-5.62c.68-.44,1.59-.24,2.03.45.22.34.28.74.2,1.11Z"/>
        </g>
        <g>
          <path d="M684.05,274.54c-10.87,6-19.28,18.83-20.49,31.24-.92,10.76,5.69,20.02,13.08,26.53,9.78,8.8,20.7,11.99,33.99,8.45,9.89-2.65,18.8-8.54,26.81-15.23,9.12-7.65,17.35-17.11,20.41-28.76,2.19-8.22,1.79-17.04-1.35-24.61-5.03-12.6-18.57-20.61-32.11-18.75-12.63,1.7-22.75,11.25-33.83,17.49-2.15,1.23-4.35,2.37-6.49,3.61l-.04.02Z" fill="#fde7b4"/>
          <g>
            <path d="M702.01,329.37l2.14-54.08c.13-3.23,4-4.8,6.34-2.57l39.38,37.43c2.36,2.24.94,6.22-2.31,6.47l-12.33.93c-1.29.1-2.11,1.42-1.63,2.62l6.22,15.47c.76,1.9-.13,4.06-2.02,4.86l-7.81,3.31c-1.94.82-4.17-.11-4.95-2.06l-6-14.93c-.48-1.19-1.97-1.58-2.97-.78l-7.96,6.41c-2.51,2.02-6.23.15-6.11-3.07Z" fill="#ecab06"/>
            <path d="M740.69,339.85c-.54.85-1.34,1.55-2.33,1.97l-7.81,3.31c-1.29.55-2.72.55-4.02.01s-2.3-1.56-2.83-2.86l-6-14.93c-.08-.19-.23-.26-.32-.28-.09-.02-.25-.04-.42.09l-7.96,6.41c-1.61,1.29-3.75,1.52-5.59.59-1.84-.93-2.94-2.78-2.86-4.84l2.14-54.08c.08-2.06,1.32-3.83,3.24-4.61,1.91-.78,4.03-.38,5.53,1.05l39.38,37.43c1.51,1.44,2.01,3.55,1.31,5.51-.7,1.96-2.42,3.28-4.5,3.43l-12.33.93c-.21.02-.31.14-.37.22-.05.08-.11.23-.04.43l6.22,15.47c.65,1.61.42,3.38-.46,4.75ZM705.94,274.18c-.22.34-.34.73-.36,1.17l-2.14,54.08c-.04.93.44,1.74,1.27,2.16.83.42,1.77.32,2.49-.26l7.96-6.41c.84-.67,1.91-.9,2.95-.63,1.04.27,1.86,1,2.26,1.99l6,14.93c.23.58.68,1.03,1.26,1.28.58.24,1.22.24,1.79,0l7.81-3.31c1.15-.49,1.71-1.83,1.24-2.99l-6.22-15.47c-.4-1-.31-2.1.26-3.02.58-.92,1.52-1.49,2.59-1.57l12.33-.93c.94-.07,1.69-.64,2.01-1.53.32-.89.1-1.81-.59-2.46l-39.38-37.43c-.68-.64-1.6-.82-2.47-.47-.46.19-.83.5-1.08.88Z"/>
          </g>
          <path d="M712.99,263.02c-.81-.07-1.41-.78-1.35-1.59l.83-10.15c.07-.81.78-1.41,1.59-1.35s1.41.78,1.35,1.59l-.83,10.15c-.07.81-.78,1.41-1.59,1.35Z"/>
          <path d="M697.55,268.96c-.53.62-1.46.69-2.07.16l-7.72-6.64c-.62-.53-.69-1.46-.16-2.07s1.46-.69,2.07-.16l7.72,6.64c.62.53.69,1.46.16,2.07Z"/>
          <path d="M725.6,272.18c-.37-.05-.73-.23-.98-.55-.5-.64-.39-1.56.25-2.06l8.23-6.43c.64-.5,1.56-.39,2.06.25s.39,1.56-.25,2.06l-8.23,6.43c-.32.25-.71.35-1.08.3Z"/>
          <path d="M690.83,285.41c-.25.28-.61.47-1.01.49l-10.43.59c-.81.05-1.51-.57-1.55-1.39s.57-1.51,1.39-1.55l10.43-.59c.81-.05,1.51.57,1.55,1.39.02.41-.12.78-.37,1.06Z"/>
        </g>
        <g>
          <g>
            <path d="M288.3,501.03c-16.46,24.09,9.67,49.27,34.41,48.58,6.51-.15,12.83-2.36,18.26-5.9,11.04-7.24,23.19-21.7,29.14-33.47,7.53-14.52,8.74-34.18-3.64-46.35-10.88-10.59-23.99-9.25-36.5-2.41-13.81,7.13-23.98,19.08-34.22,30.45-2.6,2.91-5.23,5.86-7.43,9.08l-.02.03Z" fill="#e3e8ca"/>
            <g>
              <path d="M307.57,466.72c13.61-6.24,26.9,11.33,21.59,22.26-.35.73-.18,1.6.36,2.2,3.97,4.41,16.56,16.99,16.86,17.16.55.31,1,.23,1.43.01,10.53-5.47,27.04,7.4,20.04,20.96-.58,1.13-2.32.99-3.25.12l-8.58-8.3c-.41-.36-.99-.45-1.49-.23l-5.25,2.36c-.28.12-.5.35-.61.63l-2.33,5.49c-.24.57-.1,1.24.35,1.67l8.44,8.34c.87.85.95,2.26.13,3.16-8.15,8.97-26.04-4.8-20.91-19,.23-.64.08-1.36-.38-1.87l-16.59-17.47c-.46-.49-1.2-.69-1.81-.41-11.29,5.32-28.11-8.61-22.25-21.27.65-1.4,2.5-1.73,3.59-.64l8.7,8.48c.78.78,1.94,1.02,2.97.62l4.9-1.63c.8-.32,1.41-.98,1.65-1.8l1.36-5.7c.25-.84.26-1.95-.36-2.58,0,0-5.84-5.36-9.29-8.87-1.12-1.14-.73-3.02.72-3.69Z" fill="#7da631"/>
              <path d="M370.27,527.28c-.28.91-.65,1.81-1.11,2.7-.43.83-1.2,1.39-2.17,1.55-1.17.2-2.5-.2-3.38-1.03l-8.51-8.24-5.1,2.29-2.29,5.39s.02.04.03.05l8.44,8.34c1.45,1.43,1.53,3.71.19,5.19-3.67,4.04-9.42,4.46-15.01,1.1-6.6-3.98-11.6-12.66-8.38-21.58.04-.11.01-.27-.08-.37l-16.57-17.45c-.06-.06-.12-.08-.14-.08-5.04,2.39-13.18,1.81-19.91-4.87-5.39-5.35-7.03-12.39-4.27-18.35.51-1.1,1.52-1.88,2.71-2.09,1.19-.21,2.41.17,3.26,1.03l8.68,8.47c.38.38.92.49,1.4.3.03-.01.05-.02.08-.03l4.86-1.62c.36-.15.62-.44.75-.81l1.35-5.65s.01-.05.02-.08c.16-.54.09-1,0-1.11-.55-.51-6.02-5.55-9.3-8.88-.86-.88-1.23-2.08-1.01-3.29.22-1.22,1.03-2.25,2.16-2.77h0c6.36-2.92,13.38-1.35,18.79,4.18,5.69,5.82,7.64,14.07,4.73,20.06-.08.16-.02.4.13.57,3.76,4.18,14.91,15.33,16.52,16.85,5.7-2.95,13.42-1.28,18.79,4.08,4.55,4.54,6.09,10.52,4.34,16.17ZM344.9,529.08c.03-.09.06-.19.1-.28l2.33-5.49c.26-.62.75-1.12,1.37-1.39l5.25-2.36c1.03-.46,2.23-.28,3.07.47.01.01.03.03.04.04l8.58,8.3c.3.28.82.32.94.24,2.7-5.25,1.69-11.02-2.71-15.41-4.47-4.46-10.79-5.92-15.36-3.55-1.19.62-2.2.32-2.83-.04-.81-.46-14.29-14.18-17.23-17.46-.97-1.08-1.2-2.58-.59-3.83,2.34-4.81.58-11.84-4.19-16.72-4.5-4.61-10.28-5.94-15.46-3.56,0,0,0,0,0,0-.37.17-.47.5-.49.63-.03.15-.04.44.21.69,3.39,3.44,9.18,8.77,9.24,8.82.02.02.04.04.05.05,1.08,1.1,1.08,2.77.73,3.99l-1.36,5.66s-.02.08-.03.12c-.39,1.24-1.3,2.23-2.51,2.7-.03.01-.05.02-.08.03l-4.87,1.62c-1.56.6-3.32.22-4.51-.96l-8.68-8.47c-.25-.25-.53-.25-.68-.22-.14.03-.41.12-.55.43-2.26,4.88-.89,10.5,3.67,15.03,4.88,4.84,11.71,6.61,16.62,4.29,1.16-.55,2.57-.26,3.5.73l16.59,17.47c.86.93,1.12,2.21.7,3.38-2.02,5.6-.23,13.63,7.13,18.06,3.38,2.03,8.12,2.96,11.31-.55.28-.3.24-.81-.07-1.12l-8.44-8.34c-.8-.75-1.11-1.94-.77-3.01ZM347.06,507.08h0Z"/>
            </g>
          </g>
          <path d="M352.07,494.67c-.11-.8.45-1.55,1.25-1.66l10.08-1.41c.8-.11,1.55.45,1.66,1.25s-.45,1.55-1.25,1.66l-10.08,1.41c-.8.11-1.55-.45-1.66-1.25Z"/>
          <path d="M349.16,482.68c-.48-.65-.35-1.57.31-2.06l8.18-6.06c.65-.48,1.57-.35,2.06.31s.35,1.57-.31,2.06l-8.18,6.06c-.65.48-1.57.35-2.06-.31Z"/>
          <path d="M340.63,475.51c-.77-.27-1.17-1.11-.9-1.87l3.36-9.61c.27-.77,1.11-1.17,1.87-.9s1.17,1.11.9,1.87l-3.36,9.61c-.27.77-1.11,1.17-1.87.9Z"/>
        </g>
        <g>
          <g>
            <path d="M110.17,703.15c28.66-5.47,27.89-41.74,9.87-58.71-4.72-4.48-10.76-7.37-17.11-8.7-12.93-2.66-31.74-.97-44.26,3.18-15.58,4.98-30.3,18.06-30.11,35.42.24,15.18,10.48,23.48,24.18,27.45,14.82,4.68,30.46,3.39,45.73,2.55,3.9-.23,7.84-.46,11.67-1.2h.04Z" fill="#e3e8ca"/>
            <g>
              <path d="M72.31,713.89c-14.05-5.17-11.08-27.01.4-31.01.76-.27,1.25-1.01,1.29-1.82.3-5.93.24-23.72.15-24.06-.17-.61-.55-.87-1-1.01-11.32-3.55-13.95-24.32.57-28.99,1.21-.39,2.34.93,2.39,2.2l.23,11.93c.03.55.38,1.02.9,1.22l5.38,2.03c.28.11.6.1.88-.01l5.52-2.25c.58-.24.95-.81.93-1.43l-.1-11.86c-.01-1.22.92-2.27,2.13-2.33,12.11-.61,15.08,21.77,1.43,28.22-.62.29-1.02.91-1.05,1.59l-.56,24.08c-.02.67.36,1.34.99,1.56,11.76,4.19,13.85,25.93.77,30.77-1.45.54-2.99-.53-3-2.08l-.18-12.15c0-1.1-.66-2.09-1.67-2.53l-4.63-2.3c-.79-.34-1.69-.3-2.44.11l-4.99,3.08c-.77.42-1.56,1.2-1.56,2.08,0,0,.36,7.92.33,12.84,0,1.6-1.61,2.66-3.11,2.11Z" fill="#7da631"/>
              <path d="M70.58,626.73c.84-.45,1.74-.82,2.69-1.13.89-.29,1.83-.13,2.64.43.97.68,1.63,1.9,1.67,3.12l.23,11.84,5.23,1.97,5.43-2.21s0-.04,0-.06l-.1-11.86c-.02-2.04,1.53-3.71,3.53-3.81,5.45-.27,9.83,3.48,11.41,9.81,1.87,7.48-.71,17.16-9.28,21.21-.11.05-.2.18-.2.32l-.56,24.06c0,.09.03.15.04.16,5.26,1.87,10.62,8.01,10.68,17.5.05,7.6-3.76,13.74-9.92,16.02-1.13.42-2.4.26-3.39-.43-.99-.69-1.58-1.82-1.59-3.03l-.18-12.13c0-.53-.31-1-.78-1.2-.02-.01-.05-.02-.07-.03l-4.59-2.28c-.36-.14-.76-.13-1.1.05l-4.95,3.05s-.05.03-.07.04c-.49.27-.77.64-.79.78.03.75.35,8.18.33,12.85,0,1.23-.59,2.34-1.6,3.04-1.02.7-2.32.87-3.48.44h0c-6.56-2.42-10.44-8.48-10.37-16.22.07-8.14,4.51-15.37,10.8-17.56.17-.06.3-.27.31-.5.28-5.62.24-21.38.17-23.6-6.12-1.93-10.42-8.56-10.45-16.14-.02-6.42,3.1-11.76,8.33-14.52ZM89.84,643.35c-.09.05-.18.09-.27.12l-5.52,2.25c-.63.25-1.32.26-1.95.03l-5.38-2.03c-1.05-.4-1.78-1.38-1.85-2.5,0-.02,0-.04,0-.06l-.23-11.93c-.02-.41-.35-.8-.49-.83-5.61,1.82-8.97,6.62-8.95,12.84.02,6.32,3.47,11.81,8.39,13.35,1.28.4,1.78,1.32,1.98,2.02.25.89.13,20.13-.1,24.53-.07,1.44-.97,2.67-2.28,3.13-5.05,1.76-8.77,7.99-8.82,14.8-.06,6.44,3.1,11.46,8.45,13.43,0,0,0,0,0,0,.39.14.68-.02.79-.09.13-.09.34-.29.34-.64.03-4.83-.32-12.69-.33-12.77,0-.03,0-.05,0-.08.01-1.54,1.18-2.73,2.29-3.34l4.96-3.06s.07-.04.11-.06c1.15-.61,2.49-.66,3.69-.15.02.01.05.02.07.03l4.6,2.28c1.53.68,2.51,2.19,2.52,3.86l.18,12.13c0,.36.2.55.32.63.12.08.37.21.69.09,5.04-1.87,8.04-6.82,8-13.24-.04-6.87-3.64-12.94-8.75-14.76-1.21-.43-2-1.63-1.97-2.99l.56-24.08c.05-1.26.77-2.36,1.89-2.89,5.38-2.54,9.78-9.5,7.69-17.83-.96-3.82-3.67-7.83-8.41-7.59-.41.02-.74.4-.74.85l.1,11.87c.04,1.1-.58,2.16-1.57,2.68ZM72.79,657.42h0Z"/>
            </g>
          </g>
          <path d="M60.48,662.69c-.49.65-1.41.78-2.06.29l-8.15-6.11c-.65-.49-.78-1.41-.29-2.06s1.41-.78,2.06-.29l8.15,6.11c.65.49.78,1.41.29,2.06Z"/>
          <path d="M54.09,673.24c-.12.8-.86,1.36-1.67,1.24l-10.08-1.48c-.8-.12-1.36-.86-1.24-1.67s.86-1.36,1.67-1.24l10.08,1.48c.8.12,1.36.86,1.24,1.67Z"/>
          <path d="M55.08,684.34c.35.73.05,1.61-.68,1.97l-9.16,4.44c-.73.35-1.61.05-1.97-.68s-.05-1.61.68-1.97l9.16-4.44c.73-.35,1.61-.05,1.97.68Z"/>
        </g>
        <g>
          <g>
            <path d="M347.45,33.66c-24.59-15.7-48.94,11.2-47.48,35.91.35,6.5,2.76,12.75,6.47,18.07,7.58,10.81,22.41,22.5,34.37,28.08,14.75,7.08,34.44,7.67,46.21-5.09,10.24-11.2,8.5-24.27,1.26-36.56-7.56-13.58-19.82-23.38-31.5-33.25-2.99-2.51-6.02-5.05-9.31-7.14l-.03-.02Z" fill="#e3e8ca"/>
            <g>
              <path d="M382.35,51.85c6.66,13.41-10.49,27.24-21.58,22.27-.74-.33-1.6-.13-2.19.43-4.29,4.1-16.46,17.08-16.63,17.39-.3.56-.2,1.01.03,1.43,5.79,10.36-6.55,27.26-20.32,20.69-1.15-.55-1.06-2.29-.22-3.24l8.02-8.83c.35-.42.42-1.01.18-1.5l-2.52-5.17c-.13-.27-.36-.48-.65-.59l-5.56-2.16c-.58-.23-1.24-.06-1.66.41l-8.07,8.7c-.83.89-2.23,1.02-3.15.23-9.22-7.87,3.98-26.18,18.33-21.5.65.21,1.37.04,1.86-.44l16.94-17.13c.48-.48.66-1.22.35-1.82-5.67-11.12,7.73-28.36,20.56-22.9,1.42.6,1.81,2.44.75,3.57l-8.2,8.96c-.75.8-.96,1.97-.52,2.98l1.79,4.85c.34.79,1.02,1.38,1.85,1.6l5.74,1.19c.85.23,1.96.19,2.56-.44,0,0,5.18-6,8.58-9.56,1.1-1.15,3-.83,3.71.6Z" fill="#7da631"/>
              <path d="M323.77,116.41c-.92-.25-1.83-.6-2.73-1.02-.85-.4-1.42-1.16-1.62-2.12-.24-1.16.12-2.5.93-3.41l7.97-8.77-2.45-5.02-5.46-2.12s-.04.02-.04.03l-8.07,8.7c-1.38,1.5-3.66,1.65-5.18.35-4.15-3.54-4.75-9.28-1.56-14.97,3.77-6.72,12.29-11.99,21.31-9.05.12.04.27,0,.37-.09l16.92-17.11c.06-.06.08-.13.08-.15-2.54-4.97-2.22-13.12,4.25-20.06,5.18-5.56,12.16-7.41,18.21-4.84,1.11.47,1.92,1.46,2.17,2.64.25,1.18-.1,2.41-.92,3.29l-8.19,8.94c-.36.39-.46.94-.26,1.41.01.02.02.05.03.07l1.77,4.8c.16.35.46.61.83.72l5.69,1.18s.05.01.08.02c.54.14,1,.06,1.11-.03.49-.57,5.36-6.19,8.59-9.57.85-.89,2.04-1.3,3.25-1.11,1.22.19,2.28.96,2.83,2.07h0c3.11,6.27,1.77,13.34-3.59,18.92-5.64,5.87-13.83,8.08-19.9,5.35-.16-.07-.4,0-.57.15-4.06,3.89-14.85,15.38-16.32,17.04,3.13,5.6,1.7,13.38-3.49,18.91-4.39,4.68-10.33,6.42-16.02,4.84ZM321.18,91.1c.09.03.19.06.28.09l5.56,2.16c.63.24,1.14.71,1.44,1.32l2.52,5.17c.49,1.01.35,2.22-.38,3.09-.01.02-.03.03-.04.05l-8.03,8.83c-.27.31-.29.83-.21.94,5.33,2.53,11.06,1.35,15.32-3.19,4.32-4.61,5.58-10.97,3.06-15.47-.66-1.17-.39-2.19-.05-2.83.43-.82,13.73-14.72,16.91-17.77,1.05-1,2.54-1.28,3.81-.71,4.88,2.19,11.86.21,16.58-4.71,4.46-4.64,5.61-10.46,3.08-15.57,0,0,0,0,0,0-.18-.37-.51-.45-.64-.47-.15-.02-.44-.02-.68.23-3.33,3.49-8.47,9.45-8.53,9.51-.02.02-.03.04-.05.06-1.06,1.11-2.73,1.17-3.96.86l-5.7-1.18s-.08-.02-.12-.03c-1.25-.35-2.26-1.23-2.78-2.42-.01-.02-.02-.05-.03-.07l-1.77-4.81c-.65-1.54-.33-3.32.82-4.53l8.19-8.94c.25-.26.23-.54.2-.68-.03-.14-.13-.41-.44-.54-4.95-2.1-10.53-.56-14.91,4.14-4.69,5.03-6.24,11.91-3.77,16.74.59,1.15.34,2.56-.62,3.52l-16.94,17.12c-.9.89-2.18,1.18-3.36.8-5.66-1.85-13.63.19-17.83,7.69-1.93,3.44-2.7,8.21.91,11.29.31.27.81.22,1.12-.11l8.07-8.7c.73-.83,1.9-1.17,2.99-.87ZM343.24,92.58h0Z"/>
            </g>
          </g>
          <path d="M355.79,97.2c.8-.14,1.56.4,1.7,1.2l1.73,10.04c.14.8-.4,1.56-1.2,1.7s-1.56-.4-1.7-1.2l-1.73-10.04c-.14-.8.4-1.56,1.2-1.7Z"/>
          <path d="M367.69,93.92c.64-.5,1.56-.39,2.07.24l6.31,7.99c.5.64.39,1.56-.24,2.07s-1.56.39-2.07-.24l-6.31-7.99c-.5-.64-.39-1.56.24-2.07Z"/>
          <path d="M374.59,85.17c.24-.77,1.07-1.2,1.85-.96l9.71,3.06c.77.24,1.2,1.07.96,1.85s-1.07,1.2-1.85.96l-9.71-3.06c-.77-.24-1.2-1.07-.96-1.85Z"/>
        </g>
        <g>
          <path d="M554.67,434.44c-2.16-.89-4.31-1.85-6.52-2.61-7.17-2.43-15.44-2.17-22.15,1.68-14.32,8.19-18.49,27.79-16.44,44.11,3.18,25.9,25.96,34.88,46.59,39.51,10.04,2.18,22.77,5.78,32.6,1.87,7.05-2.75,12.09-9.28,16.2-15.95,3.62-5.95,6.94-12.66,6.91-19.98.01-7.05-3.04-13.68-6.99-19.18-10.68-14.76-27.43-22.21-43.65-27.08-2.2-.69-4.38-1.48-6.5-2.36l-.04-.02Z" fill="#fdd9c2"/>
          <path d="M545.46,446.14c-.8.16-1.57-.35-1.74-1.15l-2.04-9.98c-.16-.8.35-1.57,1.15-1.74s1.57.35,1.74,1.15l2.04,9.98c.16.8-.35,1.57-1.15,1.74Z"/>
          <path d="M536.36,451.98c-.48.66-1.4.8-2.06.32l-8.22-6.02c-.66-.48-.8-1.4-.32-2.06s1.4-.8,2.06-.32l8.22,6.02c.66.48.8,1.4.32,2.06Z"/>
          <path d="M532.04,461.66c.05.81-.57,1.51-1.39,1.55l-10.17.58c-.81.05-1.51-.57-1.55-1.39s.57-1.51,1.39-1.55l10.17-.58c.81-.05,1.51.57,1.55,1.39Z"/>
          <g>
            <path d="M544.29,513.78c-2.52,1.62-5.86.04-6.22-2.92-1.29-10.37-1.21-34.7,8.57-52.93,10.7-19.95,42.62-6.44,33.13,15.13-8.76,19.92-26.89,35.21-35.47,40.72Z" fill="#ec6712"/>
            <g>
              <path d="M580.58,434.34c-.08-.45-.61-.7-1.07-.56-10.52,3.13-9.13,16.31-9.13,16.31,0,0,12.39-3.8,10.2-15.75Z" fill="#7da631"/>
              <path d="M590.65,445.93c-9.68-5.17-17.96,5.19-17.96,5.19,0,0,11.49,6,18.32-4.04.26-.38.05-.93-.36-1.15Z" fill="#7da631"/>
              <path d="M562.28,432.43c-.37-.16-.88.17-1.04.63-4.3,12.71,7.34,15.92,7.34,15.92,0,0,3.75-12.13-6.3-16.55Z" fill="#7da631"/>
            </g>
          </g>
          <path d="M573.86,451.63c.05.03.1.07.15.1.01,0,.03-.02.05-.02-.07-.03-.14-.05-.2-.08Z"/>
          <path d="M593.96,445.81c-.26-1.06-.96-1.96-1.93-2.47-2.23-1.19-4.57-1.79-6.96-1.79h0c-.68,0-1.33.05-1.98.14.76-2.42.89-5.07.37-7.88-.32-1.74-1.88-3.01-3.7-3.01h0c-.37,0-.74.05-1.1.16-3.36,1-6.04,2.94-7.95,5.7-1.43-3.08-3.88-5.43-7.25-6.92-.44-.19-.91-.29-1.39-.29h0c-1.6,0-3.09,1.1-3.62,2.67-1.61,4.78-1.47,9.02.43,12.59.42.79.91,1.49,1.43,2.13-.88.1-1.76.26-2.63.48-5.32,1.34-9.59,4.77-12.35,9.92-9.91,18.46-10.04,43.27-8.73,53.8.24,1.9,1.41,3.52,3.15,4.33.75.35,1.55.53,2.35.53,1.04,0,2.07-.3,2.98-.88,9.23-5.92,27.2-21.3,36.02-41.36,3.1-7.04,2.11-13.19-.96-17.82.05,0,.1,0,.16,0,5.43,0,9.98-2.46,13.14-7.1.58-.85.76-1.91.51-2.92ZM572.13,442.1c-.05-.55-.13-1.07-.22-1.59,1.28-2.85,3.56-5.53,7.6-6.74.08-.02.17-.04.26-.04.38,0,.74.23.81.6.62,3.37.08,6.09-1.02,8.27-3.43,1.31-6.12,3.54-7.67,5.07.24-1.42.44-3.41.25-5.57ZM561.24,433.06c.13-.38.5-.67.83-.67.07,0,.14.01.2.04,4.04,1.78,5.85,4.8,6.57,7.78h0c.13.55.23,1.1.29,1.64,0,.01,0,.03,0,.04.03.25.05.49.07.74,0,.03,0,.06,0,.09.02.24.03.47.03.7,0,.02,0,.04,0,.06.02,1.01-.04,1.95-.14,2.76,0,.02,0,.03,0,.05-.02.19-.05.36-.07.53,0,.01,0,.03,0,.04-.04.29-.09.56-.14.8-1.46-.45-2.96-.74-4.45-.87-2.84-2.21-5.68-6.38-3.2-13.73ZM578.42,472.47c-1.22,2.78-2.64,5.46-4.19,8.05-1.16-1.04-3.75-3.12-7.97-5.25-.72-.36-1.61-.07-1.98.65-.37.73-.07,1.61.65,1.98,4.6,2.32,7.09,4.57,7.72,5.17-3.86,5.95-8.38,11.29-12.83,15.82-2.64-2.5-5.55-3.83-5.69-3.89-.74-.33-1.61,0-1.94.74-.33.74,0,1.61.73,1.95.03.01,2.56,1.17,4.8,3.28-5.5,5.32-10.72,9.33-14.22,11.58-.76.49-1.67.55-2.49.17-.83-.39-1.36-1.13-1.48-2.03-.81-6.51-1.05-18.62,1.35-31.15,4.29.22,9.08,2.45,9.13,2.48.2.1.42.14.63.14.55,0,1.08-.31,1.33-.84.35-.73.03-1.61-.7-1.96-.22-.1-5.04-2.36-9.79-2.73,1.15-5.15,2.78-10.29,5.02-15.1,1.1.03,4.74.33,10.02,2.89.21.1.42.15.64.15.55,0,1.07-.31,1.32-.83.35-.73.05-1.61-.68-1.96-4.45-2.15-7.88-2.86-9.88-3.09,0-.01.02-.03.02-.05,3.38-6.3,9.05-8.96,14.69-8.96,2.85,0,5.69.68,8.22,1.91,6.87,3.35,11.88,11.11,7.58,20.89ZM591.02,447.08c-3.11,4.57-7.19,5.82-10.71,5.82-1,0-1.96-.1-2.84-.26-1.1-1.06-2.32-1.98-3.63-2.77,1.47-1.46,4.24-3.81,7.74-4.85,0,0,0,0,0,0,1.1-.33,2.27-.53,3.49-.53,1.77,0,3.64.41,5.58,1.44.42.22.62.77.36,1.15Z"/>
        </g>
        <g>
          <path d="M692.77,70.87c-.92-2.15-1.77-4.34-2.81-6.43-3.4-6.77-9.47-12.38-16.95-14.36-15.95-4.22-32.68,6.79-42.68,19.86-15.92,20.67-6.02,43.06,5.42,60.84,5.61,8.6,12.15,20.11,21.89,24.23,6.95,2.99,15.13,1.88,22.73.02,6.76-1.69,13.83-4.14,18.95-9.37,4.96-5.01,7.45-11.87,8.49-18.57,2.77-18.01-3.93-35.07-12.06-49.94-1.08-2.04-2.08-4.13-2.97-6.24l-.02-.04Z" fill="#fdd9c2"/>
          <path d="M678,72.73c-.68-.44-.87-1.35-.43-2.04l5.56-8.53c.44-.68,1.35-.87,2.04-.43s.87,1.35.43,2.04l-5.56,8.53c-.44.68-1.35.87-2.04.43Z"/>
          <path d="M667.42,70.5c-.8.13-1.56-.42-1.69-1.22l-1.62-10.05c-.13-.8.42-1.56,1.22-1.69s1.56.42,1.69,1.22l1.62,10.05c.13.8-.42,1.56-1.22,1.69Z"/>
          <path d="M657.55,74.35c-.54.61-1.47.67-2.08.13l-7.64-6.73c-.61-.54-.67-1.47-.13-2.08s1.47-.67,2.08-.13l7.64,6.73c.61.54.67,1.47.13,2.08Z"/>
          <g>
            <path d="M629.67,120.07c-2.93-.62-4.2-4.08-2.38-6.45,6.36-8.29,23.51-25.56,43.27-31.66,21.63-6.69,34.86,25.35,12.96,34.04-20.23,8.03-43.87,6.18-53.85,4.08Z" fill="#ec6712"/>
            <g>
              <path d="M711.29,88.99c.26-.38.05-.93-.36-1.15-9.69-5.16-17.96,5.2-17.96,5.2,0,0,11.49,5.99,18.32-4.05Z" fill="#7da631"/>
              <path d="M710.32,104.32c-3.27-10.48-16.43-8.92-16.43-8.92,0,0,3.96,12.34,15.88,9.99.45-.09.69-.62.55-1.07Z" fill="#7da631"/>
              <path d="M699.6,74.79c-.15-.37-.75-.5-1.18-.28-11.99,6.03-5.96,16.49-5.96,16.49,0,0,11.19-6,7.14-16.21Z" fill="#7da631"/>
            </g>
          </g>
          <path d="M694.36,96.58c.01.06.03.12.04.18.02,0,.03,0,.05.02-.03-.07-.06-.13-.09-.19Z"/>
          <path d="M712.76,106.56c.56-.94.69-2.07.37-3.11-.75-2.41-2-4.48-3.7-6.16h0c-.48-.48-.99-.9-1.51-1.29,2.24-1.19,4.19-2.98,5.8-5.35,1-1.47.78-3.46-.52-4.74h0c-.26-.26-.56-.48-.89-.66-3.09-1.65-6.36-2.15-9.66-1.53,1.14-3.2,1.06-6.59-.3-10.02-.18-.45-.44-.84-.78-1.18h0c-1.14-1.12-2.97-1.39-4.45-.64-4.51,2.27-7.38,5.39-8.54,9.27-.26.86-.4,1.7-.48,2.52-.7-.55-1.44-1.05-2.2-1.51-4.73-2.78-10.18-3.34-15.76-1.61-20.02,6.19-37.53,23.75-44,32.17-1.17,1.52-1.47,3.5-.8,5.3.29.78.74,1.46,1.3,2.02.74.73,1.68,1.24,2.74,1.47,10.73,2.26,34.32,3.94,54.69-4.15,7.15-2.84,10.76-7.91,11.83-13.36.04.04.07.08.11.11,3.87,3.82,8.83,5.26,14.35,4.17,1.01-.2,1.89-.83,2.42-1.72ZM699.82,88.59c.35-.42.66-.85.96-1.29,2.91-1.13,6.42-1.44,10.14.54.08.04.15.09.21.15.27.27.37.69.16.99-1.93,2.84-4.23,4.39-6.53,5.17-3.36-1.48-6.85-1.77-9.02-1.78,1.17-.84,2.71-2.11,4.09-3.79ZM698.42,74.51c.36-.18.83-.13,1.07.11.05.05.09.11.12.17,1.63,4.1.79,7.52-.79,10.15h0c-.29.49-.61.94-.94,1.37,0,.01-.02.02-.03.03-.15.2-.31.39-.47.57-.02.02-.04.05-.06.07-.15.18-.31.35-.47.52-.01.01-.03.03-.04.04-.69.74-1.4,1.36-2.04,1.87-.01.01-.03.02-.04.03-.15.12-.29.23-.43.33-.01,0-.02.02-.04.03-.24.18-.46.33-.66.47-.73-1.35-1.59-2.6-2.56-3.75-.47-3.57.44-8.53,7.37-12.02ZM682.97,114.62c-2.82,1.12-5.72,2.04-8.64,2.79-.1-1.55-.48-4.85-1.99-9.34-.26-.77-1.09-1.18-1.86-.92-.77.26-1.18,1.09-.92,1.86,1.65,4.88,1.84,8.23,1.87,9.1-6.93,1.52-13.9,2.15-20.25,2.25-.12-3.63-1.26-6.63-1.31-6.77-.29-.76-1.14-1.13-1.9-.84-.76.29-1.13,1.14-.84,1.9.01.03.99,2.63,1.11,5.71-7.66-.07-14.18-.89-18.25-1.75-.89-.19-1.58-.78-1.89-1.63-.32-.86-.18-1.76.38-2.49,3.99-5.2,12.32-13.99,22.84-21.23,2.91,3.17,4.74,8.12,4.76,8.17.08.21.2.39.35.54.39.39.99.54,1.54.33.76-.28,1.16-1.12.88-1.89-.08-.22-1.93-5.22-5.05-8.82,4.44-2.85,9.21-5.38,14.17-7.22.76.79,3.14,3.56,5.1,9.09.08.22.2.4.35.55.39.38.98.53,1.53.34.77-.27,1.17-1.11.89-1.88-1.65-4.66-3.6-7.57-4.87-9.14.02,0,.03-.01.05-.02,6.83-2.11,12.74-.02,16.75,3.94,2.03,2,3.57,4.48,4.51,7.13,2.54,7.21.66,16.25-9.28,20.19ZM709.77,105.39c-5.43,1.07-9.21-.91-11.71-3.38-.71-.7-1.32-1.45-1.84-2.17-.04-1.53-.26-3.05-.64-4.52,2.07,0,5.69.26,8.92,1.98,0,0,0,0,0,0,1.01.54,1.98,1.22,2.86,2.08,1.26,1.24,2.3,2.85,2.96,4.95.14.45-.1.98-.55,1.07Z"/>
        </g>
        <g>
          <path d="M300.65,676.93c-1.95,1.29-3.95,2.52-5.82,3.93-6.04,4.57-10.46,11.55-11.05,19.27-1.26,16.45,12.61,30.9,27.27,38.37,23.22,11.91,43.44-1.89,58.85-16.36,7.44-7.08,17.57-15.6,19.85-25.92,1.68-7.38-.89-15.22-4.1-22.36-2.89-6.34-6.58-12.85-12.65-16.94-5.83-3.97-13.03-5.17-19.8-4.98-18.21.55-33.78,10.22-46.92,20.91-1.81,1.43-3.68,2.79-5.6,4.05l-.04.02Z" fill="#fdd9c2"/>
          <path d="M305.16,691.12c-.31.75-1.17,1.1-1.92.79l-9.4-3.92c-.75-.31-1.1-1.17-.79-1.92s1.17-1.1,1.92-.79l9.4,3.92c.75.31,1.1,1.17.79,1.92Z"/>
          <path d="M304.89,701.93c.27.77-.13,1.61-.89,1.88l-9.59,3.42c-.77.27-1.61-.13-1.88-.89s.13-1.61.89-1.88l9.59-3.42c.77-.27,1.61.13,1.88.89Z"/>
          <path d="M310.47,710.94c.7.42.92,1.32.51,2.02l-5.23,8.74c-.42.7-1.32.92-2.02.51s-.92-1.32-.51-2.02l5.23-8.74c.42-.7,1.32-.92,2.02-.51Z"/>
          <g>
            <path d="M360.48,730.07c-.08,2.99-3.25,4.87-5.92,3.51-9.31-4.75-29.39-18.48-38.98-36.81-10.5-20.06,18.61-38.88,31.13-18.92,11.56,18.44,14.03,42.02,13.77,52.22Z" fill="#ec6712"/>
            <g>
              <path d="M315.12,655.43c-.42-.18-.92.12-1.06.57-3.31,10.46,8.37,16.72,8.37,16.72,0,0,3.81-12.39-7.31-17.28Z" fill="#7da631"/>
              <path d="M330.37,653.61c-9.71,5.11-5.79,17.77-5.79,17.77,0,0,11.42-6.13,6.95-17.43-.17-.42-.74-.56-1.15-.34Z" fill="#7da631"/>
              <path d="M303.26,669.5c-.34.21-.35.83-.06,1.21,8.11,10.69,17.3,2.87,17.3,2.87,0,0-7.93-9.91-17.23-4.08Z" fill="#7da631"/>
            </g>
          </g>
          <path d="M325.65,670.7c.06-.02.11-.05.17-.07,0-.02,0-.03,0-.05-.06.04-.12.08-.18.12Z"/>
          <path d="M332.13,650.8c-1.02-.38-2.16-.3-3.13.2-2.23,1.18-4.05,2.78-5.39,4.76h0c-.38.56-.71,1.13-.99,1.72-1.58-1.99-3.69-3.58-6.31-4.73-1.62-.71-3.54-.14-4.57,1.38h0c-.21.31-.37.64-.48,1-1.06,3.34-.96,6.65.25,9.78-3.35-.54-6.67.16-9.8,2.11-.41.25-.75.59-1.02.99h0c-.9,1.32-.83,3.17.18,4.5,3.05,4.02,6.63,6.28,10.66,6.72.89.1,1.74.09,2.56.01-.41.79-.78,1.6-1.08,2.44-1.88,5.15-1.44,10.61,1.27,15.79,9.72,18.56,30.16,32.6,39.62,37.44,1.71.87,3.71.81,5.35-.17.71-.42,1.31-.99,1.75-1.65.58-.86.92-1.88.95-2.96.28-10.96-2.35-34.47-14-53.03-4.08-6.51-9.73-9.15-15.29-9.21.03-.04.06-.08.09-.13,3.05-4.5,3.57-9.64,1.5-14.86-.38-.95-1.15-1.71-2.13-2.07ZM316.8,666.78c-.48-.27-.96-.5-1.44-.71-1.64-2.66-2.58-6.05-1.31-10.07.03-.08.07-.16.11-.23.21-.31.61-.48.95-.33,3.14,1.38,5.09,3.36,6.27,5.49-.85,3.57-.5,7.05-.11,9.2-1.04-1-2.57-2.28-4.47-3.34ZM303.2,670.71c-.24-.32-.27-.79-.09-1.07.04-.06.09-.11.15-.15,3.74-2.34,7.25-2.14,10.12-1.07h0c.53.2,1.04.43,1.52.68.01,0,.02.01.04.02.22.11.44.23.65.36.03.01.05.03.08.05.2.12.4.24.6.36.02.01.03.02.05.03.85.55,1.59,1.13,2.21,1.67.01.01.02.02.04.03.14.12.27.24.4.36.01.01.02.02.03.03.22.2.41.39.58.56-1.19.96-2.27,2.03-3.22,3.2-3.42,1.11-8.47,1.12-13.16-5.07ZM345.46,678.63c1.61,2.57,3.04,5.25,4.31,7.99-1.51.38-4.69,1.35-8.82,3.65-.71.4-.97,1.29-.57,2,.39.71,1.29.97,2,.57,4.5-2.5,7.76-3.3,8.61-3.48,2.75,6.54,4.64,13.28,5.89,19.51-3.55.77-6.29,2.44-6.42,2.52-.69.43-.91,1.33-.48,2.02.42.69,1.33.91,2.02.48.03-.02,2.41-1.46,5.41-2.13,1.32,7.54,1.7,14.11,1.59,18.27-.02.91-.48,1.69-1.26,2.16-.78.47-1.7.5-2.51.08-5.84-2.98-15.99-9.58-25.02-18.61,2.59-3.43,7.13-6.13,7.18-6.16.19-.11.35-.27.47-.44.31-.46.35-1.07.05-1.57-.41-.7-1.31-.93-2.01-.52-.21.12-4.78,2.84-7.75,6.57-3.61-3.84-6.96-8.08-9.67-12.63.64-.89,2.93-3.73,8.02-6.67.2-.11.36-.27.48-.45.31-.45.35-1.06.06-1.56-.41-.7-1.31-.94-2.01-.54-4.28,2.47-6.79,4.92-8.1,6.45,0-.01-.02-.03-.02-.04-3.31-6.33-2.33-12.52.84-17.19,1.6-2.36,3.76-4.33,6.2-5.73,6.63-3.81,15.86-3.59,21.54,5.46ZM331.52,653.95c2.04,5.14.78,9.22-1.2,12.13-.56.83-1.18,1.56-1.8,2.2-1.49.32-2.95.81-4.33,1.45-.38-2.03-.77-5.65.33-9.13,0,0,0,0,0,0,.35-1.09.84-2.17,1.53-3.18.99-1.46,2.39-2.78,4.33-3.8.42-.22.99-.08,1.15.34Z"/>
        </g>
      </g>
    </pattern>
  </defs>
  <rect x="0" y="0" width="8418.9" height="5952.76" fill="url(#b)"/>
</svg>