<?xml version="1.0" encoding="UTF-8"?>
<svg id="b" data-name="Ebene 3" xmlns="http://www.w3.org/2000/svg" width="801" height="801" viewBox="0 0 801 801">
  <g>
    <path d="M42.71,201.98l.17-.07c.39-.13.72-.35.98-.66.3-.25.53-.56.68-.93.17-.36.25-.73.23-1.12.05-.4-.01-.79-.18-1.17l-.39-.7c-.32-.42-.72-.74-1.2-.96l-.74-.22c-.53-.08-1.05-.03-1.56.16l-.17.07c-.39.13-.72.35-.98.66-.3.25-.53.56-.68.93-.17.36-.25.73-.23,1.12-.05.4.01.79.18,1.17l.39.7c.32.42.72.74,1.2.96l.74.22c.53.08,1.05.03,1.56-.16h0Z"/>
    <path d="M43.22,201.78l.83-.21c-.72-1.87-1.44-3.73-2.17-5.6-6.89,1.76-13.78,3.51-20.68,5.27-3.73.95-1.53,6.54,2.17,5.6,6.89-1.76,13.78-3.51,20.68-5.27,3.74-.95,1.53-6.53-2.17-5.6l-.83.21c-3.73.94-1.53,6.53,2.17,5.6h0Z"/>
    <path d="M21.67,227.69c6.43,2.59,12.94,4.95,19.53,7.09,3.64,1.18,6.1-4.3,2.42-5.49-6.59-2.14-13.1-4.5-19.53-7.09-3.58-1.44-6.02,4.04-2.42,5.49h0Z"/>
    <path d="M10.75,244.23c4.27,4.97,8.54,9.93,12.81,14.9,2.5,2.91,7.35-.64,4.82-3.58-4.27-4.97-8.54-9.93-12.81-14.9-2.5-2.91-7.35.64-4.82,3.58h0Z"/>
  </g>
  <g>
    <path d="M545.51,349.45l-.05.18c-.12.39-.14.79-.06,1.18.02.39.13.76.34,1.1.18.35.44.64.77.85.29.28.64.46,1.05.56l.8.11c.53,0,1.02-.13,1.48-.39l.61-.46c.39-.38.65-.83.8-1.35l.05-.18c.12-.39.14-.79.06-1.18-.02-.39-.13-.76-.34-1.1-.18-.35-.44-.64-.77-.85-.29-.28-.64-.46-1.05-.56l-.8-.11c-.53,0-1.02.13-1.48.39l-.61.46c-.39.38-.65.83-.8,1.35h0Z"/>
    <path d="M545.37,349.98l-.33.79c1.93.53,3.86,1.06,5.78,1.59,2.7-6.58,5.39-13.16,8.09-19.74,1.46-3.57-4.34-5.13-5.78-1.59-2.7,6.58-5.39,13.16-8.09,19.74-1.46,3.57,4.33,5.12,5.78,1.59l.33-.79c1.47-3.56-4.33-5.12-5.78-1.59h0Z"/>
    <path d="M537.4,317.23c-5.91,3.62-11.68,7.44-17.33,11.46-3.12,2.22-.18,7.46,2.96,5.22,5.64-4.02,11.42-7.84,17.33-11.46,3.29-2.02.34-7.24-2.96-5.22h0Z"/>
    <path d="M530.62,298.6c-6.53.47-13.07.94-19.6,1.41-3.82.27-3.86,6.28,0,6,6.53-.47,13.07-.94,19.6-1.41,3.82-.27,3.86-6.28,0-6h0Z"/>
  </g>
  <path d="M440.99,710.94c1.03-.48,1.81-1.33,2.19-2.4l5.69-16.13c.74-2.1-.29-4.4-2.35-5.25l-27.87-11.42c-2.62-1.07-5.57-.09-7.03,2.34-3.8,6.33-16.16,15.43-28.86,8.88-2.57-1.32-5.76-.58-7.6,1.77l-17.62,23.9c-1.35,1.72-1.15,4.14.45,5.62l11.28,10.47c.83.77,1.91,1.15,3.03,1.11,1.13-.05,2.17-.55,2.92-1.39l4.41-4.94,12.06,41.37c.31,1.07,1.03,1.96,2.01,2.5.62.34,1.3.51,1.98.51.4,0,.81-.06,1.21-.18l45.21-13.6c1.08-.32,1.96-1.05,2.49-2.05.53-1,.63-2.14.28-3.21l-12.75-39.96,5.63,2.16c1.06.41,2.21.37,3.24-.11ZM416.04,680.73c.13-.22.41-.31.65-.22l27,11.06-5.04,14.29-6.6-2.53c-1.51-.58-3.18-.25-4.36.86-1.18,1.11-1.6,2.76-1.11,4.3l13.07,40.96-43.3,13.02-12.28-42.12c-.43-1.45-1.61-2.57-3.08-2.9-.31-.07-.61-.1-.92-.1-1.17,0-2.31.5-3.11,1.39l-4.93,5.51-9.9-9.19,17.13-23.23c.28-.36.77-.49,1.13-.3,15.19,7.83,30.25-1.82,35.65-10.81Z"/>
  <g>
    <path d="M410.43,248.61l-14.51-5.21c-1.56-.56-2.37-2.28-1.81-3.84l12.28-34.21c-4.57-3.95-14.64-15.75-6.6-38.15,3.57-9.95,10.81-16.85,21.52-20.49,8.64-2.94,17.5-2.93,22.01-2.66,1.82.11,3.45,1.04,4.45,2.57,1.01,1.53,1.23,3.39.61,5.12l-34.12,95.05c-.56,1.56-2.28,2.37-3.84,1.81ZM400.77,238.77l8.86,3.18,32.99-91.92c-9.21-.49-30.48.52-37.18,19.2-8.38,23.35,5.47,32.15,6.06,32.51,1.21.74,1.76,2.25,1.28,3.58l-12,33.44Z"/>
    <path d="M350.56,224.99l-12.93-4.64c-1.56-.56-2.37-2.28-1.81-3.84l19.58-54.56c-7.29-7.12-8.13-16.84,4.07-46.04.64-1.53,2.39-2.25,3.92-1.61,1.53.64,2.25,2.4,1.61,3.92-12.67,30.34-9.88,35.76-4.18,40.56.96.81,1.32,2.13.89,3.31l-19.25,53.62,7.28,2.61,19.25-53.62c.46-1.28,1.71-2.09,3.07-1.98,9.84.8,12.71-3.29,23.61-33.66.56-1.56,2.28-2.37,3.84-1.81s2.37,2.28,1.81,3.84c-9.37,26.1-13.53,37.69-27.42,37.71l-19.52,54.37c-.56,1.56-2.28,2.37-3.84,1.81Z"/>
    <path d="M365.15,147.64c-1.56-.56-2.37-2.28-1.81-3.84l8.38-23.34c.56-1.56,2.28-2.37,3.84-1.81s2.37,2.28,1.81,3.84l-8.38,23.34c-.56,1.56-2.28,2.37-3.84,1.81Z"/>
    <path d="M377.14,151.94c-1.56-.56-2.37-2.28-1.81-3.84l8.38-23.34c.56-1.56,2.28-2.37,3.84-1.81s2.37,2.28,1.81,3.84l-8.38,23.34c-.56,1.56-2.28,2.37-3.84,1.81Z"/>
  </g>
  <g>
    <path d="M93.43,397.42c-.57-.08-1.13.06-1.59.4-.46.34-.76.84-.85,1.42l-.84,5.71c-5.47-9.77-14.24-16.07-23.83-16.98-11.02-1.04-21.28,5.2-28.13,17.15-.59,1.03-.23,2.34.8,2.93.5.29,1.08.36,1.63.21.56-.15,1.02-.51,1.3-1.01,5.97-10.42,14.72-15.9,23.99-15.01,8.31.79,16.13,6.64,20.84,15.45l-6.92-3.75c-1.04-.57-2.35-.18-2.91.86-.27.51-.33,1.09-.17,1.64s.53,1,1.04,1.28l12.42,6.73.05.03c.12.06.24.1.37.14l.1.03c.17.04.32.06.47.06.13,0,.28-.02.45-.05l.25-.07c.05-.02.1-.04.11-.05l.2-.09c.11-.06.22-.13.3-.19l.1-.08c.12-.1.23-.22.31-.33l.07-.1c.07-.1.13-.21.18-.32.02-.04.04-.09.05-.14.04-.1.07-.21.07-.25l1.96-13.16c.17-1.17-.64-2.27-1.81-2.44ZM91.59,413.89h0s0,0,0,0ZM92.56,412.81h0,0Z"/>
    <path d="M91.83,422.61c-.5-.29-1.08-.36-1.63-.21-.55.15-1.02.51-1.3,1.01-5.97,10.42-14.71,15.91-23.99,15.01-8.31-.79-16.13-6.64-20.84-15.45l6.92,3.75c.5.27,1.08.34,1.64.17.55-.16,1-.53,1.28-1.04.27-.5.33-1.08.17-1.64s-.53-1-1.04-1.28l-12.42-6.73-.07-.03c-.13-.06-.26-.11-.44-.15-.13-.03-.27-.05-.42-.06h-.16c-.1,0-.2.02-.3.04-.06.01-.12.03-.16.04l-.16.04c-.06.02-.11.04-.1.05l-.22.1c-.11.06-.21.13-.29.19l-.1.08c-.12.1-.22.22-.32.34l-.06.09c-.07.1-.13.21-.18.32l-.06.15c-.03.08-.05.16-.08.27l-1.95,13.14c-.08.57.06,1.13.4,1.6.34.46.84.76,1.41.84,1.18.19,2.28-.66,2.45-1.81l.84-5.71c5.47,9.77,14.24,16.07,23.83,16.98.79.08,1.59.11,2.38.11,10.08,0,19.46-6.29,25.75-17.26.29-.5.36-1.08.21-1.63-.15-.55-.51-1.02-1-1.3Z"/>
  </g>
  <g>
    <path d="M220.36,47.9c-.93-.48-2.05-.44-2.95.11-29.18,17.9-69.18,14.54-75.52,13.87-1.9-1.77-4.06-3.2-6.48-4.22-11.36-4.81-24.51.52-29.32,11.88-4.34,10.25-.42,21.95,8.73,27.67l1.77,28.51c.04.71.34,1.38.83,1.89.14.15,2.4,2.48,5.76,3.9,1.8.76,3.91,1.26,6.18,1.03,3.96-.4,7.35-2.83,10.1-7.22.34-.54.49-1.17.45-1.81l-1.74-24.01c17.64,5.25,37.77,25.79,54.15,42.51l1.78,1.82c.28.29.61.51.97.66.54.23,1.15.3,1.74.18.99-.19,1.82-.87,2.2-1.8,1.02-2.48,25.03-61.02,22.95-92.5-.07-1.05-.68-1.98-1.62-2.47ZM111.63,71.87c3.52-8.31,13.14-12.21,21.45-8.69,1.4.59,2.69,1.36,3.86,2.3-.04.08-.07.15-.11.23-.2.42-.38.83-.57,1.24-.18.39-.36.79-.53,1.17-.17.39-.33.77-.49,1.16-.16.37-.31.75-.46,1.11-.15.37-.28.73-.42,1.08-.13.35-.26.7-.38,1.04-.12.35-.24.69-.35,1.02-.11.33-.22.66-.32.98-.1.33-.2.65-.29.97-.09.31-.18.62-.26.92-.08.31-.16.61-.23.91-.07.29-.14.58-.2.86-.07.29-.13.58-.18.86-.05.27-.1.54-.15.81-.05.28-.1.55-.14.82-.04.26-.08.51-.11.76-.03.26-.07.53-.1.78-.03.24-.05.48-.07.72-.02.25-.05.5-.06.74-.02.23-.03.46-.04.68-.01.24-.02.48-.03.71,0,.22,0,.43-.01.65,0,.23,0,.46,0,.68,0,.21,0,.41,0,.61,0,.22,0,.45.01.67,0,.2.02.39.02.58,0,.22.02.44.03.65.01.2.02.39.04.58.01.2.02.41.04.61.03.39.05.77.08,1.14.06.79.11,1.56.15,2.33,0,.07,0,.13,0,.2-3.75,1.24-7.85,1.1-11.51-.45-.36-.15-.7-.33-1.04-.5-.15-.09-.31-.17-.47-.23-7.26-3.99-10.48-12.93-7.18-20.72ZM128.78,126.56c-2.41.26-4.9-1.31-6.26-2.42l-1.5-24.26c3.66.96,7.51.97,11.18.04l1.66,23.01c-1.56,2.22-3.27,3.45-5.08,3.64ZM145,95.58c-2.4-1.02-4.8-1.83-7.19-2.4,0-.1-.01-.2-.02-.3-.04-.7-.09-1.39-.14-2.06-.05-.75-.11-1.5-.15-2.25,0-.07,0-.13,0-.2-.02-.31-.03-.62-.04-.93,0-.1,0-.21,0-.31,0-.28-.01-.55-.01-.83,0-.13,0-.26,0-.39,0-.26,0-.53.01-.8,0-.14.01-.29.02-.43.01-.26.03-.53.05-.8.01-.16.03-.32.04-.48.02-.27.05-.53.08-.81.02-.17.04-.34.07-.52.04-.27.08-.55.12-.83.03-.18.06-.37.1-.56.05-.28.11-.57.17-.87.04-.2.09-.4.13-.6.07-.3.14-.6.22-.91.05-.21.11-.42.17-.64.09-.32.18-.64.28-.97.07-.22.14-.45.21-.68.11-.34.23-.68.35-1.04.08-.24.16-.47.25-.72.13-.36.27-.74.42-1.11.1-.25.19-.5.3-.76.16-.39.33-.8.5-1.2.11-.26.22-.53.34-.8.19-.43.39-.87.6-1.31.13-.27.25-.54.38-.82.05-.1.1-.2.14-.29,9.13.9,44.66,3.15,73.69-12.3-.48,26.02-15.76,67.38-20.93,80.66-15.77-16.09-33.19-33.57-50.17-40.75Z"/>
    <path d="M225.89,77.22c.52.22,1.12.3,1.72.18l15.72-2.95c1.63-.31,2.7-1.87,2.4-3.5-.3-1.63-1.87-2.7-3.5-2.4l-15.72,2.95c-1.63.31-2.7,1.87-2.4,3.5.19,1.03.89,1.83,1.78,2.21Z"/>
    <path d="M236.48,106.67c1.59.48,3.26-.42,3.74-2,.48-1.59-.43-3.26-2-3.74l-16.35-4.94c-1.59-.48-3.26.42-3.74,2-.45,1.48.31,3.04,1.7,3.63.1.04.2.08.31.11l16.35,4.94Z"/>
    <path d="M227.61,129.15l-10.24-10.73c-1.14-1.2-3.04-1.24-4.24-.1-1.2,1.14-1.24,3.04-.1,4.24l10.24,10.73c.29.31.63.54,1,.69,1.07.45,2.35.26,3.24-.59,1.2-1.14,1.24-3.04.1-4.24Z"/>
  </g>
  <path d="M123.11,579.56c-1.01-.09-2.01-.08-2.99-.01l1.21-13.34.02-.16c.18-1.88.72-7.61-4.02-13.33-5.61-6.76-16.58-10.92-32.58-12.37s-27.45.73-34.24,6.44c-3.82,3.21-5.97,7.35-6.37,12.29l-1.22,13.51c-1.7-.66-3.52-1.1-5.44-1.27-10.34-.93-19.46,6.17-20.33,15.83-.59,6.52,2.67,12.72,8.42,16.3l-2,22.62c-.39,4.32,2.6,8.16,6.76,8.86l-1.31,14.45,8.19.74.52-.14c.42-.11,9.44-2.67,11.81-13.28l48.86,4.42c.43,10.87,8.85,15,9.24,15.19l.48.23,8.19.74,1.31-14.5c4.01-.18,7.4-3.34,7.77-7.49l1.99-21.98c6.66-2.15,11.54-7.98,12.16-14.84.86-9.53-6.51-18-16.43-18.9ZM50.1,559.58c.1-1.23.41-4.96,4.25-8.19,3.8-3.19,12.06-6.66,29.84-5.05,17.88,1.62,25.37,6.45,28.5,10.23,3.15,3.8,2.8,7.52,2.66,8.93l-1.41,15.58c-5.67,2.5-9.82,7.75-10.4,14.15l-.46,5.05c-5.63-4.49-13.8-7.25-24.4-8.2s-18.28.04-24.46,2.81l.39-4.33c.51-5.62-1.89-10.87-6.02-14.48l1.47-16.29.02-.19ZM51.68,603.63c4.99-4.78,14.14-6.72,26.48-5.6,11.62,1.05,20.02,4.51,24.28,10,2.24,2.88,2.97,5.79,3.18,7.83l-57.89-5.23c.42-1.91,1.44-4.59,3.95-6.99ZM36.58,644.04l-1.06-.1.76-8.44,7.19.65c-1.55,5.41-5.57,7.38-6.9,7.89ZM110.87,650.76l-1.05-.1c-1.24-.76-4.82-3.42-5.37-9l7.19.65-.76,8.44ZM124.03,607.97l-2.23.42-2.38,26.35c-.11,1.23-1.17,2.15-2.35,2.04l-18.33-1.66-48.47-4.38-18.79-1.7c-1.18-.11-2.06-1.2-1.94-2.44l2.35-26.64-1.86-.9c-4.62-2.23-7.33-6.7-6.91-11.38.58-6.37,6.77-11.03,13.82-10.39,7.04.64,12.3,6.33,11.73,12.7l-.82,9.04c-.14.13-.29.25-.43.39-6.37,6.2-5.96,13.79-5.94,14.11l.16,2.56,69.4,6.27.48-2.71c.05-.29,1.1-6.64-2.94-13.27l.96-10.64c.56-6.23,6.41-10.81,13.04-10.21,6.63.6,11.56,6.15,10.99,12.39-.45,4.95-4.37,9.08-9.53,10.05Z"/>
  <path d="M495.66,474.59c2.64-15.62-6.9-31.23-21.82-36.3-3.17-1.01-6.31-1.49-9.37-1.54-.4-5.29-.77-10.57-1.11-15.86-.25-3.93-.48-7.87-.7-11.8-.14-2.62.26-5.9-.7-8.38-1.79-4.58-10.24-6.31-14.37-7.65-3.67-1.19-5.69,4.46-2.01,5.65,2.54.83,5.74,1.55,8,2.98,3.46,2.19,2.99,5.09,3.2,8.9.04.7.09,1.39.13,2.09-16.77-5.43-33.43-11.15-49.92-17.37-.09-3.42-.18-6.84-.28-10.26.64.19,1.29.36,1.94.5,2.86.61,5.76,1.06,8.64,1.6,2.47.46,3.37-3.74.91-4.37-2.1-.53-4.17-1.27-6.18-2.07-.98-.38-1.94-.79-2.9-1.22-.37-.16-.73-.33-1.1-.51,0,0,0,0,0,0-.09-.05-.19-.1-.28-.15-1.03-.56-2.04-1.16-3.05-1.76-2.31-1.38-4.6-2.82-6.95-4.14-2.05-1.15-4.02-2.42-6.43-1.44-1.73.71-2.76,2.49-2.42,4.34.38,2.1,2.06,3.47,3.88,4.34,0,0,.01,0,.02,0,.02,0,.03.02.05.03,2.56,1.08,5.22,1.94,7.85,2.83.12,4.41.24,8.82.36,13.23l-12.94,14.18c-5.67-4.02-12.58-6.24-19.86-5.93-13.33.57-24.9,9.63-29.39,22.08-4.52,12.56-1.37,26.32,9.04,34.87,10.67,8.76,26.55,10.7,38.19,2.76,5.42-3.7,9.73-9,12.4-15l2.7.93c-.11,3.2,1.12,6.4,3.88,8.5,4.65,3.54,11.42,2.79,15.21-1.62,2.49-2.89,3.36-6.93,2.31-10.46,11.98-6.42,23.64-13.41,35.15-20.63.06.94.11,1.88.17,2.82.19,2.82.4,5.64.61,8.46-19.31,3.44-33.35,24.55-25.05,44.93,5.14,12.63,18.78,21.56,32.44,20.79,15.37-.87,27.26-13.64,29.75-28.38ZM378.15,461.77c-13.25,5.27-30.79-3.08-34.52-16.95-3.48-12.98,3.9-27.45,16.29-32.48,8.29-3.37,17.16-1.99,24.08,2.62l-17.24,18.89c-.68.75-.94,1.78-.69,2.76.25.97.96,1.75,1.9,2.09h.02s24.85,8.6,24.85,8.6c-3,6.45-8.26,11.91-14.7,14.47ZM393.82,426.46c2.03,4.8,2.22,10.11,1.01,15.17l-20.55-7.1,14.33-15.71c2.11,2.2,3.89,4.77,5.21,7.64ZM409.56,454.45c-6.23-3.05.76-13.02,6.21-7.92,3.74,4.01-1.4,10.28-6.21,7.92ZM419.13,441.65c-4.65-3.44-10.83-3.45-15,1.18-.45.5-.84,1.04-1.19,1.6l-2.47-.85c1.66-6.47,1.44-13.37-1.23-19.7-1.65-3.58-3.89-6.79-6.56-9.52l12.24-13.42c17.3,6.53,34.8,12.51,52.4,18.18,0,.02,0,.05,0,.07-12.5,7.88-25.15,15.52-38.19,22.46ZM450.33,492.92c-11.95-7.41-16.86-22.66-10.46-35.4,3.91-7.78,11.08-12.91,19.11-14.39.64,8.1,1.33,16.19,2.1,24.28.36,3.84,6.26,2.7,5.9-1.12-.75-7.86-1.43-15.72-2.05-23.58,2.3.1,4.62.5,6.91,1.23,14.42,4.9,21.57,20.71,16.57,34.9-5.6,15.88-23.6,23.05-38.07,14.08Z"/>
  <g>
    <path d="M525.18,576.87c-2.64-.57-5.85.74-8.46,1.23-3.29.59-6.42.83-7.15,4.73-1.04,5.58.3,12.47.69,18.11.24,3.43.6,6.85,4.5,7.73,3.5.79,7.82.04,11.25-.8,3.36-.82,5.92-2.45,6.19-6.2.38-5.12-1.17-11.15-2.08-16.19-.6-3.29-1.02-7.76-4.95-8.61ZM524.12,602.82c-1.99.44-4.96,1.13-7.01.73-.29-.01-.58-.03-.87-.04-.79.09-.97-.23-.53-.96-.56-1.18-.24-3.58-.32-4.84-.19-3.23-.36-6.46-.47-9.69-.02-.41-.56-3.96-.35-4.19.42-.47,2.91-.46,3.57-.58,1.32-.25,2.63-.52,3.95-.78,1.17-.23,1.54-.36,1.99.04.68.63.75,3.57.9,4.39.62,3.44,1.09,6.9,1.51,10.37.34,2.78.86,4.84-2.37,5.55Z"/>
    <path d="M641.8,546.4c-2.97-7.37-8.76-5.11-15.16-3.5-9.74,2.46-19.48,4.94-29.22,7.44-19,4.88-37.98,9.82-56.96,14.75-3.12-2.2-7.45-1.13-11.3-.42-8.27,1.53-17.15,2.37-25.19,4.84-5.18,1.59-6.96,5.69-6.67,10.83.4,7.28.92,14.56,1.4,21.83.3,4.61-.45,11.48,3.7,14.7,4.23,3.28,11.44,1.67,16.27,1.37,7.45-.46,14.96-1.06,22.34-2.25,4.39-.71,7.5-2.84,8.25-7.41.08-.48.14-.97.19-1.45.79-.16,1.58-.35,2.37-.43,1.8-.19,3.26-.23,4.88.64,1.61.87,2.86,2.33,4.72,2.75,2.03.46,3.78-.3,5.11-1.84.99-1.15,1.39-2.61,2.07-3.94,1.4-2.73,1.96-1.49,4.76-1.1,2.27.31,4.53.08,6.1-1.8.69-.82.99-1.77,1.25-2.79.44-1.74-.18-2.33,1.74-2.86,3.21-.89,6.86,1.9,10.06.07,2.64-1.51,1.22-3.52,2.37-5.62.7-1.27.53-.86,2.68-.76,1.62.08,3.32.31,4.95.26,2.47-.08,4.4-.92,5.21-3.39.34-1.03.42-2.21.46-3.3,0-.15-.05-.69-.07-1.17.22-.06.58-.15,1.05,0,2.15.63,7.28.72,9.3-.68,1.71-1.19,2.21-3.5,2.01-5.47-.01-.13.03-.67,0-1.09.49,0,1.27-.16,1.64-.15,2.02.07,4.1.31,6.11.04,1.92-.25,3.82-1.02,4.84-2.78.55-.96.72-2.13.73-3.22.03-2.25-1.15-1.65.68-2.01,2.41-.48,4.98,1.08,7.52.36,2.12-.6,3.33-2.11,3.57-4.27.58-5.23-2-11.37-3.79-16.17ZM538.78,610.96c-3.34.5-6.72.85-10.08,1.16-6.33.6-12.84,1.3-19.2,1.22-3.57-.04-4.62-.88-4.96-4.5-.32-3.34-.49-6.69-.7-10.03-.38-6.16-.85-12.32-1.19-18.48-.16-2.71-.03-4.67,2.75-5.69,2.94-1.08,6.36-1.34,9.43-1.93,3.31-.63,6.63-1.24,9.95-1.85,2.99-.55,6.34-1.64,9.37-1.71,2.85-.06,3.79.62,4.71,3.18.55,1.54.97,3.14,1.4,4.72.79,2.9,1.47,5.83,2.02,8.79.24,1.28.47,2.59.68,3.9.75,4.97,1.13,9.98,1.22,15.01-.01.53-.02,1.06-.05,1.59-.22,3.71-2.02,4.11-5.33,4.61ZM639.24,561.69c-1.1.06-2.26-.28-3.36-.4-1.89-.21-3.93-.41-5.6.69-1.96,1.3-1.79,2.95-1.97,4.99-.14,1.58.16,1.94-1.78,2.27-1.86.32-4.03-.21-5.92-.19-2.05.03-3.86.26-4.95,2.2-.49.87-.54,1.91-.58,2.89-.08,1.97.53,2.05-1.39,2.49-4.33.99-10.27-2.19-10.83,4.43-.07.84.43,2.49-.18,3.16-.59.65-3.38-.02-4.32-.07-2.27-.11-4.83-.61-6.74.89-1.42,1.11-1.75,2.64-1.99,4.35-.14,1.04-.35,2.2-.18,2.12-.2.09-4.8-.9-6.09-1-2.25-.16-4.58-.14-6.18,1.69-1.36,1.55-.84,4.25-2.3,5.3-1.92,1.39-5.5-1.37-8.11.32-1.2.78-1.81,1.9-2.43,3.14-1.09,2.19-1.09,3.82-3.73,2.62-2.9-1.32-4.09-2.43-7.49-2.32-1.14.04-2.3.3-3.45.53-.11-3.8-.67-7.7-1.24-11.38-.21-1.55-.46-3.1-.73-4.64-.8-5.19-1.75-11.19-3.92-16.03,14.92-3.88,29.85-7.76,44.78-11.61,8.02-2.07,16.03-4.13,24.05-6.17,4.01-1.02,8.02-2.04,12.03-3.05,2.62-.66,10.79-4.18,12.03-1.09,1.38,3.71,4.08,9.29,3.61,13.3-.13,1.16.62.49-1.02.58Z"/>
  </g>
  <g>
    <path d="M176.29,248.28c1.56,4.4-2.15,9.14-4.59,12.41-2.3,3.1,2.9,6.1,5.18,3.03,4.8-6.46,8.22-14.12,2.87-21.25-1.59-2.12-3.89-3.86-5.11-6.23-1.89-3.67.69-7.38,2.8-10.36,2.23-3.16-2.97-6.16-5.18-3.03-4.54,6.43-5.97,12.99-.68,19.32,1.6,1.92,3.85,3.68,4.71,6.1Z"/>
    <path d="M228.51,247.98c1.99,4.75-1.85,9.12-4.47,12.71-2.28,3.13,2.93,6.12,5.18,3.03,3.64-5,7.54-10.71,5.17-17.15-1.01-2.74-2.96-4.87-4.78-7.09-1.32-1.62-3.18-3.76-3.27-6.01-.12-2.77,1.97-5.41,3.44-7.58,2.17-3.21-3.03-6.21-5.18-3.03-3.69,5.46-5.91,11.24-2.02,17.24,1.72,2.66,4.7,4.94,5.93,7.88Z"/>
    <path d="M201.84,247.58c1.68,4.9-3.08,9.43-6.22,12.5-2.77,2.7,1.48,6.95,4.24,4.24,6.66-6.51,11.38-14.48,5.26-22.94-1.83-2.52-4.5-4.83-5.59-7.81-1.83-4.98,2.75-9.78,5.89-13.05,2.68-2.78-1.56-7.03-4.24-4.24-6.56,6.82-11.06,15.03-4.88,23.56,1.79,2.46,4.54,4.79,5.55,7.74Z"/>
    <path d="M267.55,278.78c-1.21-1.41-2.96-2.21-4.81-2.21h-122.41c-1.77,0-3.48.75-4.67,2.06-1.19,1.3-1.79,3.06-1.63,4.82.85,9.55,5.59,32.65,31.05,44.45v3.36c0,3.19,2.6,5.79,5.79,5.79h61.34c3.19,0,5.79-2.6,5.79-5.79v-3.96c23.67-11.89,29.56-34.22,31-43.44.28-1.82-.24-3.67-1.44-5.07ZM263.07,282.93c-1.32,8.48-6.83,29.33-29.33,39.76-1.06.49-1.74,1.55-1.74,2.72v5.64h-60.92v-5.1c0-1.2-.72-2.29-1.83-2.76-24.08-10.25-28.48-31.57-29.25-40.27,0-.03-.01-.14.08-.24.06-.07.15-.11.24-.11h122.41c.1,0,.19.04.25.12.09.11.08.21.07.24Z"/>
  </g>
  <path d="M738.79,237.87c-1.47-.97-3.54-1.26-5.36-1.53.91-3.29,1.83-7.09.88-9.58-1.64-4.34-11.11-5.71-14.99-6.5-6.58-1.35-13.4-1.67-20.09-1.17-3.43.25-6.83.72-10.2,1.36-1.27.24-2.55.49-3.8.79-2.22.53-1.89.45-3.48-1.06-4.07-3.86-8.29-7.55-13.56-9.65-5.98-2.38-12.53-3.22-18.9-3.86-4.25-.43-11.97-1.73-15.81.96-1.66,1.16-2.08,3.13-2.37,5.05-2.5-.17-5.28-.56-7.56.17-4.11,1.32-4.21,7.21-5.06,10.67-2.7,11.03-5.48,22.05-8.13,33.09-1.26,5.24-2.48,10.48-3.66,15.74-.72,3.23-3.83,10.26-1.37,13.26,2.11,2.59,7.77,1.95,10.73,2.27,5.86.65,11.7,1.39,17.53,2.31,5.09.8,10.16,1.72,15.2,2.77,2.54.53,2.31.94,3.55,2.81,1,1.5,2.51,2.66,4.08,3.5,2.89,1.54,6.53,2.43,9.8,2.36,1.5-.03,3.02-.28,4.39-.92,2.32-1.08,1.86-2.04,4.49-1.62,11.29,1.81,22.44,4.74,33.61,7.19,3.34.73,9.62,3.43,12.9,1.73,2.73-1.41,2.97-6.1,3.65-8.7,5.1-19.49,10.51-38.92,14.91-58.58.27-1.23-.42-2.22-1.38-2.86ZM684.74,226.61c.64-.09,1.35-.24,2.18-.42,6.45-1.45,13.1-2.2,19.71-2.08,6.5.11,14.02.95,20.02,3.64,3.08,1.38,2.48,2.33,1.9,5.27-.48,2.42-.99,4.83-1.52,7.24-2.1,9.51-4.51,18.96-7.12,28.34-1.95,7.01-3.84,14.14-6.43,20.95-.19.49-.35,1.06-.57,1.57-.21-.08-.46-.17-.77-.26-1.01-.89-3.01-1.48-4.24-2-5.34-2.26-11.01-3.82-16.78-4.43-6.53-.69-13.06-.33-19.47,1.05-1.01.22-2.02.45-3.02.72-.39.1-.75.19-1.08.27,6.72-19.66,12.87-39.51,17.2-59.85ZM635.16,219.56c.42-2.01.43-6.68,2.29-7.79,1.91-1.15,7.26-.28,9.29-.12,5.43.42,11.08,1.1,16.33,2.61,6.11,1.76,10.68,5.51,15.2,9.82.51.49.97.89,1.4,1.23-4.33,20.44-10.51,40.38-17.26,60.14-.16-.11-.31-.21-.49-.34-2.56-1.94-4.79-4.17-7.55-5.88-5.03-3.12-10.79-5.1-16.6-6.12-3.07-.54-6.18-.84-9.3-.72-2.12.08-4.76.9-7.14,1.16,2.74-11.71,6.12-23.25,9.21-34.87,1.68-6.33,3.29-12.69,4.63-19.1ZM724.05,283.35c-.92,3.52-1.85,7.03-2.78,10.55-.49,1.86-.98,3.73-1.46,5.59-.18.7-.31,1.76-.62,2.37-.73,1.44-.18.91-1.88.89-4.57-.06-9.82-2.1-14.27-3.1-5.04-1.13-10.07-2.27-15.12-3.35-4.46-.95-8.94-1.93-13.45-2.65-1.35-.22-2.4-.54-3.65.09-1.92.98-2.44,2.48-4.95,2.65-2.83.2-7.44-1.16-9.15-3.52-.72-.99-.76-2.23-1.67-3.14-1.16-1.16-2.87-1.4-4.39-1.74-8.93-2-18.04-3.37-27.11-4.5-2.14-.27-4.29-.52-6.43-.75-1.1-.12-5.97.04-6.58-.68-1.03-1.24.43-4.66.77-6.2.54-2.48,1.1-4.96,1.67-7.44,2.42-10.53,5.02-21.02,7.62-31.51,1.35-5.45,2.4-11.09,4.04-16.45.26-.84.24-2.1,1.05-2.67.64-.46,3.39.09,4.14.1.11,0,.21,0,.32,0-.59,2.87-1.22,5.73-1.9,8.58-3.93,16.42-9.06,32.52-12.74,49-.18.81.09,1.7.66,2.31.18.22.42.4.69.55.02.01.04.02.05.03.09.05.19.09.3.13.12.05.23.08.35.11.02,0,.04.02.07.02.05.01.11.01.16.02.04,0,.09.02.13.02,2.42.39,5-.47,7.41-.75,3.6-.42,7.12-.37,10.7.21,6.88,1.12,13.48,3.6,19.02,7.9,2.08,1.62,3.77,4.02,5.94,5.53.52,1,1.89,1.45,3.12,1.12,1.82.04,3.65-.8,5.49-1.31,7.12-1.98,14.67-2.6,22.01-1.63,3.39.45,6.73,1.22,9.97,2.29,3.44,1.14,6.5,3.12,9.86,4.33,2.99,1.07,5.03-.4,6.22-3.08,3.01-6.79,4.8-14.32,6.81-21.44,2.84-10.07,5.44-20.21,7.69-30.42.77.1,1.62.2,2.42.39-3.18,13.92-6.87,27.73-10.5,41.53Z"/>
  <g>
    <path d="M799.11,30.7c0-.23-.03-.45-.08-.67,0-.03-.01-.07-.02-.1-.06-.21-.14-.41-.23-.6-.02-.04-.04-.07-.06-.1-.11-.19-.23-.37-.38-.53-.02-.02-.04-.04-.06-.06-.15-.16-.32-.31-.51-.43,0,0-.01-.01-.02-.02,0,0,0,0,0,0-.13-.08-.26-.16-.4-.22l-51.77-23.2c-2.42-1.08-5.17-1.05-7.56.1l-48.17,23.13c-.1.05-.2.11-.3.17-.01,0-.03.01-.04.02,0,0,0,0-.01.01-.19.12-.35.27-.51.43-.03.03-.05.05-.08.08-.14.16-.27.33-.37.52-.02.03-.04.07-.05.1-.1.19-.18.39-.24.6,0,.02,0,.05-.01.07-.05.21-.08.43-.08.65,0,.02,0,.03,0,.05v61.02c0,2.7,1.5,5.14,3.91,6.35l50.22,25.37c.12.06.24.09.36.13.08.03.15.06.23.09.25.06.5.1.75.1s.51-.04.75-.1c.08-.02.16-.06.23-.09.12-.04.25-.07.36-.13l50.22-25.37c2.41-1.22,3.91-3.65,3.91-6.35V30.71s0,0,0,0ZM740.63,115.91l-45.87-23.17c-.38-.19-.61-.57-.61-1v-56.41l46.48,20.59v60ZM743.63,50.68l-36.17-16.02-9.15-4.05,42.3-20.32c.79-.38,1.71-.39,2.5-.03l45.62,20.45-40.1,17.76-5,2.22ZM793.11,91.74c0,.42-.24.81-.61,1l-45.87,23.17v-60l46.48-20.59v56.41Z"/>
    <path d="M757.52,67.62l3.99-2.01c.4-.2.65-.61.65-1.06v-5.15c0-.86-.88-1.43-1.66-1.08l-3.99,1.77c-.43.19-.7.61-.7,1.08v5.4c0,.88.93,1.45,1.72,1.06Z"/>
    <path d="M778.76,57.82l3.99-2.01c.4-.2.65-.61.65-1.06v-5.15c0-.86-.88-1.43-1.66-1.08l-3.99,1.77c-.43.19-.7.61-.7,1.08v5.4c0,.88.93,1.45,1.72,1.06Z"/>
    <path d="M778.86,83.32v5.4c0,.88.93,1.45,1.72,1.06l3.99-2.01c.4-.2.65-.61.65-1.06v-5.15c0-.86-.88-1.43-1.66-1.08l-3.99,1.77c-.43.19-.7.61-.7,1.08Z"/>
    <path d="M760.67,91.37l-3.99,1.77c-.43.19-.7.61-.7,1.08v5.4c0,.88.93,1.45,1.72,1.06l3.99-2.01c.4-.2.65-.61.65-1.06v-5.15c0-.86-.88-1.43-1.66-1.08Z"/>
    <path d="M768.96,79.79l3.99-2.02c.4-.2.65-.61.65-1.06v-5.15c0-.86-.88-1.43-1.66-1.08l-3.99,1.77c-.43.19-.7.61-.7,1.08v5.4c0,.88.93,1.45,1.72,1.06Z"/>
    <path d="M725.94,65.61l3.99,2.01c.79.4,1.72-.17,1.72-1.06v-5.4c0-.47-.28-.89-.7-1.08l-3.99-1.77c-.78-.35-1.66.23-1.66,1.08v5.15c0,.45.25.85.65,1.06Z"/>
    <path d="M702.88,87.76l3.99,2.01c.79.4,1.72-.17,1.72-1.06v-5.4c0-.47-.28-.89-.7-1.08l-3.99-1.77c-.78-.35-1.66.23-1.66,1.08v5.15c0,.45.25.86.65,1.06Z"/>
    <path d="M714.5,77.77l3.99,2.02c.79.4,1.72-.17,1.72-1.06v-5.4c0-.47-.28-.89-.7-1.08l-3.99-1.77c-.78-.35-1.66.23-1.66,1.08v5.15c0,.45.25.86.65,1.06Z"/>
    <path d="M748.35,29.12l-4.45-1.99c-.33-.15-.7-.14-1.03.01l-4.07,1.96c-.94.45-.92,1.79.03,2.21l4.3,1.91c.31.14.67.14.99,0l4.22-1.87c.96-.43.97-1.79,0-2.23Z"/>
  </g>
  <g>
    <path d="M691.5,397.52c.14.68.53,1.26,1.11,1.64.43.28.92.43,1.42.43.17,0,.35-.02.52-.05.68-.14,1.26-.53,1.64-1.11s.52-1.27.38-1.95l-2.2-10.79c-.14-.68-.53-1.26-1.11-1.64-.58-.38-1.27-.51-1.95-.38-.68.14-1.26.53-1.64,1.11s-.52,1.27-.38,1.95l2.2,10.79Z"/>
    <path d="M685.32,405.47c.84-1.15.59-2.78-.56-3.62l-8.88-6.5c-.56-.41-1.23-.57-1.93-.47-.68.11-1.29.47-1.69,1.03-.41.56-.58,1.24-.47,1.93.11.68.47,1.29,1.03,1.69l8.88,6.5c.46.34,1,.5,1.53.5.8,0,1.59-.37,2.09-1.06Z"/>
    <path d="M678.11,412.84l-10.99.62c-.69.04-1.33.34-1.79.86s-.69,1.18-.65,1.87c.04.69.34,1.33.86,1.79.48.43,1.08.66,1.72.66.05,0,.1,0,.15,0l10.99-.62c.69-.04,1.33-.34,1.79-.86s.69-1.18.65-1.87c-.04-.69-.34-1.33-.86-1.79-.52-.46-1.18-.69-1.87-.65Z"/>
    <path d="M747.77,397.97c-.35-1.42-1.29-2.63-2.58-3.32-2.8-1.49-5.75-2.18-8.8-2.03.52-2.39.54-4.92.05-7.57-.43-2.36-2.53-4.07-4.99-4.07-.5,0-.99.07-1.47.21-3.31.98-6.05,2.75-8.16,5.27-1.71-2.88-4.26-5.08-7.59-6.55-.6-.26-1.24-.4-1.91-.4-2.15,0-4.15,1.47-4.86,3.57-1.84,5.44-1.66,10.29.53,14.41.2.37.41.73.64,1.09-.44.08-.87.18-1.3.29-6.03,1.52-10.87,5.4-13.99,11.22-10.83,20.18-10.98,47.27-9.55,58.77.3,2.4,1.78,4.44,3.97,5.47.94.44,1.94.66,2.96.66,1.33,0,2.63-.38,3.76-1.11,10.07-6.46,29.69-23.25,39.32-45.16,2.9-6.58,2.8-13.17-.22-18.72,5.53-.44,10.16-3.2,13.47-8.06.78-1.15,1.04-2.6.7-3.96ZM711.42,384.42l1,.26s-.17.03-.28-.02l.08.04-.8-.27h0ZM712.36,384.75c3.33,1.54,5.46,4.1,6.31,7.63.13.53.23,1.09.3,1.7.03.25.05.5.08.84.02.24.03.48.04.78.02.92-.03,1.87-.15,2.9-.01.12-.03.23-.05.35-1.2-.31-2.41-.52-3.62-.64-2.72-2.23-5.33-6.36-2.9-13.55ZM713.8,430.32c-.31.62-.36,1.32-.15,1.98.22.66.68,1.19,1.29,1.5,3.89,1.96,6.33,3.86,7.49,4.86-3.51,5.3-7.75,10.53-12.62,15.55-2.78-2.42-5.57-3.68-5.7-3.73-1.3-.59-2.84,0-3.42,1.3-.59,1.3,0,2.84,1.29,3.43.02.01,2.07.96,4.13,2.67-6.9,6.57-12.36,10.31-14.44,11.65-.54.34-1.15.38-1.73.12-.58-.27-.95-.78-1.03-1.42-.88-7.05-1.05-19.7,1.28-32.49,4.1.44,8.43,2.42,8.62,2.51,1.25.59,2.86.01,3.45-1.23.61-1.29.06-2.84-1.23-3.45-.21-.1-4.87-2.28-9.78-2.92,1.24-5.23,2.86-10.07,4.82-14.41,1.57.13,5.03.69,9.77,2.99,1.24.6,2.86.04,3.46-1.2.62-1.29.08-2.84-1.2-3.46-3.94-1.91-7.19-2.8-9.52-3.21,3.2-5.08,8.35-7.96,14.31-7.96,2.89,0,5.81.68,8.45,1.97,7,3.41,12.1,11.31,7.71,21.29-1.09,2.48-2.39,5.02-3.87,7.58-1.55-1.26-4.15-3.14-7.92-5.04-1.28-.64-2.84-.13-3.48,1.15ZM724.19,394.11c-.04-.47-.1-.95-.19-1.49,1.54-3.25,4.02-5.42,7.38-6.44.49,2.85.19,5.46-.88,7.77-2.49,1-4.61,2.42-6.27,3.77.08-1.23.07-2.44-.03-3.61ZM732.03,404.87c-.84,0-1.71-.07-2.6-.21-.86-.8-1.79-1.54-2.77-2.21,1.58-1.41,4.06-3.25,7.04-4.14l.23-.07c3.02-.84,5.97-.52,8.75.94-2.63,3.78-6.21,5.69-10.64,5.69Z"/>
  </g>
  <g>
    <path d="M216.48,694.45c-9.45.74-18.32,3.98-24.09,6.58-8.84,3.97-15.03,9.37-18.41,16.04-3.94,7.78-4.12,17.01-.48,24.71,1.63,3.46,4.25,6.64,7.77,9.44,1.63,1.29,3.46,2.49,5.6,3.68.92.51,1.91,1.02,3.01,1.55.18.08.46.19.78.32.41.16,1.31.5,1.65.74.4,2.57.2,5.08-.6,7.46-.25.75-.7,1.49-1.17,2.27-.66,1.1-1.35,2.24-1.57,3.56-.15.9.41,2,1.23,2.4.86.43,1.87.52,2.94.4l.13.24.07-.27c2.14-.28,4.46-1.35,6.21-2.14l.74-.33c3.66-1.63,6.92-3.91,9.45-6.61,1.28-1.37,2.41-2.84,3.37-4.37.17-.27.35-.62.53-.99.26-.53.59-1.2.87-1.42.38-.3,1.51-.51,2.25-.64.41-.07.79-.15,1.1-.22,3.73-.96,8.59-2.34,13.22-4.5,17.67-8.27,22.95-25.3,19.03-37.85-3.44-11-15.16-21.46-33.63-20.02ZM196.13,767.39c.37-.94.66-1.9.88-2.87.55-2.45.63-5.04.24-7.7,0-.2-.04-.4-.1-.6-.07-.34-.19-.65-.37-.91-1.02-1.95-3.16-2.83-5.07-3.63-.7-.29-1.37-.57-1.94-.88-3.5-1.91-6.09-3.8-8.14-5.96-4.54-4.79-6.6-11.71-5.51-18.51,1.99-12.41,12.93-20.79,33.46-25.63,17.68-4.17,28.89,2.51,33.49,10.14,7.7,12.79.77,28-10.05,34.75-3.48,2.17-7.57,3.9-12.85,5.43-1.17.34-2.37.64-3.54.93-1,.25-1.99.5-2.98.77-2.15.59-2.96,1.52-3.97,3.37-1.93,3.52-4.67,6.49-7.93,8.57-1.49.95-3.16,1.79-4.94,2.48-.21.08-.43.17-.66.25Z"/>
    <path d="M206.07,739.35c1.55,1.11,3.51,1.69,5.57,1.69,1.01,0,2.04-.14,3.06-.42,2.92-.81,5.19-2.66,6.23-5.07.53-1.23.02-2.51-1.22-3.04-1.2-.52-2.83-.17-3.47,1.33-.52,1.2-1.83,1.73-2.57,1.93-1.7.47-3.72.24-4.82-.56-.72-.51-1.56-.61-2.32-.27-.82.37-1.42,1.22-1.51,2.15-.09.9.29,1.73,1.04,2.27Z"/>
    <path d="M223.42,727.82c2.82-.85,3.22-4.69.91-6.34l-.04-.03c-2.03-1.49-5.27-.11-5.71,2.36-.6,2.77,2.27,4.88,4.84,4.01Z"/>
    <path d="M201.62,725.89l-.04-.02c-2.09-.88-4.56.78-4.89,2.96-.61,3.15,3.33,5.11,5.73,3.28,2.1-1.55,1.62-5.28-.81-6.22Z"/>
    <path d="M221.34,672.69l.97,10.09c.12,1.22,1.04,2.06,2.23,2.06.08,0,.17,0,.25-.01,1.32-.13,2.59-1.24,2.44-2.88l-1.02-10.61-.11-1.12-.25.05c-.44-.68-1.21-1.07-2.12-.98-1.06.1-2.09.83-2.37,1.96l-.15.03.12,1.31s0,.07.01.1Z"/>
    <path d="M236.84,687.4c.4.22.82.32,1.23.32.84,0,1.61-.45,2.06-1.28h0c1.65-3.05,3.21-6.2,4.65-9.36.67-1.48-.16-2.93-1.36-3.47-1.22-.56-2.5-.08-3.05,1.14-1.42,3.13-2.96,6.23-4.58,9.23-.77,1.43-.03,2.83,1.06,3.41Z"/>
    <path d="M258.51,684.72c-.72-.39-1.56-.34-2.3.12l-8.34,5.18c-1.36.85-1.47,2.48-.78,3.58.47.75,1.2,1.15,1.96,1.15.43,0,.86-.12,1.27-.38l8.34-5.18c.79-.49,1.23-1.3,1.2-2.22-.03-.95-.56-1.83-1.35-2.25Z"/>
  </g>
  <g>
    <path d="M292.18,524.78c.02-2.76-1.54-5.19-4.06-6.32l-56.21-25.31c-2.5-1.12-5.33-.7-7.39,1.12-2.06,1.81-2.83,4.57-2.03,7.19l18,58.71c.8,2.62,2.99,4.46,5.7,4.82,2.72.34,5.3-.87,6.74-3.2l5.79-9.31,11.61,13.27c1.23,1.4,2.93,2.24,4.79,2.34.14,0,.27.01.41.01,1.71,0,3.34-.63,4.63-1.79l7.12-6.48c1.02-.93,1.73-2.14,2.05-3.49.52-2.18-.04-4.48-1.51-6.15l-12.04-13.75,12.27-5.36c2.54-1.11,4.12-3.51,4.13-6.28ZM273.09,531.85c-1.4.61-2.41,1.83-2.76,3.35-.34,1.51.05,3.05,1.07,4.21l12.46,14.23c.58.66.52,1.68-.13,2.27l-7.12,6.48c-.33.3-.75.46-1.19.42-.44-.03-.84-.22-1.13-.55l-12.02-13.74c-.92-1.06-2.22-1.64-3.6-1.64-.13,0-.27,0-.4.02-1.53.12-2.88.95-3.69,2.25l-6.12,9.85c-.35.56-.93.83-1.59.75-.66-.09-1.15-.5-1.34-1.14l-18-58.71c-.09-.29-.1-.58-.04-.86.08-.32.25-.6.52-.84.5-.44,1.13-.54,1.74-.26l56.21,25.31c.61.28.96.82.96,1.49,0,.67-.36,1.21-.97,1.48l-12.86,5.62Z"/>
    <path d="M226.88,483.28c.31,1.2,1.4,2,2.58,2,.22,0,.45-.03.67-.09,1.42-.37,2.28-1.83,1.91-3.25l-2.91-11.18c-.18-.69-.62-1.27-1.23-1.63-.62-.36-1.33-.46-2.02-.28-1.42.37-2.28,1.83-1.91,3.26l2.91,11.18Z"/>
    <path d="M214.99,493.28l-10.76-4.22c-1.37-.53-2.92.14-3.46,1.51-.54,1.37.14,2.92,1.51,3.46l10.76,4.22c.32.12.65.18.97.18,1.07,0,2.08-.64,2.49-1.7.26-.66.25-1.39-.04-2.04s-.81-1.16-1.47-1.42Z"/>
    <path d="M245.02,489.91c.44.28.93.42,1.44.42.19,0,.38-.02.57-.06h0c.7-.15,1.29-.57,1.68-1.17l6.4-9.97c.38-.6.51-1.31.36-2.01s-.57-1.29-1.17-1.68c-.6-.38-1.31-.51-2.01-.36-.7.15-1.29.57-1.68,1.17l-6.4,9.97c-.38.6-.51,1.31-.36,2.01s.57,1.29,1.17,1.68Z"/>
    <path d="M214.02,513.4c-.66-.27-1.39-.27-2.04,0l-10.95,4.54c-.66.27-1.17.79-1.44,1.45-.27.66-.27,1.38,0,2.04s.79,1.17,1.45,1.44c.33.14.67.2,1.02.2s.69-.07,1.02-.21l10.95-4.54c.66-.27,1.17-.79,1.44-1.44h0c.27-.66.27-1.38,0-2.04-.27-.66-.79-1.17-1.45-1.44Z"/>
  </g>
  <g>
    <path d="M559.96,85.48c-4.96-6.6-12.96-9.7-19.7-7.72-2.35-3.04-11.08-14.71-14.33-19.52,4-6.24,3.13-15.55-2.18-22.8-5.14-7.03-12.75-9.88-20.34-7.64-1.58.47-2.84,1.68-3.37,3.24-.52,1.56-.26,3.22.71,4.54,2.69,3.65,7.06,9.05,8.33,10.6-.01.09-.05.22-.11.35l-2.32,5.85c-.05.11-.15.19-.19.21l-5.38.98-.15.03c-.15.04-.3-.02-.41-.17l-7.9-10.26c-.97-1.29-2.48-2.03-4.13-1.98-1.62.05-3.11.9-3.99,2.25-4.06,6.26-3.38,14.39,1.77,21.21,6.18,8.18,14.75,10.25,20.77,8.71l14.35,20.22c-4.73,9.33-.59,19.61,6.02,25.01,3.15,2.57,6.55,3.87,9.78,3.87,2.71,0,5.3-.91,7.54-2.76,2.07-1.71,2.39-4.74.75-6.9l-7.29-9.6,2.69-4.45,4.71-1.36,7.36,9.48c1,1.25,2.65,2,4.23,1.98,1.37-.04,2.55-.66,3.32-1.73.64-.9,1.21-1.86,1.67-2.84,2.88-6.06,2.04-13.08-2.25-18.79ZM536.77,95.65l-3.3,5.45c-.07.12-.14.24-.2.37-.68,1.43-.49,3.15.47,4.34l7.61,10.02c-3.42,2.7-7.74,1.15-10.66-1.23-6.7-5.46-7.36-13.67-4.55-18.95.79-1.5.68-3.31-.3-4.73l-14.9-20.99c-.84-1.19-2.16-1.86-3.51-1.86-.4,0-.8.06-1.2.18-5.15,1.59-11.66-1.17-15.84-6.71-3.8-5.04-4.44-10.65-1.71-15.08l7.74,10.06c1.31,1.74,3.52,2.56,5.6,2.08l5.39-.98.14-.03c1.65-.39,3.01-1.5,3.74-3.03.03-.06.05-.12.08-.18l2.27-5.74c.67-1.48.95-3.66-.26-5.31l-.1-.13c-.05-.06-5.21-6.38-8.28-10.52,5.37-1.53,10.82.63,14.59,5.79,4.06,5.55,4.85,12.77,1.87,17.17-1.06,1.57-1.04,3.63.04,5.25,2.09,3.12,14.77,20.51,15.8,21.31,1.15.89,2.54,1.11,3.93.62,4.79-1.68,10.79.68,14.59,5.74,3.54,4.72,3.89,10.21.98,14.86l-7.62-9.83-.07-.08c-1.03-1.22-2.69-1.72-4.22-1.28l-5.91,1.7c-.94.27-1.73.88-2.23,1.71Z"/>
    <path d="M548.56,64.01c-1.41,0-2.57,1.15-2.57,2.57h0c0,1.42,1.15,2.57,2.56,2.58l10.88.03h0c1.41,0,2.57-1.15,2.57-2.57,0-1.42-1.15-2.57-2.57-2.58l-10.88-.03h0Z"/>
    <path d="M544.85,53.93h0c.33.61.87,1.05,1.53,1.24.24.07.49.11.74.11.42,0,.84-.1,1.22-.31l9.58-5.17c.6-.33,1.05-.87,1.24-1.53.2-.66.12-1.35-.2-1.96-.33-.6-.87-1.05-1.53-1.24-.66-.2-1.36-.12-1.96.2l-9.58,5.17c-1.25.67-1.71,2.24-1.04,3.48Z"/>
    <path d="M537.33,45.46c.37.19.78.29,1.18.29.26,0,.52-.04.78-.12.66-.21,1.19-.66,1.51-1.27l5.02-9.66c.65-1.26.16-2.81-1.1-3.47-.61-.32-1.31-.38-1.96-.17s-1.19.66-1.51,1.27l-5.02,9.66c-.32.61-.38,1.31-.17,1.96.21.65.66,1.19,1.27,1.51Z"/>
  </g>
  <path d="M737.81,712.85c-.28-1.72-.81-3.45-1.32-5.13-.25-.83-.5-1.65-.72-2.46l-9.7-36.02c-.34-1.28-.68-2.56-1.01-3.84-.66-2.53-1.34-5.14-2.09-7.69-1.16-3.96-3.82-5.79-7.68-5.3-6.79.86-13.66,2.08-20.31,3.25-3.31.58-6.73,1.19-10.08,1.74l-17.73,2.92c-.85.14-1.73.24-2.62.35-1.84.22-3.75.45-5.46.98-1.48.46-2.56,1.52-2.97,2.91-.43,1.47-.05,3.1,1.01,4.37.26.31.57.55.86.68.39.25.88.54,1.43.86,1.53.89,3.61,2.11,4.04,3.04.2.44-1.15,2.26-1.73,3.04-.26.36-.5.67-.66.91-1.34,2.03-2.69,4.05-4.05,6.07-1.89,2.81-3.79,5.61-5.69,8.41l-2.67,3.94c-.36.53-.78,1.09-1.2,1.66-1.79,2.39-3.81,5.09-3.39,8.06.41,2.88,2.95,4.44,5.19,5.82.39.24.77.47,1.13.71l10.35,6.77h0s33.1,21.64,33.1,21.64c.43.28.88.6,1.35.94,1.91,1.36,4.07,2.91,6.3,2.91.02,0,.05,0,.07,0,3.72-.06,5.83-3.62,7.53-6.49.34-.58.68-1.14,1.01-1.65l14.37-22.21c.24-.36.4-.66.52-.89.09-.17.2-.37.16-.38.1.02.44.27.8.54l.21.16c1.81,1.34,3.86,2.85,5.9,3.75,1.51.67,3.13.52,4.32-.39,1.16-.9,1.7-2.38,1.45-3.97ZM697.09,736.36l-10.14-6.63,13.75-21.03c1.89-2.89,1-6.82-1.96-8.76l-12.51-8.18c-1.44-.94-3.15-1.28-4.81-.96-1.67.32-3.09,1.27-4.01,2.67l-13.75,21.03-8.88-5.81c-.45-.3-.93-.58-1.42-.87-.96-.57-1.96-1.16-2.76-1.86-1.26-1.1-1.26-1.58,0-3.45,1.97-2.94,3.96-5.87,5.95-8.79,3.53-5.2,7.18-10.58,10.67-15.94,2.06-3.17,2.76-5.81-.54-8.39-1.3-1.02-2.68-1.99-4.02-2.93l51.94-8.54c2.09-.35,2.65-.45,3.35,1.54.82,2.35,1.43,4.85,2.02,7.28.3,1.23.6,2.45.92,3.65l10.63,39.49c.05.2.1.48.16.8-.22-.16-.44-.32-.67-.48-1.46-1.07-3.12-2.29-4.81-2.71-3.55-.88-5.46,2.28-6.98,4.83-.25.41-.49.81-.72,1.17l-13.8,21.33c-.22.34-.45.76-.68,1.2-.48.9-1.03,1.91-1.65,2.43-1.12.94-2.52,0-4.24-1.31-.37-.29-.72-.55-1.04-.76ZM668.1,717.4l13.75-21.03c.29-.44.95-.52,1.47-.18l12.51,8.18c.52.34.71.98.43,1.42l-13.75,21.03-14.41-9.42Z"/>
</svg>