<?xml version="1.0" encoding="UTF-8"?>
<svg id="a" data-name="Ebene 2" xmlns="http://www.w3.org/2000/svg" width="283.38" height="208.9" viewBox="0 0 283.38 208.9">
  <g>
    <path d="M8.37,78.07c.39,0,.81.11,1.27.32.45.22.81.52,1.07.91l17.2,25.96-2.34-.06,17.39-25.89c.6-.82,1.34-1.23,2.21-1.23.69.04,1.31.31,1.85.81.54.5.81,1.11.81,1.85v40.17c0,.74-.26,1.36-.78,1.88s-1.17.78-1.95.78c-.82,0-1.48-.26-1.98-.78-.5-.52-.75-1.15-.75-1.88v-35.17l1.62.26-15.32,23.3c-.26.35-.57.63-.94.84-.37.22-.77.3-1.2.26-.39.04-.78-.04-1.17-.26-.39-.22-.69-.5-.91-.84l-15.12-23.23,1.36-1.75v36.6c0,.74-.24,1.36-.71,1.88-.48.52-1.08.78-1.82.78s-1.34-.26-1.82-.78c-.48-.52-.71-1.15-.71-1.88v-40.17c0-.69.26-1.31.78-1.85.52-.54,1.17-.81,1.95-.81Z"/>
    <path d="M77.94,78.14c3.2,0,6,.6,8.4,1.78,2.4,1.19,4.4,2.85,6,4.96,1.6,2.12,2.8,4.55,3.6,7.3.8,2.75,1.2,5.64,1.2,8.66,0,4.2-.71,8.01-2.14,11.45-1.43,3.44-3.56,6.18-6.39,8.21-2.83,2.03-6.39,3.05-10.67,3.05h-16.16c-.74,0-1.36-.26-1.88-.78-.52-.52-.78-1.15-.78-1.88v-40.1c0-.73.26-1.36.78-1.88.52-.52,1.15-.78,1.88-.78h16.16ZM77.29,118.5c3.37,0,6.1-.8,8.18-2.4,2.08-1.6,3.6-3.74,4.58-6.42.97-2.68,1.46-5.62,1.46-8.83,0-2.34-.27-4.56-.81-6.68-.54-2.12-1.39-4-2.53-5.65-1.15-1.64-2.62-2.94-4.41-3.89-1.79-.95-3.95-1.43-6.46-1.43h-13.24l.52-.58v36.54l-.39-.65h13.11Z"/>
    <path d="M3.5,161.21h15.25c.69,0,1.27.24,1.72.71.45.48.68,1.06.68,1.75,0,.65-.23,1.2-.68,1.65-.45.45-1.03.68-1.72.68H3.5c-.65,0-1.22-.24-1.72-.71-.5-.48-.75-1.04-.75-1.69,0-.69.25-1.27.75-1.72.5-.45,1.07-.68,1.72-.68ZM10.32,152.38c.73,0,1.34.26,1.82.78.48.52.71,1.15.71,1.88v31.28c0,1.04.15,1.82.45,2.34s.7.88,1.2,1.07c.5.19.98.29,1.46.29.43,0,.81-.08,1.14-.23.32-.15.7-.23,1.14-.23s.83.21,1.2.62c.37.41.55.94.55,1.59,0,.78-.45,1.44-1.36,1.98-.91.54-1.92.81-3.05.81-.61,0-1.35-.04-2.24-.13-.89-.09-1.76-.37-2.63-.84-.87-.48-1.59-1.27-2.17-2.37-.58-1.1-.88-2.65-.88-4.64v-31.54c0-.74.26-1.36.78-1.88.52-.52,1.15-.78,1.88-.78Z" fill="#7da531"/>
    <path d="M43.54,195.21c-3.5,0-6.55-.74-9.15-2.21-2.6-1.47-4.61-3.49-6.04-6.07-1.43-2.57-2.14-5.55-2.14-8.92,0-3.76.75-6.98,2.24-9.64,1.49-2.66,3.44-4.69,5.84-6.1,2.4-1.41,4.94-2.11,7.62-2.11,1.99,0,3.92.37,5.78,1.1,1.86.74,3.5,1.82,4.93,3.24s2.57,3.12,3.44,5.06,1.32,4.15,1.36,6.62c0,.69-.26,1.27-.78,1.72-.52.45-1.12.68-1.82.68h-25.63l-1.17-4.48h24.92l-1.04.91v-1.43c-.13-1.77-.7-3.3-1.72-4.58-1.02-1.28-2.25-2.26-3.7-2.95-1.45-.69-2.98-1.04-4.58-1.04-1.3,0-2.59.24-3.86.71-1.28.48-2.42,1.21-3.44,2.21-1.02,1-1.84,2.29-2.47,3.89-.63,1.6-.94,3.53-.94,5.78,0,2.51.51,4.72,1.53,6.62,1.02,1.9,2.43,3.41,4.25,4.51,1.82,1.1,3.94,1.65,6.36,1.65,1.51,0,2.83-.19,3.96-.58,1.12-.39,2.09-.88,2.89-1.46s1.48-1.18,2.04-1.78c.56-.39,1.12-.58,1.69-.58.61,0,1.12.22,1.56.65.43.43.65.95.65,1.56,0,.74-.35,1.41-1.04,2.01-1.25,1.34-2.91,2.51-4.96,3.5-2.06.99-4.25,1.49-6.59,1.49Z" fill="#7da531"/>
    <path d="M67.55,156.15c-1.08,0-1.88-.22-2.4-.65-.52-.43-.78-1.1-.78-2.01v-.91c0-.91.28-1.58.84-2.01.56-.43,1.36-.65,2.4-.65s1.82.22,2.34.65c.52.43.78,1.1.78,2.01v.91c0,.91-.27,1.58-.81,2.01-.54.43-1.33.65-2.37.65ZM70.21,191.9c0,.74-.25,1.36-.75,1.88-.5.52-1.11.78-1.85.78-.78,0-1.42-.26-1.91-.78-.5-.52-.75-1.15-.75-1.88v-28.75c0-.73.25-1.36.75-1.88.5-.52,1.14-.78,1.91-.78.74,0,1.35.26,1.85.78.5.52.75,1.15.75,1.88v28.75Z" fill="#7da531"/>
    <path d="M85.27,191.9c0,.74-.26,1.36-.78,1.88-.52.52-1.15.78-1.88.78s-1.35-.26-1.85-.78c-.5-.52-.75-1.15-.75-1.88v-42.7c0-.73.26-1.36.78-1.88s1.15-.78,1.88-.78c.78,0,1.41.26,1.88.78.48.52.71,1.15.71,1.88v42.7Z" fill="#7da531"/>
    <path d="M93.84,161.21h15.25c.69,0,1.27.24,1.72.71.45.48.68,1.06.68,1.75,0,.65-.23,1.2-.68,1.65-.45.45-1.03.68-1.72.68h-15.25c-.65,0-1.22-.24-1.72-.71-.5-.48-.75-1.04-.75-1.69,0-.69.25-1.27.75-1.72.5-.45,1.07-.68,1.72-.68ZM100.65,152.38c.73,0,1.34.26,1.82.78.48.52.71,1.15.71,1.88v31.28c0,1.04.15,1.82.45,2.34s.7.88,1.2,1.07c.5.19.98.29,1.46.29.43,0,.81-.08,1.14-.23.32-.15.7-.23,1.14-.23s.83.21,1.2.62c.37.41.55.94.55,1.59,0,.78-.45,1.44-1.36,1.98-.91.54-1.92.81-3.05.81-.61,0-1.35-.04-2.24-.13-.89-.09-1.76-.37-2.63-.84-.87-.48-1.59-1.27-2.17-2.37-.58-1.1-.88-2.65-.88-4.64v-31.54c0-.74.26-1.36.78-1.88.52-.52,1.15-.78,1.88-.78Z" fill="#7da531"/>
    <path d="M120.51,194.56c-.91,0-1.6-.27-2.08-.81-.48-.54-.71-1.27-.71-2.17v-1.3c0-.91.24-1.62.71-2.14.48-.52,1.17-.78,2.08-.78h.58c.91,0,1.6.26,2.08.78.47.52.71,1.23.71,2.14v1.3c0,.91-.24,1.63-.71,2.17-.48.54-1.17.81-2.08.81h-.58ZM120.83,181.33c-1.04,0-1.6-.58-1.69-1.75l-1.1-27.06c-.04-.95.17-1.75.65-2.4.48-.65,1.17-.97,2.08-.97s1.67.32,2.14.97c.48.65.69,1.45.65,2.4l-1.1,27.06c-.09,1.17-.63,1.75-1.62,1.75Z" fill="#7da531"/>
  </g>
  <g>
    <path d="M176.97,101.69c-1.42,2.31-4.76,2.35-6.24.07-5.16-7.96-14.71-27.85-13.94-46.6.85-20.52,32.25-22.11,33.03-.75.72,19.73-8.03,39.38-12.86,47.27Z" fill="#7da531"/>
    <g>
      <g>
        <path d="M175.18,22.28c-.25-.34-.78-.33-1.1-.04-7.38,6.75-1.01,17-1.01,17,0,0,8.65-8.04,2.1-16.96Z" fill="#7da531"/>
        <path d="M188.05,27.79c-9.99-.39-12.66,11.38-12.66,11.38,0,0,11.8.36,13.42-10.59.06-.41-.32-.78-.75-.8Z" fill="#7da531"/>
        <path d="M159.43,27.98c-.37.01-.66.49-.6.93,1.53,12.13,12.34,10.14,12.34,10.14,0,0-1.74-11.43-11.74-11.07Z" fill="#7da531"/>
      </g>
      <g>
        <g>
          <path d="M208.97,1.5c-.42,0-.83,0-1.25,0l.04.62c-4.79,39.07,5.23,67.32.56,117.51v.8c.59,0,1.17,0,1.76,0,69.43,0,72.03-4.08,72.03-64.23S251.35,1.5,208.97,1.5ZM254.69,103.34c-1.16.24-2.25-.68-2.4-1.86l-1.18-11.08c-.07-.51-.44-.92-.93-1.06l-5.17-1.45c-.27-.08-.56-.05-.82.08l-4.95,2.54c-.52.27-.82.83-.74,1.41l1.06,11.02c.11,1.13-.67,2.19-1.79,2.34-11.21,1.55-15.79-19.03-3.62-26.13.55-.32.87-.93.84-1.57l-1.43-22.44c-.04-.63-.44-1.21-1.05-1.37-11.27-2.94-14.99-22.99-3.21-28.56,1.3-.62,2.83.25,2.96,1.69l1.16,11.28c.09,1.02.78,1.89,1.76,2.22l4.49,1.76c.76.25,1.59.14,2.26-.3l4.39-3.27c.69-.45,1.35-1.24,1.28-2.06,0,0-.97-7.34-1.35-11.91-.12-1.48,1.28-2.6,2.72-2.21,13.48,3.67,12.49,24.22,2.14,28.87-.69.31-1.08,1.04-1.06,1.79.2,5.54,1.2,17.8,1.53,21.78.06.72.58,1.34,1.3,1.47,12.17,2.11,15.14,24.26,1.82,27.01Z" fill="#7da531"/>
          <path d="M236.57,106.64c-4.41,0-8.14-3.04-9.93-8.22-2.34-6.76-.73-15.92,6.86-20.35.14-.08.23-.24.22-.42l-1.43-22.42c0-.13-.08-.22-.11-.23-5.03-1.31-10.48-6.56-11.3-15.33-.66-7.02,2.36-12.99,7.86-15.6.99-.47,2.14-.42,3.09.12.95.54,1.57,1.51,1.67,2.6l1.15,11.26c.05.54.4.98.9,1.14l.06.02,4.45,1.75c.38.12.78.06,1.12-.15l4.42-3.29c.47-.31.72-.71.72-.89-.09-.65-.99-7.57-1.35-11.93-.09-1.11.35-2.16,1.21-2.87.86-.71,2.02-.96,3.11-.67,6.26,1.7,10.32,6.99,10.89,14.15.59,7.54-2.93,14.57-8.55,17.1-.19.09-.32.33-.31.59.2,5.58,1.22,18.04,1.53,21.73.01.16.12.3.25.32,5.65.98,11.45,6.76,11.6,15.93.11,7.11-3.62,12.31-9.74,13.57-.86.18-1.75-.01-2.49-.54-.78-.56-1.3-1.44-1.42-2.4l-1.18-11.1-5.13-1.41-4.91,2.51s-.07.07-.07.12l1.06,11.06c.18,1.83-1.09,3.47-2.88,3.71-.46.06-.91.1-1.36.1ZM230.17,26.29c-.1,0-.22.02-.34.08-4.59,2.17-6.99,7.06-6.43,13.07.6,6.43,4.48,11.83,9.42,13.11,1.12.29,1.92,1.3,1.99,2.52l1.43,22.44c.05,1.14-.51,2.18-1.47,2.74-6.41,3.74-7.75,11.55-5.75,17.34,1.22,3.52,4.1,7.06,8.56,6.45.44-.06.76-.49.71-.96l-1.06-11.03c-.13-1.07.44-2.15,1.43-2.65l4.95-2.54c.54-.27,1.15-.34,1.73-.17l5.17,1.45c.97.27,1.69,1.09,1.84,2.09l1.19,11.13c.03.24.17.48.38.63.11.08.29.17.5.12,5.8-1.2,7.79-6.5,7.72-11.05-.09-5.75-3.45-12.42-9.5-13.47-1.27-.22-2.23-1.29-2.34-2.61-.31-3.7-1.33-16.21-1.53-21.84-.05-1.31.66-2.48,1.8-2.99,4.6-2.07,7.57-8.2,7.07-14.59-.47-6.04-3.85-10.49-9.03-11.9h0c-.29-.08-.6-.02-.83.17-.13.1-.33.34-.3.72.37,4.49,1.33,11.78,1.34,11.85v.07c.12,1.38-.85,2.55-1.81,3.2l-4.42,3.29c-1,.66-2.22.82-3.36.45l-.07-.02-4.46-1.75c-1.44-.49-2.45-1.78-2.58-3.29l-1.15-11.27c-.04-.4-.3-.58-.41-.65-.07-.04-.22-.11-.41-.11ZM244.67,89.12s0,0,0,0h0Z"/>
        </g>
        <path d="M191.3,28.95c.13-.88-.13-1.79-.71-2.48-.61-.73-1.5-1.17-2.45-1.21-.2,0-.39-.01-.58-.01-3,0-5.49.93-7.52,2.35-.28-2.2-1.13-4.51-2.82-6.81-.6-.82-1.54-1.29-2.58-1.29h0c-.84,0-1.65.31-2.27.88-2.62,2.4-3.85,5.22-4.23,8.04-2.06-1.76-4.77-2.98-8.25-2.98,0,0-.37,0-.56.01-.84.03-1.66.43-2.22,1.1-.63.74-.92,1.71-.79,2.67.7,5.52,3.37,9.46,7.44,11.3h0c-4.6,2.81-8.01,7.69-8.3,14.52-.79,19.05,8.94,39.42,14.2,47.53.92,1.42,2.48,2.27,4.17,2.27.02,0,.04,0,.07,0,1.71-.02,3.27-.91,4.17-2.37,5.21-8.51,13.83-28.24,13.1-48.17-.26-7.07-3.59-11.74-8.03-14.28,0,0,0,0,0,0,4.59-2.11,7.41-5.94,8.17-11.07ZM174.09,22.25c.16-.14.36-.22.56-.22s.41.08.54.25c1.92,2.62,2.53,5.15,2.43,7.44t0,0c-2.14,2.3-3.53,5.1-4.28,7.38-.48-1.86-1.38-4.06-2.79-6.04-.14-2.92.62-6.14,3.54-8.81ZM158.83,28.91c-.06-.44.24-.92.6-.93.16,0,.31,0,.46,0,7.7,0,10.3,7.13,11.03,9.95-1.32.21-2.62.54-3.87,1.01,0,0,0,0,0,0-3.23-.65-7.32-2.9-8.22-10.02ZM188.63,54.4c.1,2.79,0,5.6-.25,8.37-1.32-.39-4.3-1.09-8.69-1.16,0,0-.01,0-.02,0-.69,0-1.25.55-1.26,1.24-.01.7.55,1.27,1.24,1.28,4.83.08,7.81.98,8.46,1.19-.81,6.46-2.4,12.69-4.27,18.21-3.17-1.03-6.12-.96-6.25-.95-.7.02-1.25.6-1.23,1.3s.58,1.24,1.3,1.23c.03,0,2.62-.05,5.34.81-2.41,6.59-5.11,11.97-7.09,15.22-.44.73-1.19,1.15-2.04,1.16-.87.02-1.62-.39-2.08-1.11-3.26-5.02-8.28-14.89-11.29-26.15,3.63-1.56,8.5-1.63,8.55-1.63.7,0,1.26-.58,1.25-1.28,0-.7-.57-1.25-1.28-1.25-.22,0-5.12.07-9.16,1.68-1.11-4.72-1.83-9.64-1.9-14.52.86-.4,3.99-1.64,9.43-1.64.7,0,1.26-.57,1.26-1.26s-.57-1.26-1.26-1.26c-4.59,0-7.71.82-9.41,1.43,0-.05,0-.1,0-.16.41-9.82,8.36-14.94,16.02-14.94h.04c7,.02,14.22,4.41,14.58,14.19ZM175.8,37.76h0c1.05-3.05,4.27-9.99,11.76-9.99.16,0,.32,0,.48,0,.43.02.81.39.75.8-.96,6.49-5.49,9-9.03,9.98,0,0,0,0,0,0-1.29-.41-2.62-.67-3.97-.8Z"/>
        <path d="M270.66,10.53C259.45-.51,241.47-.22,220.65.11c-3.78.06-7.68.12-11.68.12h-1.25c-1.53,0-3.04,0-4.53,0-27.01-.06-48.32-.11-60.95,12.5-8.36,8.35-12.26,21.45-12.26,41.25,0,26.26,3.13,43.81,9.57,53.62-3.59,11.04-7.51,17.83-7.55,17.9-.22.38-.23.85-.02,1.24.21.39.61.64,1.05.66.04,0,.19,0,.43,0,2.13,0,11.61-.48,23.32-8.4,10.55,2.73,25.28,2.72,47.38,2.7h4.16s1.75,0,1.75,0c36.74,0,53.6-1.37,62.91-9.89,9.91-9.07,10.39-26.17,10.39-55.61,0-22.62-4.04-37.13-12.72-45.67ZM204.17,119.17c-22.29.02-37.01.03-47.28-2.76-.36-.1-.74-.03-1.05.18-9.14,6.3-16.97,7.81-20.57,8.17,1.48-2.89,4.26-8.79,6.88-16.98.12-.37.06-.78-.16-1.1-6.38-9.26-9.48-26.5-9.48-52.71,0-19.08,3.66-31.62,11.52-39.46,11.06-11.04,29.88-11.76,53.72-11.76,1.78,0,3.6,0,5.44,0,1.07,0,2.14,0,3.23,0-.06.5-.11,1-.16,1.5-.06.57-.13,1.14-.18,1.71-.06.61-.11,1.21-.17,1.82-.05.56-.1,1.12-.15,1.67-.05.61-.09,1.2-.13,1.81-.04.55-.08,1.09-.11,1.64-.04.6-.06,1.19-.09,1.79-.03.54-.06,1.08-.08,1.62-.02.59-.04,1.17-.06,1.76-.02.54-.04,1.07-.05,1.61-.01.58-.02,1.15-.03,1.73,0,.53-.02,1.07-.02,1.6,0,.57,0,1.14,0,1.71,0,.53,0,1.07,0,1.6,0,.56.01,1.12.02,1.68,0,.54.01,1.07.02,1.61.01.55.03,1.1.04,1.65.01.54.03,1.08.04,1.62.02.53.04,1.06.06,1.59.02.56.04,1.11.06,1.67.02.5.05,1,.07,1.49.03.58.05,1.17.08,1.75.02.46.05.93.08,1.39.03.62.07,1.24.1,1.86.02.4.05.81.08,1.21.04.68.08,1.36.13,2.03.02.3.04.61.06.91.2,2.93.41,5.88.62,8.85.12,1.65.24,3.3.36,4.96.05.71.1,1.42.15,2.14.02.35.05.7.07,1.05.06.84.12,1.69.17,2.54.03.44.05.88.08,1.31.05.77.1,1.54.14,2.31.03.5.06,1,.08,1.5.04.72.08,1.44.12,2.17.03.51.05,1.02.07,1.53.04.73.07,1.46.1,2.2.02.51.04,1.04.06,1.55.03.75.06,1.49.09,2.24.02.52.03,1.06.04,1.59.02.76.05,1.51.06,2.28.01.54.02,1.1.03,1.65.01.76.03,1.52.04,2.29,0,.57,0,1.16,0,1.74,0,.76,0,1.51,0,2.28,0,.59-.01,1.2-.02,1.8,0,.77-.01,1.53-.02,2.31-.01.62-.03,1.25-.04,1.88-.02.78-.03,1.55-.06,2.34-.02.64-.05,1.31-.07,1.96-.03.79-.06,1.57-.09,2.37-.03.68-.07,1.39-.11,2.08-.04.79-.08,1.56-.13,2.36-.04.73-.1,1.48-.15,2.22-.05.78-.1,1.55-.16,2.35-.06.77-.13,1.56-.2,2.34-.06.73-.12,1.45-.19,2.19h-2.92ZM271.28,109.94c-8.68,7.94-25.15,9.23-61.2,9.23h-.45c.07-.76.12-1.5.19-2.25.06-.74.13-1.49.19-2.22.06-.82.11-1.62.17-2.42.05-.73.1-1.46.15-2.17.05-.79.08-1.55.13-2.33.04-.71.08-1.44.11-2.14.03-.76.06-1.5.09-2.26.03-.7.06-1.4.08-2.09.02-.75.04-1.48.05-2.21.02-.67.04-1.36.05-2.02.01-.74.02-1.46.02-2.19,0-.65.02-1.3.02-1.94,0-.73,0-1.45,0-2.18,0-.62,0-1.25,0-1.86,0-.74-.02-1.46-.03-2.19,0-.59-.02-1.18-.03-1.76-.02-.75-.04-1.48-.06-2.22-.02-.55-.03-1.11-.05-1.65-.03-.79-.06-1.56-.09-2.34-.02-.49-.04-.98-.06-1.46-.04-.86-.08-1.7-.12-2.55-.02-.4-.04-.8-.06-1.19-.05-.97-.1-1.93-.16-2.89-.02-.26-.03-.53-.04-.8-.06-1.09-.13-2.18-.2-3.26,0-.13-.02-.26-.02-.38-.24-3.63-.5-7.2-.75-10.75-.08-1.09-.16-2.18-.24-3.26-.04-.5-.07-1-.11-1.49-.04-.59-.08-1.17-.12-1.76-.03-.5-.07-1-.1-1.49-.04-.58-.08-1.17-.12-1.75-.03-.52-.06-1.04-.1-1.56-.03-.56-.07-1.11-.1-1.67-.03-.53-.06-1.06-.09-1.59-.03-.55-.06-1.09-.09-1.64-.03-.54-.05-1.07-.08-1.61-.03-.54-.05-1.08-.08-1.62-.02-.53-.04-1.05-.06-1.58-.02-.55-.04-1.11-.06-1.66-.02-.51-.03-1.03-.04-1.55-.01-.57-.03-1.13-.04-1.7-.01-.52-.01-1.04-.02-1.56,0-.57-.02-1.14-.02-1.71,0-.52,0-1.04,0-1.55,0-.58,0-1.15,0-1.73,0-.51.02-1.03.02-1.55,0-.59.02-1.17.03-1.76.01-.52.03-1.04.05-1.56.02-.59.04-1.19.06-1.78.02-.52.05-1.04.08-1.56.03-.61.06-1.21.1-1.82.03-.52.07-1.04.11-1.55.04-.62.08-1.24.13-1.87.04-.52.09-1.04.14-1.56.06-.63.11-1.27.17-1.91.05-.52.11-1.05.17-1.57.06-.56.12-1.12.19-1.68h0c4.02,0,7.93-.06,11.72-.12,21.08-.34,37.73-.6,48.19,9.69,8.16,8.03,11.97,21.97,11.97,43.87,0,28.73-.44,45.39-9.57,53.74Z"/>
      </g>
    </g>
  </g>
</svg>