<?xml version="1.0" encoding="UTF-8"?>
<svg id="a" data-name="Ebene 2" xmlns="http://www.w3.org/2000/svg" width="242.54" height="201.44" viewBox="0 0 242.54 201.44">
  <g>
    <path d="M71.46,35.23c-.39-.53-1.23-.52-1.73-.06-11.67,10.67-1.59,26.88-1.59,26.88,0,0,13.67-12.71,3.33-26.82Z" fill="#7da531"/>
    <path d="M91.8,43.94c-15.8-.61-20.02,18-20.02,18,0,0,18.66.57,21.22-16.74.1-.65-.51-1.23-1.19-1.26Z" fill="#7da531"/>
    <path d="M46.55,44.25c-.58.02-1.04.78-.95,1.47,2.41,19.17,19.51,16.03,19.51,16.03,0,0-2.75-18.07-18.56-17.5Z" fill="#7da531"/>
  </g>
  <path d="M74.31,160.98c-2.25,3.67-7.56,3.73-9.9.12-8.19-12.63-23.36-44.22-22.13-73.98,1.35-32.58,51.2-35.1,52.45-1.19,1.15,31.32-12.75,62.52-20.41,75.05Z" fill="#7da531"/>
  <g>
    <g>
      <path d="M124.89,2.37c-.66,0-1.32,0-1.98,0l.07.98c-7.57,61.78,8.26,106.45.88,185.81l.02,1.27c.92,0,1.84,0,2.77,0,109.78,0,113.89-6.45,113.89-101.56S191.89,2.37,124.89,2.37ZM197.18,163.4c-1.84.38-3.56-1.07-3.79-2.93l-1.87-17.52c-.12-.8-.69-1.45-1.47-1.67l-8.18-2.29c-.43-.12-.89-.07-1.29.13l-7.83,4.01c-.82.42-1.29,1.31-1.18,2.22l1.67,17.43c.18,1.79-1.06,3.46-2.84,3.7-17.73,2.45-24.97-30.08-5.72-41.31.87-.51,1.38-1.47,1.33-2.48l-2.27-35.49c-.06-.99-.7-1.92-1.66-2.17-17.83-4.65-23.7-36.35-5.08-45.15,2.06-.98,4.47.4,4.67,2.67l1.83,17.84c.14,1.62,1.24,2.99,2.78,3.5l7.1,2.79c1.2.4,2.52.22,3.58-.48l6.94-5.17c1.08-.72,2.13-1.97,2.03-3.26,0,0-1.54-11.6-2.13-18.84-.19-2.35,2.03-4.12,4.3-3.5,21.32,5.81,19.76,38.29,3.39,45.65-1.09.49-1.71,1.65-1.67,2.84.32,8.76,1.89,28.14,2.42,34.45.09,1.14.92,2.12,2.05,2.32,19.24,3.34,23.93,38.36,2.88,42.71Z" fill="#7da531"/>
      <path d="M168.53,168.62c-6.97,0-12.87-4.81-15.7-13-3.69-10.69-1.15-25.17,10.85-32.17.23-.13.36-.38.34-.66l-2.26-35.46c-.01-.21-.13-.35-.17-.36-7.96-2.08-16.57-10.37-17.87-24.23-1.04-11.09,3.73-20.54,12.43-24.66,1.56-.74,3.39-.67,4.89.19,1.5.86,2.48,2.39,2.64,4.11l1.83,17.81c.08.85.63,1.55,1.42,1.81l.1.04,7.04,2.76c.6.18,1.24.1,1.76-.23l6.98-5.19c.74-.49,1.13-1.13,1.14-1.41-.14-1.03-1.57-11.97-2.13-18.86-.14-1.76.55-3.41,1.91-4.53,1.36-1.13,3.2-1.52,4.91-1.06,9.89,2.69,16.33,11.06,17.21,22.37.93,11.92-4.63,23.03-13.53,27.04-.3.14-.51.52-.49.94.32,8.82,1.93,28.52,2.41,34.35.02.26.19.48.4.51,8.94,1.55,18.1,10.7,18.33,25.18.18,11.24-5.72,19.46-15.39,21.46-1.37.28-2.77-.02-3.94-.86-1.24-.89-2.06-2.27-2.25-3.79l-1.87-17.55-8.12-2.23-7.76,3.97c-.07.04-.12.12-.11.2l1.68,17.49c.29,2.9-1.72,5.48-4.55,5.87-.73.1-1.45.15-2.15.15ZM158.41,41.57c-.17,0-.35.03-.54.13-7.25,3.43-11.05,11.16-10.16,20.67.95,10.17,7.08,18.7,14.89,20.74,1.77.46,3.03,2.06,3.15,3.98l2.27,35.48c.09,1.8-.8,3.45-2.32,4.33-10.14,5.92-12.25,18.27-9.09,27.41,1.92,5.56,6.48,11.16,13.53,10.19.69-.1,1.19-.78,1.12-1.52l-1.67-17.44c-.21-1.69.7-3.39,2.26-4.19l7.83-4.01c.85-.43,1.82-.53,2.74-.27l8.18,2.29c1.54.43,2.68,1.73,2.91,3.31l1.88,17.6c.05.37.27.76.61.99.18.13.46.26.8.19,9.17-1.9,12.32-10.27,12.2-17.48-.15-9.09-5.46-19.65-15.02-21.3-2.01-.35-3.53-2.04-3.71-4.12-.49-5.85-2.1-25.63-2.42-34.54-.07-2.06,1.04-3.92,2.85-4.73,7.27-3.27,11.97-12.97,11.18-23.07-.75-9.55-6.09-16.59-14.28-18.82h0c-.47-.13-.94-.03-1.31.27-.2.16-.52.53-.48,1.13.58,7.11,2.11,18.62,2.12,18.74v.1c.19,2.19-1.35,4.04-2.86,5.06l-6.99,5.2c-1.58,1.04-3.51,1.3-5.31.71l-.1-.04-7.06-2.77c-2.27-.78-3.87-2.81-4.08-5.21l-1.83-17.81c-.06-.63-.47-.92-.64-1.02-.11-.06-.35-.17-.64-.17ZM181.33,140.91s0,0,0,0h0Z"/>
    </g>
    <path d="M96.95,45.78c.21-1.39-.2-2.83-1.12-3.93-.96-1.16-2.37-1.85-3.88-1.91-.31-.01-.61-.02-.92-.02-4.74,0-8.68,1.48-11.89,3.72-.44-3.48-1.79-7.13-4.46-10.77-.95-1.29-2.43-2.03-4.07-2.03h0c-1.33,0-2.6.49-3.59,1.39-4.15,3.79-6.09,8.26-6.69,12.72-3.26-2.78-7.54-4.71-13.05-4.71,0,0-.59,0-.88.02-1.34.05-2.62.68-3.52,1.74-.99,1.16-1.45,2.7-1.26,4.23,1.1,8.73,5.32,14.96,11.76,17.87h0c-7.27,4.45-12.67,12.16-13.12,22.96-1.25,30.12,14.14,62.33,22.45,75.15,1.46,2.25,3.92,3.59,6.6,3.59.04,0,.07,0,.1,0,2.71-.04,5.17-1.44,6.59-3.75,8.24-13.46,21.86-44.65,20.71-76.16-.41-11.18-5.67-18.56-12.69-22.58,0,0,0,0,0,0,7.25-3.33,11.72-9.38,12.92-17.51ZM69.73,35.17c.25-.22.57-.34.89-.34s.65.13.85.4c3.03,4.14,3.99,8.15,3.85,11.76t0,0c-3.39,3.64-5.59,8.06-6.77,11.67-.76-2.94-2.18-6.42-4.42-9.56-.22-4.61.98-9.71,5.6-13.93ZM45.6,45.71c-.09-.69.37-1.45.95-1.47.25,0,.49-.01.73-.01,12.17,0,16.28,11.28,17.43,15.73-2.08.33-4.14.86-6.12,1.6,0,0,0,0,0,0-5.11-1.03-11.58-4.59-13-15.84ZM92.72,86.01c.16,4.42,0,8.85-.39,13.23-2.08-.61-6.79-1.72-13.74-1.83-.01,0-.02,0-.03,0-1.09,0-1.98.87-2,1.97-.02,1.1.86,2.01,1.97,2.03,7.64.12,12.35,1.55,13.37,1.89-1.27,10.22-3.8,20.07-6.76,28.8-5.01-1.62-9.68-1.51-9.89-1.51-1.1.03-1.97.95-1.94,2.05s.92,1.97,2.05,1.94c.05,0,4.14-.09,8.44,1.28-3.8,10.42-8.07,18.93-11.22,24.07-.7,1.15-1.88,1.82-3.23,1.84-1.37.03-2.55-.62-3.29-1.76-5.15-7.94-13.09-23.54-17.85-41.35,5.74-2.47,13.45-2.58,13.52-2.58,1.1-.01,1.99-.91,1.98-2.02,0-1.1-.9-1.97-2.02-1.98-.35,0-8.09.1-14.48,2.65-1.76-7.47-2.9-15.25-3.01-22.96,1.36-.63,6.3-2.59,14.92-2.59,1.1,0,2-.9,2-2s-.9-2-2-2c-7.26,0-12.19,1.29-14.87,2.26,0-.08,0-.17,0-.25.64-15.52,13.22-23.63,25.33-23.63h.06c11.07.03,22.49,6.97,23.05,22.44ZM72.44,59.71h0c1.66-4.82,6.76-15.79,18.6-15.79.25,0,.5,0,.76.01.68.03,1.29.61,1.19,1.26-1.52,10.26-8.69,14.23-14.28,15.77,0,0,0,0,0,0-2.04-.65-4.15-1.06-6.27-1.26Z"/>
    <path d="M222.43,16.65C204.7-.8,176.28-.35,143.36.17c-5.97.09-12.15.19-18.47.19h-1.98c-2.42,0-4.8,0-7.16-.01-42.7-.1-76.39-.17-96.37,19.76C6.16,33.31,0,54.03,0,85.34c0,41.52,4.95,69.28,15.14,84.78-5.67,17.46-11.87,28.19-11.93,28.3-.35.6-.36,1.35-.03,1.96.33.61.96,1.01,1.66,1.04.07,0,.3.01.68.01,3.36,0,18.35-.76,36.88-13.27,16.68,4.32,39.98,4.3,74.91,4.27h6.58s2.77,0,2.77,0c58.09,0,84.75-2.17,99.46-15.64,15.66-14.34,16.43-41.37,16.43-87.92,0-35.76-6.39-58.7-20.11-72.21ZM117.3,188.43c-35.24.03-58.53.05-74.75-4.37-.57-.16-1.18-.05-1.66.28-14.45,9.96-26.83,12.35-32.52,12.92,2.35-4.57,6.74-13.9,10.88-26.84.19-.59.09-1.23-.26-1.74-10.09-14.64-14.99-41.9-14.99-83.34,0-30.17,5.79-50,18.21-62.4C39.7,5.49,69.46,4.34,107.14,4.34c2.82,0,5.69,0,8.6.01,1.69,0,3.39,0,5.1.01-.09.8-.17,1.58-.26,2.38-.1.9-.2,1.8-.29,2.7-.1.96-.18,1.92-.26,2.88-.08.88-.16,1.76-.23,2.64-.08.96-.14,1.91-.2,2.86-.06.86-.12,1.73-.18,2.59-.06.95-.1,1.88-.15,2.82-.04.85-.09,1.71-.13,2.55-.04.93-.06,1.85-.09,2.78-.03.85-.06,1.7-.08,2.54-.02.92-.03,1.82-.05,2.73-.01.84-.03,1.69-.04,2.53,0,.9,0,1.8,0,2.7,0,.84,0,1.69,0,2.53,0,.89.02,1.77.03,2.65.01.85.02,1.7.04,2.54.02.87.04,1.74.07,2.61.02.85.04,1.71.07,2.56.03.84.06,1.67.09,2.51.03.88.06,1.76.1,2.64.03.79.07,1.57.11,2.36.04.92.08,1.85.13,2.77.04.73.08,1.46.12,2.2.05.98.11,1.96.16,2.94.04.64.08,1.28.12,1.92.07,1.07.13,2.14.2,3.22.03.48.07.96.1,1.44.31,4.64.64,9.29.99,13.99.19,2.6.38,5.22.56,7.84.08,1.13.16,2.25.24,3.38.04.55.07,1.11.11,1.66.09,1.34.18,2.67.27,4.02.04.69.09,1.39.13,2.08.08,1.22.15,2.43.23,3.66.05.79.09,1.59.13,2.38.06,1.14.13,2.28.19,3.43.04.8.08,1.62.12,2.43.06,1.16.11,2.31.17,3.47.04.81.06,1.64.09,2.46.05,1.18.1,2.35.14,3.54.03.83.05,1.68.07,2.51.03,1.2.07,2.39.1,3.6.02.86.03,1.74.04,2.6.02,1.2.05,2.4.06,3.62,0,.91,0,1.84.01,2.75,0,1.2.02,2.39.01,3.61,0,.94-.02,1.9-.03,2.85-.01,1.22-.02,2.42-.04,3.66-.02.98-.05,1.98-.07,2.97-.03,1.23-.05,2.45-.09,3.7-.03,1.02-.08,2.06-.12,3.1-.05,1.25-.09,2.48-.15,3.75-.05,1.08-.12,2.19-.17,3.29-.07,1.24-.12,2.47-.2,3.73-.07,1.16-.16,2.34-.24,3.51-.08,1.23-.16,2.46-.26,3.71-.09,1.22-.21,2.47-.31,3.7-.1,1.15-.19,2.3-.3,3.47h-4.62ZM223.42,173.83c-13.72,12.56-39.76,14.59-96.76,14.59h-.71c.11-1.2.2-2.37.3-3.56.1-1.17.2-2.36.29-3.51.1-1.29.18-2.56.27-3.83.08-1.15.16-2.31.23-3.44.08-1.24.13-2.46.2-3.68.06-1.13.13-2.27.18-3.39.05-1.2.09-2.38.14-3.57.04-1.1.09-2.22.12-3.31.04-1.18.06-2.34.08-3.5.02-1.07.06-2.15.07-3.2.02-1.17.02-2.31.03-3.46,0-1.02.03-2.06.03-3.07,0-1.16,0-2.3-.01-3.45,0-.98,0-1.97-.01-2.94-.01-1.17-.04-2.31-.06-3.46-.02-.93-.03-1.87-.05-2.79-.03-1.18-.06-2.35-.1-3.52-.03-.87-.04-1.75-.07-2.61-.04-1.24-.09-2.47-.14-3.7-.03-.77-.06-1.54-.09-2.31-.06-1.35-.13-2.69-.19-4.03-.03-.63-.06-1.26-.09-1.88-.08-1.53-.17-3.05-.25-4.56-.02-.42-.05-.84-.07-1.26-.1-1.73-.21-3.44-.32-5.15-.01-.2-.02-.4-.04-.61-.37-5.74-.78-11.39-1.19-17-.13-1.72-.25-3.44-.37-5.15-.06-.79-.11-1.57-.17-2.36-.07-.93-.13-1.86-.2-2.78-.05-.79-.11-1.57-.16-2.36-.06-.92-.13-1.85-.19-2.77-.05-.82-.1-1.64-.15-2.46-.06-.88-.11-1.76-.16-2.64-.05-.84-.09-1.68-.14-2.52-.05-.86-.1-1.72-.14-2.59-.04-.85-.08-1.7-.12-2.55-.04-.85-.08-1.7-.12-2.56-.04-.83-.06-1.67-.09-2.5-.03-.88-.07-1.75-.1-2.63-.03-.81-.04-1.63-.06-2.45-.02-.9-.05-1.79-.07-2.69-.02-.82-.02-1.64-.03-2.46-.01-.9-.03-1.8-.03-2.7,0-.82,0-1.64,0-2.46,0-.91,0-1.82,0-2.74,0-.81.03-1.63.04-2.45.01-.93.03-1.85.05-2.79.02-.82.05-1.65.08-2.47.03-.94.06-1.87.1-2.82.03-.82.08-1.64.12-2.47.05-.96.09-1.92.15-2.88.05-.81.11-1.64.17-2.46.07-.98.13-1.96.21-2.95.07-.82.15-1.65.22-2.47.09-1,.17-2,.28-3.01.08-.82.18-1.66.27-2.49.1-.89.19-1.77.3-2.66h.01c6.36,0,12.55-.1,18.53-.19,33.33-.53,59.66-.95,76.2,15.33,12.91,12.7,18.92,34.74,18.92,69.36,0,45.43-.7,71.77-15.13,84.97Z"/>
  </g>
</svg>