<?xml version="1.0" encoding="UTF-8"?>
<svg id="a" data-name="Ebene 2" xmlns="http://www.w3.org/2000/svg" width="616.63" height="422.27" viewBox="0 0 616.63 422.27">
  <g>
    <path d="M10.09,264.95c.48,0,1,.13,1.57.4.56.27,1,.64,1.32,1.12l21.27,32.11-2.89-.08,21.52-32.03c.75-1.02,1.66-1.53,2.73-1.53.86.05,1.62.39,2.29,1,.67.62,1,1.38,1,2.29v49.69c0,.91-.32,1.69-.96,2.33-.64.64-1.45.96-2.41.96-1.02,0-1.83-.32-2.45-.96-.62-.64-.92-1.42-.92-2.33v-43.51l2.01.32-18.95,28.82c-.32.43-.71.78-1.16,1.04-.46.27-.95.38-1.49.32-.48.05-.96-.05-1.45-.32-.48-.27-.86-.61-1.12-1.04l-18.71-28.74,1.69-2.17v45.28c0,.91-.29,1.69-.88,2.33-.59.64-1.34.96-2.25.96s-1.66-.32-2.25-.96c-.59-.64-.88-1.42-.88-2.33v-49.69c0-.86.32-1.62.96-2.29.64-.67,1.45-1,2.41-1Z"/>
    <path d="M106.03,279.32c.91,0,1.67.31,2.29.92.61.62.92,1.38.92,2.29v35.4c0,.91-.31,1.69-.92,2.33-.62.64-1.38.96-2.29.96-.96,0-1.75-.32-2.37-.96-.62-.64-.92-1.42-.92-2.33v-7.63l1.53-.16c0,1.23-.4,2.53-1.2,3.89-.8,1.36-1.9,2.65-3.29,3.85-1.39,1.2-3.02,2.2-4.9,2.97-1.87.78-3.91,1.16-6.1,1.16-3.64,0-6.92-.95-9.83-2.85-2.92-1.9-5.21-4.48-6.86-7.75-1.66-3.26-2.49-6.98-2.49-11.16s.84-7.96,2.53-11.2c1.69-3.24,3.96-5.78,6.82-7.63,2.86-1.85,6.09-2.77,9.67-2.77,2.3,0,4.44.38,6.42,1.12,1.98.75,3.71,1.77,5.18,3.05,1.47,1.28,2.61,2.7,3.41,4.25.8,1.55,1.2,3.1,1.2,4.66l-2.09-.48v-8.75c0-.91.31-1.67.92-2.29s1.4-.92,2.37-.92ZM89.49,316.09c2.68,0,5.03-.7,7.06-2.09s3.64-3.28,4.82-5.66c1.18-2.38,1.77-5.07,1.77-8.07s-.59-5.59-1.77-7.95c-1.18-2.35-2.78-4.23-4.82-5.62-2.03-1.39-4.39-2.09-7.06-2.09s-4.96.68-7.02,2.05c-2.06,1.36-3.68,3.22-4.86,5.58-1.18,2.36-1.77,5.03-1.77,8.03s.57,5.69,1.73,8.07c1.15,2.38,2.76,4.27,4.82,5.66,2.06,1.39,4.43,2.09,7.1,2.09Z"/>
    <path d="M138.46,278.68c2.35,0,4.52.39,6.5,1.16,1.98.78,3.71,1.78,5.18,3.01,1.47,1.23,2.62,2.52,3.45,3.85.83,1.34,1.24,2.6,1.24,3.77l-1.61-.96v-6.98c0-.91.31-1.67.92-2.29.62-.61,1.38-.92,2.29-.92.96,0,1.75.31,2.37.92.62.62.92,1.38.92,2.29v35.16c0,4.39-.92,8.04-2.77,10.96-1.85,2.92-4.32,5.08-7.43,6.5-3.11,1.42-6.58,2.13-10.44,2.13-1.61,0-3.37-.2-5.3-.6s-3.64-.91-5.14-1.53c-1.5-.62-2.46-1.24-2.89-1.89-.8-.59-1.3-1.2-1.49-1.85-.19-.64-.09-1.29.28-1.93.53-.75,1.18-1.12,1.93-1.12s1.71.24,2.89.72c.54.16,1.33.43,2.37.8,1.04.37,2.22.71,3.53,1,1.31.29,2.61.44,3.89.44,4.55,0,8.03-1.19,10.44-3.57,2.41-2.38,3.61-5.53,3.61-9.43v-7.47l.88.4c-.32,1.5-.96,2.89-1.93,4.17-.96,1.29-2.15,2.42-3.57,3.41-1.42.99-2.98,1.77-4.7,2.33-1.71.56-3.48.84-5.3.84-3.75,0-7.1-.94-10.08-2.81-2.97-1.87-5.33-4.44-7.06-7.71-1.74-3.26-2.61-6.98-2.61-11.16s.87-7.97,2.61-11.24c1.74-3.26,4.08-5.82,7.02-7.67,2.94-1.85,6.26-2.77,9.96-2.77ZM139.34,284.62c-2.73,0-5.18.68-7.35,2.05-2.17,1.36-3.85,3.24-5.06,5.62-1.2,2.38-1.81,5.07-1.81,8.07s.6,5.61,1.81,7.99c1.2,2.38,2.89,4.27,5.06,5.66,2.17,1.39,4.62,2.09,7.35,2.09s5.25-.68,7.39-2.05c2.14-1.37,3.83-3.22,5.06-5.58,1.23-2.35,1.85-5.06,1.85-8.11s-.62-5.77-1.85-8.15c-1.23-2.38-2.92-4.24-5.06-5.58-2.14-1.34-4.6-2.01-7.39-2.01Z"/>
    <path d="M204.21,261.82c.91,0,1.67.31,2.29.92.62.62.92,1.41.92,2.37v52.83c0,.91-.31,1.69-.92,2.33-.62.64-1.38.96-2.29.96-.96,0-1.75-.32-2.37-.96-.62-.64-.92-1.42-.92-2.33v-7.63l1.53-.48c0,1.23-.39,2.56-1.16,3.97-.78,1.42-1.87,2.76-3.29,4.01-1.42,1.26-3.06,2.28-4.94,3.05-1.87.78-3.91,1.16-6.1,1.16-3.64,0-6.9-.94-9.79-2.81-2.89-1.87-5.18-4.44-6.86-7.71-1.69-3.26-2.53-6.98-2.53-11.16s.84-7.97,2.53-11.24c1.69-3.26,3.96-5.82,6.82-7.67,2.86-1.85,6.09-2.77,9.67-2.77,2.25,0,4.35.38,6.3,1.12,1.95.75,3.68,1.77,5.18,3.05,1.5,1.28,2.66,2.7,3.49,4.25.83,1.55,1.24,3.1,1.24,4.66l-2.09-.48v-26.17c0-.91.31-1.69.92-2.33.62-.64,1.41-.96,2.37-.96ZM187.67,316.09c2.68,0,5.03-.68,7.06-2.05,2.03-1.37,3.64-3.24,4.82-5.62,1.18-2.38,1.77-5.07,1.77-8.07s-.59-5.69-1.77-8.07c-1.18-2.38-2.78-4.25-4.82-5.62-2.03-1.37-4.39-2.05-7.06-2.05s-4.96.68-7.02,2.05c-2.06,1.36-3.68,3.24-4.86,5.62-1.18,2.38-1.77,5.07-1.77,8.07s.59,5.61,1.77,7.99c1.18,2.38,2.8,4.27,4.86,5.66,2.06,1.39,4.4,2.09,7.02,2.09Z"/>
    <path d="M238.49,322.03c-4.34,0-8.11-.91-11.32-2.73-3.21-1.82-5.7-4.32-7.47-7.51-1.77-3.18-2.65-6.86-2.65-11.04,0-4.66.92-8.63,2.77-11.92,1.85-3.29,4.25-5.81,7.23-7.55,2.97-1.74,6.11-2.61,9.43-2.61,2.46,0,4.84.46,7.15,1.37,2.3.91,4.33,2.25,6.1,4.01,1.77,1.77,3.18,3.85,4.25,6.26,1.07,2.41,1.63,5.14,1.69,8.19,0,.86-.32,1.57-.96,2.13-.64.56-1.39.84-2.25.84h-31.71l-1.45-5.54h30.83l-1.29,1.12v-1.77c-.16-2.19-.87-4.08-2.13-5.66-1.26-1.58-2.78-2.8-4.58-3.65-1.79-.86-3.68-1.28-5.66-1.28-1.61,0-3.2.29-4.78.88-1.58.59-3,1.5-4.25,2.73-1.26,1.23-2.28,2.84-3.05,4.82-.78,1.98-1.16,4.36-1.16,7.14,0,3.1.63,5.83,1.89,8.19,1.26,2.36,3.01,4.21,5.26,5.58,2.25,1.36,4.87,2.05,7.87,2.05,1.87,0,3.5-.24,4.9-.72,1.39-.48,2.58-1.08,3.57-1.81.99-.72,1.83-1.46,2.53-2.21.7-.48,1.39-.72,2.09-.72.75,0,1.39.27,1.93.8.53.54.8,1.18.8,1.93,0,.91-.43,1.74-1.28,2.49-1.55,1.66-3.6,3.1-6.14,4.34-2.54,1.23-5.26,1.85-8.15,1.85Z"/>
    <path d="M285.78,278.68c3.64,0,6.9.92,9.79,2.77,2.89,1.85,5.18,4.38,6.86,7.59,1.69,3.21,2.53,6.93,2.53,11.16s-.84,7.98-2.53,11.24c-1.69,3.26-3.96,5.85-6.82,7.75-2.86,1.9-6.09,2.85-9.67,2.85-1.98,0-3.84-.31-5.58-.92s-3.32-1.45-4.74-2.49c-1.42-1.04-2.61-2.18-3.57-3.41-.96-1.23-1.66-2.49-2.09-3.77l1.77-1.04v7.95c0,.91-.29,1.69-.88,2.33-.59.64-1.37.96-2.33.96-.91,0-1.67-.31-2.29-.92-.62-.61-.92-1.41-.92-2.37v-53.23c0-.91.31-1.69.92-2.33.61-.64,1.38-.96,2.29-.96.96,0,1.74.32,2.33.96.59.64.88,1.42.88,2.33v24.73l-1.2-.64c.37-1.34,1.03-2.63,1.97-3.89.94-1.26,2.09-2.38,3.45-3.37,1.37-.99,2.89-1.78,4.58-2.37s3.44-.88,5.26-.88ZM285.05,284.62c-2.68,0-5.05.68-7.11,2.05-2.06,1.36-3.67,3.21-4.82,5.54-1.15,2.33-1.73,4.99-1.73,7.99s.58,5.7,1.73,8.11c1.15,2.41,2.76,4.31,4.82,5.7,2.06,1.39,4.43,2.09,7.11,2.09s5.03-.7,7.06-2.09c2.03-1.39,3.64-3.29,4.82-5.7,1.18-2.41,1.77-5.11,1.77-8.11s-.59-5.66-1.77-7.99c-1.18-2.33-2.78-4.17-4.82-5.54-2.04-1.37-4.39-2.05-7.06-2.05Z"/>
    <path d="M345.67,279.72c.96,0,1.74.31,2.33.92.59.62.88,1.41.88,2.37v21.84c0,5.41-1.51,9.59-4.54,12.56-3.03,2.97-7.24,4.46-12.64,4.46s-9.54-1.49-12.56-4.46c-3.02-2.97-4.54-7.16-4.54-12.56v-21.84c0-.96.31-1.75.92-2.37.61-.61,1.38-.92,2.29-.92.96,0,1.74.31,2.33.92.59.62.88,1.41.88,2.37v21.84c0,3.64.94,6.4,2.81,8.27,1.87,1.87,4.5,2.81,7.87,2.81s6.07-.94,7.95-2.81c1.87-1.87,2.81-4.63,2.81-8.27v-21.84c0-.96.29-1.75.88-2.37.59-.61,1.37-.92,2.33-.92Z"/>
    <path d="M363.97,321.22c-.91,0-1.67-.32-2.29-.96-.62-.64-.92-1.42-.92-2.33v-34.92c0-.96.31-1.75.92-2.37s1.38-.92,2.29-.92c.96,0,1.74.31,2.33.92.59.62.88,1.41.88,2.37v10.52l-.96-1.69c.32-1.66.9-3.28,1.73-4.86.83-1.58,1.89-3,3.17-4.25,1.28-1.26,2.76-2.25,4.42-2.97,1.66-.72,3.48-1.08,5.46-1.08,1.18,0,2.26.28,3.25.84.99.56,1.49,1.35,1.49,2.37,0,1.12-.29,1.97-.88,2.53-.59.56-1.26.84-2.01.84-.7,0-1.36-.16-2.01-.48-.64-.32-1.45-.48-2.41-.48-1.34,0-2.66.38-3.97,1.12-1.31.75-2.52,1.78-3.61,3.09-1.1,1.31-1.98,2.81-2.65,4.5-.67,1.69-1,3.49-1,5.42v19.51c0,.91-.31,1.69-.92,2.33-.62.64-1.38.96-2.29.96Z"/>
    <path d="M409.08,278.68c2.35,0,4.52.39,6.5,1.16,1.98.78,3.71,1.78,5.18,3.01,1.47,1.23,2.62,2.52,3.45,3.85.83,1.34,1.24,2.6,1.24,3.77l-1.61-.96v-6.98c0-.91.31-1.67.92-2.29s1.38-.92,2.29-.92c.96,0,1.75.31,2.37.92.61.62.92,1.38.92,2.29v35.16c0,4.39-.92,8.04-2.77,10.96s-4.32,5.08-7.43,6.5c-3.1,1.42-6.58,2.13-10.44,2.13-1.61,0-3.37-.2-5.3-.6s-3.64-.91-5.14-1.53c-1.5-.62-2.46-1.24-2.89-1.89-.8-.59-1.3-1.2-1.48-1.85-.19-.64-.09-1.29.28-1.93.53-.75,1.18-1.12,1.93-1.12s1.71.24,2.89.72c.53.16,1.32.43,2.37.8,1.04.37,2.22.71,3.53,1,1.31.29,2.61.44,3.89.44,4.55,0,8.03-1.19,10.44-3.57,2.41-2.38,3.61-5.53,3.61-9.43v-7.47l.88.4c-.32,1.5-.96,2.89-1.93,4.17-.96,1.29-2.16,2.42-3.57,3.41-1.42.99-2.98,1.77-4.7,2.33-1.71.56-3.48.84-5.3.84-3.75,0-7.11-.94-10.08-2.81-2.97-1.87-5.33-4.44-7.07-7.71-1.74-3.26-2.61-6.98-2.61-11.16s.87-7.97,2.61-11.24c1.74-3.26,4.08-5.82,7.02-7.67,2.94-1.85,6.26-2.77,9.96-2.77ZM409.97,284.62c-2.73,0-5.18.68-7.35,2.05-2.17,1.36-3.85,3.24-5.06,5.62-1.2,2.38-1.81,5.07-1.81,8.07s.6,5.61,1.81,7.99c1.2,2.38,2.89,4.27,5.06,5.66,2.17,1.39,4.62,2.09,7.35,2.09s5.25-.68,7.39-2.05c2.14-1.37,3.83-3.22,5.06-5.58,1.23-2.35,1.85-5.06,1.85-8.11s-.62-5.77-1.85-8.15c-1.23-2.38-2.92-4.24-5.06-5.58-2.14-1.34-4.6-2.01-7.39-2.01Z"/>
    <path d="M462.71,279.96h18.87c.86,0,1.57.29,2.13.88.56.59.84,1.31.84,2.17,0,.8-.28,1.48-.84,2.05s-1.27.84-2.13.84h-18.87c-.8,0-1.51-.29-2.13-.88-.62-.59-.92-1.29-.92-2.09,0-.86.31-1.57.92-2.13.61-.56,1.32-.84,2.13-.84ZM471.14,269.04c.91,0,1.66.32,2.25.96.59.64.88,1.42.88,2.33v38.7c0,1.28.19,2.25.56,2.89.37.64.87,1.08,1.48,1.33.62.24,1.22.36,1.81.36.53,0,1-.09,1.41-.28.4-.19.87-.28,1.4-.28s1.03.25,1.49.76c.45.51.68,1.16.68,1.97,0,.96-.56,1.78-1.69,2.45-1.12.67-2.38,1-3.77,1-.75,0-1.67-.05-2.77-.16-1.1-.11-2.18-.45-3.25-1.04-1.07-.59-1.97-1.57-2.69-2.93-.72-1.37-1.08-3.28-1.08-5.74v-39.02c0-.91.32-1.69.96-2.33s1.42-.96,2.33-.96Z" fill="#7da531"/>
    <path d="M512.25,322.03c-4.33,0-8.11-.91-11.32-2.73-3.21-1.82-5.7-4.32-7.47-7.51-1.77-3.18-2.65-6.86-2.65-11.04,0-4.66.92-8.63,2.77-11.92,1.85-3.29,4.25-5.81,7.22-7.55,2.97-1.74,6.11-2.61,9.43-2.61,2.46,0,4.84.46,7.14,1.37,2.3.91,4.33,2.25,6.1,4.01,1.77,1.77,3.18,3.85,4.25,6.26,1.07,2.41,1.63,5.14,1.69,8.19,0,.86-.32,1.57-.96,2.13-.64.56-1.39.84-2.25.84h-31.71l-1.45-5.54h30.83l-1.28,1.12v-1.77c-.16-2.19-.87-4.08-2.13-5.66-1.26-1.58-2.78-2.8-4.58-3.65-1.79-.86-3.68-1.28-5.66-1.28-1.61,0-3.2.29-4.78.88-1.58.59-3,1.5-4.25,2.73-1.26,1.23-2.28,2.84-3.05,4.82-.78,1.98-1.16,4.36-1.16,7.14,0,3.1.63,5.83,1.89,8.19,1.26,2.36,3.01,4.21,5.26,5.58,2.25,1.36,4.87,2.05,7.87,2.05,1.87,0,3.5-.24,4.9-.72,1.39-.48,2.58-1.08,3.57-1.81.99-.72,1.83-1.46,2.53-2.21.69-.48,1.39-.72,2.09-.72.75,0,1.39.27,1.93.8.53.54.8,1.18.8,1.93,0,.91-.43,1.74-1.28,2.49-1.55,1.66-3.6,3.1-6.14,4.34-2.54,1.23-5.26,1.85-8.15,1.85Z" fill="#7da531"/>
    <path d="M541.95,273.7c-1.34,0-2.33-.27-2.97-.8-.64-.53-.96-1.36-.96-2.49v-1.12c0-1.12.35-1.95,1.04-2.49.7-.54,1.69-.8,2.97-.8s2.25.27,2.89.8c.64.54.96,1.36.96,2.49v1.12c0,1.12-.33,1.95-1,2.49-.67.54-1.65.8-2.93.8ZM545.24,317.93c0,.91-.31,1.69-.92,2.33-.62.64-1.38.96-2.29.96-.96,0-1.75-.32-2.37-.96-.62-.64-.92-1.42-.92-2.33v-35.56c0-.91.31-1.69.92-2.33.61-.64,1.41-.96,2.37-.96.91,0,1.67.32,2.29.96.61.64.92,1.42.92,2.33v35.56Z" fill="#7da531"/>
    <path d="M563.87,317.93c0,.91-.32,1.69-.96,2.33-.64.64-1.42.96-2.33.96s-1.67-.32-2.29-.96c-.62-.64-.92-1.42-.92-2.33v-52.83c0-.91.32-1.69.96-2.33.64-.64,1.42-.96,2.33-.96.96,0,1.74.32,2.33.96.59.64.88,1.42.88,2.33v52.83Z" fill="#7da531"/>
    <path d="M574.46,279.96h18.87c.86,0,1.57.29,2.13.88.56.59.84,1.31.84,2.17,0,.8-.28,1.48-.84,2.05s-1.27.84-2.13.84h-18.87c-.8,0-1.51-.29-2.13-.88-.62-.59-.92-1.29-.92-2.09,0-.86.31-1.57.92-2.13.61-.56,1.32-.84,2.13-.84ZM582.89,269.04c.91,0,1.66.32,2.25.96.59.64.88,1.42.88,2.33v38.7c0,1.28.19,2.25.56,2.89.37.64.87,1.08,1.48,1.33.62.24,1.22.36,1.81.36.53,0,1-.09,1.41-.28.4-.19.87-.28,1.4-.28s1.03.25,1.49.76c.45.51.68,1.16.68,1.97,0,.96-.56,1.78-1.69,2.45-1.12.67-2.38,1-3.77,1-.75,0-1.67-.05-2.77-.16-1.1-.11-2.18-.45-3.25-1.04-1.07-.59-1.97-1.57-2.69-2.93-.72-1.37-1.08-3.28-1.08-5.74v-39.02c0-.91.32-1.69.96-2.33s1.42-.96,2.33-.96Z" fill="#7da531"/>
    <path d="M607.46,321.22c-1.12,0-1.98-.33-2.57-1-.59-.67-.88-1.57-.88-2.69v-1.61c0-1.12.29-2.01.88-2.65.59-.64,1.44-.96,2.57-.96h.72c1.12,0,1.98.32,2.57.96.59.64.88,1.53.88,2.65v1.61c0,1.12-.29,2.02-.88,2.69-.59.67-1.45,1-2.57,1h-.72ZM607.86,304.85c-1.28,0-1.98-.72-2.09-2.17l-1.37-33.48c-.05-1.18.21-2.17.8-2.97s1.45-1.2,2.57-1.2,2.06.4,2.65,1.2c.59.8.86,1.79.8,2.97l-1.37,33.48c-.11,1.45-.78,2.17-2.01,2.17Z" fill="#7da531"/>
    <path d="M97.4,384.97c2.27,0,4.11.58,5.53,1.73,1.42,1.15,2.36,2.77,2.83,4.88h-.75l.35-.9c.4-.93,1.08-1.83,2.05-2.7.97-.87,2.08-1.58,3.35-2.15,1.27-.57,2.58-.85,3.95-.85,2.2,0,3.93.48,5.2,1.42,1.27.95,2.18,2.22,2.73,3.8s.83,3.36.83,5.32v13.65c0,.57-.19,1.05-.58,1.45-.38.4-.88.6-1.48.6-.57,0-1.04-.2-1.42-.6-.38-.4-.58-.88-.58-1.45v-13.55c0-1.27-.18-2.42-.55-3.48-.37-1.05-.98-1.89-1.85-2.52-.87-.63-2.03-.95-3.5-.95-1.33,0-2.57.32-3.7.95-1.13.63-2.03,1.47-2.7,2.52-.67,1.05-1,2.21-1,3.48v13.55c0,.57-.18,1.05-.55,1.45-.37.4-.85.6-1.45.6s-1.08-.2-1.45-.6c-.37-.4-.55-.88-.55-1.45v-13.7c0-1.23-.18-2.37-.55-3.4-.37-1.03-.97-1.86-1.8-2.48-.83-.62-1.97-.92-3.4-.92-1.33,0-2.55.31-3.65.92-1.1.62-1.98,1.44-2.65,2.48-.67,1.03-1,2.17-1,3.4v13.7c0,.57-.19,1.05-.58,1.45-.38.4-.86.6-1.42.6s-1.04-.2-1.42-.6c-.38-.4-.58-.88-.58-1.45v-21.75c0-.6.19-1.09.58-1.47.38-.38.86-.58,1.42-.58.6,0,1.08.19,1.45.58.37.38.55.88.55,1.47v3.75l-1.1,1.2c.13-.87.47-1.73,1.02-2.6.55-.87,1.26-1.67,2.12-2.4.87-.73,1.83-1.32,2.9-1.75,1.07-.43,2.2-.65,3.4-.65Z" fill="#7da531"/>
    <path d="M152.15,385.12c.57,0,1.04.19,1.42.58.38.38.58.86.58,1.42v22.05c0,.57-.19,1.05-.58,1.45-.38.4-.86.6-1.42.6-.6,0-1.09-.2-1.48-.6-.38-.4-.57-.88-.57-1.45v-4.75l.95-.1c0,.77-.25,1.57-.75,2.42-.5.85-1.18,1.65-2.05,2.4-.87.75-1.88,1.37-3.05,1.85-1.17.48-2.43.72-3.8.72-2.27,0-4.31-.59-6.12-1.77-1.82-1.18-3.24-2.79-4.28-4.83s-1.55-4.35-1.55-6.95.53-4.96,1.58-6.97,2.47-3.6,4.25-4.75c1.78-1.15,3.79-1.73,6.02-1.73,1.43,0,2.77.23,4,.7s2.31,1.1,3.23,1.9c.92.8,1.62,1.68,2.12,2.65.5.97.75,1.93.75,2.9l-1.3-.3v-5.45c0-.57.19-1.04.57-1.42s.88-.58,1.48-.58ZM141.85,408.02c1.67,0,3.13-.43,4.4-1.3,1.27-.87,2.27-2.04,3-3.52s1.1-3.16,1.1-5.03-.37-3.48-1.1-4.95c-.73-1.47-1.73-2.63-3-3.5-1.27-.87-2.73-1.3-4.4-1.3s-3.09.42-4.38,1.28c-1.28.85-2.29,2.01-3.03,3.47-.73,1.47-1.1,3.13-1.1,5s.36,3.54,1.07,5.03,1.72,2.66,3,3.52c1.28.87,2.76,1.3,4.43,1.3Z" fill="#7da531"/>
    <path d="M172.35,384.72c1.47,0,2.82.24,4.05.73s2.31,1.11,3.23,1.88c.92.77,1.63,1.57,2.15,2.4.52.83.78,1.62.78,2.35l-1-.6v-4.35c0-.57.19-1.04.58-1.42.38-.38.86-.58,1.42-.58.6,0,1.09.19,1.47.58s.58.86.58,1.42v21.9c0,2.73-.58,5.01-1.72,6.83-1.15,1.82-2.69,3.17-4.62,4.05-1.93.88-4.1,1.33-6.5,1.33-1,0-2.1-.12-3.3-.38-1.2-.25-2.27-.57-3.2-.95-.93-.38-1.53-.77-1.8-1.17-.5-.37-.81-.75-.93-1.15-.12-.4-.06-.8.18-1.2.33-.47.73-.7,1.2-.7s1.07.15,1.8.45c.33.1.82.27,1.47.5.65.23,1.38.44,2.2.62.82.18,1.62.27,2.42.27,2.83,0,5-.74,6.5-2.22,1.5-1.48,2.25-3.44,2.25-5.88v-4.65l.55.25c-.2.93-.6,1.8-1.2,2.6-.6.8-1.34,1.51-2.22,2.12-.88.62-1.86,1.1-2.92,1.45-1.07.35-2.17.52-3.3.52-2.33,0-4.43-.58-6.28-1.75-1.85-1.17-3.32-2.77-4.4-4.8s-1.62-4.35-1.62-6.95.54-4.97,1.62-7c1.08-2.03,2.54-3.62,4.38-4.77,1.83-1.15,3.9-1.73,6.2-1.73ZM172.9,388.42c-1.7,0-3.22.42-4.57,1.28-1.35.85-2.4,2.02-3.15,3.5s-1.12,3.16-1.12,5.02.38,3.49,1.12,4.98,1.8,2.66,3.15,3.52c1.35.87,2.88,1.3,4.57,1.3s3.27-.42,4.6-1.27c1.33-.85,2.38-2.01,3.15-3.48.77-1.47,1.15-3.15,1.15-5.05s-.38-3.59-1.15-5.08c-.77-1.48-1.82-2.64-3.15-3.47-1.33-.83-2.87-1.25-4.6-1.25Z" fill="#7da531"/>
    <path d="M213.3,374.22c.57,0,1.04.19,1.42.58.38.38.58.88.58,1.47v32.9c0,.57-.19,1.05-.58,1.45-.38.4-.86.6-1.42.6-.6,0-1.09-.2-1.48-.6-.38-.4-.57-.88-.57-1.45v-4.75l.95-.3c0,.77-.24,1.59-.72,2.47-.48.88-1.17,1.72-2.05,2.5-.88.78-1.91,1.42-3.08,1.9-1.17.48-2.43.72-3.8.72-2.27,0-4.3-.58-6.1-1.75-1.8-1.17-3.22-2.77-4.27-4.8s-1.58-4.35-1.58-6.95.53-4.97,1.58-7c1.05-2.03,2.47-3.62,4.25-4.77,1.78-1.15,3.79-1.73,6.02-1.73,1.4,0,2.71.23,3.93.7,1.22.47,2.29,1.1,3.22,1.9.93.8,1.66,1.68,2.17,2.65.52.97.78,1.93.78,2.9l-1.3-.3v-16.3c0-.57.19-1.05.57-1.45.38-.4.88-.6,1.48-.6ZM203,408.02c1.67,0,3.13-.42,4.4-1.27,1.27-.85,2.27-2.02,3-3.5s1.1-3.16,1.1-5.03-.37-3.54-1.1-5.02-1.73-2.65-3-3.5c-1.27-.85-2.73-1.28-4.4-1.28s-3.09.42-4.38,1.28c-1.28.85-2.29,2.02-3.03,3.5-.73,1.48-1.1,3.16-1.1,5.02s.37,3.49,1.1,4.98c.73,1.48,1.74,2.66,3.03,3.52,1.28.87,2.74,1.3,4.38,1.3Z" fill="#7da531"/>
    <path d="M234.65,411.72c-2.7,0-5.05-.57-7.05-1.7-2-1.13-3.55-2.69-4.65-4.67-1.1-1.98-1.65-4.27-1.65-6.88,0-2.9.58-5.38,1.73-7.42,1.15-2.05,2.65-3.62,4.5-4.7,1.85-1.08,3.81-1.62,5.88-1.62,1.53,0,3.02.28,4.45.85,1.43.57,2.7,1.4,3.8,2.5s1.98,2.4,2.65,3.9,1.02,3.2,1.05,5.1c0,.53-.2.97-.6,1.32-.4.35-.87.53-1.4.53h-19.75l-.9-3.45h19.2l-.8.7v-1.1c-.1-1.37-.54-2.54-1.33-3.53-.78-.98-1.73-1.74-2.85-2.28-1.12-.53-2.29-.8-3.52-.8-1,0-1.99.18-2.98.55-.98.37-1.87.93-2.65,1.7-.78.77-1.42,1.77-1.9,3-.48,1.23-.72,2.72-.72,4.45,0,1.93.39,3.63,1.17,5.1.78,1.47,1.88,2.62,3.28,3.48,1.4.85,3.03,1.27,4.9,1.27,1.17,0,2.18-.15,3.05-.45.87-.3,1.61-.68,2.23-1.12.62-.45,1.14-.91,1.58-1.38.43-.3.87-.45,1.3-.45.47,0,.87.17,1.2.5.33.33.5.73.5,1.2,0,.57-.27,1.08-.8,1.55-.97,1.03-2.24,1.93-3.82,2.7-1.58.77-3.28,1.15-5.08,1.15Z" fill="#7da531"/>
    <path d="M264.1,384.72c2.27,0,4.3.58,6.1,1.73,1.8,1.15,3.22,2.72,4.28,4.72,1.05,2,1.57,4.32,1.57,6.95s-.52,4.97-1.57,7c-1.05,2.03-2.47,3.64-4.25,4.83-1.78,1.18-3.79,1.77-6.03,1.77-1.23,0-2.39-.19-3.47-.58-1.08-.38-2.07-.9-2.95-1.55-.88-.65-1.62-1.36-2.23-2.12-.6-.77-1.03-1.55-1.3-2.35l1.1-.65v4.95c0,.57-.18,1.05-.55,1.45-.37.4-.85.6-1.45.6-.57,0-1.04-.19-1.43-.58s-.57-.88-.57-1.47v-33.15c0-.57.19-1.05.57-1.45.38-.4.86-.6,1.43-.6.6,0,1.08.2,1.45.6.37.4.55.88.55,1.45v15.4l-.75-.4c.23-.83.64-1.64,1.22-2.42.58-.78,1.3-1.48,2.15-2.1.85-.62,1.8-1.11,2.85-1.48,1.05-.37,2.14-.55,3.28-.55ZM263.65,388.42c-1.67,0-3.14.42-4.42,1.28-1.28.85-2.28,2-3,3.45-.72,1.45-1.08,3.11-1.08,4.98s.36,3.55,1.08,5.05c.72,1.5,1.72,2.68,3,3.55,1.28.87,2.76,1.3,4.42,1.3s3.13-.43,4.4-1.3c1.27-.87,2.27-2.05,3-3.55s1.1-3.18,1.1-5.05-.37-3.53-1.1-4.98c-.73-1.45-1.73-2.6-3-3.45-1.27-.85-2.73-1.28-4.4-1.28Z" fill="#7da531"/>
    <path d="M301.4,385.37c.6,0,1.08.19,1.45.58.37.38.55.88.55,1.47v13.6c0,3.37-.94,5.98-2.83,7.83-1.88,1.85-4.51,2.78-7.88,2.78s-5.94-.92-7.83-2.78c-1.88-1.85-2.82-4.46-2.82-7.83v-13.6c0-.6.19-1.09.57-1.47s.86-.58,1.43-.58c.6,0,1.08.19,1.45.58s.55.88.55,1.47v13.6c0,2.27.58,3.98,1.75,5.15,1.17,1.17,2.8,1.75,4.9,1.75s3.78-.58,4.95-1.75,1.75-2.88,1.75-5.15v-13.6c0-.6.18-1.09.55-1.47.37-.38.85-.58,1.45-.58Z" fill="#7da531"/>
    <path d="M312.8,411.22c-.57,0-1.04-.2-1.42-.6-.38-.4-.58-.88-.58-1.45v-21.75c0-.6.19-1.09.58-1.47.38-.38.86-.58,1.42-.58.6,0,1.08.19,1.45.58.37.38.55.88.55,1.47v6.55l-.6-1.05c.2-1.03.56-2.04,1.08-3.03.52-.98,1.17-1.87,1.98-2.65.8-.78,1.72-1.4,2.75-1.85,1.03-.45,2.17-.67,3.4-.67.73,0,1.41.17,2.03.53.62.35.92.84.92,1.47,0,.7-.18,1.23-.55,1.58-.37.35-.78.53-1.25.53-.43,0-.85-.1-1.25-.3-.4-.2-.9-.3-1.5-.3-.83,0-1.66.23-2.48.7s-1.57,1.11-2.25,1.92c-.68.82-1.23,1.75-1.65,2.8-.42,1.05-.62,2.18-.62,3.38v12.15c0,.57-.19,1.05-.58,1.45-.38.4-.86.6-1.42.6Z" fill="#7da531"/>
    <path d="M340.9,384.72c1.47,0,2.82.24,4.05.73s2.31,1.11,3.23,1.88c.92.77,1.63,1.57,2.15,2.4.52.83.78,1.62.78,2.35l-1-.6v-4.35c0-.57.19-1.04.58-1.42.38-.38.86-.58,1.42-.58.6,0,1.09.19,1.47.58.38.38.58.86.58,1.42v21.9c0,2.73-.58,5.01-1.72,6.83-1.15,1.82-2.69,3.17-4.62,4.05-1.93.88-4.1,1.33-6.5,1.33-1,0-2.1-.12-3.3-.38-1.2-.25-2.27-.57-3.2-.95-.93-.38-1.53-.77-1.8-1.17-.5-.37-.81-.75-.92-1.15-.12-.4-.06-.8.17-1.2.33-.47.73-.7,1.2-.7s1.07.15,1.8.45c.33.1.83.27,1.48.5.65.23,1.38.44,2.2.62.82.18,1.62.27,2.42.27,2.83,0,5-.74,6.5-2.22,1.5-1.48,2.25-3.44,2.25-5.88v-4.65l.55.25c-.2.93-.6,1.8-1.2,2.6-.6.8-1.34,1.51-2.22,2.12-.88.62-1.86,1.1-2.92,1.45-1.07.35-2.17.52-3.3.52-2.33,0-4.42-.58-6.27-1.75-1.85-1.17-3.32-2.77-4.4-4.8s-1.62-4.35-1.62-6.95.54-4.97,1.62-7c1.08-2.03,2.54-3.62,4.38-4.77,1.83-1.15,3.9-1.73,6.2-1.73ZM341.45,388.42c-1.7,0-3.22.42-4.58,1.28-1.35.85-2.4,2.02-3.15,3.5s-1.12,3.16-1.12,5.02.38,3.49,1.12,4.98,1.8,2.66,3.15,3.52c1.35.87,2.88,1.3,4.58,1.3s3.27-.42,4.6-1.27c1.33-.85,2.38-2.01,3.15-3.48.77-1.47,1.15-3.15,1.15-5.05s-.38-3.59-1.15-5.08c-.77-1.48-1.82-2.64-3.15-3.47-1.33-.83-2.87-1.25-4.6-1.25Z" fill="#7da531"/>
    <path d="M362.6,397.67c-.57,0-1.04-.19-1.42-.58-.38-.38-.58-.86-.58-1.42,0-.6.19-1.08.58-1.45.38-.37.86-.55,1.42-.55h10.1c.57,0,1.04.2,1.43.6.38.4.57.9.57,1.5,0,.53-.19.98-.57,1.35-.38.37-.86.55-1.43.55h-10.1Z" fill="#7da531"/>
    <path d="M380.15,385.52h11.75c.53,0,.97.18,1.33.55.35.37.52.82.52,1.35,0,.5-.17.92-.52,1.28-.35.35-.79.52-1.33.52h-11.75c-.5,0-.94-.18-1.33-.55-.38-.37-.58-.8-.58-1.3,0-.53.19-.98.58-1.33.38-.35.83-.53,1.33-.53ZM385.4,378.72c.57,0,1.03.2,1.4.6.37.4.55.88.55,1.45v24.1c0,.8.12,1.4.35,1.8.23.4.54.67.92.83.38.15.76.22,1.12.22.33,0,.62-.06.88-.17.25-.12.54-.17.88-.17s.64.16.92.47c.28.32.43.73.43,1.23,0,.6-.35,1.11-1.05,1.52-.7.42-1.48.62-2.35.62-.47,0-1.04-.03-1.72-.1-.68-.07-1.36-.28-2.03-.65-.67-.37-1.22-.97-1.67-1.83-.45-.85-.67-2.04-.67-3.57v-24.3c0-.57.2-1.05.6-1.45.4-.4.88-.6,1.45-.6Z" fill="#7da531"/>
    <path d="M411,411.72c-2.7,0-5.05-.57-7.05-1.7-2-1.13-3.55-2.69-4.65-4.67-1.1-1.98-1.65-4.27-1.65-6.88,0-2.9.58-5.38,1.73-7.42,1.15-2.05,2.65-3.62,4.5-4.7,1.85-1.08,3.81-1.62,5.88-1.62,1.53,0,3.02.28,4.45.85s2.7,1.4,3.8,2.5,1.98,2.4,2.65,3.9,1.02,3.2,1.05,5.1c0,.53-.2.97-.6,1.32-.4.35-.87.53-1.4.53h-19.75l-.9-3.45h19.2l-.8.7v-1.1c-.1-1.37-.54-2.54-1.32-3.53-.78-.98-1.73-1.74-2.85-2.28-1.12-.53-2.29-.8-3.52-.8-1,0-1.99.18-2.98.55-.98.37-1.87.93-2.65,1.7-.78.77-1.42,1.77-1.9,3-.48,1.23-.72,2.72-.72,4.45,0,1.93.39,3.63,1.17,5.1.78,1.47,1.88,2.62,3.27,3.48,1.4.85,3.03,1.27,4.9,1.27,1.17,0,2.18-.15,3.05-.45.87-.3,1.61-.68,2.23-1.12.62-.45,1.14-.91,1.57-1.38.43-.3.87-.45,1.3-.45.47,0,.87.17,1.2.5s.5.73.5,1.2c0,.57-.27,1.08-.8,1.55-.97,1.03-2.24,1.93-3.83,2.7-1.58.77-3.27,1.15-5.07,1.15Z" fill="#7da531"/>
    <path d="M429.5,381.62c-.83,0-1.45-.17-1.85-.5-.4-.33-.6-.85-.6-1.55v-.7c0-.7.22-1.22.65-1.55.43-.33,1.05-.5,1.85-.5s1.4.17,1.8.5c.4.33.6.85.6,1.55v.7c0,.7-.21,1.22-.62,1.55-.42.33-1.03.5-1.83.5ZM431.55,409.17c0,.57-.19,1.05-.58,1.45-.38.4-.86.6-1.42.6-.6,0-1.09-.2-1.47-.6-.38-.4-.58-.88-.58-1.45v-22.15c0-.57.19-1.05.58-1.45.38-.4.88-.6,1.47-.6.57,0,1.04.2,1.42.6.38.4.58.88.58,1.45v22.15Z" fill="#7da531"/>
    <path d="M443.15,409.17c0,.57-.2,1.05-.6,1.45-.4.4-.88.6-1.45.6s-1.04-.2-1.42-.6c-.38-.4-.58-.88-.58-1.45v-32.9c0-.57.2-1.05.6-1.45.4-.4.88-.6,1.45-.6.6,0,1.08.2,1.45.6.37.4.55.88.55,1.45v32.9Z" fill="#7da531"/>
    <path d="M449.75,385.52h11.75c.53,0,.97.18,1.33.55.35.37.52.82.52,1.35,0,.5-.17.92-.52,1.28-.35.35-.79.52-1.33.52h-11.75c-.5,0-.94-.18-1.33-.55-.38-.37-.58-.8-.58-1.3,0-.53.19-.98.58-1.33.38-.35.83-.53,1.33-.53ZM455,378.72c.57,0,1.03.2,1.4.6.37.4.55.88.55,1.45v24.1c0,.8.12,1.4.35,1.8.23.4.54.67.92.83.38.15.76.22,1.12.22.33,0,.62-.06.88-.17.25-.12.54-.17.88-.17s.64.16.92.47c.28.32.43.73.43,1.23,0,.6-.35,1.11-1.05,1.52-.7.42-1.48.62-2.35.62-.47,0-1.04-.03-1.72-.1-.68-.07-1.36-.28-2.03-.65-.67-.37-1.22-.97-1.67-1.83-.45-.85-.67-2.04-.67-3.57v-24.3c0-.57.2-1.05.6-1.45.4-.4.88-.6,1.45-.6Z" fill="#7da531"/>
    <path d="M470.1,411.17c-.7,0-1.24-.2-1.62-.6-.38-.4-.58-.95-.58-1.65v-1c0-.73.19-1.3.58-1.7.38-.4.92-.6,1.62-.6h.4c.73,0,1.28.2,1.65.6.37.4.55.97.55,1.7v1c0,.7-.18,1.25-.55,1.65-.37.4-.92.6-1.65.6h-.4Z" fill="#7da531"/>
    <path d="M500.4,374.22c.57,0,1.04.19,1.42.58.38.38.58.88.58,1.47v32.9c0,.57-.19,1.05-.58,1.45-.38.4-.86.6-1.42.6-.6,0-1.09-.2-1.47-.6-.38-.4-.58-.88-.58-1.45v-4.75l.95-.3c0,.77-.24,1.59-.73,2.47-.48.88-1.17,1.72-2.05,2.5-.88.78-1.91,1.42-3.08,1.9-1.17.48-2.43.72-3.8.72-2.27,0-4.3-.58-6.1-1.75-1.8-1.17-3.23-2.77-4.28-4.8s-1.58-4.35-1.58-6.95.53-4.97,1.58-7c1.05-2.03,2.47-3.62,4.25-4.77,1.78-1.15,3.79-1.73,6.03-1.73,1.4,0,2.71.23,3.92.7,1.22.47,2.29,1.1,3.22,1.9.93.8,1.66,1.68,2.17,2.65.52.97.78,1.93.78,2.9l-1.3-.3v-16.3c0-.57.19-1.05.58-1.45.38-.4.88-.6,1.47-.6ZM490.1,408.02c1.67,0,3.13-.42,4.4-1.27,1.27-.85,2.27-2.02,3-3.5s1.1-3.16,1.1-5.03-.37-3.54-1.1-5.02-1.73-2.65-3-3.5c-1.27-.85-2.73-1.28-4.4-1.28s-3.09.42-4.38,1.28c-1.28.85-2.29,2.02-3.03,3.5s-1.1,3.16-1.1,5.02.37,3.49,1.1,4.98,1.74,2.66,3.03,3.52c1.28.87,2.74,1.3,4.38,1.3Z" fill="#7da531"/>
    <path d="M521.75,411.72c-2.7,0-5.05-.57-7.05-1.7-2-1.13-3.55-2.69-4.65-4.67-1.1-1.98-1.65-4.27-1.65-6.88,0-2.9.58-5.38,1.73-7.42,1.15-2.05,2.65-3.62,4.5-4.7,1.85-1.08,3.81-1.62,5.88-1.62,1.53,0,3.02.28,4.45.85s2.7,1.4,3.8,2.5,1.98,2.4,2.65,3.9,1.02,3.2,1.05,5.1c0,.53-.2.97-.6,1.32-.4.35-.87.53-1.4.53h-19.75l-.9-3.45h19.2l-.8.7v-1.1c-.1-1.37-.54-2.54-1.32-3.53-.78-.98-1.73-1.74-2.85-2.28-1.12-.53-2.29-.8-3.52-.8-1,0-1.99.18-2.98.55-.98.37-1.87.93-2.65,1.7-.78.77-1.42,1.77-1.9,3-.48,1.23-.72,2.72-.72,4.45,0,1.93.39,3.63,1.17,5.1.78,1.47,1.88,2.62,3.27,3.48,1.4.85,3.03,1.27,4.9,1.27,1.17,0,2.18-.15,3.05-.45.87-.3,1.61-.68,2.23-1.12.62-.45,1.14-.91,1.57-1.38.43-.3.87-.45,1.3-.45.47,0,.87.17,1.2.5s.5.73.5,1.2c0,.57-.27,1.08-.8,1.55-.97,1.03-2.24,1.93-3.83,2.7-1.58.77-3.27,1.15-5.07,1.15Z" fill="#7da531"/>
  </g>
  <g>
    <g>
      <path d="M258.24,35.23c-.39-.53-1.23-.52-1.73-.06-11.67,10.67-1.59,26.88-1.59,26.88,0,0,13.67-12.71,3.33-26.82Z" fill="#7da531"/>
      <path d="M278.58,43.94c-15.8-.61-20.02,18-20.02,18,0,0,18.66.57,21.22-16.74.1-.65-.51-1.23-1.19-1.26Z" fill="#7da531"/>
      <path d="M233.33,44.25c-.58.02-1.04.78-.95,1.47,2.41,19.17,19.51,16.03,19.51,16.03,0,0-2.75-18.07-18.56-17.5Z" fill="#7da531"/>
    </g>
    <path d="M261.09,160.98c-2.25,3.67-7.56,3.73-9.9.12-8.19-12.63-23.36-44.22-22.13-73.98,1.35-32.58,51.2-35.1,52.45-1.19,1.15,31.32-12.75,62.52-20.41,75.05Z" fill="#7da531"/>
    <g>
      <g>
        <path d="M311.67,2.37c-.66,0-1.32,0-1.98,0l.07.98c-7.57,61.78,8.26,106.45.88,185.81l.02,1.27c.92,0,1.84,0,2.77,0,109.78,0,113.89-6.45,113.89-101.56S378.67,2.37,311.67,2.37ZM383.96,163.4c-1.84.38-3.56-1.07-3.79-2.93l-1.87-17.52c-.12-.8-.69-1.45-1.47-1.67l-8.18-2.29c-.43-.12-.89-.07-1.29.13l-7.83,4.01c-.82.42-1.29,1.31-1.18,2.22l1.67,17.43c.18,1.79-1.06,3.46-2.84,3.7-17.73,2.45-24.97-30.08-5.72-41.31.87-.51,1.38-1.47,1.33-2.48l-2.27-35.49c-.06-.99-.7-1.92-1.66-2.17-17.83-4.65-23.7-36.35-5.08-45.15,2.06-.98,4.47.4,4.67,2.67l1.83,17.84c.14,1.62,1.24,2.99,2.78,3.5l7.1,2.79c1.2.4,2.52.22,3.58-.48l6.94-5.17c1.08-.72,2.13-1.97,2.03-3.26,0,0-1.54-11.6-2.13-18.84-.19-2.35,2.03-4.12,4.3-3.5,21.32,5.81,19.76,38.29,3.39,45.65-1.09.49-1.71,1.65-1.67,2.84.32,8.76,1.89,28.14,2.42,34.45.09,1.14.92,2.12,2.05,2.32,19.24,3.34,23.93,38.36,2.88,42.71Z" fill="#7da531"/>
        <path d="M355.31,168.62c-6.97,0-12.87-4.81-15.7-13-3.69-10.69-1.15-25.17,10.85-32.17.23-.13.36-.38.34-.66l-2.26-35.46c-.01-.21-.13-.35-.17-.36-7.96-2.08-16.57-10.37-17.87-24.23-1.04-11.09,3.73-20.54,12.43-24.66,1.56-.74,3.39-.67,4.89.19,1.5.86,2.48,2.39,2.64,4.11l1.83,17.81c.08.85.63,1.55,1.42,1.81l.1.04,7.04,2.76c.6.18,1.24.1,1.76-.23l6.98-5.19c.74-.49,1.13-1.13,1.14-1.41-.14-1.03-1.57-11.97-2.13-18.86-.14-1.76.55-3.41,1.91-4.53,1.36-1.13,3.2-1.52,4.91-1.06,9.89,2.69,16.33,11.06,17.21,22.37.93,11.92-4.63,23.03-13.53,27.04-.3.14-.51.52-.49.94.32,8.82,1.93,28.52,2.41,34.35.02.26.19.48.4.51,8.94,1.55,18.1,10.7,18.33,25.18.18,11.24-5.72,19.46-15.39,21.46-1.37.28-2.77-.02-3.94-.86-1.24-.89-2.06-2.27-2.25-3.79l-1.87-17.55-8.12-2.23-7.76,3.97c-.07.04-.12.12-.11.2l1.68,17.49c.29,2.9-1.72,5.48-4.55,5.87-.73.1-1.45.15-2.15.15ZM345.19,41.57c-.17,0-.35.03-.54.13-7.25,3.43-11.05,11.16-10.16,20.67.95,10.17,7.08,18.7,14.89,20.74,1.77.46,3.03,2.06,3.15,3.98l2.27,35.48c.09,1.8-.8,3.45-2.32,4.33-10.14,5.92-12.25,18.27-9.09,27.41,1.92,5.56,6.48,11.16,13.53,10.19.69-.1,1.19-.78,1.12-1.52l-1.67-17.44c-.21-1.69.7-3.39,2.26-4.19l7.83-4.01c.85-.43,1.82-.53,2.74-.27l8.18,2.29c1.54.43,2.68,1.73,2.91,3.31l1.88,17.6c.05.37.27.76.61.99.18.13.46.26.8.19,9.17-1.9,12.32-10.27,12.2-17.48-.15-9.09-5.46-19.65-15.02-21.3-2.01-.35-3.53-2.04-3.71-4.12-.49-5.85-2.1-25.63-2.42-34.54-.07-2.06,1.04-3.92,2.85-4.73,7.27-3.27,11.97-12.97,11.18-23.07-.75-9.55-6.09-16.59-14.28-18.82h0c-.47-.13-.94-.03-1.31.27-.2.16-.52.53-.48,1.13.58,7.11,2.11,18.62,2.12,18.74v.1c.19,2.19-1.35,4.04-2.86,5.06l-6.99,5.2c-1.58,1.04-3.51,1.3-5.31.71l-.1-.04-7.06-2.77c-2.27-.78-3.87-2.81-4.08-5.21l-1.83-17.81c-.06-.63-.47-.92-.64-1.02-.11-.06-.35-.17-.64-.17ZM368.11,140.91s0,0,0,0h0Z"/>
      </g>
      <path d="M283.73,45.78c.21-1.39-.2-2.83-1.12-3.93-.96-1.16-2.37-1.85-3.88-1.91-.31-.01-.61-.02-.92-.02-4.74,0-8.68,1.48-11.89,3.72-.44-3.48-1.79-7.13-4.46-10.77-.95-1.29-2.43-2.03-4.07-2.03h0c-1.33,0-2.6.49-3.59,1.39-4.15,3.79-6.09,8.26-6.69,12.72-3.26-2.78-7.54-4.71-13.05-4.71,0,0-.59,0-.88.02-1.34.05-2.62.68-3.52,1.74-.99,1.16-1.45,2.7-1.26,4.23,1.1,8.73,5.32,14.96,11.76,17.87h0c-7.27,4.45-12.67,12.16-13.12,22.96-1.25,30.12,14.14,62.33,22.45,75.15,1.46,2.25,3.92,3.59,6.6,3.59.04,0,.07,0,.1,0,2.71-.04,5.17-1.44,6.59-3.75,8.24-13.46,21.86-44.65,20.71-76.16-.41-11.18-5.67-18.56-12.69-22.58,0,0,0,0,0,0,7.25-3.33,11.72-9.38,12.92-17.51ZM256.51,35.17c.25-.22.57-.34.89-.34s.65.13.85.4c3.03,4.14,3.99,8.15,3.85,11.76t0,0c-3.39,3.64-5.59,8.06-6.77,11.67-.76-2.94-2.18-6.42-4.42-9.56-.22-4.61.98-9.71,5.6-13.93ZM232.38,45.71c-.09-.69.37-1.45.95-1.47.25,0,.49-.01.73-.01,12.17,0,16.28,11.28,17.43,15.73-2.08.33-4.14.86-6.12,1.6,0,0,0,0,0,0-5.11-1.03-11.58-4.59-13-15.84ZM279.5,86.01c.16,4.42,0,8.85-.39,13.23-2.08-.61-6.79-1.72-13.74-1.83-.01,0-.02,0-.03,0-1.09,0-1.98.87-2,1.97-.02,1.1.86,2.01,1.97,2.03,7.64.12,12.35,1.55,13.37,1.89-1.27,10.22-3.8,20.07-6.76,28.8-5.01-1.62-9.68-1.51-9.89-1.51-1.1.03-1.97.95-1.94,2.05s.92,1.97,2.05,1.94c.05,0,4.14-.09,8.44,1.28-3.8,10.42-8.07,18.93-11.22,24.07-.7,1.15-1.88,1.82-3.23,1.84-1.37.03-2.55-.62-3.29-1.76-5.15-7.94-13.09-23.54-17.85-41.35,5.74-2.47,13.45-2.58,13.52-2.58,1.1-.01,1.99-.91,1.98-2.02,0-1.1-.9-1.97-2.02-1.98-.35,0-8.09.1-14.48,2.65-1.76-7.47-2.9-15.25-3.01-22.96,1.36-.63,6.3-2.59,14.92-2.59,1.1,0,2-.9,2-2s-.9-2-2-2c-7.26,0-12.19,1.29-14.87,2.26,0-.08,0-.17,0-.25.64-15.52,13.22-23.63,25.33-23.63h.06c11.07.03,22.49,6.97,23.05,22.44ZM259.22,59.71h0c1.66-4.82,6.76-15.79,18.6-15.79.25,0,.5,0,.76.01.68.03,1.29.61,1.19,1.26-1.52,10.26-8.69,14.23-14.28,15.77,0,0,0,0,0,0-2.04-.65-4.15-1.06-6.27-1.26Z"/>
      <path d="M409.21,16.65C391.48-.8,363.06-.35,330.14.17c-5.97.09-12.15.19-18.47.19h-1.98c-2.42,0-4.8,0-7.16-.01-42.7-.1-76.39-.17-96.37,19.76-13.23,13.2-19.39,33.92-19.39,65.23,0,41.52,4.95,69.28,15.14,84.78-5.67,17.46-11.87,28.19-11.93,28.3-.35.6-.36,1.35-.03,1.96.33.61.96,1.01,1.66,1.04.07,0,.3.01.68.01,3.36,0,18.35-.76,36.88-13.27,16.68,4.32,39.98,4.3,74.91,4.27h6.58s2.77,0,2.77,0c58.09,0,84.75-2.17,99.46-15.64,15.66-14.34,16.43-41.37,16.43-87.92,0-35.76-6.39-58.7-20.11-72.21ZM304.08,188.43c-35.24.03-58.53.05-74.75-4.37-.57-.16-1.18-.05-1.66.28-14.45,9.96-26.83,12.35-32.52,12.92,2.35-4.57,6.74-13.9,10.88-26.84.19-.59.09-1.23-.26-1.74-10.09-14.64-14.99-41.9-14.99-83.34,0-30.17,5.79-50,18.21-62.4,17.49-17.45,47.25-18.6,84.93-18.6,2.82,0,5.69,0,8.6.01,1.69,0,3.39,0,5.1.01-.09.8-.17,1.58-.26,2.38-.1.9-.2,1.8-.29,2.7-.1.96-.18,1.92-.26,2.88-.08.88-.16,1.76-.23,2.64-.08.96-.14,1.91-.2,2.86-.06.86-.12,1.73-.18,2.59-.06.95-.1,1.88-.15,2.82-.04.85-.09,1.71-.13,2.55-.04.93-.06,1.85-.09,2.78-.03.85-.06,1.7-.08,2.54-.02.92-.03,1.82-.05,2.73-.01.84-.03,1.69-.04,2.53,0,.9,0,1.8,0,2.7,0,.84,0,1.69,0,2.53,0,.89.02,1.77.03,2.65.01.85.02,1.7.04,2.54.02.87.04,1.74.07,2.61.02.85.04,1.71.07,2.56.03.84.06,1.67.09,2.51.03.88.06,1.76.1,2.64.03.79.07,1.57.11,2.36.04.92.08,1.85.13,2.77.04.73.08,1.46.12,2.2.05.98.11,1.96.16,2.94.04.64.08,1.28.12,1.92.07,1.07.13,2.14.2,3.22.03.48.07.96.1,1.44.31,4.64.64,9.29.99,13.99.19,2.6.38,5.22.56,7.84.08,1.13.16,2.25.24,3.38.04.55.07,1.11.11,1.66.09,1.34.18,2.67.27,4.02.04.69.09,1.39.13,2.08.08,1.22.15,2.43.23,3.66.05.79.09,1.59.13,2.38.06,1.14.13,2.28.19,3.43.04.8.08,1.62.12,2.43.06,1.16.11,2.31.17,3.47.04.81.06,1.64.09,2.46.05,1.18.1,2.35.14,3.54.03.83.05,1.68.07,2.51.03,1.2.07,2.39.1,3.6.02.86.03,1.74.04,2.6.02,1.2.05,2.4.06,3.62,0,.91,0,1.84.01,2.75,0,1.2.02,2.39.01,3.61,0,.94-.02,1.9-.03,2.85-.01,1.22-.02,2.42-.04,3.66-.02.98-.05,1.98-.07,2.97-.03,1.23-.05,2.45-.09,3.7-.03,1.02-.08,2.06-.12,3.1-.05,1.25-.09,2.48-.15,3.75-.05,1.08-.12,2.19-.17,3.29-.07,1.24-.12,2.47-.2,3.73-.07,1.16-.16,2.34-.24,3.51-.08,1.23-.16,2.46-.26,3.71-.09,1.22-.21,2.47-.31,3.7-.1,1.15-.19,2.3-.3,3.47h-4.62ZM410.2,173.83c-13.72,12.56-39.76,14.59-96.76,14.59h-.71c.11-1.2.2-2.37.3-3.56.1-1.17.2-2.36.29-3.51.1-1.29.18-2.56.27-3.83.08-1.15.16-2.31.23-3.44.08-1.24.13-2.46.2-3.68.06-1.13.13-2.27.18-3.39.05-1.2.09-2.38.14-3.57.04-1.1.09-2.22.12-3.31.04-1.18.06-2.34.08-3.5.02-1.07.06-2.15.07-3.2.02-1.17.02-2.31.03-3.46,0-1.02.03-2.06.03-3.07,0-1.16,0-2.3-.01-3.45,0-.98,0-1.97-.01-2.94-.01-1.17-.04-2.31-.06-3.46-.02-.93-.03-1.87-.05-2.79-.03-1.18-.06-2.35-.1-3.52-.03-.87-.04-1.75-.07-2.61-.04-1.24-.09-2.47-.14-3.7-.03-.77-.06-1.54-.09-2.31-.06-1.35-.13-2.69-.19-4.03-.03-.63-.06-1.26-.09-1.88-.08-1.53-.17-3.05-.25-4.56-.02-.42-.05-.84-.07-1.26-.1-1.73-.21-3.44-.32-5.15-.01-.2-.02-.4-.04-.61-.37-5.74-.78-11.39-1.19-17-.13-1.72-.25-3.44-.37-5.15-.06-.79-.11-1.57-.17-2.36-.07-.93-.13-1.86-.2-2.78-.05-.79-.11-1.57-.16-2.36-.06-.92-.13-1.85-.19-2.77-.05-.82-.1-1.64-.15-2.46-.06-.88-.11-1.76-.16-2.64-.05-.84-.09-1.68-.14-2.52-.05-.86-.1-1.72-.14-2.59-.04-.85-.08-1.7-.12-2.55-.04-.85-.08-1.7-.12-2.56-.04-.83-.06-1.67-.09-2.5-.03-.88-.07-1.75-.1-2.63-.03-.81-.04-1.63-.06-2.45-.02-.9-.05-1.79-.07-2.69-.02-.82-.02-1.64-.03-2.46-.01-.9-.03-1.8-.03-2.7,0-.82,0-1.64,0-2.46,0-.91,0-1.82,0-2.74,0-.81.03-1.63.04-2.45.01-.93.03-1.85.05-2.79.02-.82.05-1.65.08-2.47.03-.94.06-1.87.1-2.82.03-.82.08-1.64.12-2.47.05-.96.09-1.92.15-2.88.05-.81.11-1.64.17-2.46.07-.98.13-1.96.21-2.95.07-.82.15-1.65.22-2.47.09-1,.17-2,.28-3.01.08-.82.18-1.66.27-2.49.1-.89.19-1.77.3-2.66h.01c6.36,0,12.55-.1,18.53-.19,33.33-.53,59.66-.95,76.2,15.33,12.91,12.7,18.92,34.74,18.92,69.36,0,45.43-.7,71.77-15.13,84.97Z"/>
    </g>
  </g>
</svg>