<?xml version="1.0" encoding="UTF-8"?>
<svg id="a" data-name="Ebene 2" xmlns="http://www.w3.org/2000/svg" width="604.91" height="159.41" viewBox="0 0 604.91 159.41">
  <path d="M3.37,3.13c.48,0,1,.13,1.57.4.56.27,1,.64,1.32,1.12l21.27,32.11-2.89-.08L46.16,4.66c.75-1.02,1.66-1.53,2.73-1.53.86.05,1.62.39,2.29,1,.67.62,1,1.38,1,2.29v49.69c0,.91-.32,1.69-.96,2.33-.64.64-1.45.96-2.41.96-1.02,0-1.83-.32-2.45-.96-.62-.64-.92-1.42-.92-2.33V12.6l2.01.32-18.95,28.82c-.32.43-.71.78-1.16,1.04-.46.27-.95.38-1.49.32-.48.05-.96-.05-1.45-.32-.48-.27-.86-.62-1.12-1.04L4.58,13.01l1.69-2.17v45.28c0,.91-.29,1.69-.88,2.33-.59.64-1.34.96-2.25.96s-1.66-.32-2.25-.96c-.59-.64-.88-1.42-.88-2.33V6.42c0-.86.32-1.62.96-2.29.64-.67,1.45-1,2.41-1Z"/>
  <path d="M99.31,17.5c.91,0,1.67.31,2.29.92.62.62.92,1.38.92,2.29v35.4c0,.91-.31,1.69-.92,2.33-.62.64-1.38.96-2.29.96-.96,0-1.75-.32-2.37-.96-.62-.64-.92-1.42-.92-2.33v-7.63l1.53-.16c0,1.23-.4,2.53-1.2,3.89-.8,1.37-1.9,2.65-3.29,3.85-1.39,1.2-3.02,2.2-4.9,2.97s-3.91,1.16-6.1,1.16c-3.64,0-6.92-.95-9.83-2.85-2.92-1.9-5.21-4.48-6.86-7.75-1.66-3.26-2.49-6.98-2.49-11.16s.84-7.96,2.53-11.2c1.69-3.24,3.96-5.78,6.82-7.63s6.09-2.77,9.67-2.77c2.3,0,4.44.38,6.42,1.12,1.98.75,3.71,1.77,5.18,3.05,1.47,1.28,2.61,2.7,3.41,4.25.8,1.55,1.2,3.1,1.2,4.66l-2.09-.48v-8.75c0-.91.31-1.67.92-2.29.62-.62,1.4-.92,2.37-.92ZM82.77,54.27c2.68,0,5.03-.69,7.06-2.09,2.03-1.39,3.64-3.28,4.82-5.66,1.18-2.38,1.77-5.07,1.77-8.07s-.59-5.59-1.77-7.95c-1.18-2.35-2.78-4.23-4.82-5.62-2.03-1.39-4.39-2.09-7.06-2.09s-4.96.68-7.02,2.05c-2.06,1.37-3.68,3.23-4.86,5.58-1.18,2.36-1.77,5.03-1.77,8.03s.58,5.69,1.73,8.07c1.15,2.38,2.76,4.27,4.82,5.66,2.06,1.39,4.43,2.09,7.1,2.09Z"/>
  <path d="M131.74,16.86c2.35,0,4.52.39,6.5,1.16,1.98.78,3.71,1.78,5.18,3.01,1.47,1.23,2.62,2.52,3.45,3.85.83,1.34,1.25,2.6,1.25,3.77l-1.61-.96v-6.98c0-.91.31-1.67.92-2.29.62-.62,1.38-.92,2.29-.92.96,0,1.75.31,2.37.92.62.62.92,1.38.92,2.29v35.16c0,4.39-.92,8.04-2.77,10.96-1.85,2.92-4.32,5.08-7.43,6.5-3.11,1.42-6.58,2.13-10.44,2.13-1.61,0-3.37-.2-5.3-.6s-3.64-.91-5.14-1.53c-1.5-.62-2.46-1.24-2.89-1.89-.8-.59-1.3-1.2-1.48-1.85-.19-.64-.09-1.28.28-1.93.53-.75,1.18-1.12,1.93-1.12s1.71.24,2.89.72c.53.16,1.32.43,2.37.8,1.04.37,2.22.71,3.53,1,1.31.29,2.61.44,3.89.44,4.55,0,8.03-1.19,10.44-3.57,2.41-2.38,3.61-5.53,3.61-9.43v-7.47l.88.4c-.32,1.5-.96,2.89-1.93,4.17-.96,1.28-2.15,2.42-3.57,3.41s-2.98,1.77-4.7,2.33c-1.71.56-3.48.84-5.3.84-3.75,0-7.11-.94-10.08-2.81-2.97-1.87-5.33-4.44-7.06-7.71-1.74-3.26-2.61-6.98-2.61-11.16s.87-7.97,2.61-11.24c1.74-3.26,4.08-5.82,7.03-7.67,2.94-1.85,6.26-2.77,9.95-2.77ZM132.62,22.8c-2.73,0-5.18.68-7.35,2.05-2.17,1.37-3.85,3.24-5.06,5.62-1.2,2.38-1.81,5.07-1.81,8.07s.6,5.61,1.81,7.99c1.21,2.38,2.89,4.27,5.06,5.66,2.17,1.39,4.62,2.09,7.35,2.09s5.24-.68,7.38-2.05c2.14-1.36,3.83-3.22,5.06-5.58,1.23-2.35,1.85-5.06,1.85-8.11s-.62-5.77-1.85-8.15c-1.23-2.38-2.92-4.24-5.06-5.58-2.14-1.34-4.6-2.01-7.38-2.01Z"/>
  <path d="M197.49,0c.91,0,1.67.31,2.29.92s.92,1.4.92,2.37v52.82c0,.91-.31,1.69-.92,2.33-.62.64-1.38.96-2.29.96-.96,0-1.75-.32-2.37-.96-.62-.64-.92-1.42-.92-2.33v-7.63l1.53-.48c0,1.23-.39,2.56-1.16,3.97-.78,1.42-1.87,2.76-3.29,4.01-1.42,1.26-3.06,2.28-4.94,3.05-1.87.78-3.91,1.16-6.1,1.16-3.64,0-6.9-.94-9.79-2.81-2.89-1.87-5.18-4.44-6.86-7.71s-2.53-6.98-2.53-11.16.84-7.97,2.53-11.24c1.69-3.26,3.96-5.82,6.82-7.67s6.09-2.77,9.67-2.77c2.25,0,4.35.38,6.3,1.12,1.95.75,3.68,1.77,5.18,3.05,1.5,1.28,2.66,2.7,3.49,4.25.83,1.55,1.24,3.1,1.24,4.66l-2.09-.48V3.29c0-.91.31-1.69.92-2.33.62-.64,1.41-.96,2.37-.96ZM180.95,54.27c2.68,0,5.03-.68,7.06-2.05,2.03-1.36,3.64-3.24,4.82-5.62,1.18-2.38,1.77-5.07,1.77-8.07s-.59-5.69-1.77-8.07c-1.18-2.38-2.78-4.25-4.82-5.62-2.03-1.36-4.39-2.05-7.06-2.05s-4.96.68-7.02,2.05c-2.06,1.37-3.68,3.24-4.86,5.62-1.18,2.38-1.77,5.07-1.77,8.07s.59,5.61,1.77,7.99c1.18,2.38,2.8,4.27,4.86,5.66,2.06,1.39,4.4,2.09,7.02,2.09Z"/>
  <path d="M231.77,60.21c-4.34,0-8.11-.91-11.32-2.73-3.21-1.82-5.7-4.32-7.46-7.51-1.77-3.18-2.65-6.86-2.65-11.04,0-4.66.92-8.63,2.77-11.92,1.85-3.29,4.26-5.81,7.23-7.55,2.97-1.74,6.11-2.61,9.43-2.61,2.46,0,4.84.46,7.15,1.36,2.3.91,4.33,2.25,6.1,4.01,1.77,1.77,3.18,3.85,4.25,6.26,1.07,2.41,1.63,5.14,1.69,8.19,0,.86-.32,1.57-.96,2.13-.64.56-1.39.84-2.25.84h-31.71l-1.45-5.54h30.83l-1.29,1.12v-1.77c-.16-2.19-.87-4.08-2.13-5.66-1.26-1.58-2.78-2.8-4.58-3.65-1.79-.86-3.68-1.29-5.66-1.29-1.61,0-3.2.29-4.78.88-1.58.59-3,1.5-4.26,2.73-1.26,1.23-2.28,2.84-3.05,4.82-.78,1.98-1.16,4.36-1.16,7.15,0,3.1.63,5.83,1.89,8.19,1.26,2.36,3.01,4.21,5.26,5.58,2.25,1.37,4.87,2.05,7.87,2.05,1.87,0,3.5-.24,4.9-.72,1.39-.48,2.58-1.08,3.57-1.81s1.83-1.46,2.53-2.21c.7-.48,1.39-.72,2.09-.72.75,0,1.39.27,1.93.8.54.54.8,1.18.8,1.93,0,.91-.43,1.74-1.28,2.49-1.55,1.66-3.6,3.1-6.14,4.33-2.54,1.23-5.26,1.85-8.15,1.85Z"/>
  <path d="M279.05,16.86c3.64,0,6.9.92,9.79,2.77s5.18,4.38,6.86,7.59c1.69,3.21,2.53,6.93,2.53,11.16s-.84,7.98-2.53,11.24c-1.69,3.27-3.96,5.85-6.82,7.75-2.86,1.9-6.09,2.85-9.67,2.85-1.98,0-3.84-.31-5.58-.92-1.74-.61-3.32-1.44-4.74-2.49s-2.61-2.18-3.57-3.41c-.96-1.23-1.66-2.49-2.09-3.77l1.77-1.04v7.95c0,.91-.29,1.69-.88,2.33-.59.64-1.36.96-2.33.96-.91,0-1.67-.31-2.29-.92-.62-.61-.92-1.4-.92-2.37V3.29c0-.91.31-1.69.92-2.33.62-.64,1.38-.96,2.29-.96.96,0,1.74.32,2.33.96.59.64.88,1.42.88,2.33v24.73l-1.21-.64c.37-1.34,1.03-2.64,1.97-3.89.94-1.26,2.09-2.38,3.45-3.37,1.36-.99,2.89-1.78,4.58-2.37,1.69-.59,3.44-.88,5.26-.88ZM278.33,22.8c-2.68,0-5.04.68-7.11,2.05-2.06,1.37-3.67,3.21-4.82,5.54-1.15,2.33-1.73,4.99-1.73,7.99s.58,5.7,1.73,8.11c1.15,2.41,2.76,4.31,4.82,5.7,2.06,1.39,4.43,2.09,7.11,2.09s5.03-.69,7.06-2.09c2.03-1.39,3.64-3.29,4.82-5.7,1.18-2.41,1.77-5.11,1.77-8.11s-.59-5.66-1.77-7.99-2.78-4.17-4.82-5.54c-2.04-1.36-4.39-2.05-7.06-2.05Z"/>
  <path d="M338.94,17.9c.96,0,1.74.31,2.33.92.59.62.88,1.41.88,2.37v21.84c0,5.41-1.51,9.59-4.54,12.56-3.03,2.97-7.24,4.46-12.64,4.46s-9.54-1.48-12.56-4.46-4.54-7.16-4.54-12.56v-21.84c0-.96.31-1.75.92-2.37.61-.61,1.38-.92,2.29-.92.96,0,1.74.31,2.33.92.59.62.88,1.41.88,2.37v21.84c0,3.64.94,6.4,2.81,8.27,1.87,1.87,4.5,2.81,7.87,2.81s6.07-.94,7.95-2.81c1.87-1.87,2.81-4.63,2.81-8.27v-21.84c0-.96.29-1.75.88-2.37.59-.61,1.37-.92,2.33-.92Z"/>
  <path d="M357.25,59.41c-.91,0-1.67-.32-2.29-.96-.62-.64-.92-1.42-.92-2.33V21.19c0-.96.31-1.75.92-2.37.61-.61,1.38-.92,2.29-.92.96,0,1.74.31,2.33.92.59.62.88,1.41.88,2.37v10.52l-.96-1.69c.32-1.66.9-3.28,1.73-4.86.83-1.58,1.89-3,3.17-4.25,1.29-1.26,2.76-2.25,4.42-2.97,1.66-.72,3.48-1.08,5.46-1.08,1.18,0,2.26.28,3.25.84.99.56,1.48,1.35,1.48,2.37,0,1.12-.29,1.97-.88,2.53-.59.56-1.26.84-2.01.84-.7,0-1.36-.16-2.01-.48-.64-.32-1.45-.48-2.41-.48-1.34,0-2.66.38-3.97,1.12-1.31.75-2.52,1.78-3.61,3.09-1.1,1.31-1.98,2.81-2.65,4.5-.67,1.69-1,3.49-1,5.42v19.51c0,.91-.31,1.69-.92,2.33-.62.64-1.38.96-2.29.96Z"/>
  <path d="M402.36,16.86c2.36,0,4.52.39,6.5,1.16,1.98.78,3.71,1.78,5.18,3.01,1.47,1.23,2.62,2.52,3.45,3.85s1.24,2.6,1.24,3.77l-1.61-.96v-6.98c0-.91.31-1.67.92-2.29.62-.62,1.38-.92,2.29-.92.96,0,1.75.31,2.37.92.62.62.92,1.38.92,2.29v35.16c0,4.39-.92,8.04-2.77,10.96-1.85,2.92-4.32,5.08-7.43,6.5-3.11,1.42-6.58,2.13-10.44,2.13-1.61,0-3.37-.2-5.3-.6-1.93-.4-3.64-.91-5.14-1.53-1.5-.62-2.46-1.24-2.89-1.89-.8-.59-1.3-1.2-1.48-1.85-.19-.64-.1-1.28.28-1.93.54-.75,1.18-1.12,1.93-1.12s1.71.24,2.89.72c.53.16,1.32.43,2.37.8,1.04.37,2.22.71,3.53,1,1.31.29,2.61.44,3.89.44,4.55,0,8.03-1.19,10.44-3.57,2.41-2.38,3.61-5.53,3.61-9.43v-7.47l.88.4c-.32,1.5-.96,2.89-1.93,4.17-.96,1.28-2.15,2.42-3.57,3.41s-2.98,1.77-4.7,2.33c-1.71.56-3.48.84-5.3.84-3.75,0-7.11-.94-10.08-2.81-2.97-1.87-5.33-4.44-7.06-7.71-1.74-3.26-2.61-6.98-2.61-11.16s.87-7.97,2.61-11.24c1.74-3.26,4.08-5.82,7.02-7.67s6.26-2.77,9.96-2.77ZM403.25,22.8c-2.73,0-5.18.68-7.35,2.05-2.17,1.37-3.85,3.24-5.06,5.62-1.21,2.38-1.81,5.07-1.81,8.07s.6,5.61,1.81,7.99c1.2,2.38,2.89,4.27,5.06,5.66,2.17,1.39,4.62,2.09,7.35,2.09s5.25-.68,7.39-2.05c2.14-1.36,3.83-3.22,5.06-5.58,1.23-2.35,1.85-5.06,1.85-8.11s-.62-5.77-1.85-8.15c-1.23-2.38-2.92-4.24-5.06-5.58-2.14-1.34-4.6-2.01-7.39-2.01Z"/>
  <path d="M455.99,18.14h18.87c.86,0,1.56.29,2.13.88.56.59.84,1.31.84,2.17,0,.8-.28,1.49-.84,2.05-.56.56-1.27.84-2.13.84h-18.87c-.8,0-1.51-.29-2.13-.88-.62-.59-.92-1.28-.92-2.09,0-.86.31-1.57.92-2.13.62-.56,1.32-.84,2.13-.84ZM464.42,7.23c.91,0,1.66.32,2.25.96.59.64.88,1.42.88,2.33v38.7c0,1.29.19,2.25.56,2.89.37.64.87,1.08,1.48,1.32.62.24,1.22.36,1.81.36.54,0,1-.09,1.41-.28.4-.19.87-.28,1.4-.28s1.03.25,1.48.76c.46.51.68,1.16.68,1.97,0,.96-.56,1.78-1.69,2.45-1.12.67-2.38,1-3.77,1-.75,0-1.67-.05-2.77-.16-1.1-.11-2.18-.45-3.25-1.04-1.07-.59-1.97-1.57-2.69-2.93-.72-1.36-1.08-3.28-1.08-5.74V10.52c0-.91.32-1.69.96-2.33.64-.64,1.42-.96,2.33-.96Z" fill="#7da531"/>
  <path d="M505.53,60.21c-4.34,0-8.11-.91-11.32-2.73-3.21-1.82-5.7-4.32-7.47-7.51-1.77-3.18-2.65-6.86-2.65-11.04,0-4.66.92-8.63,2.77-11.92,1.85-3.29,4.26-5.81,7.22-7.55,2.97-1.74,6.12-2.61,9.43-2.61,2.46,0,4.84.46,7.14,1.36,2.3.91,4.34,2.25,6.1,4.01,1.77,1.77,3.18,3.85,4.26,6.26,1.07,2.41,1.63,5.14,1.69,8.19,0,.86-.32,1.57-.96,2.13-.64.56-1.39.84-2.25.84h-31.71l-1.45-5.54h30.83l-1.29,1.12v-1.77c-.16-2.19-.87-4.08-2.13-5.66-1.26-1.58-2.78-2.8-4.58-3.65-1.79-.86-3.68-1.29-5.66-1.29-1.61,0-3.2.29-4.78.88s-3,1.5-4.25,2.73c-1.26,1.23-2.28,2.84-3.05,4.82-.78,1.98-1.16,4.36-1.16,7.15,0,3.1.63,5.83,1.89,8.19,1.26,2.36,3.01,4.21,5.26,5.58,2.25,1.37,4.87,2.05,7.87,2.05,1.87,0,3.51-.24,4.9-.72,1.39-.48,2.58-1.08,3.57-1.81.99-.72,1.83-1.46,2.53-2.21.69-.48,1.39-.72,2.09-.72.75,0,1.39.27,1.93.8.53.54.8,1.18.8,1.93,0,.91-.43,1.74-1.29,2.49-1.55,1.66-3.6,3.1-6.14,4.33-2.54,1.23-5.26,1.85-8.15,1.85Z" fill="#7da531"/>
  <path d="M535.23,11.88c-1.34,0-2.33-.27-2.97-.8-.64-.53-.96-1.37-.96-2.49v-1.12c0-1.12.35-1.95,1.04-2.49.7-.53,1.69-.8,2.97-.8s2.25.27,2.89.8c.64.54.96,1.37.96,2.49v1.12c0,1.12-.34,1.96-1,2.49-.67.54-1.65.8-2.93.8ZM538.52,56.12c0,.91-.31,1.69-.92,2.33-.62.64-1.38.96-2.29.96-.96,0-1.75-.32-2.37-.96-.62-.64-.92-1.42-.92-2.33V20.55c0-.91.31-1.69.92-2.33.62-.64,1.41-.96,2.37-.96.91,0,1.67.32,2.29.96.62.64.92,1.42.92,2.33v35.56Z" fill="#7da531"/>
  <path d="M557.14,56.12c0,.91-.32,1.69-.96,2.33-.64.64-1.42.96-2.33.96s-1.67-.32-2.29-.96c-.62-.64-.92-1.42-.92-2.33V3.29c0-.91.32-1.69.96-2.33.64-.64,1.42-.96,2.33-.96.96,0,1.74.32,2.33.96.59.64.88,1.42.88,2.33v52.82Z" fill="#7da531"/>
  <path d="M567.74,18.14h18.87c.86,0,1.57.29,2.13.88.56.59.84,1.31.84,2.17,0,.8-.28,1.49-.84,2.05-.56.56-1.27.84-2.13.84h-18.87c-.8,0-1.51-.29-2.13-.88-.62-.59-.92-1.28-.92-2.09,0-.86.31-1.57.92-2.13.61-.56,1.32-.84,2.13-.84ZM576.17,7.23c.91,0,1.66.32,2.25.96.59.64.88,1.42.88,2.33v38.7c0,1.29.19,2.25.56,2.89.37.64.87,1.08,1.48,1.32.62.24,1.22.36,1.81.36.53,0,1-.09,1.4-.28.4-.19.87-.28,1.4-.28s1.03.25,1.49.76c.45.51.68,1.16.68,1.97,0,.96-.56,1.78-1.69,2.45-1.12.67-2.38,1-3.77,1-.75,0-1.67-.05-2.77-.16-1.1-.11-2.18-.45-3.25-1.04s-1.97-1.57-2.69-2.93c-.72-1.36-1.08-3.28-1.08-5.74V10.52c0-.91.32-1.69.96-2.33.64-.64,1.42-.96,2.33-.96Z" fill="#7da531"/>
  <path d="M600.74,59.41c-1.12,0-1.98-.33-2.57-1-.59-.67-.88-1.57-.88-2.69v-1.61c0-1.12.29-2.01.88-2.65.59-.64,1.44-.96,2.57-.96h.72c1.12,0,1.98.32,2.57.96.59.64.88,1.53.88,2.65v1.61c0,1.12-.29,2.02-.88,2.69-.59.67-1.45,1-2.57,1h-.72ZM601.14,43.03c-1.28,0-1.98-.72-2.09-2.17l-1.37-33.48c-.05-1.18.21-2.17.8-2.97.59-.8,1.45-1.2,2.57-1.2s2.06.4,2.65,1.2c.59.8.86,1.79.8,2.97l-1.37,33.48c-.11,1.45-.78,2.17-2.01,2.17Z" fill="#7da531"/>
  <path d="M90.68,123.16c2.27,0,4.11.58,5.53,1.72,1.42,1.15,2.36,2.78,2.83,4.88h-.75l.35-.9c.4-.93,1.08-1.83,2.05-2.7.97-.87,2.08-1.58,3.35-2.15,1.27-.57,2.58-.85,3.95-.85,2.2,0,3.93.47,5.2,1.42,1.27.95,2.18,2.22,2.73,3.8.55,1.58.83,3.36.83,5.33v13.65c0,.57-.19,1.05-.58,1.45-.38.4-.88.6-1.48.6-.57,0-1.04-.2-1.42-.6-.38-.4-.58-.88-.58-1.45v-13.55c0-1.27-.18-2.42-.55-3.47-.37-1.05-.98-1.89-1.85-2.53-.87-.63-2.03-.95-3.5-.95-1.33,0-2.57.32-3.7.95-1.13.63-2.03,1.48-2.7,2.53-.67,1.05-1,2.21-1,3.47v13.55c0,.57-.18,1.05-.55,1.45-.37.4-.85.6-1.45.6s-1.08-.2-1.45-.6c-.37-.4-.55-.88-.55-1.45v-13.7c0-1.23-.18-2.37-.55-3.4-.37-1.03-.97-1.86-1.8-2.47-.83-.62-1.97-.92-3.4-.92-1.33,0-2.55.31-3.65.92-1.1.62-1.98,1.44-2.65,2.47-.67,1.03-1,2.17-1,3.4v13.7c0,.57-.19,1.05-.57,1.45-.38.4-.86.6-1.43.6s-1.04-.2-1.42-.6c-.38-.4-.58-.88-.58-1.45v-21.75c0-.6.19-1.09.58-1.48s.86-.58,1.42-.58c.6,0,1.08.19,1.45.58.37.38.55.88.55,1.48v3.75l-1.1,1.2c.13-.87.47-1.73,1.03-2.6.55-.87,1.26-1.67,2.12-2.4.87-.73,1.83-1.32,2.9-1.75,1.07-.43,2.2-.65,3.4-.65Z"/>
  <path d="M145.43,123.31c.57,0,1.04.19,1.42.58.38.38.58.86.58,1.42v22.05c0,.57-.19,1.05-.58,1.45-.38.4-.86.6-1.42.6-.6,0-1.09-.2-1.47-.6-.38-.4-.58-.88-.58-1.45v-4.75l.95-.1c0,.77-.25,1.58-.75,2.42-.5.85-1.18,1.65-2.05,2.4s-1.88,1.37-3.05,1.85c-1.17.48-2.43.73-3.8.73-2.27,0-4.31-.59-6.12-1.78-1.82-1.18-3.24-2.79-4.28-4.83-1.03-2.03-1.55-4.35-1.55-6.95s.53-4.96,1.58-6.98c1.05-2.02,2.47-3.6,4.25-4.75,1.78-1.15,3.79-1.72,6.03-1.72,1.43,0,2.77.23,4,.7,1.23.47,2.31,1.1,3.22,1.9.92.8,1.62,1.68,2.12,2.65s.75,1.93.75,2.9l-1.3-.3v-5.45c0-.57.19-1.04.58-1.42s.88-.58,1.47-.58ZM135.13,146.21c1.67,0,3.13-.43,4.4-1.3,1.27-.87,2.27-2.04,3-3.53.73-1.48,1.1-3.16,1.1-5.02s-.37-3.48-1.1-4.95-1.73-2.63-3-3.5c-1.27-.87-2.73-1.3-4.4-1.3s-3.09.42-4.38,1.27c-1.28.85-2.29,2.01-3.03,3.48s-1.1,3.13-1.1,5,.36,3.54,1.08,5.02c.72,1.48,1.72,2.66,3,3.53,1.28.87,2.76,1.3,4.42,1.3Z"/>
  <path d="M165.63,122.91c1.47,0,2.82.24,4.05.72,1.23.48,2.31,1.11,3.22,1.88.92.77,1.63,1.57,2.15,2.4.52.83.78,1.62.78,2.35l-1-.6v-4.35c0-.57.19-1.04.57-1.42.38-.38.86-.58,1.43-.58.6,0,1.09.19,1.47.58.38.38.57.86.57,1.42v21.9c0,2.73-.57,5.01-1.72,6.83-1.15,1.82-2.69,3.17-4.62,4.05-1.93.88-4.1,1.33-6.5,1.33-1,0-2.1-.12-3.3-.38s-2.27-.57-3.2-.95c-.93-.38-1.53-.78-1.8-1.17-.5-.37-.81-.75-.92-1.15-.12-.4-.06-.8.17-1.2.33-.47.73-.7,1.2-.7s1.07.15,1.8.45c.33.1.83.27,1.48.5.65.23,1.38.44,2.2.62s1.62.28,2.43.28c2.83,0,5-.74,6.5-2.22,1.5-1.48,2.25-3.44,2.25-5.88v-4.65l.55.25c-.2.93-.6,1.8-1.2,2.6-.6.8-1.34,1.51-2.22,2.12-.88.62-1.86,1.1-2.93,1.45-1.07.35-2.17.53-3.3.53-2.33,0-4.42-.58-6.27-1.75-1.85-1.17-3.32-2.77-4.4-4.8-1.08-2.03-1.62-4.35-1.62-6.95s.54-4.97,1.62-7c1.08-2.03,2.54-3.62,4.38-4.78,1.83-1.15,3.9-1.72,6.2-1.72ZM166.18,126.61c-1.7,0-3.22.42-4.58,1.27-1.35.85-2.4,2.02-3.15,3.5-.75,1.48-1.12,3.16-1.12,5.03s.38,3.49,1.12,4.97c.75,1.48,1.8,2.66,3.15,3.53,1.35.87,2.88,1.3,4.58,1.3s3.27-.42,4.6-1.28c1.33-.85,2.38-2.01,3.15-3.47.77-1.47,1.15-3.15,1.15-5.05s-.38-3.59-1.15-5.08c-.77-1.48-1.82-2.64-3.15-3.47-1.33-.83-2.87-1.25-4.6-1.25Z"/>
  <path d="M206.58,112.41c.57,0,1.04.19,1.42.58.38.38.58.88.58,1.47v32.9c0,.57-.19,1.05-.58,1.45-.38.4-.86.6-1.42.6-.6,0-1.09-.2-1.47-.6-.38-.4-.58-.88-.58-1.45v-4.75l.95-.3c0,.77-.24,1.59-.73,2.48-.48.88-1.17,1.72-2.05,2.5-.88.78-1.91,1.42-3.08,1.9-1.17.48-2.43.73-3.8.73-2.27,0-4.3-.58-6.1-1.75-1.8-1.17-3.23-2.77-4.28-4.8s-1.58-4.35-1.58-6.95.53-4.97,1.58-7,2.47-3.62,4.25-4.78c1.78-1.15,3.79-1.72,6.03-1.72,1.4,0,2.71.23,3.92.7,1.22.47,2.29,1.1,3.22,1.9.93.8,1.66,1.68,2.17,2.65s.78,1.93.78,2.9l-1.3-.3v-16.3c0-.57.19-1.05.58-1.45.38-.4.88-.6,1.47-.6ZM196.28,146.21c1.67,0,3.13-.42,4.4-1.28,1.27-.85,2.27-2.02,3-3.5.73-1.48,1.1-3.16,1.1-5.02s-.37-3.54-1.1-5.03c-.73-1.48-1.73-2.65-3-3.5-1.27-.85-2.73-1.27-4.4-1.27s-3.09.42-4.38,1.27c-1.28.85-2.29,2.02-3.03,3.5-.73,1.48-1.1,3.16-1.1,5.03s.37,3.49,1.1,4.97c.73,1.48,1.74,2.66,3.03,3.53,1.28.87,2.74,1.3,4.38,1.3Z"/>
  <path d="M227.93,149.91c-2.7,0-5.05-.57-7.05-1.7-2-1.13-3.55-2.69-4.65-4.67-1.1-1.98-1.65-4.28-1.65-6.88,0-2.9.57-5.38,1.72-7.42,1.15-2.05,2.65-3.62,4.5-4.7s3.81-1.62,5.88-1.62c1.53,0,3.02.28,4.45.85,1.43.57,2.7,1.4,3.8,2.5,1.1,1.1,1.98,2.4,2.65,3.9.67,1.5,1.02,3.2,1.05,5.1,0,.53-.2.98-.6,1.33-.4.35-.87.53-1.4.53h-19.75l-.9-3.45h19.2l-.8.7v-1.1c-.1-1.37-.54-2.54-1.33-3.52s-1.73-1.74-2.85-2.28c-1.12-.53-2.29-.8-3.53-.8-1,0-1.99.18-2.97.55-.98.37-1.87.93-2.65,1.7s-1.42,1.77-1.9,3c-.48,1.23-.72,2.72-.72,4.45,0,1.93.39,3.63,1.18,5.1.78,1.47,1.88,2.62,3.27,3.47,1.4.85,3.03,1.28,4.9,1.28,1.17,0,2.18-.15,3.05-.45.87-.3,1.61-.67,2.22-1.12s1.14-.91,1.58-1.38c.43-.3.87-.45,1.3-.45.47,0,.87.17,1.2.5.33.33.5.73.5,1.2,0,.57-.27,1.08-.8,1.55-.97,1.03-2.24,1.93-3.83,2.7s-3.27,1.15-5.08,1.15Z"/>
  <path d="M257.38,122.91c2.27,0,4.3.58,6.1,1.72,1.8,1.15,3.23,2.73,4.28,4.73s1.58,4.32,1.58,6.95-.53,4.97-1.58,7c-1.05,2.03-2.47,3.64-4.25,4.83-1.78,1.18-3.79,1.78-6.03,1.78-1.23,0-2.39-.19-3.47-.58-1.08-.38-2.07-.9-2.95-1.55-.88-.65-1.62-1.36-2.22-2.12-.6-.77-1.03-1.55-1.3-2.35l1.1-.65v4.95c0,.57-.18,1.05-.55,1.45-.37.4-.85.6-1.45.6-.57,0-1.04-.19-1.42-.58-.38-.38-.58-.88-.58-1.47v-33.15c0-.57.19-1.05.58-1.45.38-.4.86-.6,1.42-.6.6,0,1.08.2,1.45.6.37.4.55.88.55,1.45v15.4l-.75-.4c.23-.83.64-1.64,1.22-2.42s1.3-1.48,2.15-2.1c.85-.62,1.8-1.11,2.85-1.47,1.05-.37,2.14-.55,3.28-.55ZM256.93,126.61c-1.67,0-3.14.42-4.42,1.27-1.28.85-2.28,2-3,3.45-.72,1.45-1.08,3.11-1.08,4.97s.36,3.55,1.08,5.05c.72,1.5,1.72,2.68,3,3.55,1.28.87,2.76,1.3,4.42,1.3s3.13-.43,4.4-1.3c1.27-.87,2.27-2.05,3-3.55.73-1.5,1.1-3.18,1.1-5.05s-.37-3.52-1.1-4.97c-.73-1.45-1.73-2.6-3-3.45-1.27-.85-2.73-1.27-4.4-1.27Z"/>
  <path d="M294.68,123.56c.6,0,1.08.19,1.45.58.37.38.55.88.55,1.48v13.6c0,3.37-.94,5.97-2.82,7.83-1.88,1.85-4.51,2.77-7.88,2.77s-5.94-.92-7.83-2.77c-1.88-1.85-2.82-4.46-2.82-7.83v-13.6c0-.6.19-1.09.57-1.48.38-.38.86-.58,1.43-.58.6,0,1.08.19,1.45.58.37.38.55.88.55,1.48v13.6c0,2.27.58,3.98,1.75,5.15,1.17,1.17,2.8,1.75,4.9,1.75s3.78-.58,4.95-1.75c1.17-1.17,1.75-2.88,1.75-5.15v-13.6c0-.6.18-1.09.55-1.48.37-.38.85-.58,1.45-.58Z"/>
  <path d="M306.08,149.41c-.57,0-1.04-.2-1.43-.6-.38-.4-.57-.88-.57-1.45v-21.75c0-.6.19-1.09.57-1.48.38-.38.86-.58,1.43-.58.6,0,1.08.19,1.45.58.37.38.55.88.55,1.48v6.55l-.6-1.05c.2-1.03.56-2.04,1.08-3.03.52-.98,1.17-1.87,1.97-2.65.8-.78,1.72-1.4,2.75-1.85s2.17-.67,3.4-.67c.73,0,1.41.17,2.03.52.62.35.92.84.92,1.48,0,.7-.18,1.22-.55,1.58-.37.35-.79.52-1.25.52-.43,0-.85-.1-1.25-.3-.4-.2-.9-.3-1.5-.3-.83,0-1.66.23-2.48.7s-1.57,1.11-2.25,1.92c-.68.82-1.23,1.75-1.65,2.8-.42,1.05-.62,2.17-.62,3.38v12.15c0,.57-.19,1.05-.58,1.45-.38.4-.86.6-1.42.6Z"/>
  <path d="M334.18,122.91c1.47,0,2.82.24,4.05.72,1.23.48,2.31,1.11,3.23,1.88.92.77,1.63,1.57,2.15,2.4.52.83.78,1.62.78,2.35l-1-.6v-4.35c0-.57.19-1.04.58-1.42.38-.38.86-.58,1.42-.58.6,0,1.09.19,1.47.58.38.38.58.86.58,1.42v21.9c0,2.73-.58,5.01-1.72,6.83-1.15,1.82-2.69,3.17-4.62,4.05-1.93.88-4.1,1.33-6.5,1.33-1,0-2.1-.12-3.3-.38s-2.27-.57-3.2-.95c-.93-.38-1.54-.78-1.8-1.17-.5-.37-.81-.75-.93-1.15-.12-.4-.06-.8.18-1.2.33-.47.73-.7,1.2-.7s1.07.15,1.8.45c.33.1.82.27,1.47.5s1.38.44,2.2.62c.82.18,1.62.28,2.42.28,2.83,0,5-.74,6.5-2.22,1.5-1.48,2.25-3.44,2.25-5.88v-4.65l.55.25c-.2.93-.6,1.8-1.2,2.6-.6.8-1.34,1.51-2.22,2.12-.88.62-1.86,1.1-2.92,1.45-1.07.35-2.17.53-3.3.53-2.33,0-4.43-.58-6.28-1.75s-3.32-2.77-4.4-4.8c-1.08-2.03-1.62-4.35-1.62-6.95s.54-4.97,1.62-7c1.08-2.03,2.54-3.62,4.38-4.78,1.83-1.15,3.9-1.72,6.2-1.72ZM334.73,126.61c-1.7,0-3.22.42-4.57,1.27-1.35.85-2.4,2.02-3.15,3.5-.75,1.48-1.12,3.16-1.12,5.03s.38,3.49,1.12,4.97c.75,1.48,1.8,2.66,3.15,3.53,1.35.87,2.88,1.3,4.57,1.3s3.27-.42,4.6-1.28c1.33-.85,2.38-2.01,3.15-3.47.77-1.47,1.15-3.15,1.15-5.05s-.38-3.59-1.15-5.08c-.77-1.48-1.82-2.64-3.15-3.47-1.33-.83-2.87-1.25-4.6-1.25Z"/>
  <path d="M355.88,135.86c-.57,0-1.04-.19-1.43-.58-.38-.38-.57-.86-.57-1.42,0-.6.19-1.08.57-1.45.38-.37.86-.55,1.43-.55h10.1c.57,0,1.04.2,1.43.6.38.4.57.9.57,1.5,0,.53-.19.98-.57,1.35-.38.37-.86.55-1.43.55h-10.1Z"/>
  <path d="M373.43,123.71h11.75c.53,0,.97.18,1.32.55.35.37.53.82.53,1.35,0,.5-.18.92-.53,1.27-.35.35-.79.53-1.32.53h-11.75c-.5,0-.94-.18-1.33-.55s-.57-.8-.57-1.3c0-.53.19-.97.57-1.32.38-.35.83-.53,1.33-.53ZM378.68,116.91c.57,0,1.03.2,1.4.6.37.4.55.88.55,1.45v24.1c0,.8.12,1.4.35,1.8.23.4.54.67.93.82.38.15.76.23,1.12.23.33,0,.62-.06.88-.17s.54-.18.88-.18.64.16.92.48c.28.32.43.72.43,1.22,0,.6-.35,1.11-1.05,1.53-.7.42-1.48.62-2.35.62-.47,0-1.04-.03-1.72-.1-.68-.07-1.36-.28-2.03-.65-.67-.37-1.22-.98-1.67-1.83-.45-.85-.68-2.04-.68-3.58v-24.3c0-.57.2-1.05.6-1.45.4-.4.88-.6,1.45-.6Z"/>
  <path d="M404.28,149.91c-2.7,0-5.05-.57-7.05-1.7-2-1.13-3.55-2.69-4.65-4.67s-1.65-4.28-1.65-6.88c0-2.9.58-5.38,1.73-7.42,1.15-2.05,2.65-3.62,4.5-4.7,1.85-1.08,3.81-1.62,5.88-1.62,1.53,0,3.02.28,4.45.85,1.43.57,2.7,1.4,3.8,2.5,1.1,1.1,1.98,2.4,2.65,3.9.67,1.5,1.02,3.2,1.05,5.1,0,.53-.2.98-.6,1.33s-.87.53-1.4.53h-19.75l-.9-3.45h19.2l-.8.7v-1.1c-.1-1.37-.54-2.54-1.32-3.52-.79-.98-1.73-1.74-2.85-2.28s-2.29-.8-3.52-.8c-1,0-1.99.18-2.98.55-.98.37-1.87.93-2.65,1.7-.79.77-1.42,1.77-1.9,3-.48,1.23-.72,2.72-.72,4.45,0,1.93.39,3.63,1.17,5.1s1.88,2.62,3.28,3.47c1.4.85,3.03,1.28,4.9,1.28,1.17,0,2.18-.15,3.05-.45s1.61-.67,2.23-1.12c.62-.45,1.14-.91,1.57-1.38.43-.3.87-.45,1.3-.45.46,0,.87.17,1.2.5.33.33.5.73.5,1.2,0,.57-.27,1.08-.8,1.55-.97,1.03-2.24,1.93-3.82,2.7-1.58.77-3.28,1.15-5.07,1.15Z"/>
  <path d="M422.78,119.81c-.83,0-1.45-.17-1.85-.5-.4-.33-.6-.85-.6-1.55v-.7c0-.7.22-1.22.65-1.55.43-.33,1.05-.5,1.85-.5s1.4.17,1.8.5c.4.33.6.85.6,1.55v.7c0,.7-.21,1.22-.62,1.55-.42.33-1.03.5-1.82.5ZM424.83,147.36c0,.57-.19,1.05-.57,1.45-.38.4-.86.6-1.43.6-.6,0-1.09-.2-1.47-.6-.38-.4-.57-.88-.57-1.45v-22.15c0-.57.19-1.05.57-1.45.38-.4.88-.6,1.47-.6.57,0,1.04.2,1.43.6.38.4.57.88.57,1.45v22.15Z"/>
  <path d="M436.43,147.36c0,.57-.2,1.05-.6,1.45-.4.4-.88.6-1.45.6s-1.04-.2-1.43-.6c-.38-.4-.57-.88-.57-1.45v-32.9c0-.57.2-1.05.6-1.45.4-.4.88-.6,1.45-.6.6,0,1.08.2,1.45.6.37.4.55.88.55,1.45v32.9Z"/>
  <path d="M443.03,123.71h11.75c.53,0,.97.18,1.32.55.35.37.53.82.53,1.35,0,.5-.18.92-.53,1.27-.35.35-.79.53-1.32.53h-11.75c-.5,0-.94-.18-1.33-.55s-.57-.8-.57-1.3c0-.53.19-.97.57-1.32.38-.35.83-.53,1.33-.53ZM448.28,116.91c.57,0,1.03.2,1.4.6.37.4.55.88.55,1.45v24.1c0,.8.12,1.4.35,1.8.23.4.54.67.93.82.38.15.76.23,1.12.23.33,0,.62-.06.88-.17s.54-.18.88-.18.64.16.92.48c.28.32.43.72.43,1.22,0,.6-.35,1.11-1.05,1.53-.7.42-1.48.62-2.35.62-.47,0-1.04-.03-1.72-.1-.68-.07-1.36-.28-2.03-.65-.67-.37-1.22-.98-1.67-1.83-.45-.85-.68-2.04-.68-3.58v-24.3c0-.57.2-1.05.6-1.45.4-.4.88-.6,1.45-.6Z"/>
  <path d="M463.38,149.36c-.7,0-1.24-.2-1.62-.6-.38-.4-.58-.95-.58-1.65v-1c0-.73.19-1.3.58-1.7.38-.4.92-.6,1.62-.6h.4c.73,0,1.28.2,1.65.6.37.4.55.97.55,1.7v1c0,.7-.18,1.25-.55,1.65-.37.4-.92.6-1.65.6h-.4Z"/>
  <path d="M493.68,112.41c.57,0,1.04.19,1.43.58.38.38.57.88.57,1.47v32.9c0,.57-.19,1.05-.57,1.45-.38.4-.86.6-1.43.6-.6,0-1.09-.2-1.47-.6-.38-.4-.57-.88-.57-1.45v-4.75l.95-.3c0,.77-.24,1.59-.72,2.48-.48.88-1.17,1.72-2.05,2.5s-1.91,1.42-3.07,1.9c-1.17.48-2.43.73-3.8.73-2.27,0-4.3-.58-6.1-1.75s-3.22-2.77-4.28-4.8c-1.05-2.03-1.57-4.35-1.57-6.95s.53-4.97,1.57-7c1.05-2.03,2.47-3.62,4.25-4.78,1.78-1.15,3.79-1.72,6.03-1.72,1.4,0,2.71.23,3.93.7,1.21.47,2.29,1.1,3.22,1.9.93.8,1.66,1.68,2.17,2.65.52.97.78,1.93.78,2.9l-1.3-.3v-16.3c0-.57.19-1.05.57-1.45.38-.4.88-.6,1.47-.6ZM483.38,146.21c1.67,0,3.13-.42,4.4-1.28,1.27-.85,2.27-2.02,3-3.5.73-1.48,1.1-3.16,1.1-5.02s-.37-3.54-1.1-5.03c-.73-1.48-1.73-2.65-3-3.5-1.27-.85-2.73-1.27-4.4-1.27s-3.09.42-4.37,1.27c-1.29.85-2.29,2.02-3.03,3.5-.73,1.48-1.1,3.16-1.1,5.03s.37,3.49,1.1,4.97c.73,1.48,1.74,2.66,3.03,3.53,1.28.87,2.74,1.3,4.37,1.3Z"/>
  <path d="M515.03,149.91c-2.7,0-5.05-.57-7.05-1.7-2-1.13-3.55-2.69-4.65-4.67-1.1-1.98-1.65-4.28-1.65-6.88,0-2.9.57-5.38,1.72-7.42,1.15-2.05,2.65-3.62,4.5-4.7s3.81-1.62,5.88-1.62c1.53,0,3.02.28,4.45.85,1.43.57,2.7,1.4,3.8,2.5,1.1,1.1,1.98,2.4,2.65,3.9.67,1.5,1.02,3.2,1.05,5.1,0,.53-.2.98-.6,1.33s-.87.53-1.4.53h-19.75l-.9-3.45h19.2l-.8.7v-1.1c-.1-1.37-.54-2.54-1.32-3.52s-1.73-1.74-2.85-2.28c-1.12-.53-2.29-.8-3.53-.8-1,0-1.99.18-2.97.55-.98.37-1.87.93-2.65,1.7s-1.42,1.77-1.9,3-.72,2.72-.72,4.45c0,1.93.39,3.63,1.18,5.1.78,1.47,1.88,2.62,3.27,3.47,1.4.85,3.03,1.28,4.9,1.28,1.17,0,2.18-.15,3.05-.45.87-.3,1.61-.67,2.22-1.12s1.14-.91,1.57-1.38c.43-.3.87-.45,1.3-.45.47,0,.87.17,1.2.5s.5.73.5,1.2c0,.57-.27,1.08-.8,1.55-.97,1.03-2.24,1.93-3.83,2.7-1.58.77-3.27,1.15-5.07,1.15Z"/>
</svg>