<?xml version="1.0" encoding="UTF-8"?>
<svg id="a" data-name="Ebene 2" xmlns="http://www.w3.org/2000/svg" width="137.22" height="114.88" viewBox="0 0 137.22 114.88">
  <path d="M96.79,0c-1.05-.08-2.06.39-2.67,1.25-19.89,27.85-58.04,40.35-64.14,42.21-2.44-.89-4.99-1.36-7.61-1.36C10.03,42.1,0,52.13,0,64.47,0,75.6,8.17,84.85,18.82,86.55l12.74,25.57c.32.63.85,1.14,1.5,1.42.19.08,3.18,1.34,6.82,1.34,1.95,0,4.09-.36,6.09-1.46,3.49-1.91,5.67-5.48,6.49-10.58.1-.63,0-1.27-.29-1.84l-10.96-21.44c18.29-2.04,44.83,9.03,66.44,18.04l2.35.98c.37.15.76.23,1.15.23.59,0,1.17-.17,1.68-.51.84-.56,1.33-1.51,1.33-2.51-.02-2.68-.73-65.95-14.92-94.13-.47-.94-1.4-1.56-2.45-1.64ZM6,64.47c0-9.02,7.34-16.37,16.37-16.37,1.52,0,3.01.21,4.45.61,0,.09,0,.17,0,.25-.02.47-.03.91-.04,1.36-.01.43-.03.87-.03,1.29,0,.43,0,.84,0,1.26,0,.4,0,.81.01,1.2,0,.4.02.78.04,1.16.02.38.03.75.05,1.11.02.37.05.72.08,1.08.03.35.06.69.09,1.03.03.34.07.67.11,1,.04.32.08.64.12.95.04.32.09.63.14.93.05.3.1.59.15.87.05.29.11.58.17.87.06.27.12.54.18.81.06.27.13.55.19.81.06.25.13.5.2.74.07.26.14.51.21.76.07.24.14.46.22.69.08.24.15.48.23.71.08.22.15.43.23.64.08.22.16.45.25.67.08.2.16.4.24.6.09.21.17.43.26.63.08.19.16.37.25.56.09.2.18.41.27.61.08.18.17.35.25.52.09.2.19.4.28.59.09.18.17.35.26.52.09.18.18.37.27.55.17.34.35.68.52,1.02.36.71.71,1.39,1.04,2.08.03.06.06.12.08.18-2.97,2.61-6.8,4.07-10.77,4.07-.39,0-.77-.03-1.15-.06-.17-.03-.35-.03-.52-.03-8.24-.84-14.69-7.82-14.69-16.28ZM43.11,108.15c-2.12,1.17-5.03.71-6.71.21l-10.84-21.76c3.75-.54,7.3-2.03,10.31-4.32l10.5,20.54c-.57,2.66-1.67,4.45-3.26,5.33ZM45.97,73.29c-2.61,0-5.14.19-7.55.59-.04-.09-.09-.18-.13-.27-.31-.63-.62-1.24-.93-1.85-.34-.67-.68-1.34-1.02-2.02-.03-.06-.06-.12-.08-.18-.13-.28-.27-.56-.4-.84-.04-.09-.09-.19-.13-.29-.11-.25-.23-.5-.34-.76-.05-.12-.1-.24-.15-.36-.1-.24-.2-.49-.3-.74-.05-.13-.1-.27-.15-.41-.09-.25-.18-.5-.27-.75-.05-.15-.1-.3-.15-.46-.08-.25-.16-.51-.24-.78-.05-.16-.09-.33-.14-.5-.07-.27-.14-.54-.21-.81-.04-.18-.09-.37-.13-.55-.06-.28-.12-.57-.18-.86-.04-.2-.08-.4-.11-.6-.05-.3-.1-.61-.15-.93-.03-.21-.06-.43-.09-.65-.04-.33-.08-.66-.12-1-.02-.23-.05-.47-.07-.71-.03-.35-.06-.72-.08-1.09-.02-.25-.03-.5-.05-.76-.02-.38-.03-.78-.05-1.19,0-.27-.02-.54-.02-.81,0-.42,0-.86,0-1.3,0-.29,0-.57,0-.87,0-.47.02-.95.04-1.44,0-.3.02-.6.03-.91,0-.11.01-.22.02-.33,8.76-2.73,42.36-14.5,63.07-40.04,9.7,24.14,11.75,68.19,12.16,82.44-20.8-8.67-43.65-17.98-62.08-17.98Z"/>
  <path d="M113.31,24.85c.57,0,1.15-.16,1.66-.5l13.33-8.84c1.38-.92,1.76-2.78.84-4.16-.92-1.38-2.78-1.76-4.16-.84l-13.33,8.84c-1.38.92-1.76,2.78-.84,4.16.58.87,1.53,1.34,2.5,1.34Z"/>
  <path d="M134.54,47.85c1.65-.18,2.84-1.66,2.66-3.3-.18-1.65-1.67-2.84-3.3-2.66l-16.98,1.82c-1.65.18-2.84,1.66-2.66,3.3.17,1.54,1.47,2.68,2.98,2.68.11,0,.22,0,.32-.02l16.98-1.82Z"/>
  <path d="M135.13,72.01l-13.61-5.89c-1.52-.66-3.29.04-3.94,1.56-.66,1.52.04,3.29,1.56,3.94l13.61,5.89c.39.17.79.25,1.19.25,1.16,0,2.26-.68,2.75-1.81.66-1.52-.04-3.29-1.56-3.94Z"/>
</svg>