<?xml version="1.0" encoding="UTF-8"?>
<svg id="a" data-name="Ebene 2" xmlns="http://www.w3.org/2000/svg" width="96.13" height="110.53" viewBox="0 0 96.13 110.53">
  <path d="M93.13,110.53h-15.41c-1.66,0-3-1.34-3-3v-36.35c-5.63-2.18-19.1-9.88-19.1-33.67,0-10.58,4.49-19.51,13.33-26.55,7.14-5.68,15.48-8.67,19.81-9.94,1.75-.51,3.6-.18,5.06.91,1.47,1.1,2.31,2.78,2.31,4.61v100.99c0,1.66-1.34,3-3,3ZM80.72,104.53h9.41V6.87c-8.84,2.65-28.51,10.79-28.51,30.64,0,24.81,16,28.41,16.69,28.55,1.39.29,2.41,1.52,2.41,2.94v35.53Z"/>
  <path d="M28.8,108.52h-13.74c-1.66,0-3-1.34-3-3v-57.96C2.8,43.32-1.27,34.46.34,2.85.43,1.19,1.84-.08,3.49,0c1.65.08,2.93,1.49,2.84,3.15-1.68,32.84,2.78,36.99,9.77,39.58,1.18.44,1.96,1.56,1.96,2.81v56.97h7.74v-56.97c0-1.36.91-2.54,2.22-2.9,9.53-2.58,10.85-7.39,10.85-39.65,0-1.66,1.34-3,3-3s3,1.34,3,3c0,27.73,0,40.04-13.07,44.75v57.77c0,1.66-1.34,3-3,3Z"/>
  <path d="M16.41,30.79c-1.66,0-3-1.34-3-3V3c0-1.66,1.34-3,3-3s3,1.34,3,3v24.79c0,1.66-1.34,3-3,3Z"/>
  <path d="M29.14,30.79c-1.66,0-3-1.34-3-3V3c0-1.66,1.34-3,3-3s3,1.34,3,3v24.79c0,1.66-1.34,3-3,3Z"/>
</svg>