<?xml version="1.0" encoding="UTF-8"?>
<svg id="a" data-name="Ebene 2" xmlns="http://www.w3.org/2000/svg" width="135.07" height="121.66" viewBox="0 0 135.07 121.66">
  <path d="M42.29,32.9c1.56,4.4-2.15,9.14-4.59,12.41-2.3,3.1,2.9,6.1,5.18,3.03,4.8-6.46,8.22-14.12,2.87-21.25-1.59-2.12-3.89-3.86-5.11-6.23-1.89-3.67.69-7.38,2.8-10.36,2.23-3.16-2.97-6.16-5.18-3.03-4.54,6.43-5.97,12.99-.68,19.32,1.6,1.92,3.85,3.68,4.71,6.1Z"/>
  <path d="M94.5,32.6c1.99,4.75-1.85,9.12-4.47,12.71-2.28,3.13,2.93,6.12,5.18,3.03,3.64-5,7.54-10.71,5.17-17.15-1.01-2.74-2.96-4.87-4.78-7.09-1.32-1.62-3.18-3.76-3.27-6.01-.12-2.77,1.97-5.41,3.44-7.58,2.17-3.21-3.03-6.21-5.18-3.03-3.69,5.46-5.91,11.24-2.02,17.24,1.72,2.66,4.7,4.94,5.93,7.88Z"/>
  <path d="M67.84,32.2c1.68,4.9-3.08,9.43-6.22,12.5-2.77,2.7,1.48,6.95,4.24,4.24,6.66-6.51,11.38-14.48,5.26-22.94-1.83-2.52-4.5-4.83-5.59-7.81-1.83-4.98,2.75-9.78,5.89-13.05,2.68-2.78-1.56-7.03-4.24-4.24-6.56,6.82-11.06,15.03-4.88,23.56,1.79,2.46,4.54,4.79,5.55,7.74Z"/>
  <path d="M133.55,63.41c-1.21-1.41-2.96-2.21-4.81-2.21H6.33c-1.77,0-3.48.75-4.67,2.06-1.19,1.3-1.79,3.06-1.63,4.82.85,9.55,5.59,32.65,31.05,44.45v3.36c0,3.19,2.6,5.79,5.79,5.79h61.34c3.19,0,5.79-2.6,5.79-5.79v-3.96c23.67-11.89,29.56-34.22,31-43.44.28-1.82-.24-3.67-1.44-5.07ZM129.06,67.55c-1.32,8.48-6.83,29.33-29.33,39.76-1.06.49-1.74,1.55-1.74,2.72v5.64h-60.92v-5.1c0-1.2-.72-2.29-1.83-2.76-24.08-10.25-28.48-31.57-29.25-40.27,0-.03-.01-.14.08-.24.06-.07.15-.11.24-.11h122.41c.1,0,.19.04.25.12.09.11.08.21.07.24Z"/>
</svg>