<?xml version="1.0" encoding="UTF-8"?>
<svg id="a" data-name="Ebene 2" xmlns="http://www.w3.org/2000/svg" width="143.17" height="104" viewBox="0 0 143.17 104">
  <path d="M143.17,18.34c.03-1.44-.98-2.4-2.2-2.89-1.87-.75-4.26-.61-6.36-.5.27-3.89.44-8.37-1.19-10.95C130.6-.5,119.65.12,115.12.11c-7.69-.02-15.41,1.18-22.81,3.25-3.79,1.06-7.5,2.36-11.14,3.85-1.37.56-2.75,1.12-4.09,1.75-2.37,1.1-2.02.93-4.15-.4-5.44-3.41-11.02-6.59-17.41-7.75-7.26-1.32-14.79-.77-22.08-.04-4.87.49-13.82.78-17.52,4.67-1.6,1.68-1.62,3.98-1.51,6.21-2.84.38-6.05.57-8.45,1.91-4.31,2.41-3.09,9.05-3.25,13.12-.52,12.99-1.14,25.98-1.6,38.98-.22,6.16-.41,12.33-.53,18.49-.07,3.79-1.96,12.38,1.47,15.2,2.96,2.43,9.16.42,12.56.11,6.72-.61,13.45-1.1,20.19-1.4,5.89-.26,11.79-.38,17.69-.34,2.97.02,2.8.53,4.62,2.35,1.46,1.46,3.42,2.41,5.38,3,3.59,1.07,7.88,1.24,11.53.42,1.68-.38,3.33-1,4.72-2.03,2.36-1.74,1.62-2.71,4.67-2.84,13.08-.54,26.26.22,39.35.43,3.91.06,11.57,1.66,14.87-.98,2.74-2.2,1.95-7.52,2.12-10.59,1.29-23.03,2.95-46.06,3.42-69.12ZM101.76,7.31c7.32-1.35,15.94-2.12,23.29-.47,3.77.85,3.31,2.05,3.33,5.48.01,2.82-.01,5.65-.06,8.47-.2,11.15-.76,22.3-1.55,33.42-.59,8.31-1.1,16.74-2.45,24.97-.1.59-.15,1.27-.29,1.89-.25-.04-.55-.09-.93-.12-1.33-.77-3.71-.97-5.21-1.28-6.51-1.33-13.22-1.79-19.84-1.16-7.48.71-14.73,2.6-21.61,5.61-1.08.47-2.16.97-3.23,1.49-.42.21-.8.39-1.15.55,3.07-23.59,5.46-47.26,5.7-71.07.7-.25,1.47-.57,2.35-.97,6.91-3.09,14.2-5.44,21.65-6.82ZM21.31,9.19c1.88-1.72,8.08-1.96,10.39-2.25,6.18-.76,12.69-1.28,18.92-.78,7.26.58,13.23,3.75,19.28,7.56.68.43,1.29.78,1.85,1.06-.22,23.92-2.62,47.7-5.7,71.4-.21-.09-.4-.17-.62-.28-3.32-1.59-6.32-3.59-9.81-4.88-6.36-2.36-13.26-3.27-20.02-3.1-3.57.09-7.13.46-10.6,1.31-2.36.57-5.14,2.09-7.75,2.92.41-13.76,1.58-27.48,2.41-41.22.45-7.49.81-14.98.85-22.49.01-2.36-1.03-7.59.8-9.26ZM134.04,82.3c-.13,2.2-.25,4.4-.37,6.6-.05.83.05,2.04-.16,2.8-.49,1.78,0,1.06-1.91,1.42-5.14.97-11.5-.13-16.72-.23-5.91-.12-11.82-.26-17.73-.32-5.23-.05-10.47-.13-15.7.08-1.56.06-2.82-.06-4.08.93-1.93,1.53-2.18,3.34-4.95,4.1-3.13.87-8.61.39-11.07-1.87-1.03-.95-1.36-2.32-2.59-3.14-1.56-1.04-3.54-.92-5.32-.95-10.48-.22-21,.32-31.45,1.11-2.47.19-4.93.39-7.39.62-1.26.11-6.69,1.41-7.54.73-1.44-1.15-.57-5.33-.54-7.13.05-2.91.11-5.82.18-8.72.32-12.37.86-24.73,1.39-37.09.28-6.42.17-12.98.8-19.38.1-1-.2-2.41.57-3.24.61-.66,3.83-.67,4.67-.82.12-.02.24-.04.36-.06-.01,3.35-.06,6.7-.18,10.05-.68,19.31-2.77,38.55-3.16,57.88-.02.95.49,1.89,1.26,2.44.25.2.56.36.9.46.02,0,.04.01.07.02.12.03.24.06.36.08.14.02.28.04.41.04.03,0,.05,0,.08,0,.06,0,.12-.01.18-.01.05,0,.1,0,.15-.01,2.8-.12,5.51-1.66,8.15-2.53,3.95-1.29,7.9-2.03,12.05-2.19,7.97-.31,15.95.97,23.13,4.55,2.7,1.35,5.15,3.65,7.92,4.86.81,1.01,2.45,1.19,3.75.55,2.05-.37,3.92-1.73,5.87-2.72,7.54-3.84,15.87-6.25,24.33-6.82,3.9-.27,7.83-.16,11.71.31,4.11.49,8,2.03,12.05,2.62,3.6.53,5.55-1.59,6.28-4.87,1.83-8.3,2.14-17.16,2.77-25.6.89-11.94,1.51-23.91,1.72-35.88.89-.06,1.87-.14,2.8-.11-.4,16.34-1.41,32.67-2.34,48.99-.24,4.15-.48,8.31-.72,12.46Z"/>
</svg>