<?xml version="1.0" encoding="UTF-8"?>
<svg id="a" data-name="Ebene 2" xmlns="http://www.w3.org/2000/svg" width="164.35" height="102.54" viewBox="0 0 164.35 102.54">
  <path d="M163.82,63.45c-2.74-15.6-16.95-27.12-32.71-26.91-3.32.11-6.44.7-9.34,1.69-2.14-4.85-4.27-9.71-6.35-14.58-1.55-3.62-3.09-7.25-4.6-10.89-1.01-2.42-1.73-5.65-3.47-7.66-3.22-3.72-11.76-2.52-16.1-2.4-3.85.1-3.87,6.1,0,6,2.67-.07,5.93-.46,8.54.13,3.99.9,4.52,3.8,5.99,7.31.27.64.55,1.28.82,1.93-17.61.49-35.23.67-52.85.33-1.23-3.19-2.46-6.38-3.69-9.57.67-.04,1.33-.09,2-.18,2.9-.38,5.79-.93,8.67-1.39,2.48-.39,1.93-4.65-.6-4.42-2.16.2-4.35.19-6.52.12-1.05-.03-2.1-.09-3.14-.18-.4-.03-.8-.07-1.2-.11,0,0,0,0-.01,0-.11-.02-.21-.03-.32-.05-1.16-.19-2.31-.41-3.46-.64-2.64-.53-5.28-1.11-7.94-1.57-2.32-.4-4.6-.94-6.54.79-1.4,1.25-1.77,3.26-.83,4.9,1.06,1.85,3.1,2.58,5.1,2.8,0,0,.01,0,.02,0,.02,0,.04,0,.06,0,2.77.16,5.56.08,8.35.04,1.59,4.12,3.17,8.23,4.76,12.35l-7.45,17.69c-6.69-1.89-13.94-1.67-20.7,1.05C7.94,45.03.06,57.44,0,70.68c-.06,13.35,7.51,25.26,20.18,29.84,12.99,4.69,28.6,1.2,36.91-10.17,3.87-5.3,6.15-11.74,6.67-18.28l2.86-.02c.96,3.06,3.19,5.65,6.5,6.71,5.56,1.78,11.69-1.19,13.79-6.62,1.38-3.55.85-7.65-1.32-10.63,9.15-10.06,17.79-20.54,26.23-31.2.37.87.73,1.74,1.11,2.6,1.13,2.6,2.26,5.19,3.4,7.77-17.05,9.7-23.22,34.29-8.57,50.72,9.07,10.18,24.91,14.04,37.52,8.75,14.19-5.96,21.12-21.97,18.54-36.7ZM48.78,90.67c-10.73,9.4-30.05,7.39-38.2-4.43-7.63-11.07-5.5-27.17,4.49-36.06,6.69-5.95,15.51-7.61,23.57-5.58l-9.92,23.57c-.39.93-.29,2,.27,2.83.56.83,1.49,1.33,2.49,1.33h.02l26.29-.22c-.67,7.08-3.8,13.98-9.02,18.56ZM51.74,52.15c3.52,3.85,5.47,8.79,6.03,13.96l-21.75.18,8.25-19.6c2.73,1.36,5.26,3.19,7.47,5.46ZM75.94,73.26c-6.9-.79-3.64-12.52,3.2-9.54,4.87,2.53,2.12,10.15-3.2,9.54ZM80.67,58c-5.53-1.69-11.37.37-13.74,6.13-.26.62-.44,1.26-.58,1.91l-2.62.02c-.6-6.66-3.11-13.08-7.75-18.15-2.75-2.83-5.93-5.1-9.37-6.78l7.05-16.74c18.49.36,36.98.15,55.46-.4,0,.02.02.04.03.06-9.15,11.6-18.51,23.03-28.48,33.94ZM127.23,95.89c-13.74-2.98-23.47-15.72-21.7-29.87,1.08-8.64,6.12-15.87,13.19-19.95,3.31,7.42,6.67,14.81,10.1,22.18,1.63,3.5,6.8.45,5.18-3.03-3.33-7.15-6.6-14.33-9.82-21.54,2.2-.67,4.52-1.07,6.92-1.15,15.23-.21,27.25,12.3,27.28,27.35.04,16.84-14.53,29.62-31.17,26.01Z"/>
</svg>