<?xml version="1.0" encoding="UTF-8"?>
<svg id="a" data-name="Ebene 2" xmlns="http://www.w3.org/2000/svg" width="122.93" height="113.6" viewBox="0 0 122.93 113.6">
  <path d="M104.86,35.59c-1.02,0-2.01.1-2.98.26v-13.55c0-1.89.04-7.65-5.2-12.91C90.48,3.16,79.19,0,63.12,0s-27.28,3.19-33.53,9.49c-3.52,3.54-5.28,7.86-5.24,12.82v13.56c-1.75-.5-3.6-.78-5.53-.78C8.44,35.1,0,42.99,0,52.69,0,59.24,3.8,65.12,9.85,68.17l.05,22.71c0,4.33,3.33,7.89,7.53,8.21v14.51h8.23l.5-.19c.4-.15,9.16-3.51,10.57-14.29h49.06c1.41,10.78,10.17,14.14,10.57,14.29l.5.19h8.23v-14.56c3.98-.54,7.07-3.99,7.07-8.16v-22.07c6.44-2.74,10.77-8.98,10.77-15.87,0-9.56-8.1-17.35-18.06-17.35ZM30.35,22.26c0-1.23-.04-4.98,3.5-8.54,3.49-3.52,11.41-7.72,29.27-7.72s25.85,4.14,29.31,7.62c3.48,3.5,3.46,7.24,3.46,8.65v15.64c-5.42,3-9.09,8.6-9.09,15.03v5.07c-6.01-3.96-14.4-5.97-25.04-5.97s-18.2,1.68-24.11,5v-4.35c0-5.64-2.87-10.66-7.29-13.88v-16.55ZM35.89,66c4.54-5.21,13.48-7.96,25.86-7.96,11.67,0,20.35,2.69,25.08,7.77,2.49,2.67,3.48,5.5,3.87,7.51h-58.12c.24-1.94,1.02-4.7,3.3-7.32ZM24.49,107.6h-1.06v-8.48h7.22c-1.06,5.52-4.89,7.85-6.16,8.48ZM99.09,107.6h-1.06c-1.3-.65-5.11-2.97-6.16-8.48h7.22v8.48ZM108.34,63.81l-2.18.62v26.46c0,1.24-.97,2.25-2.16,2.25H18.06c-1.19,0-2.16-1.01-2.16-2.25l-.06-26.74-1.94-.73c-4.8-1.81-7.91-6.01-7.91-10.71,0-6.39,5.75-11.59,12.82-11.59s12.82,5.2,12.82,11.59v9.07c-.13.14-.27.28-.39.43-5.78,6.75-4.69,14.27-4.64,14.59l.39,2.54h69.68l.24-2.74c.02-.3.5-6.71-4.13-12.96v-10.68c0-6.26,5.41-11.35,12.06-11.35s12.06,5.09,12.06,11.35c0,4.97-3.53,9.44-8.59,10.87Z"/>
</svg>