<?xml version="1.0" encoding="UTF-8"?>
<svg id="a" data-name="Ebene 2" xmlns="http://www.w3.org/2000/svg" width="125.63" height="114.17" viewBox="0 0 125.63 114.17">
  <path d="M124.21,52.62c-2.27-2.49-5.17-4.61-7.68-6.85-12.22-10.9-24.43-21.8-36.65-32.7-3.9-3.48-7.74-7.07-11.72-10.46-3.77-3.22-7.74-3.62-11.64-.3-10.27,8.73-19.94,18.29-29.87,27.4-5.81,5.33-11.62,10.66-17.43,15.99-2.54,2.33-5.7,4.58-7.9,7.25-2.66,3.22-1,7.48,2.85,8.65.47.14.9.17,1.29.12,2.46,0,7.42-.62,9.1.44,1.02.64.45,4.86.44,6.49-.01,3.21-.04,6.41-.09,9.62-.08,6.55-.2,13.09-.31,19.63-.07,4.29-1.26,10.18,1.82,13.69,2.79,3.19,7.5,2.48,11.3,2.48,5.61,0,11.22,0,16.83,0h0s35.66,0,35.66,0h0c5.29,0,10.58,0,15.87,0,3.35,0,8.09.73,11.01-1.25,4.61-3.11,3.34-9.92,3.31-14.72-.04-8.51-.08-17.02-.12-25.53-.02-3.1-.03-6.2-.04-9.31-.01-2.47-.67-2.51,1.62-2.38,2.98.17,6.49.4,9.45-.09,4.14-.68,5.74-5.05,2.92-8.15ZM50.54,74.46c0-.96.89-1.75,1.98-1.75h19.69c1.09,0,1.98.78,1.98,1.75v33.58c-6.88,0-13.77,0-20.65,0-1,0-2,0-3,0v-33.58ZM108.07,55.19c-4.91,1.72-3.85,7.65-3.83,11.7.04,7.72.07,15.43.11,23.15.02,3.43.03,6.87.05,10.3,0,1.65.52,4.21.03,5.83-.89,2.95-5.33,1.87-7.78,1.87-5.48,0-10.97,0-16.45,0v-33.58c0-4.27-3.59-7.74-7.99-7.74h-19.69c-4.4,0-7.98,3.48-7.98,7.75v33.58c-4.82,0-9.64,0-14.47,0-2.14,0-4.52.29-6.64,0-2.58-.36-2.96-1.29-2.92-4.3.15-13.08.52-26.15.48-39.23-.01-4.76-1-7.93-6.19-8.37-2.56-.22-5.14-.28-7.72-.37.06-.06.12-.12.18-.17,1.72-1.57,3.43-3.15,5.15-4.72l15.92-14.6c10.13-9.29,20.25-18.58,30.38-27.86,2.31-2.12,3.11-3.1,5.77-1.06,3.92,3,7.47,6.66,11.15,9.95,11.38,10.16,22.77,20.31,34.15,30.47,2.01,1.79,4.02,3.59,6.03,5.38.38.34.96,1.01,1.59,1.67-2.9-.04-6.58-.6-9.33.37Z"/>
</svg>