<?xml version="1.0" encoding="UTF-8"?>
<svg id="a" data-name="Ebene 2" xmlns="http://www.w3.org/2000/svg" width="124.82" height="114.6" viewBox="0 0 124.82 114.6">
  <path d="M122.26,20.5c-1.64-.25-3.16.89-3.41,2.53l-2.53,17.14C105.29,17.58,85.69,2.29,64.21.24,41.23-1.96,19.81,11.15,5.45,36.2c-.82,1.44-.33,3.27,1.11,4.09,1.44.83,3.27.33,4.09-1.11C23.79,16.27,43.1,4.25,63.64,6.21c20.01,1.91,38.28,16.75,48.21,38.55l-19.29-10.46c-1.46-.79-3.28-.25-4.07,1.21-.79,1.46-.25,3.28,1.21,4.07l26.57,14.41s.02,0,.04.01c.19.1.4.18.61.24.04.01.08.02.13.03.22.05.43.08.66.08.2,0,.41-.03.61-.07.06-.01.11-.03.17-.04.07-.02.13-.03.2-.05.08-.03.14-.07.22-.1.05-.02.1-.03.15-.05.03-.01.05-.03.07-.05.15-.08.3-.18.43-.28.04-.03.08-.06.12-.09.17-.15.32-.31.45-.48.03-.04.05-.08.08-.12.09-.14.18-.29.25-.45.03-.07.05-.14.08-.21.05-.14.09-.29.12-.44,0-.04.03-.08.03-.12l4.12-27.88c.24-1.64-.89-3.16-2.53-3.41Z"/>
  <path d="M118.26,74.31c-1.44-.83-3.27-.33-4.09,1.11-13.14,22.91-32.45,34.93-52.99,32.97-20.01-1.91-38.28-16.75-48.21-38.55l19.29,10.46c1.46.79,3.28.25,4.07-1.21.79-1.46.25-3.28-1.21-4.07l-26.57-14.41s-.04-.01-.05-.02c-.19-.1-.4-.18-.61-.24-.03,0-.06,0-.1-.02-.18-.04-.37-.07-.55-.08-.07,0-.15,0-.22,0-.14,0-.29.02-.43.04-.08.02-.17.04-.25.06-.06.02-.12.02-.19.04-.08.03-.15.07-.22.1-.05.02-.1.03-.14.05-.03.01-.05.03-.07.05-.15.08-.3.18-.43.28-.04.03-.08.06-.12.09-.17.15-.32.31-.45.48-.03.04-.05.08-.08.12-.09.14-.18.29-.25.45-.03.07-.05.14-.08.21-.05.14-.09.29-.12.44,0,.04-.03.08-.03.12L.03,90.7c-.24,1.64.89,3.16,2.53,3.41.15.02.3.03.44.03,1.46,0,2.74-1.07,2.96-2.56l2.53-17.14c11.03,22.59,30.63,37.88,52.11,39.93,1.66.16,3.31.24,4.96.24,21.08,0,40.48-12.96,53.81-36.2.82-1.44.33-3.27-1.11-4.09Z"/>
</svg>