<?xml version="1.0" encoding="UTF-8"?>
<svg id="a" data-name="Ebene 2" xmlns="http://www.w3.org/2000/svg" width="110.96" height="119.79" viewBox="0 0 110.96 119.79">
  <path d="M110.96,26.72c0-.23-.03-.45-.08-.67,0-.03-.01-.07-.02-.1-.06-.21-.14-.41-.23-.6-.02-.04-.04-.07-.06-.1-.11-.19-.23-.37-.38-.53-.02-.02-.04-.04-.06-.06-.15-.16-.32-.31-.51-.43,0,0-.01-.01-.02-.02,0,0,0,0,0,0-.13-.08-.26-.16-.4-.22L57.42.79c-2.42-1.08-5.17-1.05-7.56.1L1.7,24.02c-.1.05-.2.11-.3.17-.01,0-.03.01-.04.02,0,0,0,0-.01.01-.19.12-.35.27-.51.43-.03.03-.05.05-.08.08-.14.16-.27.33-.37.52-.02.03-.04.07-.05.1-.1.19-.18.39-.24.61,0,.02,0,.05-.01.07-.05.21-.08.43-.08.65,0,.02,0,.03,0,.05v61.02c0,2.7,1.5,5.14,3.91,6.35l50.22,25.37c.12.06.24.09.36.13.08.03.15.06.23.09.25.06.5.1.75.1s.51-.04.75-.1c.08-.02.16-.06.23-.09.12-.04.25-.07.36-.13l50.22-25.37c2.41-1.22,3.91-3.65,3.91-6.35V26.72s0,0,0,0ZM52.46,6.3c.79-.38,1.71-.39,2.5-.03l45.62,20.45-40.1,17.76-5,2.22L19.31,30.66l-9.15-4.05L52.46,6.3ZM6,87.75V31.33l46.48,20.59v60L6.61,88.75c-.38-.19-.61-.57-.61-1ZM104.35,88.75l-45.87,23.17v-60l46.48-20.59v56.41c0,.42-.24.81-.61,1Z"/>
  <path d="M69.36,63.63l3.99-2.01c.4-.2.65-.61.65-1.06v-5.15c0-.86-.88-1.43-1.66-1.08l-3.99,1.77c-.43.19-.7.61-.7,1.08v5.4c0,.88.93,1.45,1.72,1.06Z"/>
  <path d="M95.25,50.76v-5.15c0-.86-.88-1.43-1.66-1.08l-3.99,1.77c-.43.19-.7.61-.7,1.08v5.4c0,.88.93,1.45,1.72,1.06l3.99-2.01c.4-.2.65-.61.65-1.06Z"/>
  <path d="M95.4,76.48l-3.99,1.77c-.43.19-.7.61-.7,1.08v5.4c0,.88.93,1.45,1.72,1.06l3.99-2.01c.4-.2.65-.61.65-1.06v-5.15c0-.86-.88-1.43-1.66-1.08Z"/>
  <path d="M72.52,87.38l-3.99,1.77c-.43.19-.7.61-.7,1.08v5.4c0,.88.93,1.45,1.72,1.06l3.99-2.01c.4-.2.65-.61.65-1.06v-5.15c0-.86-.88-1.43-1.66-1.08Z"/>
  <path d="M83.78,66.5l-3.99,1.77c-.43.19-.7.61-.7,1.08v5.4c0,.88.93,1.45,1.72,1.06l3.99-2.01c.4-.2.65-.61.65-1.06v-5.15c0-.86-.88-1.43-1.66-1.08Z"/>
  <path d="M42.79,56.1l-3.99-1.77c-.78-.35-1.66.23-1.66,1.08v5.15c0,.45.25.86.65,1.06l3.99,2.01c.79.4,1.72-.17,1.72-1.06v-5.4c0-.47-.28-.89-.7-1.08Z"/>
  <path d="M19.73,78.25l-3.99-1.77c-.78-.35-1.66.23-1.66,1.08v5.15c0,.45.25.86.65,1.06l3.99,2.01c.79.4,1.72-.17,1.72-1.06v-5.4c0-.47-.28-.89-.7-1.08Z"/>
  <path d="M31.35,68.26l-3.99-1.77c-.78-.35-1.66.23-1.66,1.08v5.15c0,.45.25.86.65,1.06l3.99,2.01c.79.4,1.72-.17,1.72-1.06v-5.4c0-.47-.28-.89-.7-1.08Z"/>
  <path d="M50.68,27.32l4.3,1.91c.31.14.67.14.99,0l4.22-1.87c.96-.43.97-1.79,0-2.23l-4.45-1.99c-.33-.15-.7-.14-1.03.01l-4.07,1.96c-.94.45-.92,1.79.03,2.21Z"/>
</svg>