<?xml version="1.0" encoding="UTF-8"?>
<svg id="a" data-name="Ebene 2" xmlns="http://www.w3.org/2000/svg" width="129.5" height="112.1" viewBox="0 0 129.5 112.1">
  <path d="M95.9,112.1H31.62c-1.39,0-2.69-.54-3.67-1.53s-1.51-2.29-1.5-3.68l.5-59.58-8.47,5.19c-1.19.73-2.6.95-3.96.61-1.36-.34-2.5-1.19-3.2-2.4L.72,32.62c-1.37-2.33-.74-5.27,1.48-6.84L34.56,1.52c3.14-2.22,7.29-1.93,9.94.63,14.24,13.75,34.26,6.62,41.81-.26,2.66-2.42,6.62-2.54,9.41-.27l31.86,25.82c2.14,1.74,2.55,4.84.92,7.07l-13.75,18.8c-.83,1.14-2.06,1.87-3.45,2.07-1.39.2-2.77-.17-3.88-1.03l-7.33-5.67.98,58.17c.02,1.4-.5,2.71-1.48,3.71s-2.29,1.54-3.69,1.54ZM32.46,106.1h62.6l-1-59.05c-.03-2.01,1.06-3.81,2.85-4.71,1.79-.9,3.89-.69,5.48.53l8.03,6.21,12.78-17.48-31.25-25.32c-.47-.38-1.15-.36-1.6.05-10.41,9.48-33.51,16.07-50.02.13-.57-.55-1.53-.59-2.24-.1L6.27,30.23l9.79,16.71,9.03-5.53c1.6-.98,3.61-1.02,5.25-.09,1.63.92,2.64,2.66,2.62,4.54l-.5,60.24ZM5.75,30.62l-.03.02s.02-.01.03-.02Z"/>
</svg>