<?xml version="1.0" encoding="UTF-8"?>
<svg id="a" data-name="Ebene 2" xmlns="http://www.w3.org/2000/svg" width="166.89" height="87.3" viewBox="0 0 166.89 87.3">
  <path d="M31.37,40.04c-2.97-.64-6.57.83-9.52,1.38-3.7.66-7.22.94-8.04,5.32-1.17,6.28.34,14.02.78,20.36.27,3.86.68,7.7,5.06,8.69,3.94.89,8.79.04,12.65-.9,3.78-.92,6.66-2.75,6.97-6.97.42-5.76-1.31-12.54-2.34-18.2-.67-3.7-1.15-8.73-5.56-9.68ZM30.18,69.23c-2.24.5-5.58,1.27-7.89.82-.33-.02-.65-.03-.98-.05-.89.11-1.09-.26-.6-1.08-.63-1.33-.27-4.03-.36-5.44-.22-3.63-.4-7.26-.53-10.9-.02-.46-.63-4.45-.39-4.72.48-.52,3.27-.52,4.01-.65,1.48-.28,2.96-.59,4.44-.88,1.31-.26,1.74-.41,2.24.05.77.7.85,4.01,1.01,4.93.7,3.87,1.22,7.76,1.7,11.66.38,3.12.97,5.44-2.66,6.25Z"/>
  <path d="M162.53,5.78c-3.34-8.29-9.85-5.75-17.05-3.94-10.96,2.76-21.91,5.56-32.86,8.37-21.36,5.49-42.71,11.04-64.06,16.58-3.51-2.48-8.38-1.27-12.71-.47-9.3,1.72-19.28,2.66-28.33,5.45C1.71,33.55-.3,38.16.04,43.94c.46,8.18,1.04,16.37,1.58,24.55.34,5.19-.5,12.91,4.16,16.53,4.76,3.69,12.86,1.87,18.3,1.54,8.38-.51,16.83-1.19,25.12-2.53,4.93-.8,8.44-3.19,9.28-8.33.09-.54.16-1.09.22-1.64.89-.18,1.78-.39,2.67-.48,2.03-.22,3.67-.26,5.49.72,1.81.98,3.21,2.62,5.31,3.1,2.28.51,4.25-.33,5.74-2.06,1.11-1.3,1.56-2.94,2.32-4.43,1.57-3.07,2.2-1.68,5.36-1.24,2.56.35,5.09.09,6.86-2.02.77-.92,1.11-1.99,1.4-3.14.5-1.95-.2-2.62,1.96-3.22,3.61-1,7.71,2.14,11.31.08,2.97-1.7,1.37-3.96,2.67-6.32.78-1.43.6-.97,3.02-.85,1.83.09,3.74.35,5.57.29,2.78-.09,4.94-1.03,5.86-3.81.38-1.16.47-2.48.52-3.71,0-.17-.06-.77-.08-1.32.25-.06.66-.16,1.18-.01,2.42.71,8.19.81,10.45-.76,1.92-1.34,2.49-3.94,2.26-6.16-.01-.15.03-.76,0-1.23.55,0,1.43-.18,1.84-.17,2.27.08,4.61.35,6.87.05,2.16-.28,4.3-1.14,5.44-3.12.62-1.08.81-2.4.82-3.62.03-2.53-1.3-1.85.77-2.26,2.71-.54,5.6,1.21,8.45.41,2.39-.67,3.75-2.38,4.02-4.81.66-5.88-2.25-12.79-4.26-18.19ZM46.67,78.38c-3.76.56-7.56.95-11.34,1.31-7.12.67-14.44,1.46-21.59,1.37-4.02-.05-5.2-.98-5.58-5.06-.35-3.75-.55-7.52-.79-11.28-.43-6.93-.95-13.85-1.34-20.78-.18-3.04-.04-5.25,3.09-6.4,3.3-1.21,7.15-1.51,10.6-2.17,3.73-.71,7.46-1.4,11.19-2.08,3.36-.62,7.13-1.84,10.54-1.92,3.2-.07,4.26.7,5.29,3.58.62,1.73,1.09,3.53,1.57,5.3.89,3.26,1.65,6.56,2.27,9.89.27,1.44.53,2.91.77,4.39.84,5.59,1.27,11.22,1.37,16.88-.02.6-.03,1.2-.06,1.79-.25,4.17-2.27,4.62-6,5.18ZM159.66,22.98c-1.23.07-2.54-.32-3.77-.45-2.13-.24-4.42-.46-6.29.78-2.21,1.46-2.02,3.32-2.22,5.62-.16,1.78.18,2.18-2.01,2.55-2.1.36-4.53-.24-6.66-.22-2.3.03-4.34.3-5.57,2.47-.55.98-.61,2.15-.66,3.24-.09,2.21.6,2.3-1.57,2.8-4.87,1.12-11.55-2.46-12.18,4.98-.08.95.48,2.8-.2,3.55-.66.73-3.8-.02-4.86-.07-2.55-.13-5.43-.68-7.58,1-1.59,1.25-1.97,2.96-2.23,4.89-.16,1.17-.39,2.47-.2,2.38-.23.1-5.4-1.02-6.85-1.12-2.54-.18-5.15-.16-6.95,1.9-1.52,1.74-.95,4.78-2.59,5.96-2.16,1.57-6.18-1.55-9.12.36-1.35.88-2.03,2.14-2.73,3.53-1.23,2.46-1.22,4.3-4.2,2.94-3.26-1.49-4.6-2.73-8.43-2.61-1.29.04-2.59.34-3.88.59-.13-4.28-.75-8.66-1.4-12.79-.24-1.74-.51-3.48-.82-5.22-.9-5.83-1.96-12.59-4.41-18.03,16.78-4.36,33.56-8.72,50.36-13.05,9.01-2.32,18.03-4.64,27.05-6.94,4.51-1.15,9.02-2.29,13.53-3.43,2.94-.74,12.13-4.7,13.53-1.23,1.55,4.17,4.58,10.44,4.06,14.95-.15,1.3.69.55-1.15.66Z"/>
</svg>